<svg width="56" height="56" viewBox="0 0 56 56" fill="none" xmlns="http://www.w3.org/2000/svg">
<circle cx="28" cy="28" r="28" fill="#5DD7FF"/>
<mask id="mask0" style="mask-type:alpha" maskUnits="userSpaceOnUse" x="0" y="0" width="56" height="56">
<circle cx="28" cy="28" r="28" fill="#97DFF8"/>
</mask>
<g mask="url(#mask0)">
<path d="M15.399 63.0167C15.5352 63.0167 15.6659 62.9626 15.7623 62.8663C15.8586 62.7699 15.9127 62.6393 15.9127 62.503V48.1182C15.9127 47.982 15.8586 47.8513 15.7623 47.755C15.6659 47.6586 15.5352 47.6045 15.399 47.6045C15.2627 47.6045 15.1321 47.6586 15.0357 47.755C14.9394 47.8513 14.8853 47.982 14.8853 48.1182V62.503C14.8853 62.6393 14.9394 62.7699 15.0357 62.8663C15.1321 62.9626 15.2627 63.0167 15.399 63.0167Z" fill="#292929"/>
<path d="M42.9001 43.099C43.0028 42.5852 43.085 42.0407 43.1415 41.491C43.6553 36.6207 41.8469 31.9456 40.8143 29.9369C41.5987 29.681 42.2878 29.1948 42.7922 28.5418C43.2965 27.8888 43.5925 27.0991 43.6419 26.2755C43.6912 25.4519 43.4915 24.6325 43.0687 23.9239C42.646 23.2154 42.0197 22.6505 41.2715 22.3027C41.7135 20.3477 41.7098 18.3183 41.2608 16.3649C40.8118 14.4115 39.9289 12.5842 38.6776 11.0184C37.4263 9.45262 35.8386 8.18853 34.0323 7.3198C32.226 6.45108 30.2474 6 28.243 6C26.2387 6 24.26 6.45108 22.4537 7.3198C20.6474 8.18853 19.0598 9.45262 17.8085 11.0184C16.5572 12.5842 15.6743 14.4115 15.2253 16.3649C14.7762 18.3183 14.7726 20.3477 15.2145 22.3027C14.3129 22.7244 13.5949 23.4591 13.194 24.3702C12.793 25.2813 12.7364 26.3069 13.0345 27.2566C13.3327 28.2063 13.9654 29.0156 14.8151 29.534C15.6649 30.0525 16.6739 30.2449 17.6548 30.0756C19.0573 33.194 21.251 35.9837 24.1331 37.3913V39.3846C24.1331 40.3384 23.7542 41.2531 23.0798 41.9275C22.4054 42.6019 21.4907 42.9808 20.5369 42.9808H15.3995C13.3557 42.9808 11.3956 43.7927 9.95043 45.2379C8.50525 46.6831 7.69336 48.6432 7.69336 50.6869V62.503C7.69336 62.6393 7.74749 62.7699 7.84383 62.8663C7.94018 62.9626 8.07085 63.0168 8.2071 63.0168C8.34335 63.0168 8.47403 62.9626 8.57037 62.8663C8.66672 62.7699 8.72084 62.6393 8.72084 62.503V50.6869C8.72084 48.9157 9.42448 47.2169 10.677 45.9644C11.9295 44.7119 13.6282 44.0083 15.3995 44.0083H20.167L22.6176 51.3651C22.6431 51.4407 22.6858 51.5093 22.7425 51.5654C22.7991 51.6216 22.868 51.6638 22.9438 51.6888C23.0195 51.7137 23.1001 51.7206 23.179 51.709C23.2579 51.6974 23.333 51.6676 23.3984 51.622L28.243 48.2313L32.3221 51.0877C32.0249 52.0548 31.6663 53.002 31.2484 53.9235C30.7347 55.0538 30.4264 55.8038 31.0224 56.2405C31.1719 56.3472 31.3526 56.4013 31.5361 56.3946C32.8975 56.3946 35.2813 53.9287 36.3653 52.5467C37.1869 51.4825 37.8897 50.3317 38.4614 49.1149C38.3432 50.1064 38.4614 50.5123 38.8724 50.6561C38.9732 50.6882 39.0801 50.6961 39.1846 50.6792C39.289 50.6622 39.388 50.6209 39.4734 50.5585C40.1566 49.9202 40.705 49.1516 41.0866 48.298V62.503C41.0866 62.6393 41.1407 62.7699 41.237 62.8663C41.3334 62.9626 41.4641 63.0168 41.6003 63.0168C41.7366 63.0168 41.8672 62.9626 41.9636 62.8663C42.0599 62.7699 42.1141 62.6393 42.1141 62.503V48.1182C42.1138 48.0349 42.0933 47.953 42.0543 47.8793C42.0154 47.8057 41.9591 47.7427 41.8903 47.6957C41.8216 47.6487 41.7424 47.6191 41.6597 47.6094C41.5769 47.5998 41.4931 47.6105 41.4154 47.6405C41.9488 46.5037 42.372 45.3183 42.6792 44.1008C44.2418 44.3566 45.6628 45.1592 46.6885 46.3656C47.7141 47.572 48.2778 49.1035 48.279 50.6869V62.503C48.279 62.6393 48.3331 62.7699 48.4294 62.8663C48.5258 62.9626 48.6565 63.0168 48.7927 63.0168C48.929 63.0168 49.0596 62.9626 49.156 62.8663C49.2523 62.7699 49.3064 62.6393 49.3064 62.503V50.6869C49.3046 48.8699 48.6607 47.1119 47.4885 45.7234C46.3163 44.335 44.6912 43.4055 42.9001 43.099ZM42.6278 26.0273C42.6278 26.8449 42.303 27.6289 41.725 28.207C41.1469 28.785 40.3629 29.1098 39.5454 29.1098H39.3296C39.8353 27.7407 40.1935 26.3216 40.3982 24.8766C40.4199 24.8494 40.4388 24.8202 40.4547 24.7892C40.6645 24.3139 40.8464 23.8268 40.9992 23.3302C41.4882 23.5917 41.8975 23.9803 42.1842 24.455C42.4708 24.9297 42.624 25.4729 42.6278 26.0273ZM28.243 7.01889C31.5131 7.01889 34.6492 8.31792 36.9615 10.6302C39.2738 12.9425 40.5728 16.0786 40.5728 19.3487C40.5717 19.8744 40.5374 20.3994 40.4701 20.9207C40.4701 20.7204 40.429 20.5149 40.393 20.3197C40.3812 20.2532 40.3565 20.1897 40.3202 20.1328C40.2838 20.0759 40.2366 20.0267 40.1813 19.9881C40.1259 19.9495 40.0635 19.9221 39.9976 19.9076C39.9317 19.8931 39.8635 19.8917 39.7971 19.9035H39.756H39.7149C37.9194 19.148 36.2413 18.1394 34.7316 16.9084C33.5283 15.9077 32.6561 14.5663 32.2297 13.0605C32.1046 12.6879 31.9588 12.3226 31.793 11.9662C31.7653 11.9141 31.7288 11.8672 31.6851 11.8275H31.6491C31.61 11.7975 31.5667 11.7733 31.5207 11.7556C31.4848 11.7518 31.4487 11.7518 31.4128 11.7556C31.3891 11.714 31.3597 11.676 31.3255 11.6426C31.2583 11.6581 31.1915 11.6752 31.1251 11.6939C31.1051 11.7079 31.0863 11.7234 31.0686 11.7402C31.0351 11.7605 31.0041 11.7847 30.9761 11.8121C30.9397 11.8673 30.9054 11.9238 30.8734 11.9816C30.868 12.0243 30.868 12.0674 30.8734 12.1101C30.8516 12.1238 30.831 12.1393 30.8117 12.1563C30.8374 12.8396 29.8613 15.6395 27.8526 17.9667C26.9484 18.9942 25.3866 19.8778 23.6245 20.4532C23.5873 20.4612 23.5511 20.4733 23.5166 20.4892C21.1894 21.229 18.523 21.4499 16.5708 20.8899C16.4784 20.867 16.3814 20.8702 16.2906 20.8993C16.1999 20.9283 16.1191 20.982 16.0571 21.0543C15.8134 19.3101 15.9463 17.5339 16.4467 15.8454C16.9471 14.1568 17.8034 12.5951 18.958 11.2652C20.1126 9.93535 21.5388 8.86828 23.1404 8.13582C24.742 7.40336 26.4819 7.0225 28.243 7.01889ZM16.9407 29.1098C16.2572 29.1055 15.5945 28.874 15.0569 28.452C14.5192 28.0299 14.1371 27.4411 13.9706 26.7781C13.8042 26.1152 13.8628 25.4157 14.1372 24.7897C14.4117 24.1637 14.8864 23.6467 15.4868 23.3199C15.6224 23.7541 15.7802 24.1811 15.9595 24.5991C15.9911 24.6705 16.0385 24.7338 16.0982 24.7841C16.3173 26.2642 16.7016 27.7152 17.2438 29.1098C17.1411 29.1098 17.0435 29.1098 16.9407 29.1098ZM16.9407 22.4311C16.9407 22.3078 16.9407 22.1845 16.9407 22.0561C17.6383 22.1897 18.3471 22.255 19.0573 22.2513C20.6583 22.2369 22.248 21.9823 23.7735 21.4961C24.358 21.5821 24.935 21.7126 25.4997 21.8866C25.6291 21.9295 25.7703 21.9192 25.8922 21.8581C26.014 21.7969 26.1066 21.6898 26.1495 21.5604C26.1925 21.4309 26.1822 21.2897 26.121 21.1678C26.0598 21.046 25.9527 20.9534 25.8233 20.9105L25.5202 20.818C26.6871 20.3172 27.7368 19.5788 28.6027 18.65C29.8122 17.2335 30.7619 15.6142 31.4077 13.8671C31.9095 15.3647 32.8272 16.6886 34.0535 17.6842C35.6533 18.9932 37.436 20.0611 39.345 20.854H39.3964C39.4825 21.3756 39.5323 21.9026 39.5454 22.4311C39.5454 28.6782 35.6152 37.3297 28.243 37.3297C27.0901 37.3269 25.9513 37.0763 24.9037 36.595C24.8696 36.5755 24.8334 36.56 24.7958 36.5488C19.9101 34.2472 16.9407 27.4196 16.9407 22.4311ZM32.8667 41.2598C32.5265 40.6938 32.3488 40.045 32.353 39.3846V37.4684C32.9689 37.1835 33.5556 36.8394 34.1048 36.4409C33.4813 37.9855 33.065 39.6059 32.8667 41.2598ZM25.1606 39.3846V37.8434C26.151 38.1902 27.1937 38.364 28.243 38.3571C29.2914 38.3519 30.3321 38.1785 31.3255 37.8434V39.3846C31.3263 40.0141 31.4557 40.6368 31.7057 41.2146C31.9557 41.7923 32.3211 42.3129 32.7794 42.7445C32.7704 43.4996 32.8081 44.2545 32.8924 45.005V45.1848C31.6526 46.4053 29.9828 47.0898 28.243 47.0908C27.0465 47.0865 25.8728 46.7629 24.8432 46.1532C23.8136 45.5436 22.9654 44.6701 22.3864 43.623C23.211 43.2631 23.9128 42.6704 24.4055 41.9175C24.8983 41.1647 25.1607 40.2844 25.1606 39.3846ZM23.3728 50.3838L21.251 44.0083H21.4308C21.9754 45.0298 22.7415 45.9166 23.6731 46.6037C24.6046 47.2908 25.6781 47.7609 26.8148 47.9795L23.3728 50.3838ZM29.6764 47.9795C30.8885 47.7519 32.0273 47.2336 32.9951 46.4691C33.0102 47.1685 32.9672 47.8678 32.8667 48.5601C32.7948 49.0738 32.7023 49.5875 32.5944 50.0242L29.6764 47.9795ZM39.5043 48.9762C39.5865 48.4111 39.7098 47.7227 39.8022 47.2192C40.1773 45.1642 40.2697 44.6916 39.6687 44.5375C39.0676 44.3833 38.9648 44.8765 38.672 45.7447C37.9926 47.9658 36.9322 50.0519 35.5382 51.9096C34.0843 53.7745 32.4557 55.0178 31.7827 55.3055C31.8701 55.0486 32.0344 54.6736 32.1834 54.3345C33.023 52.5439 33.5959 50.64 33.8839 48.6833C34.0503 47.4321 34.0537 46.1646 33.8942 44.9125C33.765 43.7774 33.765 42.6312 33.8942 41.4961C34.1476 39.2254 34.8255 37.0226 35.8926 35.0024C35.9256 34.9386 35.9449 34.8686 35.9492 34.7969C37.1991 33.4044 38.2063 31.8119 38.9289 30.0859C39.1328 30.1184 39.3389 30.1355 39.5454 30.1373H39.7509C40.691 31.8223 42.6278 36.5025 42.1141 41.3882C41.8185 44.0792 40.9288 46.671 39.5094 48.9762H39.5043Z" fill="#292929"/>
<path d="M28.2433 34.2474C29.1155 34.2201 29.9714 34.0039 30.752 33.6136C31.5325 33.2234 32.2191 32.6684 32.7642 31.987C32.846 31.878 32.8811 31.7409 32.8618 31.6061C32.8425 31.4712 32.7705 31.3495 32.6615 31.2677C32.5525 31.186 32.4155 31.1509 32.2806 31.1701C32.1457 31.1894 32.024 31.2615 31.9422 31.3705C31.4902 31.9213 30.9272 32.3708 30.2899 32.6894C29.6525 33.0081 28.9552 33.1889 28.2433 33.2199C27.6094 33.2322 26.9838 33.0743 26.4317 32.7625C25.8796 32.4508 25.4212 31.9967 25.1043 31.4475C25.043 31.3256 24.9358 31.233 24.8062 31.1901C24.6766 31.1472 24.5353 31.1576 24.4133 31.2189C24.2914 31.2802 24.1988 31.3875 24.1559 31.5171C24.1131 31.6466 24.1234 31.7879 24.1847 31.9099C24.5876 32.6292 25.1775 33.2263 25.892 33.6378C26.6065 34.0493 27.4189 34.2599 28.2433 34.2474Z" fill="#292929"/>
<path d="M22.5919 25.0003C23.1594 25.0003 23.6194 24.5403 23.6194 23.9728C23.6194 23.4053 23.1594 22.9453 22.5919 22.9453C22.0245 22.9453 21.5645 23.4053 21.5645 23.9728C21.5645 24.5403 22.0245 25.0003 22.5919 25.0003Z" fill="#292929"/>
<path d="M30.9766 21.8915C31.9222 21.5956 32.9041 21.4314 33.8946 21.4035C34.8851 21.4314 35.867 21.5956 36.8127 21.8915C36.9421 21.9344 37.0833 21.9242 37.2052 21.863C37.3271 21.8018 37.4196 21.6947 37.4626 21.5653C37.5055 21.4358 37.4952 21.2947 37.434 21.1728C37.3729 21.0509 37.2658 20.9583 37.1363 20.9154C36.0867 20.5831 34.9953 20.4015 33.8946 20.376C32.7922 20.401 31.699 20.5827 30.6478 20.9154C30.5183 20.9583 30.4112 21.0509 30.3501 21.1728C30.2889 21.2947 30.2786 21.4358 30.3215 21.5653C30.3645 21.6947 30.457 21.8018 30.5789 21.863C30.7008 21.9242 30.842 21.9344 30.9714 21.8915H30.9766Z" fill="#292929"/>
<path d="M33.8947 25.0003C34.4621 25.0003 34.9222 24.5403 34.9222 23.9728C34.9222 23.4053 34.4621 22.9453 33.8947 22.9453C33.3272 22.9453 32.8672 23.4053 32.8672 23.9728C32.8672 24.5403 33.3272 25.0003 33.8947 25.0003Z" fill="#292929"/>
<path d="M28.2432 30.1377H29.2707C29.407 30.1377 29.5376 30.0836 29.634 29.9872C29.7303 29.8909 29.7845 29.7602 29.7845 29.624C29.7845 29.4877 29.7303 29.357 29.634 29.2607C29.5376 29.1643 29.407 29.1102 29.2707 29.1102H28.757V23.4591C28.757 23.3228 28.7029 23.1921 28.6065 23.0958C28.5102 22.9994 28.3795 22.9453 28.2432 22.9453C28.107 22.9453 27.9763 22.9994 27.88 23.0958C27.7836 23.1921 27.7295 23.3228 27.7295 23.4591V29.624C27.7295 29.7602 27.7836 29.8909 27.88 29.9872C27.9763 30.0836 28.107 30.1377 28.2432 30.1377Z" fill="#292929"/>
</g>
</svg>
