<svg width="56" height="57" viewBox="0 0 56 57" fill="none" xmlns="http://www.w3.org/2000/svg">
<circle cx="28" cy="28.9336" r="28" fill="#5DD7FF"/>
<circle cx="28" cy="28.9336" r="28" fill="#5DD7FF"/>
<mask id="mask0_1097_31732" style="mask-type:alpha" maskUnits="userSpaceOnUse" x="0" y="0" width="56" height="57">
<circle cx="28" cy="28.9336" r="28" fill="#97DFF8"/>
</mask>
<g mask="url(#mask0_1097_31732)">
<path d="M45.5465 44.7896L35.9241 41.8173H35.9236L34.6251 41.4165V39.5458L36.0483 38.3254C38.0439 36.6098 39.1883 34.1168 39.1883 31.4853V30.7129H39.732C41.6615 30.7129 43.2309 29.1435 43.2309 27.214V25.567C43.2309 24.9326 42.9814 24.3285 42.5212 23.859C42.1804 23.5253 41.761 23.3043 41.3096 23.2098C41.988 20.6882 41.9149 18.6811 41.0705 17.253C40.5186 16.3196 39.7732 15.871 39.3086 15.6687C41.0182 10.9135 38.3592 5.39485 38.2421 5.15575C38.1734 5.01612 38.0283 4.91717 37.8749 4.93586C37.7199 4.94081 37.5819 5.03701 37.5236 5.18049C36.5154 7.65043 32.9219 8.23206 28.7621 8.90545C26.186 9.32214 23.5227 9.75312 21.0956 10.6827C14.1136 13.3528 14.5869 21.2879 14.8089 23.1993C14.3367 23.2878 13.8969 23.5138 13.5385 23.865C13.085 24.3285 12.8349 24.9332 12.8349 25.567V27.214C12.8349 29.1435 14.4043 30.7129 16.3338 30.7129H16.8775V31.4853C16.8775 34.1168 18.022 36.6104 20.018 38.3266L21.4401 39.5426V41.4165L20.1416 41.8173H20.1411L10.517 44.7907C6.61897 46.0238 4 49.5954 4 53.6775V61.2824C4 61.5001 4.17646 61.6765 4.39415 61.6765H51.6792C51.8969 61.6765 52.0734 61.5001 52.0734 61.2824V53.6775C52.0734 49.5941 49.4511 46.0225 45.5459 44.7896L45.5465 44.7896ZM20.6529 42.4846L21.4412 42.2411V43.1328C21.4412 44.4636 22.0959 45.7158 23.1932 46.4823C24.6175 47.4773 26.2898 48.0034 28.0296 48.0034C28.6838 48.0034 29.3286 47.9292 29.9536 47.7846C30.9954 47.5433 31.9838 47.1046 32.8732 46.4829C33.5593 46.0035 34.0722 45.335 34.3607 44.5758C34.5339 44.1201 34.6257 43.6325 34.6257 43.1334V42.2412L35.414 42.4847V43.1334C35.414 44.7215 34.6328 46.2151 33.3245 47.1294C31.7677 48.2173 29.9371 48.7922 28.0295 48.7922C26.1274 48.7922 24.2991 48.2172 22.7423 47.1294H22.7418C21.434 46.2152 20.6528 44.7216 20.6528 43.1334L20.6529 42.4846ZM42.4434 25.5676V27.2145C42.4434 28.7098 41.2274 29.9253 39.7327 29.9253H39.189V28.3805C39.2891 28.4107 39.3924 28.4316 39.5018 28.4316C40.1076 28.4316 40.6002 27.939 40.6002 27.3333C40.6002 27.1156 40.4237 26.9391 40.206 26.9391C39.9883 26.9391 39.8119 27.1156 39.8119 27.3333C39.8119 27.5042 39.6728 27.6433 39.5018 27.6433C39.3309 27.6433 39.1923 27.5042 39.1923 27.3333C39.1923 27.3278 39.1896 27.3234 39.189 27.3179V26.8055C39.189 26.8 39.1923 26.7956 39.1923 26.7901C39.1923 26.297 39.5931 25.8963 40.0862 25.8963C40.5787 25.8963 40.9795 26.297 40.9795 26.7901C40.9795 27.0078 41.156 27.1843 41.3736 27.1843C41.5913 27.1843 41.7678 27.0078 41.7678 26.7901C41.7678 25.8627 41.0136 25.108 40.0862 25.108C39.7641 25.108 39.4661 25.2036 39.21 25.3609C39.3128 24.5638 39.9878 23.9432 40.8124 23.9432C41.244 23.9432 41.6557 24.113 41.9647 24.4159C42.2731 24.732 42.4435 25.141 42.4435 25.5676L42.4434 25.5676ZM21.3763 11.4187C23.7274 10.5182 26.3502 10.0938 28.8871 9.68318C32.8655 9.03946 36.353 8.47544 37.8499 6.23813C38.5194 7.92519 39.9043 12.2027 38.4304 15.7549C38.3859 15.8627 38.3914 15.9853 38.4452 16.0886C38.4991 16.192 38.5964 16.2662 38.7108 16.2909C38.7206 16.2926 39.7222 16.5213 40.3918 17.6542C41.1322 18.9071 41.1724 20.8123 40.51 23.1751C40.4742 23.1795 40.4407 23.191 40.405 23.1976C40.3483 23.2075 40.2934 23.2196 40.2384 23.2328C40.1466 23.2553 40.0575 23.2834 39.9701 23.3163C39.9196 23.3356 39.869 23.3532 39.8201 23.3757C39.7283 23.4175 39.6409 23.467 39.5556 23.5192C39.5177 23.5423 39.4781 23.5621 39.4418 23.5873C39.3253 23.6682 39.2143 23.7572 39.1137 23.8573C39.0774 23.4598 39.0246 23.0777 38.9625 22.7056C38.9471 22.6121 38.9268 22.5236 38.9092 22.4318C38.8493 22.1119 38.7789 21.8024 38.6992 21.5028C38.6717 21.3994 38.6448 21.2955 38.6145 21.1944C38.5057 20.8272 38.3864 20.4704 38.2462 20.1362C37.9587 19.4501 37.3831 18.924 36.6668 18.6931C35.9269 18.4551 35.1231 18.5513 34.4607 18.9581C33.4415 19.5831 32.4614 19.736 31.5504 19.4116C30.5384 19.0494 29.8017 18.1451 29.3608 16.724C29.0519 15.7268 28.2894 14.9132 27.3225 14.5482C26.4028 14.2013 25.4023 14.2931 24.5755 14.7977C24.2995 14.9665 24.0329 15.1529 23.7707 15.348C23.6899 15.4079 23.6118 15.4723 23.5326 15.5344C23.3501 15.6778 23.1704 15.8263 22.9945 15.9808C22.912 16.0533 22.8306 16.1253 22.7498 16.1995C22.5668 16.3683 22.3887 16.5426 22.2139 16.7212C22.1561 16.7801 22.0968 16.8367 22.0401 16.896C21.8115 17.1368 21.5899 17.3836 21.3761 17.6365C21.3354 17.6849 21.2975 17.7344 21.2568 17.7828C21.0842 17.9911 20.9159 18.2011 20.7532 18.4144C20.6895 18.4979 20.6273 18.5815 20.5652 18.6662C20.4256 18.8547 20.2898 19.0438 20.1573 19.234C20.1013 19.3148 20.0452 19.3946 19.9902 19.4748C19.8308 19.7101 19.6769 19.9448 19.5296 20.179C19.512 20.207 19.4927 20.2356 19.4751 20.2637C19.308 20.5308 19.1503 20.7947 18.9991 21.0558C18.9606 21.1223 18.9249 21.1866 18.8869 21.2526C18.7759 21.4472 18.6692 21.6391 18.567 21.8271C18.5258 21.9029 18.4862 21.9766 18.4466 22.0508C18.3482 22.2355 18.2553 22.4153 18.1663 22.5912C18.1371 22.6489 18.1063 22.7072 18.0783 22.7638C17.9651 22.9903 17.8584 23.2096 17.7611 23.4158C17.7518 23.435 17.7446 23.4515 17.7358 23.4707C17.6484 23.6565 17.5693 23.8308 17.495 23.9957C17.467 24.0589 17.4423 24.115 17.4159 24.1744C17.39 24.2332 17.3609 24.2981 17.3367 24.3536C17.3246 24.3327 17.3065 24.3162 17.2938 24.2959C17.2345 24.2013 17.1663 24.1139 17.0948 24.0287C17.0586 23.9853 17.0261 23.9385 16.9865 23.8979C16.8832 23.7901 16.7694 23.6939 16.6474 23.6065C16.6325 23.5955 16.6199 23.5818 16.6045 23.5713C16.4654 23.4768 16.3153 23.3993 16.1576 23.3349C16.1092 23.3152 16.0575 23.3047 16.008 23.2882C15.8948 23.2503 15.7804 23.2168 15.66 23.1964C15.6386 23.1926 15.6194 23.1832 15.5974 23.1799C15.3962 21.5698 14.8102 13.9298 21.376 11.4186L21.3763 11.4187ZM16.3336 29.9246C14.8384 29.9246 13.6229 28.7086 13.6229 27.2138V25.5669C13.6229 25.1403 13.7928 24.7313 14.0957 24.4223C14.4107 24.114 14.8224 23.9435 15.2545 23.9435C16.0791 23.9435 16.7541 24.5636 16.857 25.3607C16.6014 25.2035 16.3034 25.1078 15.9818 25.1078C15.0544 25.1078 14.2997 25.8626 14.2997 26.79C14.2997 27.0076 14.4761 27.1841 14.6938 27.1841C14.9115 27.1841 15.088 27.0076 15.088 26.79C15.088 26.2969 15.4887 25.8961 15.9818 25.8961C16.4749 25.8961 16.8757 26.2969 16.8757 26.79C16.8757 26.7938 16.8779 26.7971 16.8779 26.8015V27.3215C16.8779 27.3254 16.8757 27.3287 16.8757 27.3331C16.8757 27.504 16.7366 27.6431 16.5657 27.6431C16.3947 27.6431 16.2562 27.504 16.2562 27.3331C16.2562 27.1154 16.0797 26.9389 15.862 26.9389C15.6443 26.9389 15.4679 27.1154 15.4679 27.3331C15.4679 27.9389 15.9604 28.4314 16.5657 28.4314C16.6751 28.4314 16.7784 28.4105 16.8779 28.3809V29.9256L16.3336 29.9246ZM17.6656 31.4852V25.6389C17.6684 25.6318 17.6689 25.6307 17.6722 25.6219C17.6783 25.6065 17.6893 25.5779 17.697 25.5581C17.7145 25.5136 17.7354 25.4603 17.7613 25.3948C17.7761 25.358 17.7965 25.3085 17.814 25.2657C17.8426 25.1953 17.874 25.1194 17.9097 25.0337C17.9328 24.9793 17.9597 24.9155 17.9856 24.8556C18.0257 24.7616 18.0686 24.6626 18.1158 24.5554C18.1472 24.4845 18.1818 24.4075 18.2159 24.3317C18.2659 24.2207 18.3187 24.1047 18.3753 23.9837C18.416 23.8963 18.4594 23.8045 18.5034 23.7122C18.5628 23.5874 18.6254 23.4582 18.6908 23.3251C18.7403 23.2251 18.792 23.1223 18.8448 23.0178C18.9135 22.8821 18.9855 22.7424 19.0603 22.6012C19.1185 22.4907 19.1779 22.3785 19.2395 22.2653C19.3175 22.1213 19.3994 21.9739 19.4825 21.8255C19.549 21.7073 19.616 21.5886 19.6858 21.4687C19.7727 21.3187 19.864 21.1669 19.9563 21.0141C20.0305 20.8915 20.1053 20.7684 20.1828 20.6447C20.279 20.4913 20.3796 20.3374 20.4808 20.1835C20.5627 20.0587 20.644 19.9339 20.7298 19.8097C20.8353 19.6552 20.9458 19.5018 21.0563 19.3485C21.1448 19.2253 21.2322 19.1022 21.324 18.9807C21.44 18.8268 21.5615 18.6756 21.6824 18.5244C21.7764 18.4068 21.8688 18.288 21.9661 18.172C22.0931 18.0209 22.2261 17.8752 22.3581 17.7284C22.457 17.6185 22.5532 17.5069 22.6549 17.4002C22.7967 17.2513 22.9452 17.1111 23.0925 16.9687C23.1914 16.8736 23.2871 16.7741 23.3883 16.6823C23.5548 16.5311 23.7291 16.392 23.9022 16.2513C23.9907 16.1799 24.076 16.1018 24.1661 16.0331C24.4327 15.8302 24.7054 15.6411 24.9863 15.4696C25.6053 15.0914 26.3546 15.0254 27.0445 15.2844C27.786 15.5642 28.3704 16.1892 28.6084 16.9561C29.1196 18.603 30.0448 19.7086 31.286 20.1533C32.4179 20.5552 33.658 20.3743 34.8735 19.6294C35.3397 19.3424 35.9064 19.2748 36.4248 19.4431C36.9294 19.6058 37.3181 19.9598 37.5198 20.4408C38.1042 21.8343 38.4005 23.5594 38.4005 25.567V31.4854C38.4005 33.8871 37.356 36.1629 35.5359 37.727L33.989 39.0535C33.9846 39.0568 33.978 39.0568 33.9742 39.0601L32.7697 40.0991C32.1458 40.6334 31.4526 41.0506 30.7072 41.3398C28.9865 42.0126 27.0626 42.0082 25.365 41.3392C24.6273 41.0556 23.934 40.6383 23.3051 40.0996L22.0913 39.0595C22.0897 39.0579 22.0869 39.0584 22.0853 39.0568L20.5312 37.7281C18.7095 36.1625 17.6655 33.8872 17.6655 31.4855L17.6656 31.4852ZM22.7918 40.6981C23.4889 41.2956 24.2602 41.7591 25.0781 42.074C26.0126 42.4418 27.0357 42.6364 28.0367 42.6364C29.0443 42.6364 30.0388 42.4473 30.9925 42.074C31.8199 41.753 32.5901 41.2896 33.2826 40.6964L33.8368 40.2215V43.1329C33.8368 44.2065 33.3079 45.2174 32.4212 45.8364C31.1304 46.7385 29.6115 47.2151 28.0283 47.2151C27.6341 47.2151 27.2433 47.1854 26.859 47.1266C25.7068 46.9502 24.6112 46.5126 23.6431 45.8359C22.7569 45.2169 22.2275 44.2059 22.2275 43.1323V40.2154L22.7918 40.6981ZM51.2853 60.8885H42.3732V56.9052C42.3732 56.6875 42.1967 56.511 41.979 56.511C41.7613 56.511 41.5849 56.6875 41.5849 56.9052V60.8885H14.4889V56.9052C14.4889 56.6875 14.3124 56.511 14.0947 56.511C13.877 56.511 13.7005 56.6875 13.7005 56.9052V60.8885H4.78844V53.6773C4.78844 49.9402 7.18633 46.6705 10.7524 45.5418L19.8646 42.7273L19.8641 43.1324C19.8641 44.9778 20.7706 46.7133 22.29 47.7737H22.2894C23.9793 48.9545 25.9637 49.5789 28.0285 49.5789C30.0982 49.5789 32.0854 48.955 33.7748 47.7742C35.2942 46.7127 36.2012 44.9778 36.2012 43.1324V42.7273L45.3112 45.5413C48.8844 46.6699 51.285 49.9396 51.285 53.6771L51.2853 60.8885Z" fill="#292929" stroke="#292929" stroke-width="0.2"/>
<path d="M28.1964 37.0305C29.02 37.0047 29.8281 36.8005 30.5651 36.432C31.3021 36.0635 31.9504 35.5395 32.4651 34.8961C32.5423 34.7932 32.5754 34.6638 32.5573 34.5365C32.5391 34.4091 32.471 34.2942 32.3681 34.217C32.2652 34.1398 32.1358 34.1067 32.0084 34.1249C31.8811 34.1431 31.7662 34.2111 31.689 34.314C31.2622 34.8342 30.7306 35.2585 30.1288 35.5594C29.527 35.8603 28.8686 36.031 28.1964 36.0603C27.5979 36.0719 27.0072 35.9228 26.4859 35.6284C25.9646 35.3341 25.5318 34.9053 25.2326 34.3868C25.1747 34.2716 25.0734 34.1842 24.9511 34.1437C24.8287 34.1033 24.6953 34.113 24.5801 34.1709C24.465 34.2288 24.3776 34.3301 24.3371 34.4524C24.2966 34.5748 24.3064 34.7082 24.3643 34.8234C24.7447 35.5026 25.3017 36.0663 25.9763 36.4548C26.6509 36.8434 27.418 37.0423 28.1964 37.0305Z" fill="#292929"/>
<path d="M22.8569 28.2997C23.3927 28.2997 23.827 27.8653 23.827 27.3295C23.827 26.7937 23.3927 26.3594 22.8569 26.3594C22.3211 26.3594 21.8867 26.7937 21.8867 27.3295C21.8867 27.8653 22.3211 28.2997 22.8569 28.2997Z" fill="#292929"/>
<path d="M30.776 25.3646C31.6689 25.0852 32.596 24.9301 33.5312 24.9038C34.4664 24.9301 35.3936 25.0852 36.2865 25.3646C36.4087 25.4051 36.542 25.3954 36.6571 25.3377C36.7721 25.2799 36.8596 25.1788 36.9001 25.0566C36.9406 24.9343 36.9309 24.801 36.8732 24.6859C36.8154 24.5709 36.7143 24.4835 36.5921 24.4429C35.601 24.1292 34.5705 23.9577 33.5312 23.9336C32.4903 23.9573 31.4581 24.1288 30.4655 24.4429C30.3433 24.4835 30.2422 24.5709 30.1844 24.6859C30.1266 24.801 30.117 24.9343 30.1575 25.0566C30.198 25.1788 30.2854 25.2799 30.4005 25.3377C30.5156 25.3954 30.6489 25.4051 30.7711 25.3646H30.776Z" fill="#292929"/>
<path d="M20.6431 25.3646C21.536 25.0852 22.4632 24.9301 23.3984 24.9038C24.3336 24.9301 25.2608 25.0852 26.1536 25.3646C26.2759 25.4051 26.4092 25.3954 26.5243 25.3377C26.6393 25.2799 26.7267 25.1788 26.7673 25.0566C26.8078 24.9343 26.7981 24.801 26.7403 24.6859C26.6826 24.5709 26.5815 24.4835 26.4592 24.4429C25.4682 24.1292 24.4376 23.9577 23.3984 23.9336C22.3575 23.9573 21.3253 24.1288 20.3327 24.4429C20.2105 24.4835 20.1094 24.5709 20.0516 24.6859C19.9938 24.801 19.9841 24.9343 20.0247 25.0566C20.0652 25.1788 20.1526 25.2799 20.2677 25.3377C20.3828 25.3954 20.5161 25.4051 20.6383 25.3646H20.6431Z" fill="#292929"/>
<path d="M33.5327 28.2997C34.0685 28.2997 34.5028 27.8653 34.5028 27.3295C34.5028 26.7937 34.0685 26.3594 33.5327 26.3594C32.9969 26.3594 32.5625 26.7937 32.5625 27.3295C32.5625 27.8653 32.9969 28.2997 33.5327 28.2997Z" fill="#292929"/>
<path d="M28.196 33.1505H29.1662C29.2948 33.1505 29.4182 33.0994 29.5092 33.0084C29.6001 32.9174 29.6513 32.7941 29.6513 32.6654C29.6513 32.5368 29.6001 32.4134 29.5092 32.3224C29.4182 32.2314 29.2948 32.1803 29.1662 32.1803H28.6811V26.8445C28.6811 26.7158 28.63 26.5924 28.539 26.5015C28.448 26.4105 28.3247 26.3594 28.196 26.3594C28.0674 26.3594 27.944 26.4105 27.853 26.5015C27.762 26.5924 27.7109 26.7158 27.7109 26.8445V32.6654C27.7109 32.7941 27.762 32.9174 27.853 33.0084C27.944 33.0994 28.0674 33.1505 28.196 33.1505Z" fill="#292929"/>
</g>
</svg>
