<svg width="474" height="474" viewBox="0 0 474 474" fill="none" xmlns="http://www.w3.org/2000/svg">
<path d="M311.519 183.774V123.892C311.519 82.7327 278.161 49.3749 237.022 49.3749C195.863 49.1972 162.347 82.3969 162.169 123.556V123.892V183.774" stroke="#5DD7FF" stroke-width="1.5" stroke-linecap="round" stroke-linejoin="round"/>
<path fill-rule="evenodd" clip-rule="evenodd" d="M330.659 414.755H143.341C96.8875 414.755 59.25 377.131 59.25 330.719V221.778C59.25 175.365 96.8875 137.742 143.341 137.742H330.659C377.113 137.742 414.75 175.365 414.75 221.778V330.719C414.75 377.131 377.113 414.755 330.659 414.755Z" stroke="#5DD7FF" stroke-width="1.5" stroke-linecap="round" stroke-linejoin="round"/>
<circle cx="173.153" cy="237.511" r="9.97629" stroke="#292929" stroke-width="1.5"/>
<circle cx="300.847" cy="237.511" r="9.97629" stroke="#292929" stroke-width="1.5"/>
<path d="M162.427 337.623C162.427 337.623 172.131 296.761 237 296.761C301.869 296.761 311.573 337.623 311.573 337.623" stroke="#292929" stroke-width="1.5"/>
</svg>
