<svg width="18" height="20" viewBox="0 0 18 20" fill="none" xmlns="http://www.w3.org/2000/svg">
<path d="M2.5 15.5H7.5V17C7.5 18.3807 6.38071 19.5 5 19.5C3.61929 19.5 2.5 18.3807 2.5 17V15.5Z" stroke="#5DD7FF"/>
<path d="M10.5 15.5H15.5V17C15.5 18.3807 14.3807 19.5 13 19.5C11.6193 19.5 10.5 18.3807 10.5 17V15.5Z" stroke="#5DD7FF"/>
<path d="M0.5 6C0.5 2.96243 2.96243 0.5 6 0.5H12C15.0376 0.5 17.5 2.96243 17.5 6V15C17.5 15.8284 16.8284 16.5 16 16.5H2C1.17157 16.5 0.5 15.8284 0.5 15V6Z" fill="white" stroke="#5DD7FF"/>
<rect x="3.5" y="3.5" width="11" height="3" rx="1.5" stroke="#5DD7FF"/>
<circle cx="5.5" cy="12.5" r="2" stroke="#5DD7FF"/>
<circle cx="12.5" cy="12.5" r="2" stroke="#5DD7FF"/>
</svg>
