<svg width="20" height="20" viewBox="0 0 20 20" fill="none" xmlns="http://www.w3.org/2000/svg">
<circle cx="10" cy="10" r="10" fill="#D7D7D7"/>
<path d="M7.07373 7.07885C7.17202 6.97372 7.33143 6.97371 7.42975 7.07887L9.76916 9.58079L12.1087 7.07885C12.207 6.97372 12.3664 6.97371 12.4647 7.07887C12.563 7.18401 12.563 7.35447 12.4647 7.45961L9.94716 10.1519C9.89995 10.2024 9.83593 10.2308 9.76916 10.2308C9.7024 10.2308 9.63835 10.2024 9.59116 10.1519L7.07374 7.45959C6.97541 7.35447 6.97541 7.18399 7.07373 7.07885Z" fill="white"/>
<path d="M12.4647 12.9212C12.3664 13.0263 12.207 13.0263 12.1087 12.9211L9.76929 10.4192L7.42976 12.9212C7.33146 13.0263 7.17205 13.0263 7.07374 12.9211C6.97542 12.816 6.97542 12.6455 7.07374 12.5404L9.59129 9.84808C9.6385 9.79759 9.70253 9.76923 9.76929 9.76923C9.83605 9.76923 9.9001 9.79761 9.94729 9.8481L12.4647 12.5404C12.563 12.6455 12.563 12.816 12.4647 12.9212Z" fill="white"/>
</svg>
