<svg width="29" height="19" viewBox="0 0 29 19" fill="none" xmlns="http://www.w3.org/2000/svg">
<path d="M1.31647 11.2413C1.12934 10.4558 1.72495 9.70166 2.53244 9.70166H23.2145C24.4018 9.70166 24.9203 11.2015 23.9865 11.9348L17.1669 17.2896C16.9467 17.4625 16.6749 17.5565 16.395 17.5565H3.80815C3.22939 17.5565 2.72631 17.1592 2.59219 16.5962L1.31647 11.2413Z" stroke="#5DD7FF" stroke-width="1.5"/>
<path d="M21.5161 9.8872L19.5296 6.62514C19.3481 6.32713 19.0245 6.14526 18.6755 6.14526H6.58254C6.23362 6.14526 5.90993 6.32713 5.72845 6.62514L3.74194 9.8872" stroke="#5DD7FF" stroke-width="1.5"/>
<path d="M15.6748 1.65826L16.8185 4.80342C17.0556 5.4556 16.5726 6.14516 15.8787 6.14516H14.0967C13.5444 6.14516 13.0967 5.69745 13.0967 5.14516V2C13.0967 1.44772 13.5444 1 14.0967 1H14.735C15.1555 1 15.5311 1.26307 15.6748 1.65826Z" stroke="#5DD7FF" stroke-width="1.5"/>
</svg>
