<svg width="129" height="79" viewBox="0 0 129 79" fill="none" xmlns="http://www.w3.org/2000/svg">
<line x1="17.4331" y1="73.303" x2="70.8805" y2="73.303" stroke="white" stroke-width="1.5" stroke-linecap="round"/>
<line x1="37.3281" y1="68.5659" x2="90.7755" y2="68.5659" stroke="white" stroke-width="1.5" stroke-linecap="round"/>
<line x1="1.32861" y1="68.5662" x2="31.0918" y2="68.5662" stroke="white" stroke-width="1.5" stroke-linecap="round"/>
<line x1="97.96" y1="68.5659" x2="127.723" y2="68.5659" stroke="white" stroke-width="1.5" stroke-linecap="round"/>
<line x1="37.3276" y1="78.0393" x2="90.775" y2="78.0393" stroke="white" stroke-width="1.5" stroke-linecap="round"/>
<line x1="1.32813" y1="78.0396" x2="31.0913" y2="78.0396" stroke="white" stroke-width="1.5" stroke-linecap="round"/>
<line x1="97.9595" y1="78.0393" x2="127.723" y2="78.0393" stroke="white" stroke-width="1.5" stroke-linecap="round"/>
<line x1="77.1177" y1="73.303" x2="106.881" y2="73.303" stroke="white" stroke-width="1.5" stroke-linecap="round"/>
<path d="M63.7918 15.0912C63.8507 15.0892 64.2847 15.0767 64.5555 15.0965C65.2546 15.1476 67.2822 15.6018 68.9236 18.1754L73.7848 25.39L83.3569 29.3236C83.3569 29.3236 82.7251 34.4468 77.6669 32.3682L70.6488 29.3708L62.4657 17.9009" stroke="white" stroke-width="1.5" stroke-linecap="round" stroke-linejoin="round"/>
<path d="M59.2049 32.9708L57.5483 43.5409L49.91 51.5632L47.0011 54.3465C47.0011 54.3465 52.0219 59.8444 53.0006 60.9083C55.5095 60.4586 54.1752 55.9429 54.1752 55.9429L63.4142 47.087L69.6987 32.6704" stroke="white" stroke-width="1.5" stroke-linecap="round" stroke-linejoin="round"/>
<path d="M69.7107 32.7454L74.5344 45.2203L74.1319 57.8809C74.1319 57.8809 78.1314 59.3661 76.8398 61.8584C74.9266 61.8584 69.4416 61.8599 67.994 61.8599C67.938 59.5104 67.9404 57.6392 67.9404 57.6392L67.9212 46.3804L59.1686 32.9717" stroke="white" stroke-width="1.5" stroke-linecap="round" stroke-linejoin="round"/>
<path d="M63.8466 15.102C66.4761 15.0105 69.2125 17.0825 69.3211 20.1919L69.7583 32.674L59.1786 33.0424L58.7415 20.5603C58.6449 17.8012 61.0416 15.1997 63.8466 15.102V15.102Z" stroke="white" stroke-width="1.5" stroke-linecap="round" stroke-linejoin="round"/>
<path d="M65.1426 15.1975C63.8109 14.8818 62.0245 15.2556 61.5052 15.5175C60.6872 15.8883 59.5324 16.4554 58.8858 17.0993L53.1815 24.2672C53.1815 24.2672 51.5956 29.8821 51.0381 31.894C50.4566 33.9634 50.9189 36.7908 55.0396 36.6965L57.7397 26.8333L63.1398 20.2758" stroke="white" stroke-width="1.5" stroke-linecap="round" stroke-linejoin="round"/>
<path d="M67.6902 10.58L64.5125 10.78C62.6881 10.8948 61.1011 9.49981 60.986 7.68055L60.8032 4.79082C60.6825 2.88447 62.1478 1.22622 64.0593 1.10579L64.8048 1.05894C66.7163 0.938515 68.3789 2.40012 68.4995 4.30632L68.816 9.30614C68.8576 9.96518 68.3512 10.5384 67.6902 10.58Z" stroke="white" stroke-width="1.5" stroke-linecap="round" stroke-linejoin="round"/>
</svg>
