<svg width="169" height="65" viewBox="0 0 169 65" fill="none" xmlns="http://www.w3.org/2000/svg">
<path d="M91.7494 46.0713C89.4866 46.0713 88.4258 47.3514 87.4359 48.4266C86.5873 49.4507 85.8094 50.3212 84.3244 50.3212C82.8395 50.3212 82.1323 49.4507 81.213 48.4266C80.223 47.3002 79.1623 46.0713 76.8995 46.0713C74.6366 46.0713 73.5759 47.3514 72.5859 48.4266C71.7374 49.4507 70.9595 50.3212 69.4745 50.3212C67.9895 50.3212 67.2824 49.4507 66.3631 48.4266C65.3731 47.3002 64.3124 46.0713 62.0496 46.0713C59.7867 46.0713 58.726 47.3514 57.736 48.4266C56.8874 49.4507 56.1096 50.3212 54.6246 50.3212C53.2103 50.3212 52.4325 49.4507 51.5132 48.4266C50.5232 47.3002 49.4625 46.0713 47.1996 46.0713C44.9368 46.0713 43.8761 47.3514 42.8861 48.4266C42.0375 49.4507 41.2597 50.3212 39.7747 50.3212C38.3604 50.3212 37.5825 49.4507 36.6633 48.4266C35.6733 47.3002 34.6126 46.0713 32.3497 46.0713C31.9254 46.0713 31.6426 46.2761 31.6426 46.5833C31.6426 46.8905 31.9254 47.0954 32.3497 47.0954C33.764 47.0954 34.5418 47.9658 35.4611 48.9899C36.4511 50.1163 37.5118 51.3452 39.7747 51.3452C42.0375 51.3452 43.0982 50.0651 44.0882 48.9899C44.9368 47.9658 45.7146 47.0954 47.1996 47.0954C48.6846 47.0954 49.3918 47.9658 50.3111 48.9899C51.301 50.1163 52.3618 51.3452 54.6246 51.3452C56.8874 51.3452 57.9482 50.0651 58.9381 48.9899C59.7867 47.9658 60.5646 47.0954 62.0496 47.0954C63.5346 47.0954 64.2417 47.9658 65.161 48.9899C66.151 50.1163 67.2117 51.3452 69.4745 51.3452C71.7374 51.3452 72.7981 50.0651 73.7881 48.9899C74.6366 47.9658 75.4145 47.0954 76.8995 47.0954C78.3845 47.0954 79.0916 47.9658 80.0109 48.9899C81.0009 50.1163 82.0616 51.3452 84.3244 51.3452C86.5873 51.3452 87.648 50.0651 88.638 48.9899C89.4866 47.9658 90.2644 47.0954 91.7494 47.0954C92.1737 47.0954 92.4565 46.8905 92.4565 46.5833C92.4565 46.2761 92.1737 46.0713 91.7494 46.0713Z" fill="white"/>
<path d="M136.649 46.0708C134.386 46.0708 133.326 47.3509 132.336 48.4261C131.487 49.4502 130.709 50.3207 129.224 50.3207C127.739 50.3207 127.032 49.4502 126.113 48.4261C125.123 47.2997 124.062 46.0708 121.799 46.0708C119.536 46.0708 118.476 47.3509 117.486 48.4261C116.637 49.4502 115.859 50.3207 114.374 50.3207C112.889 50.3207 112.182 49.4502 111.263 48.4261C110.273 47.2997 109.212 46.0708 106.949 46.0708C104.687 46.0708 103.626 47.3509 102.636 48.4261C101.787 49.4502 101.009 50.3207 99.5245 50.3207C98.1102 50.3207 97.3323 49.4502 96.413 48.4261C95.4231 47.2997 94.3624 46.0708 92.0995 46.0708C89.8367 46.0708 88.776 47.3509 87.786 48.4261C86.9374 49.4502 86.1596 50.3207 84.6746 50.3207C83.2603 50.3207 82.4824 49.4502 81.5632 48.4261C80.5732 47.2997 79.5125 46.0708 77.2496 46.0708C76.8253 46.0708 76.5425 46.2756 76.5425 46.5828C76.5425 46.8901 76.8253 47.0949 77.2496 47.0949C78.6639 47.0949 79.4417 47.9653 80.361 48.9894C81.351 50.1159 82.4117 51.3447 84.6746 51.3447C86.9374 51.3447 87.9981 50.0646 88.9881 48.9894C89.8367 47.9653 90.6145 47.0949 92.0995 47.0949C93.5845 47.0949 94.2916 47.9653 95.2109 48.9894C96.2009 50.1159 97.2616 51.3447 99.5245 51.3447C101.787 51.3447 102.848 50.0646 103.838 48.9894C104.687 47.9653 105.464 47.0949 106.949 47.0949C108.434 47.0949 109.142 47.9653 110.061 48.9894C111.051 50.1159 112.112 51.3447 114.374 51.3447C116.637 51.3447 117.698 50.0646 118.688 48.9894C119.536 47.9653 120.314 47.0949 121.799 47.0949C123.284 47.0949 123.991 47.9653 124.911 48.9894C125.901 50.1159 126.961 51.3447 129.224 51.3447C131.487 51.3447 132.548 50.0646 133.538 48.9894C134.386 47.9653 135.164 47.0949 136.649 47.0949C137.073 47.0949 137.356 46.8901 137.356 46.5828C137.356 46.2756 137.073 46.0708 136.649 46.0708Z" fill="white"/>
<path d="M32.7347 46.0706C30.4719 46.0706 29.4111 47.3506 28.4212 48.4259C27.5726 49.45 26.7947 50.3204 25.3097 50.3204C23.8248 50.3204 23.1176 49.45 22.1983 48.4259C21.2083 47.2994 20.1476 46.0706 17.8848 46.0706C15.6219 46.0706 14.5612 47.3506 13.5712 48.4259C12.7227 49.45 11.9448 50.3204 10.4598 50.3204C8.97485 50.3204 8.2677 49.45 7.34843 48.4259C6.35843 47.2994 5.29773 46.0706 3.03488 46.0706C0.772039 46.0706 -0.28867 47.3506 -1.27866 48.4259C-2.12723 49.45 -2.90508 50.3204 -4.39007 50.3204C-5.80435 50.3204 -6.5822 49.45 -7.50148 48.4259C-8.49148 47.2994 -9.55218 46.0706 -11.815 46.0706C-14.0779 46.0706 -15.1386 47.3506 -16.1286 48.4259C-16.9771 49.45 -17.755 50.3204 -19.24 50.3204C-20.6543 50.3204 -21.4321 49.45 -22.3514 48.4259C-23.3414 47.2994 -24.4021 46.0706 -26.6649 46.0706C-27.0892 46.0706 -27.3721 46.2754 -27.3721 46.5826C-27.3721 46.8898 -27.0892 47.0946 -26.6649 47.0946C-25.2507 47.0946 -24.4728 47.9651 -23.5535 48.9891C-22.5635 50.1156 -21.5028 51.3445 -19.24 51.3445C-16.9771 51.3445 -15.9164 50.0644 -14.9264 48.9891C-14.0779 47.9651 -13.3 47.0946 -11.815 47.0946C-10.33 47.0946 -9.6229 47.9651 -8.70362 48.9891C-7.71362 50.1156 -6.65291 51.3445 -4.39007 51.3445C-2.12723 51.3445 -1.06652 50.0644 -0.0765285 48.9891C0.772038 47.9651 1.54989 47.0946 3.03488 47.0946C4.51987 47.0946 5.22701 47.9651 6.14629 48.9891C7.13628 50.1156 8.19699 51.3445 10.4598 51.3445C12.7227 51.3445 13.7834 50.0644 14.7734 48.9891C15.6219 47.9651 16.3998 47.0946 17.8848 47.0946C19.3698 47.0946 20.0769 47.9651 20.9962 48.9891C21.9862 50.1156 23.0469 51.3445 25.3097 51.3445C27.5726 51.3445 28.6333 50.0644 29.6233 48.9891C30.4719 47.9651 31.2497 47.0946 32.7347 47.0946C33.159 47.0946 33.4418 46.8898 33.4418 46.5826C33.4418 46.2754 33.159 46.0706 32.7347 46.0706Z" fill="white"/>
<path d="M195.751 46.071C193.488 46.071 192.427 47.3511 191.437 48.4264C190.589 49.4505 189.811 50.3209 188.326 50.3209C186.841 50.3209 186.134 49.4505 185.214 48.4264C184.224 47.2999 183.164 46.071 180.901 46.071C178.638 46.071 177.577 47.3511 176.587 48.4264C175.739 49.4505 174.961 50.3209 173.476 50.3209C171.991 50.3209 171.284 49.4505 170.365 48.4264C169.375 47.2999 168.314 46.071 166.051 46.071C163.788 46.071 162.727 47.3511 161.737 48.4264C160.889 49.4505 160.111 50.3209 158.626 50.3209C157.212 50.3209 156.434 49.4505 155.515 48.4264C154.525 47.2999 153.464 46.071 151.201 46.071C148.938 46.071 147.878 47.3511 146.888 48.4264C146.039 49.4505 145.261 50.3209 143.776 50.3209C142.362 50.3209 141.584 49.4505 140.665 48.4264C139.675 47.2999 138.614 46.071 136.351 46.071C135.927 46.071 135.644 46.2759 135.644 46.5831C135.644 46.8903 135.927 47.0951 136.351 47.0951C137.765 47.0951 138.543 47.9656 139.463 48.9896C140.453 50.1161 141.513 51.345 143.776 51.345C146.039 51.345 147.1 50.0649 148.09 48.9896C148.938 47.9656 149.716 47.0951 151.201 47.0951C152.686 47.0951 153.393 47.9656 154.312 48.9896C155.302 50.1161 156.363 51.345 158.626 51.345C160.889 51.345 161.95 50.0649 162.94 48.9896C163.788 47.9656 164.566 47.0951 166.051 47.0951C167.536 47.0951 168.243 47.9656 169.162 48.9896C170.152 50.1161 171.213 51.345 173.476 51.345C175.739 51.345 176.799 50.0649 177.789 48.9896C178.638 47.9656 179.416 47.0951 180.901 47.0951C182.386 47.0951 183.093 47.9656 184.012 48.9896C185.002 50.1161 186.063 51.345 188.326 51.345C190.589 51.345 191.649 50.0649 192.639 48.9896C193.488 47.9656 194.266 47.0951 195.751 47.0951C196.175 47.0951 196.458 46.8903 196.458 46.5831C196.458 46.2759 196.175 46.071 195.751 46.071Z" fill="white"/>
<path d="M91.7493 52.4146C89.4865 52.4146 88.4258 53.6946 87.4358 54.7699C86.5872 55.794 85.8094 56.6645 84.3244 56.6645C82.8394 56.6645 82.1323 55.794 81.213 54.7699C80.223 53.6434 79.1623 52.4146 76.8994 52.4146C74.6366 52.4146 73.5759 53.6946 72.5859 54.7699C71.7373 55.794 70.9595 56.6645 69.4745 56.6645C67.9895 56.6645 67.2824 55.794 66.3631 54.7699C65.3731 53.6434 64.3124 52.4146 62.0495 52.4146C59.7867 52.4146 58.726 53.6946 57.736 54.7699C56.8874 55.794 56.1096 56.6645 54.6246 56.6645C53.2103 56.6645 52.4324 55.794 51.5132 54.7699C50.5232 53.6434 49.4625 52.4146 47.1996 52.4146C44.9368 52.4146 43.8761 53.6946 42.8861 54.7699C42.0375 55.794 41.2597 56.6645 39.7747 56.6645C38.3604 56.6645 37.5825 55.794 36.6633 54.7699C35.6733 53.6434 34.6126 52.4146 32.3497 52.4146C31.9254 52.4146 31.6426 52.6194 31.6426 52.9266C31.6426 53.2338 31.9254 53.4386 32.3497 53.4386C33.764 53.4386 34.5418 54.3091 35.4611 55.3332C36.4511 56.4596 37.5118 57.6885 39.7747 57.6885C42.0375 57.6885 43.0982 56.4084 44.0882 55.3332C44.9368 54.3091 45.7146 53.4386 47.1996 53.4386C48.6846 53.4386 49.3918 54.3091 50.311 55.3332C51.301 56.4596 52.3617 57.6885 54.6246 57.6885C56.8874 57.6885 57.9481 56.4084 58.9381 55.3332C59.7867 54.3091 60.5645 53.4386 62.0495 53.4386C63.5345 53.4386 64.2417 54.3091 65.1609 55.3332C66.1509 56.4596 67.2116 57.6885 69.4745 57.6885C71.7373 57.6885 72.798 56.4084 73.788 55.3332C74.6366 54.3091 75.4144 53.4386 76.8994 53.4386C78.3844 53.4386 79.0916 54.3091 80.0108 55.3332C81.0008 56.4596 82.0615 57.6885 84.3244 57.6885C86.5872 57.6885 87.6479 56.4084 88.6379 55.3332C89.4865 54.3091 90.2644 53.4386 91.7493 53.4386C92.1736 53.4386 92.4565 53.2338 92.4565 52.9266C92.4565 52.6194 92.1736 52.4146 91.7493 52.4146Z" fill="white"/>
<path d="M136.651 52.4148C134.388 52.4148 133.327 53.6949 132.337 54.7701C131.489 55.7942 130.711 56.6647 129.226 56.6647C127.741 56.6647 127.034 55.7942 126.114 54.7701C125.124 53.6437 124.064 52.4148 121.801 52.4148C119.538 52.4148 118.477 53.6949 117.487 54.7701C116.639 55.7942 115.861 56.6647 114.376 56.6647C112.891 56.6647 112.184 55.7942 111.264 54.7701C110.274 53.6437 109.214 52.4148 106.951 52.4148C104.688 52.4148 103.627 53.6949 102.637 54.7701C101.789 55.7942 101.011 56.6647 99.526 56.6647C98.1117 56.6647 97.3338 55.7942 96.4146 54.7701C95.4246 53.6437 94.3639 52.4148 92.101 52.4148C89.8382 52.4148 88.7775 53.6949 87.7875 54.7701C86.9389 55.7942 86.161 56.6647 84.676 56.6647C83.2618 56.6647 82.4839 55.7942 81.5646 54.7701C80.5746 53.6437 79.5139 52.4148 77.2511 52.4148C76.8268 52.4148 76.5439 52.6196 76.5439 52.9268C76.5439 53.234 76.8268 53.4389 77.2511 53.4389C78.6654 53.4389 79.4432 54.3093 80.3625 55.3334C81.3525 56.4598 82.4132 57.6887 84.676 57.6887C86.9389 57.6887 87.9996 56.4086 88.9896 55.3334C89.8382 54.3093 90.616 53.4389 92.101 53.4389C93.586 53.4389 94.2931 54.3093 95.2124 55.3334C96.2024 56.4598 97.2631 57.6887 99.526 57.6887C101.789 57.6887 102.85 56.4086 103.84 55.3334C104.688 54.3093 105.466 53.4389 106.951 53.4389C108.436 53.4389 109.143 54.3093 110.062 55.3334C111.052 56.4598 112.113 57.6887 114.376 57.6887C116.639 57.6887 117.699 56.4086 118.689 55.3334C119.538 54.3093 120.316 53.4389 121.801 53.4389C123.286 53.4389 123.993 54.3093 124.912 55.3334C125.902 56.4598 126.963 57.6887 129.226 57.6887C131.489 57.6887 132.549 56.4086 133.539 55.3334C134.388 54.3093 135.166 53.4389 136.651 53.4389C137.075 53.4389 137.358 53.234 137.358 52.9268C137.358 52.6196 137.075 52.4148 136.651 52.4148Z" fill="white"/>
<path d="M32.7332 52.4146C30.4704 52.4146 29.4097 53.6946 28.4197 54.7699C27.5711 55.794 26.7933 56.6644 25.3083 56.6644C23.8233 56.6644 23.1162 55.794 22.1969 54.7699C21.2069 53.6434 20.1462 52.4146 17.8833 52.4146C15.6205 52.4146 14.5598 53.6946 13.5698 54.7699C12.7212 55.794 11.9434 56.6644 10.4584 56.6644C8.97338 56.6644 8.26624 55.794 7.34696 54.7699C6.35697 53.6434 5.29626 52.4146 3.03342 52.4146C0.770575 52.4146 -0.290134 53.6946 -1.28013 54.7699C-2.12869 55.794 -2.90655 56.6644 -4.39154 56.6644C-5.80581 56.6644 -6.58367 55.794 -7.50295 54.7699C-8.49294 53.6434 -9.55365 52.4146 -11.8165 52.4146C-14.0793 52.4146 -15.14 53.6946 -16.13 54.7699C-16.9786 55.794 -17.7565 56.6644 -19.2414 56.6644C-20.6557 56.6644 -21.4336 55.794 -22.3529 54.7699C-23.3428 53.6434 -24.4036 52.4146 -26.6664 52.4146C-27.0907 52.4146 -27.3735 52.6194 -27.3735 52.9266C-27.3735 53.2338 -27.0907 53.4386 -26.6664 53.4386C-25.2521 53.4386 -24.4743 54.3091 -23.555 55.3331C-22.565 56.4596 -21.5043 57.6885 -19.2414 57.6885C-16.9786 57.6885 -15.9179 56.4084 -14.9279 55.3331C-14.0793 54.3091 -13.3015 53.4386 -11.8165 53.4386C-10.3315 53.4386 -9.62436 54.3091 -8.70508 55.3331C-7.71509 56.4596 -6.65438 57.6885 -4.39154 57.6885C-2.12869 57.6885 -1.06799 56.4084 -0.0779934 55.3331C0.770573 54.3091 1.54843 53.4386 3.03342 53.4386C4.51841 53.4386 5.22554 54.3091 6.14482 55.3331C7.13482 56.4596 8.19553 57.6885 10.4584 57.6885C12.7212 57.6885 13.7819 56.4084 14.7719 55.3331C15.6205 54.3091 16.3983 53.4386 17.8833 53.4386C19.3683 53.4386 20.0755 54.3091 20.9947 55.3331C21.9847 56.4596 23.0454 57.6885 25.3083 57.6885C27.5711 57.6885 28.6318 56.4084 29.6218 55.3331C30.4704 54.3091 31.2482 53.4386 32.7332 53.4386C33.1575 53.4386 33.4404 53.2338 33.4404 52.9266C33.4404 52.6194 33.1575 52.4146 32.7332 52.4146Z" fill="white"/>
<path d="M195.75 52.4146C193.488 52.4146 192.427 53.6946 191.437 54.7699C190.588 55.794 189.81 56.6645 188.325 56.6645C186.84 56.6645 186.133 55.794 185.214 54.7699C184.224 53.6434 183.163 52.4146 180.9 52.4146C178.638 52.4146 177.577 53.6946 176.587 54.7699C175.738 55.794 174.96 56.6645 173.475 56.6645C171.991 56.6645 171.283 55.794 170.364 54.7699C169.374 53.6434 168.313 52.4146 166.051 52.4146C163.788 52.4146 162.727 53.6946 161.737 54.7699C160.888 55.794 160.111 56.6645 158.626 56.6645C157.211 56.6645 156.433 55.794 155.514 54.7699C154.524 53.6434 153.463 52.4146 151.201 52.4146C148.938 52.4146 147.877 53.6946 146.887 54.7699C146.039 55.794 145.261 56.6645 143.776 56.6645C142.361 56.6645 141.584 55.794 140.664 54.7699C139.674 53.6434 138.614 52.4146 136.351 52.4146C135.926 52.4146 135.644 52.6194 135.644 52.9266C135.644 53.2338 135.926 53.4386 136.351 53.4386C137.765 53.4386 138.543 54.3091 139.462 55.3332C140.452 56.4596 141.513 57.6885 143.776 57.6885C146.039 57.6885 147.099 56.4084 148.089 55.3332C148.938 54.3091 149.716 53.4386 151.201 53.4386C152.686 53.4386 153.393 54.3091 154.312 55.3332C155.302 56.4596 156.363 57.6885 158.626 57.6885C160.888 57.6885 161.949 56.4084 162.939 55.3332C163.788 54.3091 164.566 53.4386 166.051 53.4386C167.536 53.4386 168.243 54.3091 169.162 55.3332C170.152 56.4596 171.213 57.6885 173.475 57.6885C175.738 57.6885 176.799 56.4084 177.789 55.3332C178.638 54.3091 179.415 53.4386 180.9 53.4386C182.385 53.4386 183.093 54.3091 184.012 55.3332C185.002 56.4596 186.063 57.6885 188.325 57.6885C190.588 57.6885 191.649 56.4084 192.639 55.3332C193.488 54.3091 194.265 53.4386 195.75 53.4386C196.175 53.4386 196.458 53.2338 196.458 52.9266C196.458 52.6194 196.175 52.4146 195.75 52.4146Z" fill="white"/>
<path d="M91.7493 58.7585C89.4865 58.7585 88.4258 60.0386 87.4358 61.1139C86.5872 62.138 85.8094 63.0084 84.3244 63.0084C82.8394 63.0084 82.1323 62.138 81.213 61.1139C80.223 59.9874 79.1623 58.7585 76.8994 58.7585C74.6366 58.7585 73.5759 60.0386 72.5859 61.1139C71.7373 62.138 70.9595 63.0084 69.4745 63.0084C67.9895 63.0084 67.2824 62.138 66.3631 61.1139C65.3731 59.9874 64.3124 58.7585 62.0495 58.7585C59.7867 58.7585 58.726 60.0386 57.736 61.1139C56.8874 62.138 56.1096 63.0084 54.6246 63.0084C53.2103 63.0084 52.4324 62.138 51.5132 61.1139C50.5232 59.9874 49.4625 58.7585 47.1996 58.7585C44.9368 58.7585 43.8761 60.0386 42.8861 61.1139C42.0375 62.138 41.2597 63.0084 39.7747 63.0084C38.3604 63.0084 37.5825 62.138 36.6633 61.1139C35.6733 59.9874 34.6126 58.7585 32.3497 58.7585C31.9254 58.7585 31.6426 58.9634 31.6426 59.2706C31.6426 59.5778 31.9254 59.7826 32.3497 59.7826C33.764 59.7826 34.5418 60.6531 35.4611 61.6771C36.4511 62.8036 37.5118 64.0325 39.7747 64.0325C42.0375 64.0325 43.0982 62.7524 44.0882 61.6771C44.9368 60.6531 45.7146 59.7826 47.1996 59.7826C48.6846 59.7826 49.3918 60.6531 50.311 61.6771C51.301 62.8036 52.3617 64.0325 54.6246 64.0325C56.8874 64.0325 57.9481 62.7524 58.9381 61.6771C59.7867 60.6531 60.5645 59.7826 62.0495 59.7826C63.5345 59.7826 64.2417 60.6531 65.1609 61.6771C66.1509 62.8036 67.2116 64.0325 69.4745 64.0325C71.7373 64.0325 72.798 62.7524 73.788 61.6771C74.6366 60.6531 75.4144 59.7826 76.8994 59.7826C78.3844 59.7826 79.0916 60.6531 80.0108 61.6771C81.0008 62.8036 82.0615 64.0325 84.3244 64.0325C86.5872 64.0325 87.6479 62.7524 88.6379 61.6771C89.4865 60.6531 90.2644 59.7826 91.7493 59.7826C92.1736 59.7826 92.4565 59.5778 92.4565 59.2706C92.4565 58.9634 92.1736 58.7585 91.7493 58.7585Z" fill="white"/>
<path d="M136.651 58.7581C134.388 58.7581 133.327 60.0381 132.337 61.1134C131.489 62.1374 130.711 63.0079 129.226 63.0079C127.741 63.0079 127.034 62.1374 126.114 61.1134C125.124 59.9869 124.064 58.7581 121.801 58.7581C119.538 58.7581 118.477 60.0381 117.487 61.1134C116.639 62.1374 115.861 63.0079 114.376 63.0079C112.891 63.0079 112.184 62.1374 111.264 61.1134C110.274 59.9869 109.214 58.7581 106.951 58.7581C104.688 58.7581 103.627 60.0381 102.637 61.1134C101.789 62.1374 101.011 63.0079 99.526 63.0079C98.1117 63.0079 97.3338 62.1374 96.4146 61.1134C95.4246 59.9869 94.3639 58.7581 92.101 58.7581C89.8382 58.7581 88.7775 60.0381 87.7875 61.1134C86.9389 62.1374 86.161 63.0079 84.676 63.0079C83.2618 63.0079 82.4839 62.1374 81.5646 61.1134C80.5746 59.9869 79.5139 58.7581 77.2511 58.7581C76.8268 58.7581 76.5439 58.9629 76.5439 59.2701C76.5439 59.5773 76.8268 59.7821 77.2511 59.7821C78.6654 59.7821 79.4432 60.6526 80.3625 61.6766C81.3525 62.8031 82.4132 64.0319 84.676 64.0319C86.9389 64.0319 87.9996 62.7519 88.9896 61.6766C89.8382 60.6526 90.616 59.7821 92.101 59.7821C93.586 59.7821 94.2931 60.6526 95.2124 61.6766C96.2024 62.8031 97.2631 64.0319 99.526 64.0319C101.789 64.0319 102.85 62.7519 103.84 61.6766C104.688 60.6526 105.466 59.7821 106.951 59.7821C108.436 59.7821 109.143 60.6526 110.062 61.6766C111.052 62.8031 112.113 64.0319 114.376 64.0319C116.639 64.0319 117.699 62.7519 118.689 61.6766C119.538 60.6526 120.316 59.7821 121.801 59.7821C123.286 59.7821 123.993 60.6526 124.912 61.6766C125.902 62.8031 126.963 64.0319 129.226 64.0319C131.489 64.0319 132.549 62.7519 133.539 61.6766C134.388 60.6526 135.166 59.7821 136.651 59.7821C137.075 59.7821 137.358 59.5773 137.358 59.2701C137.358 58.9629 137.075 58.7581 136.651 58.7581Z" fill="white"/>
<path d="M32.7332 58.7576C30.4704 58.7576 29.4097 60.0376 28.4197 61.1129C27.5711 62.137 26.7933 63.0074 25.3083 63.0074C23.8233 63.0074 23.1162 62.137 22.1969 61.1129C21.2069 59.9864 20.1462 58.7576 17.8833 58.7576C15.6205 58.7576 14.5598 60.0376 13.5698 61.1129C12.7212 62.137 11.9434 63.0074 10.4584 63.0074C8.97338 63.0074 8.26624 62.137 7.34696 61.1129C6.35697 59.9864 5.29626 58.7576 3.03342 58.7576C0.770575 58.7576 -0.290134 60.0376 -1.28013 61.1129C-2.12869 62.137 -2.90655 63.0074 -4.39154 63.0074C-5.80581 63.0074 -6.58367 62.137 -7.50295 61.1129C-8.49294 59.9864 -9.55365 58.7576 -11.8165 58.7576C-14.0793 58.7576 -15.14 60.0376 -16.13 61.1129C-16.9786 62.137 -17.7565 63.0074 -19.2414 63.0074C-20.6557 63.0074 -21.4336 62.137 -22.3529 61.1129C-23.3428 59.9864 -24.4036 58.7576 -26.6664 58.7576C-27.0907 58.7576 -27.3735 58.9624 -27.3735 59.2696C-27.3735 59.5768 -27.0907 59.7816 -26.6664 59.7816C-25.2521 59.7816 -24.4743 60.6521 -23.555 61.6761C-22.565 62.8026 -21.5043 64.0315 -19.2414 64.0315C-16.9786 64.0315 -15.9179 62.7514 -14.9279 61.6761C-14.0793 60.6521 -13.3015 59.7816 -11.8165 59.7816C-10.3315 59.7816 -9.62436 60.6521 -8.70508 61.6761C-7.71509 62.8026 -6.65438 64.0315 -4.39154 64.0315C-2.12869 64.0315 -1.06799 62.7514 -0.0779934 61.6761C0.770573 60.6521 1.54843 59.7816 3.03342 59.7816C4.51841 59.7816 5.22554 60.6521 6.14482 61.6761C7.13482 62.8026 8.19553 64.0315 10.4584 64.0315C12.7212 64.0315 13.7819 62.7514 14.7719 61.6761C15.6205 60.6521 16.3983 59.7816 17.8833 59.7816C19.3683 59.7816 20.0755 60.6521 20.9947 61.6761C21.9847 62.8026 23.0454 64.0315 25.3083 64.0315C27.5711 64.0315 28.6318 62.7514 29.6218 61.6761C30.4704 60.6521 31.2482 59.7816 32.7332 59.7816C33.1575 59.7816 33.4404 59.5768 33.4404 59.2696C33.4404 58.9624 33.1575 58.7576 32.7332 58.7576Z" fill="white"/>
<path d="M195.75 58.7581C193.488 58.7581 192.427 60.0381 191.437 61.1134C190.588 62.1375 189.81 63.0079 188.325 63.0079C186.84 63.0079 186.133 62.1375 185.214 61.1134C184.224 59.9869 183.163 58.7581 180.9 58.7581C178.638 58.7581 177.577 60.0381 176.587 61.1134C175.738 62.1375 174.96 63.0079 173.475 63.0079C171.991 63.0079 171.283 62.1375 170.364 61.1134C169.374 59.9869 168.313 58.7581 166.051 58.7581C163.788 58.7581 162.727 60.0381 161.737 61.1134C160.888 62.1375 160.111 63.0079 158.626 63.0079C157.211 63.0079 156.433 62.1375 155.514 61.1134C154.524 59.9869 153.463 58.7581 151.201 58.7581C148.938 58.7581 147.877 60.0381 146.887 61.1134C146.039 62.1375 145.261 63.0079 143.776 63.0079C142.361 63.0079 141.584 62.1375 140.664 61.1134C139.674 59.9869 138.614 58.7581 136.351 58.7581C135.926 58.7581 135.644 58.9629 135.644 59.2701C135.644 59.5773 135.926 59.7821 136.351 59.7821C137.765 59.7821 138.543 60.6526 139.462 61.6766C140.452 62.8031 141.513 64.032 143.776 64.032C146.039 64.032 147.099 62.7519 148.089 61.6766C148.938 60.6526 149.716 59.7821 151.201 59.7821C152.686 59.7821 153.393 60.6526 154.312 61.6766C155.302 62.8031 156.363 64.032 158.626 64.032C160.888 64.032 161.949 62.7519 162.939 61.6766C163.788 60.6526 164.566 59.7821 166.051 59.7821C167.536 59.7821 168.243 60.6526 169.162 61.6766C170.152 62.8031 171.213 64.032 173.475 64.032C175.738 64.032 176.799 62.7519 177.789 61.6766C178.638 60.6526 179.415 59.7821 180.9 59.7821C182.385 59.7821 183.093 60.6526 184.012 61.6766C185.002 62.8031 186.063 64.032 188.325 64.032C190.588 64.032 191.649 62.7519 192.639 61.6766C193.488 60.6526 194.265 59.7821 195.75 59.7821C196.175 59.7821 196.458 59.5773 196.458 59.2701C196.458 58.9629 196.175 58.7581 195.75 58.7581Z" fill="white"/>
<path d="M58.794 12.1833H96.529C96.9425 12.1833 97.2773 12.5176 97.2773 12.9304C97.2773 13.3431 96.9425 13.6774 96.529 13.6774H58.794C58.3806 13.6774 58.0457 13.3431 58.0457 12.9304C58.0457 12.5183 58.3806 12.1833 58.794 12.1833Z" fill="white"/>
<path d="M51.4333 20.1865H104.355C104.769 20.1865 105.104 20.5208 105.104 20.9335C105.104 21.3462 104.769 21.6805 104.355 21.6805H51.4333C51.0198 21.6805 50.6849 21.3462 50.6849 20.9335C50.6849 20.5208 51.0204 20.1865 51.4333 20.1865Z" fill="white"/>
<path d="M113.351 27.7615H116.909C117.655 27.7615 118.262 28.3678 118.262 29.1123V29.4571C118.262 31.1808 116.857 32.5839 115.13 32.5839C113.403 32.5839 111.998 31.1814 111.998 29.4571V29.1123C111.998 28.3678 112.606 27.7615 113.351 27.7615ZM113.495 29.4577C113.495 30.3579 114.229 31.0905 115.131 31.0905C116.032 31.0905 116.766 30.3579 116.766 29.4577V29.2554H113.495V29.4577H113.495Z" fill="white"/>
<path d="M100.602 27.5579C102.046 27.5579 103.221 28.7306 103.221 30.1723C103.221 31.614 102.046 32.7868 100.602 32.7868C99.1574 32.7868 97.9825 31.614 97.9825 30.1723C97.9825 28.7306 99.1574 27.5579 100.602 27.5579ZM100.602 31.2928C101.221 31.2928 101.724 30.7905 101.724 30.1723C101.724 29.5542 101.221 29.0518 100.602 29.0518C99.9824 29.0518 99.4792 29.5542 99.4792 30.1723C99.4792 30.7898 99.9824 31.2928 100.602 31.2928Z" fill="white"/>
<path d="M92.462 27.5579C93.9062 27.5579 95.0811 28.7306 95.0811 30.1723C95.0811 31.614 93.9062 32.7868 92.462 32.7868C91.0177 32.7868 89.8429 31.614 89.8429 30.1723C89.8429 28.7306 91.0184 27.5579 92.462 27.5579ZM92.462 31.2928C93.0812 31.2928 93.5844 30.7905 93.5844 30.1723C93.5844 29.5542 93.0812 29.0518 92.462 29.0518C91.8427 29.0518 91.3395 29.5542 91.3395 30.1723C91.3395 30.7898 91.8434 31.2928 92.462 31.2928Z" fill="white"/>
<path d="M84.3228 27.5579C85.767 27.5579 86.9419 28.7306 86.9419 30.1723C86.9419 31.614 85.767 32.7868 84.3228 32.7868C82.8785 32.7868 81.7036 31.614 81.7036 30.1723C81.7036 28.7306 82.8785 27.5579 84.3228 27.5579ZM84.3228 31.2928C84.942 31.2928 85.4452 30.7905 85.4452 30.1723C85.4452 29.5542 84.942 29.0518 84.3228 29.0518C83.7035 29.0518 83.2003 29.5542 83.2003 30.1723C83.2003 30.7898 83.7035 31.2928 84.3228 31.2928Z" fill="white"/>
<path d="M76.1807 27.5579C77.625 27.5579 78.7998 28.7306 78.7998 30.1723C78.7998 31.614 77.625 32.7868 76.1807 32.7868C74.7365 32.7868 73.5616 31.614 73.5616 30.1723C73.5616 28.7306 74.7371 27.5579 76.1807 27.5579ZM76.1807 31.2928C76.8 31.2928 77.3032 30.7905 77.3032 30.1723C77.3032 29.5542 76.8 29.0518 76.1807 29.0518C75.5615 29.0518 75.0583 29.5542 75.0583 30.1723C75.0583 30.7898 75.5621 31.2928 76.1807 31.2928Z" fill="white"/>
<path d="M68.0425 27.5579C69.4868 27.5579 70.6616 28.7306 70.6616 30.1723C70.6616 31.614 69.4868 32.7868 68.0425 32.7868C66.5983 32.7868 65.4234 31.614 65.4234 30.1723C65.4234 28.7306 66.5983 27.5579 68.0425 27.5579ZM68.0425 31.2928C68.6617 31.2928 69.165 30.7905 69.165 30.1723C69.165 29.5542 68.6617 29.0518 68.0425 29.0518C67.4233 29.0518 66.92 29.5542 66.92 30.1723C66.92 30.7898 67.4233 31.2928 68.0425 31.2928Z" fill="white"/>
<path d="M59.9005 27.5579C61.3447 27.5579 62.5195 28.7306 62.5195 30.1723C62.5195 31.614 61.3447 32.7868 59.9005 32.7868C58.4562 32.7868 57.2814 31.614 57.2814 30.1723C57.2814 28.7306 58.4568 27.5579 59.9005 27.5579ZM59.9005 31.2928C60.5197 31.2928 61.0229 30.7905 61.0229 30.1723C61.0229 29.5542 60.5197 29.0518 59.9005 29.0518C59.2812 29.0518 58.778 29.5542 58.778 30.1723C58.778 30.7898 59.2818 31.2928 59.9005 31.2928Z" fill="white"/>
<path d="M51.7618 27.5579C53.206 27.5579 54.3809 28.7306 54.3809 30.1723C54.3809 31.614 53.206 32.7868 51.7618 32.7868C50.3175 32.7868 49.1427 31.614 49.1427 30.1723C49.1427 28.7306 50.3175 27.5579 51.7618 27.5579ZM51.7618 31.2928C52.381 31.2928 52.8842 30.7905 52.8842 30.1723C52.8842 29.5542 52.381 29.0518 51.7618 29.0518C51.1426 29.0518 50.6393 29.5542 50.6393 30.1723C50.6393 30.7898 51.1426 31.2928 51.7618 31.2928Z" fill="white"/>
<path d="M40.6234 41.0955C40.5196 40.9186 40.4483 40.6005 40.4483 40.6005L35.8012 27.9957C35.4963 27.1678 35.6154 26.2409 36.1218 25.5169C36.6275 24.793 37.4575 24.361 38.3411 24.361H45.1078L48.2214 17.5696C48.6448 16.6446 49.5771 16.047 50.5966 16.047H52.3103L55.0479 10.1912C55.4757 9.27741 56.4048 8.68667 57.415 8.68667H85.2735V2.6759C85.2735 1.36431 86.3424 0.297363 87.6557 0.297363H90.0228C91.0281 0.297363 91.9304 0.932304 92.2672 1.87787L94.6967 8.68791H97.327C98.2001 8.68791 99.0113 9.12055 99.4971 9.8445L103.658 16.0476H104.647C105.544 16.0476 106.368 16.4983 106.851 17.2534L111.389 24.361H132.56C133.09 24.361 133.54 24.722 133.654 25.2387C133.767 25.7535 133.512 26.2677 133.033 26.4887C127.465 29.0595 118.259 35.5229 113.781 40.5999C113.781 40.5999 113.704 40.8506 113.459 41.0955C113.213 41.3404 113.226 41.3279 112.96 41.593C112.461 42.0906 112.461 42.0906 112.19 42.0939H111.259H42.0428H41.6212C41.2077 42.0939 41.1223 41.593 41.1223 41.593C41.1223 41.593 40.7626 41.3327 40.6234 41.0955ZM90.8578 2.37897C90.7319 2.02726 90.397 1.79134 90.0228 1.79134H87.6557C87.1674 1.79134 86.7702 2.18787 86.7702 2.6759V8.68791H93.1084L90.8578 2.37897ZM98.2543 10.6755C98.0466 10.3661 97.7005 10.1819 97.3276 10.1819H95.2299H85.2735H57.415C56.9835 10.1819 56.5869 10.434 56.4042 10.8243L53.9622 16.0476H101.858L98.2543 10.6755ZM105.589 18.0564C105.383 17.7339 105.032 17.5416 104.648 17.5416H51.6119H50.5966C50.1614 17.5416 49.7635 17.7968 49.5821 18.1915L46.7534 24.361H109.614L105.589 18.0564ZM111.259 40.6005C111.542 40.6005 112.004 40.3789 112.192 40.1536C116.258 35.2776 124.975 28.9525 130.937 25.8556H112.343H44.4231H38.3418C37.9408 25.8556 37.5791 26.0442 37.3496 26.3722C37.1201 26.7009 37.0677 27.1043 37.2062 27.4803L42.0434 40.6005H111.259Z" fill="white"/>
</svg>
