<svg width="20" height="20" viewBox="0 0 20 20" fill="none" xmlns="http://www.w3.org/2000/svg">
<path d="M10.0004 6.59961C8.15039 6.59961 6.65039 8.09961 6.65039 9.94961C6.65039 11.7996 8.15039 13.2996 10.0004 13.2996C11.8504 13.2996 13.3504 11.7996 13.3504 9.94961C13.3504 8.09961 11.8504 6.59961 10.0004 6.59961Z" fill="#292929"/>
<path d="M13.5 0H6.5C2.95 0 0 2.95 0 6.5V13.45C0 17.05 2.95 19.95 6.5 19.95H13.45C17.05 19.95 19.95 17 19.95 13.45V6.5C20 2.95 17.05 0 13.5 0ZM10 15.2C7.15 15.2 4.8 12.9 4.8 10C4.8 7.1 7.15 4.8 10 4.8C12.85 4.8 15.2 7.1 15.2 10C15.2 12.85 12.9 15.2 10 15.2ZM15.1 6.05C14.4 6.05 13.85 5.45 13.85 4.8C13.85 4.15 14.45 3.5 15.1 3.5C15.8 3.5 16.35 4.1 16.35 4.75C16.35 5.5 15.8 6.05 15.1 6.05Z" fill="#292929"/>
</svg>
