<svg width="39" height="39" viewBox="0 0 39 39" fill="none" xmlns="http://www.w3.org/2000/svg">
<circle cx="19.5" cy="19.5" r="19.5" fill="#5DD7FF"/>
<path fill-rule="evenodd" clip-rule="evenodd" d="M23.4996 23.625C22.5508 23.625 17.5625 19.5862 17.5625 15.3626C17.5625 12.0561 20.2202 9.375 23.4996 9.375C26.779 9.375 29.4375 12.0561 29.4375 15.3626C29.4375 19.5862 24.4484 23.625 23.4996 23.625Z" fill="#5DD7FF" stroke="white" stroke-linecap="round" stroke-linejoin="round"/>
<path fill-rule="evenodd" clip-rule="evenodd" d="M23.5002 18C23.1673 18 21.417 16.5829 21.417 15.1009C21.417 13.9407 22.3495 13 23.5002 13C24.6509 13 25.5837 13.9407 25.5837 15.1009C25.5837 16.5829 23.8331 18 23.5002 18Z" stroke="white" stroke-linecap="round" stroke-linejoin="round"/>
<path fill-rule="evenodd" clip-rule="evenodd" d="M15.4996 30.625C14.5508 30.625 9.5625 26.5862 9.5625 22.3626C9.5625 19.0561 12.2202 16.375 15.4996 16.375C18.779 16.375 21.4375 19.0561 21.4375 22.3626C21.4375 26.5862 16.4484 30.625 15.4996 30.625Z" fill="#5DD7FF" stroke="white" stroke-linecap="round" stroke-linejoin="round"/>
<path fill-rule="evenodd" clip-rule="evenodd" d="M15.5002 25C15.1673 25 13.417 23.5829 13.417 22.1009C13.417 20.9407 14.3495 20 15.5002 20C16.6509 20 17.5837 20.9407 17.5837 22.1009C17.5837 23.5829 15.8331 25 15.5002 25Z" stroke="white" stroke-linecap="round" stroke-linejoin="round"/>
</svg>
