<svg width="107" height="93" viewBox="0 0 107 93" fill="none" xmlns="http://www.w3.org/2000/svg">
<path d="M64.5725 69.4166C74.0658 67.1687 84.7502 68.4404 93.4644 63.4519C100.181 59.6098 104.006 52.4988 104.668 44.9668C106.218 27.3147 92.3717 13.021 76.9406 6.59953C67.4384 2.641 56.942 1.16327 46.6964 2.10365C37.2657 2.97237 27.7456 5.89201 19.9449 11.3104C12.8429 16.2361 7.25435 23.6427 6.86028 32.4733C6.44831 41.5636 11.0517 50.3225 17.3656 56.6544C23.8676 63.1743 32.2862 67.5627 40.7048 71.1272C49.3652 74.7902 58.3481 77.6561 67.0085 81.328C69.0684 82.1968 71.1103 83.1192 73.1164 84.1044C72.7403 84.588 72.3731 85.0627 71.9969 85.5463C67.6175 82.0624 65.2531 76.7067 63.856 71.4407C63.5515 70.2943 65.3337 69.8107 65.6382 70.957C66.9637 75.9455 69.149 80.9429 73.3045 84.2477C74.1643 84.9373 73.0717 86.1195 72.185 85.6896C54.7926 77.1814 34.767 73.5453 19.515 61.0607C12.3145 55.1766 6.61847 46.8924 5.28403 37.5961C4.63921 33.1181 5.06909 28.5148 6.76176 24.2965C8.41862 20.1678 11.0875 16.5138 14.3475 13.4688C21.2704 6.9936 30.4503 3.14254 39.7018 1.28865C50.1534 -0.80704 61.1334 -0.350287 71.3611 2.68578C88.3863 7.73694 105 21.0276 106.531 39.6739C107.167 47.376 104.991 55.4991 99.4649 61.1324C96.2586 64.4102 92.121 66.5417 87.7057 67.7418C82.7799 69.0852 77.6302 69.3718 72.5791 69.945C70.0535 70.2316 67.5369 70.5988 65.065 71.1809C63.9008 71.4586 63.4082 69.6853 64.5725 69.4166Z" fill="white"/>
<path d="M59.5739 76.4166C69.0672 74.1687 79.7517 75.4404 88.4658 70.4519C95.1828 66.6098 99.007 59.4988 99.6697 51.9668C101.219 34.3147 87.3732 20.021 71.9421 13.5995C62.4398 9.641 51.9434 8.16327 41.6978 9.10365C32.2672 9.97237 22.747 12.892 14.9464 18.3104C7.84433 23.2361 2.25581 30.6427 1.86175 39.4733C1.44978 48.5636 6.05313 57.3225 12.3671 63.6544C18.8691 70.1743 27.2877 74.5627 35.7063 78.1272C44.3667 81.7902 53.3495 84.6561 62.0099 88.328C64.0698 89.1968 66.1118 90.1192 68.1179 91.1044C67.7418 91.588 67.3746 92.0627 66.9984 92.5463C62.6189 89.0624 60.2546 83.7067 58.8574 78.4407C58.5529 77.2943 60.3352 76.8107 60.6397 77.957C61.9652 82.9455 64.1504 87.9429 68.306 91.2477C69.1658 91.9373 68.0731 93.1195 67.1865 92.6896C49.794 84.1814 29.7685 80.5453 14.5165 68.0607C7.31593 62.1766 1.61993 53.8924 0.2855 44.5961C-0.359329 40.1181 0.0705566 35.5148 1.76323 31.2965C3.42008 27.1678 6.08896 23.5138 9.34893 20.4688C16.2719 13.9936 25.4517 10.1425 34.7032 8.28865C45.1548 6.19296 56.1348 6.64971 66.3625 9.68578C83.3878 14.7369 100.001 28.0276 101.533 46.6739C102.168 54.376 99.9922 62.4991 94.4663 68.1324C91.2601 71.4102 87.1224 73.5417 82.7072 74.7418C77.7814 76.0852 72.6317 76.3718 67.5806 76.945C65.055 77.2316 62.5383 77.5988 60.0665 78.1809C58.9022 78.4586 58.4096 76.6853 59.5739 76.4166Z" fill="white"/>
<path d="M47.1594 62.2063C47.0979 62.0925 48.7113 61.2007 51.4557 59.3412C54.1764 57.4676 58.0657 54.6073 62.0545 50.248C64.0276 48.066 66.0669 45.5425 67.8176 42.5684C68.693 41.0884 69.5115 39.5041 70.1787 37.8059C70.8411 36.1125 71.3569 34.3005 71.5225 32.4316C71.6975 30.5816 71.4846 28.6084 70.491 27.0667C70.3538 26.8865 70.2544 26.673 70.0888 26.5117L69.6251 26.0089L69.0857 25.5773C68.9106 25.4255 68.6882 25.3354 68.4942 25.2073C67.6567 24.7424 66.682 24.325 65.7215 24.0404C63.7815 23.438 61.6854 23.253 59.6366 23.642C57.5879 24.0167 55.61 24.9274 53.8688 26.2177C53.4146 26.5544 52.9745 26.9149 52.5581 27.2944C52.35 27.4842 52.1465 27.6786 51.9525 27.8779L51.8626 27.968L51.7112 28.134C51.6118 28.2479 51.5125 28.3475 51.4131 28.4661L50.8311 29.1823C50.2728 28.5846 49.7144 27.9917 49.1561 27.3988C48.7681 27.0667 48.399 26.711 48.0016 26.4026L47.3865 25.9615L47.0789 25.7433L46.7524 25.5583L46.1042 25.1883C45.8866 25.0745 45.6547 24.9844 45.4323 24.88C44.9923 24.6571 44.5144 24.5385 44.0507 24.3819C43.8188 24.3108 43.5775 24.2776 43.3409 24.2207C43.1044 24.1637 42.8678 24.1163 42.6265 24.0973C41.6707 23.9455 40.7007 23.9835 39.7497 24.0926C37.8523 24.325 36.0259 25.0223 34.5401 26.0564C33.8162 26.5971 33.1585 27.1853 32.638 27.9348L32.2216 28.4661C32.0844 28.6416 31.9945 28.8455 31.8762 29.0305C31.6539 29.41 31.4173 29.7847 31.2753 30.1974C30.5798 31.7912 30.381 33.5273 30.5325 35.197C30.6886 36.8667 31.1286 38.4842 31.7485 39.9689C32.9787 42.9526 34.6632 45.5188 36.3287 47.7387C37.999 49.9634 39.6692 51.8513 41.1881 53.4641C42.7069 55.0769 44.0743 56.4098 45.2005 57.4818C47.4669 59.6259 48.7776 60.7406 48.7113 60.826C48.6498 60.9066 47.2114 59.9437 44.8125 57.9182C43.6154 56.9031 42.1817 55.6271 40.5871 54.0523C38.9926 52.4822 37.2419 50.618 35.4817 48.3933C33.7358 46.1639 31.9425 43.574 30.594 40.448C29.9126 38.8922 29.4063 37.1656 29.2076 35.3204C29.0136 33.4799 29.2076 31.4876 29.9883 29.6424C30.1492 29.1681 30.4094 28.7364 30.6602 28.3C30.7927 28.0866 30.8968 27.8541 31.0529 27.6502L31.5119 27.0478C32.0844 26.2177 32.8746 25.4824 33.7121 24.8705C34.5591 24.2539 35.5054 23.77 36.4848 23.3905C37.469 23.0111 38.5052 22.736 39.5746 22.6031C40.6439 22.4751 41.7464 22.4324 42.8394 22.5936C43.1138 22.6174 43.3883 22.6695 43.658 22.7312C43.9277 22.7929 44.2021 22.8356 44.4718 22.9162C45.0017 23.0917 45.5459 23.2293 46.0522 23.4807C46.3077 23.5945 46.5726 23.6989 46.8187 23.8269L47.5521 24.2444L47.9212 24.4531L48.2666 24.695L48.9574 25.1883C49.4022 25.5346 49.8138 25.9236 50.2396 26.2935L50.7838 26.8675C50.7838 26.8722 50.7885 26.8722 50.7885 26.8722L50.8548 26.8058C51.0724 26.5829 51.2948 26.3694 51.5219 26.1607C51.9762 25.7433 52.4588 25.3496 52.9556 24.9796C54.8577 23.5661 57.0579 22.5462 59.3622 22.1335C61.6665 21.7019 64.0323 21.9248 66.171 22.5984C67.2546 22.9352 68.2435 23.3573 69.2371 23.9123C69.4831 24.0689 69.7481 24.1922 69.9705 24.3819L70.6471 24.9369C70.8459 25.1456 71.0398 25.3638 71.2338 25.582C71.4373 25.7907 71.5698 26.0516 71.7354 26.2841C72.341 27.2565 72.729 28.338 72.8852 29.4147C73.0366 30.4868 73.0697 31.5588 72.9467 32.5834C72.7385 34.642 72.1612 36.5584 71.4468 38.3277C70.7228 40.1018 69.8475 41.7335 68.9201 43.2514C67.9927 44.7741 66.9896 46.1687 65.9675 47.4541C64.955 48.7538 63.8904 49.9207 62.8589 51.0165C58.6856 55.3662 54.6353 58.1269 51.7916 59.863C51.0866 60.3137 50.4242 60.6504 49.8659 60.9683C49.3075 61.2861 48.8154 61.5232 48.418 61.713C47.6136 62.0782 47.183 62.2537 47.1594 62.2063Z" fill="white"/>
</svg>
