<svg width="90" height="89" viewBox="0 0 90 89" fill="none" xmlns="http://www.w3.org/2000/svg">
<mask id="path-1-inside-1" fill="white">
<path d="M89.3417 32.76C89.2017 32.61 89.0717 32.45 88.9417 32.28C88.3417 32.11 87.8317 31.98 87.3517 31.93C84.7217 31.66 82.0817 31.51 79.5117 31.49C76.9517 31.47 74.1717 31.46 70.7717 31.46C68.8317 31.46 66.8917 31.46 64.9517 31.47C63.0217 31.47 61.0917 31.48 59.1717 31.48H58.6917L58.5017 31.04C58.2817 30.55 58.0717 30.08 57.8517 29.64C57.4117 28.71 57.0017 27.84 56.7017 26.92C55.5917 23.55 54.4917 20.11 53.4317 16.78C52.5117 13.9 51.5617 10.92 50.6017 8C50.2417 6.88 49.8117 5.75 49.4117 4.66C49.0617 3.72 48.7017 2.75 48.3717 1.78C47.9517 0.53 47.3517 0.04 46.1917 0C46.0817 0.19 45.9717 0.37 45.8617 0.57C45.4617 1.26 45.0417 1.98 44.6817 2.71C43.8617 4.39 43.0317 6.07 42.2117 7.75C39.0817 14.13 35.8417 20.73 32.7717 27.27C31.7017 29.56 30.3217 30.53 28.1717 30.53C27.9917 30.53 27.8117 30.52 27.6217 30.51C23.7717 30.23 19.6717 30.02 14.3317 29.82C11.1217 29.7 7.72168 29.64 3.63168 29.64H3.49168C2.91168 29.64 2.21168 29.81 1.34168 30.15C0.621683 30.44 0.151683 30.86 0.0316827 31.33C-0.108317 31.9 0.241683 32.48 0.571683 32.86C1.19168 33.59 1.94168 34.23 2.73168 34.91C3.00168 35.14 3.27168 35.38 3.54168 35.61C8.55168 40.06 13.4917 44.44 18.7317 49.07L23.4017 53.21L23.7117 53.49L23.6317 53.9L22.6717 58.79C20.8617 67.95 19.0317 77.24 17.2117 86.45C17.2217 86.47 17.2217 86.5 17.2317 86.52C17.8317 86.83 18.4017 86.98 18.9517 86.98C20.1617 86.98 21.1917 86.25 22.2917 85.47L22.4117 85.39C28.0517 81.41 33.8117 77.33 39.3717 73.39C41.4317 71.93 43.4917 70.47 45.5617 69.01L45.9617 68.73L46.3817 68.98C51.4917 72.1 55.8617 76.11 60.0817 79.99C63.3817 83.03 66.8017 86.16 70.4817 88.77C70.6317 88.81 70.7717 88.86 70.9017 88.91C71.0317 88.88 71.1617 88.86 71.3017 88.84C71.3717 88.77 71.4517 88.7 71.5217 88.63C71.5517 88.55 71.5817 88.47 71.6117 88.41C71.6317 88.36 71.6517 88.31 71.6717 88.26C71.7617 88.02 71.8417 87.77 71.9217 87.52C71.9717 87.38 72.0217 87.24 72.0617 87.1C72.0817 87.04 72.1017 86.99 72.1217 86.95C72.0717 86.39 72.0317 85.85 71.9217 85.33L71.5717 83.58C69.8217 74.85 68.0117 65.83 66.0517 57C65.4117 54.12 66.0717 52.27 68.3517 50.61C74.4317 46.18 80.7617 41.43 88.2917 35.66C88.6217 35.41 88.9317 35.08 89.1917 34.77C89.2817 34.36 89.3717 33.97 89.4417 33.57C89.4617 33.46 89.4817 33.35 89.4917 33.25C89.4717 33.19 89.4517 33.12 89.4317 33.06C89.4017 32.96 89.3717 32.86 89.3417 32.76ZM81.4517 36.69C80.7017 37.23 80.0217 37.72 79.4217 38.16C78.2417 39.02 77.2217 39.75 76.2017 40.45C74.6617 41.5 73.0817 42.56 71.5617 43.58C68.6717 45.51 65.6817 47.51 62.8217 49.57C61.3317 50.64 60.6817 51.17 60.4917 51.71C60.3017 52.26 60.5217 53.12 60.9317 54.68C60.9917 54.9 61.0517 55.14 61.1217 55.39C62.5617 60.96 63.8817 66.56 65.2817 72.49C65.8817 75.02 66.5017 77.64 67.1417 80.32L67.7017 82.64L65.9317 81.03C65.1817 80.35 64.5217 79.74 63.8917 79.16C62.6817 78.04 61.6317 77.08 60.5717 76.17C59.6417 75.37 58.7017 74.55 57.7917 73.75C55.1317 71.42 52.3717 69.01 49.5317 66.84C47.8717 65.57 46.8917 65.08 46.0317 65.08C45.0317 65.08 43.9017 65.77 42.2917 66.97C38.0117 70.14 33.6817 73.39 29.4917 76.53C27.1517 78.28 24.5917 80.99 21.8217 82.01C21.7417 80.49 22.2317 78.99 22.5217 77.51C22.7917 76.16 23.0617 74.77 23.3717 73.41C23.6717 72.08 23.9717 70.74 24.2617 69.41C25.2917 64.77 26.3617 59.97 27.5517 55.28C28.0317 53.37 27.6717 52.24 26.1417 50.97C21.7817 47.32 17.4117 43.54 13.1817 39.88C11.8317 38.71 10.4817 37.54 9.12168 36.37C8.64168 35.95 8.18168 35.52 7.66168 35.03C6.68168 34.11 5.50168 33.42 4.64168 32.38C8.63168 31.75 13.1817 32.71 17.1917 33.01C21.5917 33.34 26.1417 33.69 30.6217 33.97C30.9417 33.99 31.2417 34 31.5117 34C34.0717 34 34.7517 33.19 35.9417 30.19C38.1617 24.56 40.5717 18.9 42.9017 13.42C43.9517 10.95 44.5917 7.27 46.7617 5.55C46.8617 5.47 46.9917 5.39 47.1217 5.42C47.2117 5.44 47.2717 5.52 47.3217 5.59C47.8117 6.26 47.7217 7.39 47.9317 8.21C48.1817 9.2 48.5217 10.18 48.8217 11.16C49.2717 12.67 49.7317 14.18 50.1817 15.69L55.4117 33.1C58.2917 34.14 61.1917 34.24 63.7017 34.24C64.1717 34.24 64.6517 34.24 65.1217 34.23C65.6017 34.23 66.0717 34.22 66.5417 34.22C66.9917 34.22 67.3917 34.22 67.7717 34.23C70.5817 34.28 73.3317 34.58 76.5017 34.91C77.9717 35.07 79.4917 35.23 81.1217 35.38L83.0817 35.56L81.4517 36.69Z"/>
</mask>
<path d="M89.3417 32.76C89.2017 32.61 89.0717 32.45 88.9417 32.28C88.3417 32.11 87.8317 31.98 87.3517 31.93C84.7217 31.66 82.0817 31.51 79.5117 31.49C76.9517 31.47 74.1717 31.46 70.7717 31.46C68.8317 31.46 66.8917 31.46 64.9517 31.47C63.0217 31.47 61.0917 31.48 59.1717 31.48H58.6917L58.5017 31.04C58.2817 30.55 58.0717 30.08 57.8517 29.64C57.4117 28.71 57.0017 27.84 56.7017 26.92C55.5917 23.55 54.4917 20.11 53.4317 16.78C52.5117 13.9 51.5617 10.92 50.6017 8C50.2417 6.88 49.8117 5.75 49.4117 4.66C49.0617 3.72 48.7017 2.75 48.3717 1.78C47.9517 0.53 47.3517 0.04 46.1917 0C46.0817 0.19 45.9717 0.37 45.8617 0.57C45.4617 1.26 45.0417 1.98 44.6817 2.71C43.8617 4.39 43.0317 6.07 42.2117 7.75C39.0817 14.13 35.8417 20.73 32.7717 27.27C31.7017 29.56 30.3217 30.53 28.1717 30.53C27.9917 30.53 27.8117 30.52 27.6217 30.51C23.7717 30.23 19.6717 30.02 14.3317 29.82C11.1217 29.7 7.72168 29.64 3.63168 29.64H3.49168C2.91168 29.64 2.21168 29.81 1.34168 30.15C0.621683 30.44 0.151683 30.86 0.0316827 31.33C-0.108317 31.9 0.241683 32.48 0.571683 32.86C1.19168 33.59 1.94168 34.23 2.73168 34.91C3.00168 35.14 3.27168 35.38 3.54168 35.61C8.55168 40.06 13.4917 44.44 18.7317 49.07L23.4017 53.21L23.7117 53.49L23.6317 53.9L22.6717 58.79C20.8617 67.95 19.0317 77.24 17.2117 86.45C17.2217 86.47 17.2217 86.5 17.2317 86.52C17.8317 86.83 18.4017 86.98 18.9517 86.98C20.1617 86.98 21.1917 86.25 22.2917 85.47L22.4117 85.39C28.0517 81.41 33.8117 77.33 39.3717 73.39C41.4317 71.93 43.4917 70.47 45.5617 69.01L45.9617 68.73L46.3817 68.98C51.4917 72.1 55.8617 76.11 60.0817 79.99C63.3817 83.03 66.8017 86.16 70.4817 88.77C70.6317 88.81 70.7717 88.86 70.9017 88.91C71.0317 88.88 71.1617 88.86 71.3017 88.84C71.3717 88.77 71.4517 88.7 71.5217 88.63C71.5517 88.55 71.5817 88.47 71.6117 88.41C71.6317 88.36 71.6517 88.31 71.6717 88.26C71.7617 88.02 71.8417 87.77 71.9217 87.52C71.9717 87.38 72.0217 87.24 72.0617 87.1C72.0817 87.04 72.1017 86.99 72.1217 86.95C72.0717 86.39 72.0317 85.85 71.9217 85.33L71.5717 83.58C69.8217 74.85 68.0117 65.83 66.0517 57C65.4117 54.12 66.0717 52.27 68.3517 50.61C74.4317 46.18 80.7617 41.43 88.2917 35.66C88.6217 35.41 88.9317 35.08 89.1917 34.77C89.2817 34.36 89.3717 33.97 89.4417 33.57C89.4617 33.46 89.4817 33.35 89.4917 33.25C89.4717 33.19 89.4517 33.12 89.4317 33.06C89.4017 32.96 89.3717 32.86 89.3417 32.76ZM81.4517 36.69C80.7017 37.23 80.0217 37.72 79.4217 38.16C78.2417 39.02 77.2217 39.75 76.2017 40.45C74.6617 41.5 73.0817 42.56 71.5617 43.58C68.6717 45.51 65.6817 47.51 62.8217 49.57C61.3317 50.64 60.6817 51.17 60.4917 51.71C60.3017 52.26 60.5217 53.12 60.9317 54.68C60.9917 54.9 61.0517 55.14 61.1217 55.39C62.5617 60.96 63.8817 66.56 65.2817 72.49C65.8817 75.02 66.5017 77.64 67.1417 80.32L67.7017 82.64L65.9317 81.03C65.1817 80.35 64.5217 79.74 63.8917 79.16C62.6817 78.04 61.6317 77.08 60.5717 76.17C59.6417 75.37 58.7017 74.55 57.7917 73.75C55.1317 71.42 52.3717 69.01 49.5317 66.84C47.8717 65.57 46.8917 65.08 46.0317 65.08C45.0317 65.08 43.9017 65.77 42.2917 66.97C38.0117 70.14 33.6817 73.39 29.4917 76.53C27.1517 78.28 24.5917 80.99 21.8217 82.01C21.7417 80.49 22.2317 78.99 22.5217 77.51C22.7917 76.16 23.0617 74.77 23.3717 73.41C23.6717 72.08 23.9717 70.74 24.2617 69.41C25.2917 64.77 26.3617 59.97 27.5517 55.28C28.0317 53.37 27.6717 52.24 26.1417 50.97C21.7817 47.32 17.4117 43.54 13.1817 39.88C11.8317 38.71 10.4817 37.54 9.12168 36.37C8.64168 35.95 8.18168 35.52 7.66168 35.03C6.68168 34.11 5.50168 33.42 4.64168 32.38C8.63168 31.75 13.1817 32.71 17.1917 33.01C21.5917 33.34 26.1417 33.69 30.6217 33.97C30.9417 33.99 31.2417 34 31.5117 34C34.0717 34 34.7517 33.19 35.9417 30.19C38.1617 24.56 40.5717 18.9 42.9017 13.42C43.9517 10.95 44.5917 7.27 46.7617 5.55C46.8617 5.47 46.9917 5.39 47.1217 5.42C47.2117 5.44 47.2717 5.52 47.3217 5.59C47.8117 6.26 47.7217 7.39 47.9317 8.21C48.1817 9.2 48.5217 10.18 48.8217 11.16C49.2717 12.67 49.7317 14.18 50.1817 15.69L55.4117 33.1C58.2917 34.14 61.1917 34.24 63.7017 34.24C64.1717 34.24 64.6517 34.24 65.1217 34.23C65.6017 34.23 66.0717 34.22 66.5417 34.22C66.9917 34.22 67.3917 34.22 67.7717 34.23C70.5817 34.28 73.3317 34.58 76.5017 34.91C77.9717 35.07 79.4917 35.23 81.1217 35.38L83.0817 35.56L81.4517 36.69Z" fill="white" stroke="#97DFF8" stroke-width="1.8" mask="url(#path-1-inside-1)"/>
</svg>
