<svg width="49" height="95" viewBox="0 0 49 95" fill="none" xmlns="http://www.w3.org/2000/svg">
<path fill-rule="evenodd" clip-rule="evenodd" d="M3.65749 27.0665C3.74671 27.182 3.84469 27.2572 3.94791 27.3027C4.22259 28.9578 4.64424 30.5883 5.26183 32.1472C6.83118 36.1047 9.65495 39.3624 13.3185 41.5213C20.4235 45.7062 29.6786 44.716 36.3444 40.1864C39.3641 38.1342 41.7837 35.3821 43.598 32.2259C45.1009 29.6121 46.2696 26.3544 46.2521 23.2017C46.3623 23.1265 46.462 23.0233 46.5443 22.8868C49.3856 18.2592 49.1669 12.3842 46.518 7.72693C45.3126 5.60648 43.5263 3.88492 41.2711 2.94191C39.805 2.32956 38.1027 2.29282 36.5508 2.48527C35.6306 2.59899 34.4671 2.79145 33.7743 3.46502C33.0867 2.16685 31.4929 1.62799 30.109 1.31657C27.7821 0.793456 25.4079 0.415552 23.0215 0.324575C18.4884 0.14962 13.9624 0.831946 9.89989 2.90692C2.70923 6.58273 -1.74688 14.9683 1.21511 22.8571C1.79246 24.3949 2.65499 25.7718 3.65749 27.0665ZM43.4371 27.5669C42.7215 29.8623 41.4618 32.009 40.0237 33.923C37.6233 37.1159 34.1732 39.5496 30.4344 40.9072C22.6524 43.731 13.3045 41.6578 8.55624 34.5686C5.28282 29.6821 4.85768 23.5324 5.24958 17.8184C6.37104 18.2802 7.67096 18.4045 8.85016 18.4972C10.1019 18.5968 11.3671 18.5828 12.6259 18.5688H12.626L12.6263 18.5688C12.9368 18.5653 13.247 18.5619 13.5565 18.5602C16.5447 18.5444 19.5329 18.4167 22.4757 17.8691C25.4412 17.3162 28.0078 16.102 30.6163 14.6412C31.806 13.9746 32.9293 13.2293 33.846 12.2093C34.0577 11.9748 34.2624 11.7019 34.4566 11.408C34.5476 11.7142 34.6508 12.0133 34.7523 12.2985C35.2334 13.6544 36.0767 14.7899 37.0862 15.7941C38.5368 17.2368 40.326 18.2712 42.1029 19.2985C42.6813 19.6329 43.2583 19.9665 43.822 20.3132C44.2121 22.8221 44.2051 25.1035 43.4371 27.5669ZM45.7675 19.9826C45.757 19.9476 45.7447 19.9143 45.7325 19.8811C45.7355 19.8465 45.7368 19.8117 45.736 19.777C45.6915 19.8492 45.6631 19.8934 45.6631 19.8934L45.3132 19.1061C45.3132 19.1061 43.9109 18.4437 43.0388 17.9689L42.9938 17.9444C41.8638 17.3293 41.2116 16.9743 40.152 16.2193C39.9877 16.1023 39.8332 15.9942 39.6863 15.8914C38.8968 15.3389 38.3254 14.9391 37.6151 14.1199C36.9696 13.3754 36.6881 12.8851 36.2155 12.0204C35.8196 11.296 35.5993 10.8799 35.3407 10.0959C35.1642 9.56086 34.9908 8.69627 34.9908 8.69627C34.9908 8.69627 33.8612 9.85984 33.1538 10.6208C33.0121 10.7732 32.8989 10.9056 32.7913 11.0314C32.6112 11.2419 32.4469 11.434 32.1915 11.6705C31.4041 12.3997 30.7223 12.7148 29.9112 13.0896C29.5886 13.2387 29.2456 13.3972 28.8674 13.595C28.6478 13.7098 28.4433 13.8181 28.2488 13.921C27.1716 14.4912 26.4034 14.8978 25.1058 15.3446C23.7426 15.8139 22.9387 15.9668 21.5193 16.2193C19.8961 16.5081 18.9663 16.5619 17.3203 16.6567C15.9931 16.7332 15.0419 16.7105 13.978 16.6851C13.4015 16.6713 12.792 16.6567 12.0717 16.6567C11.6275 16.6567 11.2513 16.6702 10.8955 16.683C10.2388 16.7065 9.65173 16.7276 8.83499 16.6567C7.76629 16.564 7.16076 16.4916 6.12319 16.2193C5.67375 16.1014 4.98598 15.8694 4.98598 15.8694C4.98598 15.8694 4.69308 16.3361 4.54859 16.6567C4.28641 17.2386 4.1112 18.2313 4.1112 18.2313L4.03375 18.2032C3.56894 20.105 3.48297 22.0637 3.5945 24.024C1.90793 20.9483 1.49679 17.4247 2.4503 13.9518C3.43005 10.3863 5.89167 7.41726 8.92714 5.38253C12.4577 3.01539 16.5324 2.10737 20.7279 1.93766C22.04 1.88518 23.3522 1.92192 24.6609 2.02339C25.3627 2.07767 26.055 2.19501 26.7467 2.31223C27.3481 2.41418 27.9491 2.51603 28.5554 2.57625C30.025 2.72321 32.3152 2.99614 33.2897 4.26457C33.2774 4.50601 33.5853 4.68971 33.7988 4.55674C34.7901 3.93824 36.2454 3.94735 37.3876 3.95451L37.4501 3.9549C38.7693 3.96365 40.0954 4.25932 41.2641 4.87516C43.0609 5.82167 44.3083 7.52748 45.2076 9.30153C46.2069 11.275 46.6841 13.5046 46.6181 15.7116C46.6206 15.7344 46.623 15.7578 46.6253 15.782C46.6781 16.3271 46.5379 17.1816 46.5379 17.1816C46.5379 17.1816 46.4494 18.2853 46.1879 18.9312C46.1395 19.0508 46.0726 19.1857 46.0028 19.3158C45.9307 19.54 45.8523 19.7624 45.7675 19.9826ZM48.6525 77.039C48.6507 75.3292 48.7382 73.6073 48.8258 71.8826C49.0022 68.4097 49.1792 64.9252 48.6297 61.5047C47.8914 56.9156 45.0851 53.1803 40.6395 51.6845C38.4683 50.9531 36.1537 50.9234 33.888 50.9759C32.3652 51.0121 30.8445 51.0995 29.3239 51.1869L29.3237 51.1869H29.3237C28.0491 51.2602 26.7745 51.3335 25.4989 51.3765C23.8801 51.4318 22.0995 51.3563 20.256 51.278L20.2558 51.278C12.9398 50.9676 4.63154 50.6151 1.50554 58.2295C0.231863 61.335 0.384074 64.9356 0.625512 68.216C0.686809 69.0474 0.762591 69.8775 0.838352 70.7074C0.91612 71.5592 0.993867 72.4109 1.0559 73.2634C1.22386 75.5711 1.10489 77.8788 0.975423 80.1847C0.855329 82.3028 0.650223 84.4145 0.445206 86.5254C0.411285 86.8746 0.377366 87.2238 0.343835 87.573C0.31093 87.9174 0.27453 88.2624 0.238088 88.6078C0.024573 90.6316 -0.190385 92.6691 0.287849 94.6657C0.417316 95.2046 1.15913 95.0401 1.20112 94.5415C1.39966 92.1242 1.72988 89.7209 2.06013 87.3174C2.47777 84.2778 2.89546 81.238 3.04689 78.1692C3.17812 75.525 2.97147 72.9263 2.76384 70.3154C2.67529 69.2017 2.58655 68.0859 2.52378 66.9633C2.34532 63.7791 2.37332 60.3063 4.07738 57.4947C6.33255 53.7717 11.2628 53.0928 15.2238 53.0928C16.6351 53.0928 18.0439 53.1744 19.4529 53.2559C20.6709 53.3264 21.889 53.3969 23.109 53.4148C24.0076 53.4281 24.9051 53.4201 25.8025 53.4009L25.8058 53.3972C25.8058 53.3972 29.5858 53.0135 32.0167 52.9598C32.4557 52.9501 32.8528 52.9359 33.2264 52.9225C34.5392 52.8753 35.562 52.8386 37.0904 53.0473C38.3718 53.2223 39.1048 53.3248 40.3271 53.7471C40.4401 53.7862 40.5461 53.8219 40.647 53.8559C41.205 54.0438 41.6068 54.1791 42.1641 54.5344C42.6701 54.857 42.9433 55.1334 43.3138 55.5081C43.3918 55.5869 43.4741 55.6702 43.5638 55.7591C44.1137 56.3045 44.4245 56.6169 44.876 57.2462C45.3131 57.8557 45.5277 58.2256 45.8382 58.9083C46.2095 59.7246 46.366 60.2152 46.538 61.0953C46.6209 61.519 46.6455 61.8104 46.6758 62.1682C46.6866 62.295 46.698 62.4301 46.713 62.5824C46.8202 63.6724 46.8473 64.2871 46.8879 65.3817C46.9475 66.9862 46.8879 69.4931 46.8879 69.4931C46.8879 69.4931 46.694 72.1572 46.6255 73.867C46.5626 75.4376 46.5319 76.3191 46.538 77.891C46.5426 79.0531 46.569 79.7698 46.6077 80.8173L46.6255 81.3026C46.6488 81.9456 46.6793 82.4617 46.709 82.9646C46.7457 83.5842 46.7812 84.1839 46.8005 84.9767C46.8281 86.1131 46.82 86.8724 46.8098 87.8251C46.8065 88.1322 46.803 88.4593 46.8005 88.8257L46.7131 94.068C47.0678 94.9251 48.5732 94.783 48.621 93.6632C48.6479 93.0086 48.7094 92.3563 48.771 91.7037L48.771 91.7036L48.771 91.7035C48.8293 91.0847 48.8877 90.4656 48.9167 89.844C48.9849 88.3813 48.9604 86.917 48.9254 85.4543C48.8972 84.354 48.8496 83.2534 48.802 82.152C48.7283 80.4499 48.6546 78.746 48.6525 77.039Z" fill="white"/>
<path d="M17.5479 32.4189C18.7694 33.6405 20.0123 35.1288 21.6382 35.8216C22.4679 36.1751 23.4003 36.0583 24.2536 35.8668C26.579 35.345 28.4423 34.1176 30.4977 32.9891" stroke="white" stroke-width="2" stroke-linecap="round" stroke-linejoin="round"/>
<path d="M13.8828 23.0522C14.8016 22.5987 15.8027 22.3096 16.8284 22.2377C17.8281 22.1677 18.5349 22.4362 19.4211 22.8078" stroke="white" stroke-width="2" stroke-linecap="round" stroke-linejoin="round"/>
<path d="M28.3799 22.8897C30.0576 22.6173 31.5847 22.5306 33.2757 22.6816C33.8104 22.7293 34.3615 22.7801 34.8955 22.8082" stroke="white" stroke-width="2" stroke-linecap="round" stroke-linejoin="round"/>
</svg>
