<svg width="38" height="28" viewBox="0 0 38 28" fill="none" xmlns="http://www.w3.org/2000/svg">
<path d="M7.42399 27.938V26.0796C7.42399 25.3672 6.98656 24.9026 6.23669 24.9026C5.86176 24.9026 5.45558 25.0265 5.17438 25.4292C4.95566 25.0885 4.64321 24.9026 4.17454 24.9026C3.8621 24.9026 3.54965 24.9956 3.29969 25.3363V24.9646H2.64355V27.938H3.29969V26.2964C3.29969 25.7699 3.58089 25.5221 4.01832 25.5221C4.45574 25.5221 4.67446 25.8009 4.67446 26.2964V27.938H5.3306V26.2964C5.3306 25.7699 5.64304 25.5221 6.04922 25.5221C6.48665 25.5221 6.70536 25.8009 6.70536 26.2964V27.938H7.42399ZM17.1411 24.9646H16.0788V24.0664H15.4226V24.9646H14.829V25.5531H15.4226V26.9159C15.4226 27.5973 15.7038 28 16.4537 28C16.7349 28 17.0473 27.9071 17.2661 27.7832L17.0786 27.2256C16.8911 27.3495 16.6724 27.3805 16.5162 27.3805C16.2037 27.3805 16.0788 27.1947 16.0788 26.8849V25.5531H17.1411V24.9646ZM22.7026 24.9026C22.3277 24.9026 22.0777 25.0885 21.9215 25.3363V24.9646H21.2654V27.938H21.9215V26.2655C21.9215 25.7699 22.1402 25.4911 22.5464 25.4911C22.6714 25.4911 22.8276 25.5221 22.9526 25.5531L23.1401 24.9336C23.0151 24.9026 22.8276 24.9026 22.7026 24.9026ZM14.2978 25.2124C13.9854 24.9956 13.5479 24.9026 13.0793 24.9026C12.3294 24.9026 11.8295 25.2743 11.8295 25.8628C11.8295 26.3584 12.2044 26.6372 12.8606 26.7301L13.173 26.761C13.5167 26.823 13.7042 26.9159 13.7042 27.0708C13.7042 27.2876 13.4542 27.4425 13.0168 27.4425C12.5794 27.4425 12.2357 27.2876 12.017 27.1327L11.7045 27.6283C12.0482 27.8761 12.5169 28 12.9855 28C13.8604 28 14.3603 27.5973 14.3603 27.0398C14.3603 26.5133 13.9541 26.2345 13.3292 26.1416L13.0168 26.1106C12.7356 26.0796 12.5169 26.0177 12.5169 25.8318C12.5169 25.615 12.7356 25.4911 13.0793 25.4911C13.4542 25.4911 13.8291 25.646 14.0166 25.7389L14.2978 25.2124ZM31.7323 24.9026C31.3574 24.9026 31.1075 25.0885 30.9512 25.3363V24.9646H30.2951V27.938H30.9512V26.2655C30.9512 25.7699 31.1699 25.4911 31.5761 25.4911C31.7011 25.4911 31.8573 25.5221 31.9823 25.5531L32.1698 24.9336C32.0448 24.9026 31.8573 24.9026 31.7323 24.9026ZM23.3588 26.4513C23.3588 27.3495 23.9837 28 24.9522 28C25.3897 28 25.7021 27.9071 26.0146 27.6593L25.7021 27.1327C25.4522 27.3186 25.2022 27.4115 24.921 27.4115C24.3898 27.4115 24.0149 27.0398 24.0149 26.4513C24.0149 25.8938 24.3898 25.5221 24.921 25.4911C25.2022 25.4911 25.4522 25.5841 25.7021 25.7699L26.0146 25.2433C25.7021 24.9956 25.3897 24.9026 24.9522 24.9026C23.9837 24.9026 23.3588 25.5531 23.3588 26.4513ZM29.4202 26.4513V24.9646H28.7641V25.3363C28.5454 25.0575 28.2329 24.9026 27.8268 24.9026C26.9832 24.9026 26.327 25.5531 26.327 26.4513C26.327 27.3495 26.9832 28 27.8268 28C28.2642 28 28.5766 27.8451 28.7641 27.5664V27.938H29.4202V26.4513ZM27.0144 26.4513C27.0144 25.9248 27.3581 25.4911 27.9205 25.4911C28.4517 25.4911 28.8266 25.8938 28.8266 26.4513C28.8266 26.9779 28.4517 27.4115 27.9205 27.4115C27.3581 27.3805 27.0144 26.9779 27.0144 26.4513ZM19.172 24.9026C18.2971 24.9026 17.6722 25.5221 17.6722 26.4513C17.6722 27.3805 18.2971 28 19.2032 28C19.6407 28 20.0781 27.8761 20.4218 27.5973L20.1093 27.1327C19.8594 27.3186 19.5469 27.4425 19.2345 27.4425C18.8283 27.4425 18.4221 27.2566 18.3284 26.7301H20.5467C20.5467 26.6372 20.5467 26.5752 20.5467 26.4823C20.578 25.5221 20.0156 24.9026 19.172 24.9026ZM19.172 25.4602C19.5782 25.4602 19.8594 25.7079 19.9219 26.1725H18.3596C18.4221 25.7699 18.7033 25.4602 19.172 25.4602ZM35.4505 26.4513V23.7876H34.7943V25.3363C34.5756 25.0575 34.2632 24.9026 33.857 24.9026C33.0134 24.9026 32.3572 25.5531 32.3572 26.4513C32.3572 27.3495 33.0134 28 33.857 28C34.2944 28 34.6069 27.8451 34.7943 27.5664V27.938H35.4505V26.4513ZM33.0446 26.4513C33.0446 25.9248 33.3883 25.4911 33.9507 25.4911C34.4819 25.4911 34.8568 25.8938 34.8568 26.4513C34.8568 26.9779 34.4819 27.4115 33.9507 27.4115C33.3883 27.3805 33.0446 26.9779 33.0446 26.4513ZM11.1109 26.4513V24.9646H10.4547V25.3363C10.236 25.0575 9.92356 24.9026 9.51738 24.9026C8.67378 24.9026 8.01763 25.5531 8.01763 26.4513C8.01763 27.3495 8.67378 28 9.51738 28C9.95481 28 10.2673 27.8451 10.4547 27.5664V27.938H11.1109V26.4513ZM8.67377 26.4513C8.67377 25.9248 9.01746 25.4911 9.57987 25.4911C10.111 25.4911 10.486 25.8938 10.486 26.4513C10.486 26.9779 10.111 27.4115 9.57987 27.4115C9.01746 27.3805 8.67377 26.9779 8.67377 26.4513Z" fill="#292929"/>
<path d="M23.9212 2.38501H14.0791V19.916H23.9212V2.38501Z" fill="#FF5F00"/>
<path d="M14.7037 11.1505C14.7037 7.5885 16.3909 4.42921 18.9842 2.38496C17.0783 0.898235 14.6724 0 12.0479 0C5.8302 0 0.799805 4.98673 0.799805 11.1505C0.799805 17.3142 5.8302 22.3009 12.0479 22.3009C14.6724 22.3009 17.0783 21.4027 18.9842 19.916C16.3909 17.9027 14.7037 14.7124 14.7037 11.1505Z" fill="#EB001B"/>
<path d="M37.2 11.1505C37.2 17.3142 32.1696 22.3009 25.9519 22.3009C23.3274 22.3009 20.9215 21.4027 19.0156 19.916C21.6402 17.8717 23.2961 14.7124 23.2961 11.1505C23.2961 7.5885 21.6089 4.42921 19.0156 2.38496C20.9215 0.898235 23.3274 0 25.9519 0C32.1696 0 37.2 5.01771 37.2 11.1505Z" fill="#F79E1B"/>
</svg>
