<svg width="104" height="101" viewBox="0 0 104 101" fill="none" xmlns="http://www.w3.org/2000/svg">
<path d="M57.3963 100.944C56.5837 100.905 54.515 100.835 52.8052 100.795C51.0954 100.755 49.5551 100.666 49.3856 100.606C49.2161 100.541 48.8722 100.472 48.6229 100.452C47.0926 100.332 45.8613 100.123 44.8643 99.8146C44.2362 99.6205 43.2891 99.3667 42.7557 99.2522C42.2224 99.1378 41.5544 98.9686 41.2752 98.879C40.9911 98.7894 40.378 98.655 39.9094 98.5854C39.4408 98.5157 38.9423 98.3813 38.8027 98.2867C38.6632 98.1972 38.3641 98.1175 38.1348 98.1175C37.741 98.1175 35.3233 97.3411 33.5188 96.6344C33.0103 96.4354 32.4421 96.296 32.138 96.296C31.814 96.296 31.5647 96.2313 31.475 96.1268C31.3952 96.0323 31.2706 95.9576 31.1909 95.9576C31.1111 95.9576 30.9267 95.863 30.7771 95.7436C30.6276 95.6291 30.3285 95.4948 30.1091 95.445C29.8898 95.4002 29.6605 95.3206 29.5957 95.2708C29.5309 95.221 29.3016 95.1613 29.0823 95.1414C28.7882 95.1115 28.6486 95.0269 28.5439 94.808C28.4342 94.584 28.19 94.4347 27.517 94.1908C27.0285 94.0167 26.5051 93.7877 26.3456 93.6832C26.1911 93.5787 25.4433 93.1955 24.6956 92.8322C23.9429 92.4689 22.9659 91.9364 22.5272 91.6477C22.0885 91.3591 21.4853 90.9957 21.1962 90.8415C20.9021 90.6872 20.3986 90.3189 20.0796 90.0253C19.7556 89.7316 19.307 89.3982 19.0777 89.2937C18.8484 89.1842 18.4446 88.9005 18.1804 88.6616C17.9162 88.4178 17.6121 88.2237 17.5074 88.2237C17.2083 88.2237 14.1127 85.153 13.5694 84.3169C13.3999 84.0581 13.1457 83.6948 13.0011 83.5107C12.8566 83.3265 12.6522 83.0379 12.5475 82.8687C12.4428 82.6994 12.2484 82.5253 12.1188 82.4854C11.9892 82.4456 11.7998 82.2466 11.6951 82.0475C11.5904 81.8484 10.9125 81.0969 10.1897 80.3753C9.46187 79.6536 8.7291 78.8474 8.55463 78.5836C8.38514 78.3199 8.19073 78.1009 8.13091 78.1009C8.0711 78.1009 7.78198 77.6281 7.49285 77.0508C7.20373 76.4735 6.89966 75.9211 6.82488 75.8265C6.75011 75.7319 6.51582 75.3487 6.31144 74.9755C6.10706 74.6022 5.86779 74.214 5.78305 74.1195C5.6983 74.0249 5.469 73.6417 5.26961 73.2684C5.07021 72.8952 4.85586 72.5219 4.78608 72.4373C4.64151 72.2581 4.19288 71.223 3.89877 70.3919C3.78412 70.0584 3.58473 69.6503 3.46509 69.4761C2.86691 68.64 2.28866 66.9131 2.32854 66.0919C2.3435 65.8381 2.31359 65.5693 2.26872 65.4997C2.22386 65.43 2.1441 65.0468 2.08428 64.6536C2.02945 64.2605 1.92477 63.6831 1.85498 63.3696C1.74033 62.8371 1.51102 61.1798 1.34154 59.6171C1.30166 59.2439 1.19698 58.6019 1.11722 58.1938C1.03248 57.7857 0.877948 56.865 0.773266 56.1483C0.668584 55.4267 0.484144 54.3467 0.369492 53.7395C0.195022 52.8437 -0.0392659 49.3998 0.00559786 48.4691C0.0105827 48.3447 0.0404919 47.6778 0.0654161 46.991C0.0903404 46.3042 0.170098 45.4084 0.239886 45.0003C0.309674 44.5922 0.44925 43.6516 0.553932 42.9001C0.658614 42.1536 0.793205 41.412 0.862993 41.2528C0.98263 40.9691 1.13716 39.9339 1.23187 38.7992C1.33655 37.5401 1.42628 37.0972 1.64063 36.7986C1.76027 36.6293 1.85996 36.3656 1.85996 36.2163C1.85996 36.067 1.90483 35.8928 1.96465 35.8331C2.02447 35.7733 2.15407 35.3901 2.25875 34.987C2.36344 34.5789 2.7373 33.708 3.08624 33.051C3.43518 32.3941 3.88382 31.548 4.07823 31.1748C4.27264 30.8015 4.49197 30.3885 4.56176 30.264C4.92565 29.6121 5.27958 28.8257 5.27958 28.6665C5.27958 28.567 5.4042 28.3231 5.55374 28.124C5.70329 27.9249 6.13199 27.1486 6.50585 26.3971C7.4131 24.5606 7.71219 24.0231 8.10101 23.5205C8.6294 22.8387 9.33227 21.7637 9.54661 21.3108C9.65628 21.0819 10.0002 20.6041 10.3043 20.2507C10.6134 19.8974 10.8626 19.5391 10.8626 19.4495C10.8626 19.3599 11.2714 18.8722 11.7699 18.3695C12.2833 17.847 12.8566 17.1253 13.1008 16.6923C13.6043 15.7915 14.2673 14.8509 14.3919 14.8509C14.4417 14.8509 14.8605 14.4926 15.3191 14.0497C15.7827 13.6117 16.2861 13.1688 16.4407 13.0742C16.5952 12.9747 16.8594 12.7059 17.0239 12.472C17.3429 12.0142 18.5891 10.9989 20.0298 10.0135C20.5332 9.6701 21.2211 9.18735 21.5701 8.93353C21.914 8.67972 22.4026 8.3413 22.6518 8.18204C22.901 8.02278 23.3148 7.74906 23.564 7.57487C23.8133 7.40068 24.546 6.99756 25.1941 6.67905C25.8421 6.36053 26.525 5.97234 26.7145 5.80811C26.9039 5.64885 27.1232 5.51946 27.203 5.51946C27.2827 5.51946 27.4373 5.41992 27.5469 5.30048C27.6566 5.18104 27.8809 5.05164 28.0504 5.00685C28.2199 4.96703 28.5339 4.76299 28.7533 4.55396C28.9726 4.34494 29.3415 4.116 29.5708 4.04633C29.8001 3.97168 30.0493 3.8373 30.1241 3.74772C30.1989 3.65814 30.3235 3.58349 30.4033 3.58349C30.478 3.58349 30.7522 3.43418 31.0064 3.25004C31.2607 3.0659 31.6894 2.85688 31.9635 2.7872C32.2377 2.71753 32.6913 2.58813 32.9705 2.49855C34.0671 2.15017 35.3831 1.87645 35.9713 1.87645C36.3103 1.87645 36.8038 1.8018 37.073 1.70724C37.3372 1.61268 37.7609 1.53803 38.0052 1.53803C38.4339 1.53803 39.9044 1.25435 41.345 0.891047C42.4716 0.60737 43.5533 0.423229 44.8793 0.293833C48.4185 -0.0545425 48.5033 -0.0595193 49.1264 0.104715C49.575 0.224158 49.8342 0.234111 50.1533 0.144529C50.7265 -0.0147282 57.2168 0.0848075 57.5408 0.258995C57.6704 0.32867 58.3384 0.408299 59.0213 0.438159C59.7042 0.46802 60.4968 0.542672 60.776 0.60737C61.0601 0.672068 61.6234 0.781558 62.0322 0.846256C62.4409 0.910954 63.1089 1.06026 63.5127 1.18468C63.9165 1.30412 64.739 1.51812 65.3322 1.65249C65.9254 1.79184 66.8775 2.09543 67.4408 2.32934C68.004 2.56325 68.7069 2.79218 68.996 2.83199C69.2901 2.87678 69.5892 2.98627 69.664 3.08083C69.7388 3.17539 69.988 3.32967 70.2173 3.43418C70.4416 3.53372 70.9401 3.76265 71.324 3.94182C71.7028 4.12098 72.1165 4.26531 72.2362 4.26531C72.3558 4.26531 72.944 4.50419 73.5372 4.79285C74.1304 5.0815 74.9779 5.48462 75.4165 5.68369C75.8552 5.88276 76.4085 6.18137 76.6478 6.3456C76.887 6.50984 77.2709 6.70393 77.5002 6.77858C77.9538 6.92291 79.4842 7.8038 79.858 8.13725C79.9827 8.24674 80.4961 8.5553 80.9946 8.82404C82.6097 9.68503 82.6994 9.74475 83.2776 10.2972C84.0652 11.0536 84.9077 11.6658 85.1569 11.6658C85.4909 11.6658 86.4879 12.487 87.2456 13.3878C87.6344 13.8456 88.5616 14.8509 89.3093 15.6124C90.4957 16.8267 92.5694 19.3898 92.5694 19.6486C92.5694 19.6983 92.7987 20.0168 93.0779 20.3602C93.357 20.7036 93.7508 21.2809 93.9552 21.6442C94.3091 22.2813 94.7727 22.983 95.66 24.2322C95.8893 24.5507 96.3828 25.4266 96.7617 26.1781C97.1405 26.9296 97.6091 27.7408 97.7985 27.9797C97.988 28.2186 98.2322 28.6516 98.3419 28.9452C98.4515 29.2388 98.7855 29.7962 99.0846 30.1794C99.3837 30.5626 99.7875 31.2793 99.9869 31.772C100.515 33.0759 100.655 33.3944 100.999 34.0862C101.168 34.4296 101.398 35.0965 101.507 35.5643C101.617 36.0321 101.811 36.6741 101.941 36.9877C102.071 37.3012 102.265 37.9233 102.375 38.3712C102.484 38.8191 102.614 39.2471 102.659 39.3218C102.828 39.6005 103.068 40.6904 103.272 42.1586C103.337 42.6264 103.446 43.3978 103.511 43.8656C103.576 44.3334 103.656 44.8858 103.681 45.0849C103.706 45.289 103.775 45.5428 103.825 45.6523C104.094 46.2146 104.04 54.1874 103.75 56.2628C103.686 56.7306 103.556 57.706 103.461 58.4227C103.372 59.1443 103.187 60.0401 103.053 60.4134C102.913 60.8115 102.773 61.5979 102.714 62.2896C102.664 62.9466 102.564 63.6284 102.494 63.8026C102.424 63.9768 102.37 64.2804 102.37 64.4695C102.37 64.6586 102.295 65.0518 102.205 65.3454C101.986 66.0521 101.776 66.923 101.712 67.4008C101.682 67.6148 101.512 68.0229 101.328 68.3066C101.148 68.5903 100.999 68.8938 100.999 68.9784C100.999 69.063 100.839 69.4761 100.645 69.8942C100.141 70.9791 100.131 70.999 99.7526 72.1686C99.5632 72.7509 99.3339 73.368 99.2392 73.5471C99.1494 73.7263 98.96 74.1941 98.8254 74.5972C98.6908 74.9954 98.4914 75.4284 98.3818 75.5528C98.1325 75.8464 96.7816 78.5239 96.7816 78.7329C96.7816 78.9917 95.8544 80.4101 95.0569 81.3657C94.6431 81.8633 94.1945 82.4805 94.0649 82.7442C93.8256 83.217 92.5644 84.6155 91.4827 85.6059C90.5456 86.4669 89.4987 87.5667 88.8407 88.3829C88.5018 88.806 88.0581 89.234 87.8587 89.3385C87.6593 89.443 87.111 89.8959 86.6374 90.3488C86.1689 90.8017 85.2566 91.5233 84.6136 91.9513C83.9705 92.3793 83.2029 92.9019 82.9038 93.1009C82.6047 93.305 82.2508 93.4692 82.1112 93.4692C81.857 93.4692 81.7024 93.6235 81.6576 93.9121C81.6127 94.2008 81.2388 94.4148 80.3067 94.6885C80.182 94.7234 79.9328 94.8577 79.7583 94.9772C79.5839 95.1016 79.0455 95.2957 78.5669 95.4151C78.0884 95.5346 77.6148 95.7038 77.5201 95.7934C77.4204 95.8829 77.1861 95.9875 77.0017 96.0323C76.8123 96.077 76.4783 96.2015 76.259 96.3159C75.7804 96.5598 74.7585 96.9032 73.7516 97.162C73.3428 97.2665 72.8593 97.4058 72.6699 97.4705C71.8673 97.7492 70.2672 98.3912 70.1625 98.4709C70.0977 98.5206 69.5892 98.7396 69.021 98.9586C68.0439 99.3368 67.7099 99.4264 66.0001 99.735C65.5914 99.8096 64.8087 100.019 64.2554 100.198C63.3083 100.506 60.8857 100.914 59.5049 100.999C59.1609 101.004 58.2088 100.989 57.3963 100.944ZM57.8748 96.9629C58.0792 96.9032 59.3104 96.8684 60.6663 96.8883C63.1787 96.9231 64.4847 96.8285 64.9732 96.5747C65.1328 96.4951 65.5415 96.3408 65.8855 96.2313C66.2294 96.1268 67.0868 95.8133 67.7897 95.5445C68.4926 95.2708 69.315 95.022 69.6141 94.9822C69.9132 94.9473 70.2024 94.8428 70.2522 94.7582C70.3021 94.6686 70.5463 94.5442 70.7956 94.4745C71.0448 94.4098 71.4336 94.2307 71.653 94.0764C71.8773 93.9271 72.1714 93.7678 72.306 93.733C72.7496 93.6036 73.7915 93.1905 74.6289 92.8073C75.0825 92.5983 75.4963 92.4291 75.5461 92.4291C75.596 92.4291 75.8951 92.2698 76.2041 92.0707C76.5132 91.8766 77.0516 91.5631 77.3955 91.379C77.7395 91.1948 78.1482 90.9211 78.3077 90.7768C78.6018 90.503 79.4892 89.9556 80.5858 89.3733C82.0863 88.577 83.6316 87.7957 83.9456 87.6712C84.5438 87.4373 85.8 86.5913 86.5826 85.8896C87.0013 85.5163 87.5247 85.0883 87.7491 84.939C89.9623 83.4061 90.6951 81.6095 92.5993 79.9124C92.694 79.8328 92.7738 79.6387 92.7738 79.4844C92.7738 79.3302 92.9532 78.9868 93.1676 78.723C93.3869 78.4592 93.701 77.9367 93.8705 77.5684C94.0399 77.1951 94.2892 76.7621 94.4238 76.5979C94.5584 76.4337 94.7628 76.0107 94.8724 75.6523C94.9871 75.294 95.2762 74.6371 95.5254 74.1891C96.0937 73.1639 96.5523 71.9098 97.1854 69.6702C97.2801 69.3268 97.5094 68.5853 97.6889 68.0229C97.8683 67.4605 98.0129 66.9181 98.0129 66.8235C98.0129 66.724 98.1126 66.3408 98.2322 65.9725C98.7357 64.4147 99.2691 62.4788 99.5532 61.1997C99.7177 60.4482 99.9271 59.5524 100.012 59.209C100.097 58.8656 100.201 58.2784 100.241 57.9001C100.306 57.2631 100.396 56.7654 100.76 55.0534C100.969 54.078 100.989 53.7047 100.994 51.3557C100.999 49.355 100.959 48.484 100.819 47.205C100.784 46.8915 100.7 45.8663 100.63 44.9306C100.56 43.99 100.45 43.0195 100.386 42.7707C100.321 42.5219 100.246 42.0341 100.231 41.6907C100.181 40.78 100.017 39.9439 99.6679 38.849C99.4984 38.3165 99.3239 37.6496 99.279 37.3709C99.2342 37.0872 99.0896 36.6443 98.95 36.3805C98.8154 36.1167 98.7008 35.7684 98.7008 35.6041C98.7008 35.3254 97.5842 32.9565 97.2851 32.5932C97.0907 32.3593 95.999 30.3636 95.9043 30.0749C95.8644 29.9455 95.7099 29.6618 95.5603 29.4478C95.4158 29.2338 95.2313 28.8656 95.1566 28.6366C95.0818 28.4077 94.8724 28.0096 94.688 27.7607C94.5035 27.5119 94.1097 26.8898 93.8156 26.3772C93.5165 25.8646 93.0878 25.2425 92.8635 24.9886C92.6342 24.7348 92.37 24.3815 92.2803 24.2023C92.056 23.7644 91.0291 22.2862 90.74 21.9777C90.6153 21.8433 90.3561 21.5696 90.1617 21.3755C89.9723 21.1764 89.8178 20.9724 89.8178 20.9176C89.8178 20.7982 89.409 20.2557 89.07 19.9223C88.9404 19.7929 88.7859 19.6038 88.7261 19.5042C88.6413 19.3549 87.5995 18.1854 86.5976 17.1154C86.4879 16.9959 86.3034 16.9014 86.1838 16.9014C86.0642 16.9014 85.6454 16.6376 85.2417 16.3191C84.8429 16.0006 84.2995 15.6422 84.0353 15.5278C83.7711 15.4133 83.492 15.2142 83.4072 15.0848C83.2428 14.8211 81.2089 13.3977 79.7334 12.5218C79.21 12.2083 78.5321 11.7803 78.228 11.5663C77.55 11.0885 75.0576 9.65517 74.7286 9.55065C74.594 9.51084 74.3099 9.38144 74.0906 9.262C73.8712 9.14753 73.622 9.048 73.5322 9.048C73.3029 9.048 72.1913 8.29153 72.1116 8.0825C72.0717 7.98297 71.9072 7.90831 71.7277 7.90831C71.5533 7.90831 71.2641 7.83366 71.0847 7.7391C70.9052 7.64454 70.6261 7.56989 70.4666 7.56989C70.307 7.56989 69.9182 7.44547 69.5942 7.29617C69.2752 7.14687 68.8066 6.98263 68.5574 6.93784C68.3081 6.89305 67.5903 6.67905 66.9672 6.47002C66.3441 6.261 65.7509 6.09179 65.6562 6.09179C65.5565 6.09179 65.2723 5.97732 65.0231 5.84295C64.6642 5.64885 64.3252 5.58416 63.4279 5.54434C62.6403 5.5095 62.2316 5.44481 62.097 5.32536C61.9923 5.2308 61.7082 5.11136 61.4689 5.05164C60.5367 4.82768 59.3104 4.60871 58.9814 4.60871C58.792 4.60871 58.4132 4.52908 58.139 4.43452C56.828 3.97665 54.4203 3.82735 50.7764 3.96172C44.7397 3.80247 40.358 4.23545 35.7071 5.79318C35.2037 5.92258 34.7152 6.09676 34.6155 6.18137C34.5158 6.26597 34.2565 6.34063 34.0422 6.34063C33.8229 6.34063 33.5836 6.40532 33.5038 6.48495C23.6787 11.6061 14.9951 18.8771 9.17774 29.204C9.0581 29.5772 8.57955 30.2939 8.0362 30.911C7.52276 31.4933 6.96944 32.7126 6.57065 34.136C6.43108 34.6386 6.24664 35.1711 6.16688 35.3254C5.9974 35.639 5.51386 37.2664 5.35435 38.0577C5.2397 38.625 4.82595 41.1632 4.68638 42.1685C4.63653 42.5219 4.56674 42.8603 4.52686 42.92C4.40224 43.1191 4.3175 45.5876 4.32747 48.4343C4.33744 50.4349 4.30254 51.3109 4.20783 51.4651C4.09817 51.6393 4.11312 51.7637 4.27264 52.1022C4.46705 52.5103 4.54182 53.3961 4.482 54.5508C4.44212 55.2823 4.6465 57.8354 4.78109 58.3032C4.84091 58.5222 5.00541 59.1642 5.14 59.7266C5.27459 60.289 5.45405 60.9808 5.53879 61.2644C5.62353 61.5481 5.77806 62.1603 5.87776 62.6281C5.97746 63.0959 6.18184 63.8374 6.3264 64.2804C6.74512 65.5544 6.83984 66.0521 6.81491 66.8583C6.79996 67.4356 6.83984 67.6695 6.98938 67.8338C7.09905 67.9532 7.18379 68.1473 7.18379 68.2618C7.18379 68.3763 7.2785 68.5803 7.39316 68.7097C7.65237 68.9984 7.98137 69.8245 7.98137 70.1878C7.98137 70.3421 8.14587 70.6357 8.35523 70.8597C8.55961 71.0787 8.80387 71.4021 8.8936 71.5813C8.98333 71.7605 9.17275 72.0491 9.31731 72.2283C9.4868 72.4373 9.57652 72.7011 9.57652 72.9798C9.57652 73.2983 9.6812 73.5471 9.9803 73.9353C10.1996 74.224 10.4838 74.5126 10.6034 74.5773C10.723 74.642 10.8875 74.9058 10.9623 75.1596C11.062 75.4931 11.2265 75.7071 11.5356 75.9111C11.7748 76.0704 11.9693 76.2545 11.9693 76.3242C11.9693 76.3939 12.2534 76.7074 12.5973 77.016C12.9413 77.3295 13.2254 77.6629 13.2254 77.7575C13.2254 77.8521 13.3152 78.0163 13.4248 78.1158C13.5345 78.2154 13.7688 78.4841 13.9433 78.7081C14.1177 78.937 14.3321 79.1211 14.4168 79.1211C14.5016 79.1211 14.676 79.3003 14.8056 79.5143C14.9352 79.7333 15.349 80.1463 15.7278 80.445C16.1067 80.7386 16.4207 81.0372 16.4207 81.1019C16.4207 81.2363 17.004 81.729 17.4376 81.9629C17.5922 82.0425 18.1804 82.5949 18.7487 83.1872C19.3169 83.7794 19.9101 84.3318 20.0647 84.4164C20.2192 84.501 20.927 85.1381 21.6349 85.8298C22.3427 86.5216 22.9559 87.089 23.0007 87.089C23.1802 87.0939 24.4862 88.0843 24.8402 88.4825C25.0445 88.7164 25.2738 88.9105 25.3536 88.9105C25.6128 88.9105 26.4303 89.6022 26.4702 89.8511C26.4951 90.0402 26.5948 90.1099 26.869 90.1397C27.1083 90.1646 27.3426 90.299 27.5569 90.5379C27.9906 91.0306 28.7234 91.593 29.0673 91.6975C29.2218 91.7472 29.4811 91.8816 29.6356 91.9961C29.7951 92.1105 30.4082 92.3644 31.0064 92.5585C32.0233 92.8869 32.8807 93.2253 33.8827 93.6932C34.1618 93.8226 34.4759 93.8723 34.7949 93.8375C35.1139 93.8027 35.4729 93.8574 35.8467 94.0067C36.1608 94.1311 36.6543 94.2655 36.9484 94.3053C37.2425 94.3501 37.6014 94.4745 37.746 94.589C38.2444 94.9822 39.8396 95.5097 40.5225 95.5097C40.8615 95.5097 42.0329 95.8929 42.6411 96.2015C43.0249 96.3956 43.3439 96.4204 45.6569 96.4354C47.0776 96.4453 48.7874 96.52 49.4504 96.6046C50.1134 96.6892 51.3745 96.8136 52.2519 96.8783C53.1292 96.943 54.206 97.0376 54.6446 97.0923C55.5768 97.1918 57.3414 97.1271 57.8748 96.9629ZM47.8253 77.434C47.8054 77.4141 46.7985 77.3743 45.5871 77.3394C44.3758 77.3096 42.9701 77.21 42.4716 77.1254C41.9681 77.0408 41.1506 76.9413 40.6471 76.9015C39.2863 76.802 37.7609 76.5033 37.083 76.1998C36.754 76.0505 36.3901 75.931 36.2754 75.931C36.086 75.931 35.7321 75.8414 34.2067 75.4035C33.3643 75.1646 32.2128 74.6072 31.5847 74.1394C30.9566 73.6716 29.8749 72.6314 29.8749 72.4921C29.8749 72.4373 29.6306 72.288 29.3315 72.1586C28.6536 71.865 28.3046 71.5514 28.0903 71.0438C28.0006 70.8248 27.8361 70.5511 27.7314 70.4366C27.5071 70.1928 26.7843 69.0183 26.4901 68.426C26.3805 68.207 26.211 67.8985 26.1113 67.7442C25.882 67.3809 25.4034 66.1417 24.9747 64.783C24.7903 64.2007 24.5411 63.4642 24.4164 63.1457C24.2968 62.8271 24.1124 62.2349 24.0077 61.8318C23.903 61.4237 23.7186 60.7568 23.5989 60.3487C23.4793 59.9406 23.3796 59.2986 23.3746 58.9253C23.3646 58.2087 23.3198 57.8703 22.9509 55.8547C22.8263 55.1679 22.6618 54.1427 22.587 53.5803C22.5122 53.0179 22.3776 52.0424 22.2829 51.4204C21.8343 48.3845 21.7246 43.2883 22.0536 40.785C22.4873 37.4704 22.5272 37.2514 22.9908 35.5544C23.1553 34.9571 23.3547 34.1509 23.4394 33.7627C23.6238 32.9216 24.0974 31.7869 24.5012 31.2395C24.6607 31.0255 24.895 30.6572 25.0246 30.4233C25.4184 29.7017 26.53 28.119 26.9737 27.6462C27.203 27.3974 27.4622 27.0341 27.5469 26.84C27.7862 26.2926 29.0225 24.7945 29.5608 24.4014C30.5378 23.6947 31.799 23.1821 33.2895 22.8884C34.0721 22.7342 35.089 22.5749 35.5426 22.5351C35.9963 22.4953 36.8537 22.341 37.4369 22.1917C38.0351 22.0424 39.0719 21.8881 39.7997 21.8433C40.5125 21.7985 41.1855 21.7139 41.3002 21.6592C41.4148 21.5995 42.1924 21.5348 43.0349 21.5148C43.8723 21.4949 44.6051 21.4452 44.6649 21.4103C44.979 21.2162 47.1025 20.9724 49.246 20.8828C55.9457 20.6041 58.3234 20.5941 60.2376 20.848C60.9305 20.9375 61.8527 21.057 62.2914 21.1117C63.6572 21.276 64.7838 21.5945 65.1477 21.9229C65.3172 22.0772 65.5615 22.1369 66.0001 22.1419C66.3391 22.1469 66.8226 22.2215 67.0769 22.3111C67.3261 22.4007 67.6252 22.4754 67.7398 22.4754C68.1685 22.4803 70.6211 23.7395 71.633 24.481C71.8224 24.6204 72.2162 24.8443 72.5153 24.9787C72.8393 25.128 73.1484 25.3818 73.288 25.6058C73.5173 25.974 74.5242 26.845 75.591 27.5915C75.8851 27.8005 76.259 28.1688 76.4235 28.4127C76.583 28.6565 76.8322 28.9004 76.9768 28.9551C77.1463 29.0198 77.3905 29.3682 77.6796 29.9455C77.9239 30.4382 78.238 30.9956 78.3725 31.1847C78.5121 31.3739 78.7614 31.8616 78.9308 32.2647C79.1003 32.6678 79.2798 33.0461 79.3296 33.1108C79.3795 33.1755 79.6287 33.6234 79.8879 34.1111C80.2369 34.778 80.3565 35.1264 80.3565 35.5245C80.3565 35.8132 80.4014 36.2113 80.4612 36.4004C80.8849 37.8387 81.0444 38.421 81.1541 38.9684C81.3834 40.0982 81.5878 40.9442 81.8918 41.9844C82.1012 42.701 82.186 43.2634 82.181 43.8606C82.176 44.3284 82.2258 44.9704 82.2857 45.284C82.3455 45.5975 82.4003 46.1748 82.4053 46.563C82.4103 46.9562 82.49 47.7226 82.5847 48.27C82.7941 49.4844 82.819 50.3653 82.7243 53.003C82.6795 54.2074 82.5798 55.3172 82.4751 55.7352C82.3455 56.2528 82.3056 56.8948 82.3305 58.144C82.3604 59.6967 82.3355 59.9555 82.0514 61.0455C81.8819 61.7024 81.6875 62.6131 81.6227 63.071C81.5579 63.5289 81.4133 64.0912 81.2937 64.3202C81.179 64.5541 80.9447 65.221 80.7802 65.8082C80.4811 66.8583 79.4941 68.8291 78.9308 69.501C78.7813 69.6802 78.6617 69.8593 78.6617 69.9041C78.6617 70.0932 76.7076 71.8998 75.925 72.4323C75.4564 72.7509 74.918 73.154 74.7286 73.3282C74.5392 73.5023 74.275 73.7014 74.1354 73.7711C73.9958 73.8408 73.8164 74.0349 73.7366 74.2041C73.617 74.4479 73.3328 74.6072 72.3359 75.0004C71.648 75.2691 70.9302 75.5627 70.7407 75.6573C69.9382 76.0455 68.4228 76.4187 65.6113 76.9114C65.1078 77.001 64.4199 77.1205 64.071 77.1802C63.727 77.2399 62.75 77.3245 61.9076 77.3693C60.3872 77.434 47.8951 77.5037 47.8253 77.434ZM49.4205 73.4576C52.0326 73.358 53.2439 73.358 55.8011 73.4625C57.0274 73.5123 58.6076 73.5023 59.45 73.4377C60.2626 73.3779 61.6982 73.2734 62.6403 73.2087C65.8406 72.9848 67.7149 72.6414 68.8714 72.0591C69.2353 71.8749 69.5743 71.7256 69.6341 71.7256C69.7836 71.7256 70.8753 71.0538 71.8673 70.352C73.9011 68.9088 74.1055 68.7396 74.3398 68.2717C74.4694 68.013 74.6738 67.6795 74.7934 67.5302C74.9081 67.3809 75.0078 67.1768 75.0078 67.0773C75.0078 66.9778 75.1374 66.6394 75.2919 66.3258C75.4464 66.0123 75.5711 65.6788 75.5711 65.5843C75.5711 65.4897 75.6458 65.3056 75.7405 65.1712C75.9499 64.8726 76.4285 63.6284 76.3886 63.4891C76.3736 63.4293 76.4334 63.0212 76.5281 62.5783C76.8522 61.0504 76.9469 60.1745 77.0017 58.0743C77.0316 56.9147 77.0964 54.5109 77.1413 52.7292C77.1911 50.9476 77.1861 49.3351 77.1413 49.146C76.9768 48.504 76.7176 45.8464 76.6528 44.1393C76.6179 43.1987 76.5331 42.1834 76.4633 41.8749C76.3985 41.5663 76.3288 41.0836 76.3088 40.7949C76.2639 40.0633 75.9698 38.2966 75.6857 37.0872C75.5561 36.5248 75.3816 35.6539 75.3019 35.1512C75.1573 34.2106 75.0277 33.8722 74.7236 33.6184C74.6239 33.5388 74.28 33.0112 73.951 32.4439C73.622 31.8765 73.1135 31.1748 72.8094 30.8812C72.4904 30.5676 72.2661 30.2441 72.2661 30.0998C72.2661 29.9405 72.1614 29.8161 71.967 29.7415C71.7377 29.6519 71.6829 29.5723 71.7327 29.3831C71.8424 28.9601 70.7656 28.0494 69.5643 27.5467C69.011 27.3178 68.5025 27.1287 68.4377 27.1287C68.3679 27.1287 68.2184 27.0291 68.1087 26.9047C67.9841 26.7654 67.7598 26.6758 67.5305 26.6758C66.9821 26.6758 66.7977 26.5713 66.7977 26.2627C66.7977 25.9989 66.7778 25.989 66.2294 26.0636C65.6761 26.1383 64.7838 25.979 63.5127 25.5809C62.8597 25.3768 61.2545 25.128 59.4999 24.9638C58.3783 24.8592 57.5159 24.8592 55.4422 24.9787C53.9916 25.0583 52.4662 25.0932 52.0475 25.0533C51.5241 25.0036 51.1353 25.0334 50.8063 25.1429C50.1582 25.3619 48.8821 25.5112 46.5093 25.6605C45.4127 25.7302 43.9272 25.8596 43.2044 25.9492C42.4816 26.0387 41.8186 26.1034 41.7239 26.0885C41.6292 26.0736 41.2702 26.1233 40.9263 26.193C40.5823 26.2627 39.8894 26.3821 39.386 26.4468C36.9284 26.7803 35.7719 26.9296 34.8747 27.0192C33.6883 27.1386 32.133 27.5467 31.6495 27.8702C31.2607 28.129 30.2138 30.055 30.2138 30.5129C30.2138 30.6522 30.144 30.9359 30.0543 31.1449C29.9696 31.349 29.82 31.8267 29.7203 32.2C29.6256 32.5733 29.4362 33.1655 29.2966 33.5089C29.162 33.8523 28.8729 35.0069 28.6536 36.067C28.4392 37.132 28.1551 38.4359 28.0305 38.9684C27.9058 39.5009 27.7463 40.3719 27.6765 40.9044C27.5071 42.2133 27.4522 48.056 27.5918 49.6088C27.6566 50.2956 27.7214 51.1018 27.7463 51.4004C27.7663 51.6941 27.846 52.3361 27.9158 52.8238C27.9856 53.3115 28.1202 54.3218 28.2149 55.0733C28.3046 55.8248 28.4891 57.0043 28.6237 57.6911C28.7583 58.3779 28.9327 59.428 29.0125 60.0252C29.2069 61.4536 29.8848 63.7279 30.4581 64.8577C30.9815 65.8928 31.3504 66.8832 31.3504 67.2465C31.3504 67.3859 31.5049 67.6895 31.6943 67.9283C31.8838 68.1623 32.0383 68.4708 32.0383 68.6102C32.0383 68.7495 32.143 68.9536 32.2676 69.068C32.3922 69.1825 32.4969 69.3318 32.4969 69.4015C32.4969 69.7349 33.9774 70.8298 34.426 70.8298C34.5407 70.8298 34.7152 70.9492 34.8099 71.0986C34.9195 71.2678 35.1439 71.3922 35.423 71.442C35.6623 71.4818 36.0611 71.6709 36.3053 71.855C36.5496 72.0441 36.8586 72.1935 36.9932 72.1935C37.1228 72.1935 37.3372 72.2681 37.4668 72.3577C38.055 72.7708 39.0968 72.9897 41.0061 73.1042C42.0628 73.1689 43.6181 73.2983 44.4606 73.3929C45.308 73.4874 46.1803 73.582 46.3997 73.6069C46.619 73.6317 46.953 73.6268 47.1424 73.5969C47.3268 73.5521 48.3537 73.4974 49.4205 73.4576ZM48.279 64.2206C47.7157 64.1758 47.1374 64.0763 46.9929 64.0017C46.8483 63.922 46.4246 63.8125 46.0507 63.7528C44.8095 63.5538 42.7408 62.3145 42.1326 61.4088C41.355 60.2442 40.6571 59.2588 40.3929 58.9403C40.2434 58.7611 40.0141 58.4078 39.8845 58.1539C39.7548 57.9001 39.4558 57.4472 39.2165 57.1437C38.5934 56.3573 38.2046 55.4715 37.8257 53.9734C37.3073 51.9131 37.2674 51.6393 37.2475 49.6486C37.2126 46.5929 37.4469 45.6722 39.1467 42.273C39.6203 41.3225 39.9094 40.9144 40.6721 40.123C41.1905 39.5856 41.6142 39.1028 41.6142 39.053C41.6142 38.9983 42.1924 38.3762 42.8953 37.6745C44.4356 36.1317 45.3877 35.4847 46.4346 35.2657C46.8483 35.1811 47.4315 35.0318 47.7356 34.9422C48.7974 34.6187 49.894 34.4794 51.4194 34.4844C52.7454 34.4893 53.0345 34.5242 53.518 34.7382C53.8271 34.8725 54.3156 35.0169 54.5998 35.0517C54.8839 35.0865 55.2478 35.1811 55.4023 35.2607C56.1451 35.624 56.8928 35.9376 57.6006 36.1814C58.7571 36.5746 59.6145 37.1519 60.5866 38.1821C61.6134 39.272 62.2116 40.1231 62.9195 41.5016C63.2036 42.059 63.5226 42.6712 63.6323 42.8653C63.737 43.0594 63.9314 43.4973 64.061 43.8308C64.1906 44.1642 64.4498 44.6619 64.6343 44.9306C65.0032 45.4631 65.4418 46.6178 65.6562 47.6032C65.7309 47.9466 65.8356 48.4144 65.8954 48.6383C66.0948 49.4296 66.1198 51.2561 65.9403 51.8583C65.8456 52.1718 65.716 52.8885 65.6512 53.4559C65.5515 54.3168 65.4368 54.6851 64.9633 55.6705C64.6492 56.3225 64.2953 56.9944 64.1707 57.1685C64.0461 57.3427 63.9464 57.5866 63.9464 57.711C63.9464 57.8354 63.727 58.2137 63.4529 58.5471C63.1837 58.8806 62.8198 59.3932 62.6503 59.6818C62.3363 60.2193 61.5486 60.9957 60.8558 61.4535C60.6464 61.5929 60.2177 61.8766 59.9036 62.0856C59.2606 62.5136 57.7851 63.076 57.3065 63.076C57.1321 63.076 56.8479 63.1457 56.6784 63.2352C56.509 63.3198 56.0952 63.4293 55.7562 63.4741C55.4173 63.5189 54.7792 63.6831 54.3405 63.8374C53.9019 63.9917 53.4433 64.0912 53.3286 64.0614C53.1193 64.0066 49.9738 64.1659 49.5351 64.2505C49.4055 64.2804 48.8422 64.2654 48.279 64.2206ZM55.507 60.5727C56.1301 60.493 56.5937 60.3388 57.2716 59.9904C58.5029 59.3583 58.7621 59.1493 59.1858 58.4774C59.3852 58.1639 59.6843 57.7508 59.8588 57.5617C60.128 57.2681 60.4271 56.6957 61.2745 54.8294C61.3592 54.6403 61.5835 54.1526 61.768 53.7445C62.3263 52.5152 62.406 50.6589 62.0222 47.4986C61.9474 46.8666 61.8278 46.4336 61.6832 46.2345C61.5586 46.0653 61.424 45.7518 61.3841 45.5378C61.3443 45.3238 61.1847 44.9456 61.0352 44.6967C60.8857 44.4529 60.6763 44.0696 60.5766 43.8507C60.3274 43.3231 58.9914 41.6161 58.6475 41.3921C58.4979 41.2926 58.3434 41.1184 58.3085 41.0039C58.2337 40.77 56.4441 39.4014 55.9158 39.1725C55.7263 39.0929 55.497 38.9684 55.4023 38.8938C55.3076 38.8191 54.8739 38.64 54.4353 38.4907C53.7075 38.2418 53.4582 38.2219 51.6437 38.2269C49.5401 38.2368 47.9948 38.4359 47.292 38.7942C47.0826 38.8988 46.6589 39.1974 46.3448 39.4611C45.5672 40.1081 45.2731 40.2773 44.7896 40.3669C44.4456 40.4316 44.2711 40.5859 43.7527 41.2677C42.5613 42.8354 42.4118 43.134 41.6092 45.6174L41.1307 47.0955L41.1955 49.4844C41.2453 51.4204 41.3051 52.0126 41.4846 52.6148C41.8086 53.6599 42.1227 54.5109 42.2572 54.6851C42.3221 54.7648 42.6112 55.2475 42.9003 55.7452C43.2592 56.3722 43.668 56.8699 44.1914 57.3377C44.6101 57.711 45.0837 58.134 45.2332 58.2734C45.3877 58.4127 45.7018 58.562 45.9261 58.6019C46.1554 58.6417 46.4694 58.7661 46.624 58.8706C46.7785 58.9801 47.1125 59.1294 47.3667 59.214C47.616 59.2936 48.0945 59.5027 48.4285 59.6818C48.7625 59.861 49.2261 60.0352 49.4554 60.075C49.6847 60.1148 50.233 60.2691 50.6717 60.4184C51.3646 60.6523 51.6836 60.6871 53.0644 60.6871C53.9418 60.6821 55.0434 60.6324 55.507 60.5727ZM66.6781 35.7285C65.9104 35.6091 64.9782 35.211 64.9683 34.997C64.9683 34.9571 64.9184 34.5889 64.8586 34.1808C64.7639 33.5288 64.7788 33.3695 64.9982 32.837C65.2225 32.2896 65.3172 32.195 66.05 31.7969C67.0021 31.2793 67.4607 31.1599 67.9642 31.3141C68.1685 31.3739 68.4726 31.4585 68.6371 31.4933C69.001 31.5729 69.8734 32.3792 69.8734 32.638C69.8734 32.7375 69.9581 32.9465 70.0578 33.1008C70.4616 33.7129 69.8036 35.0069 68.8465 35.4847C68.1536 35.8331 67.695 35.8828 66.6781 35.7285Z" fill="#292929"/>
</svg>
