<svg width="104" height="101" viewBox="0 0 104 101" fill="none" xmlns="http://www.w3.org/2000/svg">
<path d="M57.3963 100.944C56.5837 100.905 54.515 100.835 52.8052 100.795C51.0954 100.755 49.5551 100.666 49.3856 100.606C49.2161 100.541 48.8722 100.472 48.6229 100.452C47.0926 100.332 45.8613 100.123 44.8643 99.8146C44.2362 99.6205 43.2891 99.3667 42.7557 99.2522C42.2224 99.1378 41.5544 98.9686 41.2752 98.879C40.9911 98.7894 40.378 98.655 39.9094 98.5854C39.4408 98.5157 38.9423 98.3813 38.8027 98.2867C38.6632 98.1972 38.3641 98.1175 38.1348 98.1175C37.741 98.1175 35.3233 97.3411 33.5188 96.6344C33.0103 96.4354 32.4421 96.296 32.138 96.296C31.814 96.296 31.5647 96.2313 31.475 96.1268C31.3952 96.0323 31.2706 95.9576 31.1909 95.9576C31.1111 95.9576 30.9267 95.863 30.7771 95.7436C30.6276 95.6291 30.3285 95.4948 30.1091 95.445C29.8898 95.4002 29.6605 95.3206 29.5957 95.2708C29.5309 95.221 29.3016 95.1613 29.0823 95.1414C28.7882 95.1115 28.6486 95.0269 28.5439 94.808C28.4342 94.584 28.19 94.4347 27.517 94.1908C27.0285 94.0167 26.5051 93.7877 26.3456 93.6832C26.1911 93.5787 25.4433 93.1955 24.6956 92.8322C23.9429 92.4689 22.9659 91.9364 22.5272 91.6477C22.0885 91.3591 21.4853 90.9957 21.1962 90.8415C20.9021 90.6872 20.3986 90.3189 20.0796 90.0253C19.7556 89.7316 19.307 89.3982 19.0777 89.2937C18.8484 89.1842 18.4446 88.9005 18.1804 88.6616C17.9162 88.4178 17.6121 88.2237 17.5074 88.2237C17.2083 88.2237 14.1127 85.153 13.5694 84.3169C13.3999 84.0581 13.1457 83.6948 13.0011 83.5107C12.8566 83.3265 12.6522 83.0379 12.5475 82.8687C12.4428 82.6994 12.2484 82.5253 12.1188 82.4854C11.9892 82.4456 11.7998 82.2466 11.6951 82.0475C11.5904 81.8484 10.9125 81.0969 10.1897 80.3753C9.46187 79.6536 8.7291 78.8474 8.55463 78.5836C8.38514 78.3199 8.19073 78.1009 8.13091 78.1009C8.0711 78.1009 7.78198 77.6281 7.49285 77.0508C7.20373 76.4735 6.89966 75.9211 6.82488 75.8265C6.75011 75.7319 6.51582 75.3487 6.31144 74.9755C6.10706 74.6022 5.86779 74.214 5.78305 74.1195C5.6983 74.0249 5.469 73.6417 5.26961 73.2684C5.07021 72.8952 4.85586 72.5219 4.78608 72.4373C4.64151 72.2581 4.19288 71.223 3.89877 70.3919C3.78412 70.0584 3.58473 69.6503 3.46509 69.4761C2.86691 68.64 2.28866 66.9131 2.32854 66.0919C2.3435 65.8381 2.31359 65.5693 2.26872 65.4997C2.22386 65.43 2.1441 65.0468 2.08428 64.6536C2.02945 64.2605 1.92477 63.6831 1.85498 63.3696C1.74033 62.8371 1.51102 61.1798 1.34154 59.6171C1.30166 59.2439 1.19698 58.6019 1.11722 58.1938C1.03248 57.7857 0.877948 56.865 0.773266 56.1483C0.668584 55.4267 0.484144 54.3467 0.369492 53.7395C0.195022 52.8437 -0.0392659 49.3998 0.00559786 48.4691C0.0105827 48.3447 0.0404919 47.6778 0.0654161 46.991C0.0903404 46.3042 0.170098 45.4084 0.239886 45.0003C0.309674 44.5922 0.44925 43.6516 0.553932 42.9001C0.658614 42.1536 0.793205 41.412 0.862993 41.2528C0.98263 40.9691 1.13716 39.9339 1.23187 38.7992C1.33655 37.5401 1.42628 37.0972 1.64063 36.7986C1.76027 36.6293 1.85996 36.3656 1.85996 36.2163C1.85996 36.067 1.90483 35.8928 1.96465 35.8331C2.02447 35.7733 2.15407 35.3901 2.25875 34.987C2.36344 34.5789 2.7373 33.708 3.08624 33.051C3.43518 32.3941 3.88382 31.548 4.07823 31.1748C4.27264 30.8015 4.49197 30.3885 4.56176 30.264C4.92565 29.6121 5.27958 28.8257 5.27958 28.6665C5.27958 28.567 5.4042 28.3231 5.55374 28.124C5.70329 27.9249 6.13199 27.1486 6.50585 26.3971C7.4131 24.5606 7.71219 24.0231 8.10101 23.5205C8.6294 22.8387 9.33227 21.7637 9.54661 21.3108C9.65628 21.0819 10.0002 20.6041 10.3043 20.2507C10.6134 19.8974 10.8626 19.5391 10.8626 19.4495C10.8626 19.3599 11.2714 18.8722 11.7699 18.3695C12.2833 17.847 12.8566 17.1253 13.1008 16.6923C13.6043 15.7915 14.2673 14.8509 14.3919 14.8509C14.4417 14.8509 14.8605 14.4926 15.3191 14.0497C15.7827 13.6117 16.2861 13.1688 16.4407 13.0742C16.5952 12.9747 16.8594 12.7059 17.0239 12.472C17.3429 12.0142 18.5891 10.9989 20.0298 10.0135C20.5332 9.6701 21.2211 9.18735 21.5701 8.93353C21.914 8.67972 22.4026 8.34129 22.6518 8.18204C22.901 8.02278 23.3148 7.74906 23.564 7.57487C23.8133 7.40068 24.546 6.99756 25.1941 6.67905C25.8421 6.36053 26.525 5.97234 26.7145 5.80811C26.9039 5.64885 27.1232 5.51946 27.203 5.51946C27.2827 5.51946 27.4373 5.41992 27.5469 5.30048C27.6566 5.18104 27.8809 5.05164 28.0504 5.00685C28.2199 4.96703 28.5339 4.76299 28.7533 4.55396C28.9726 4.34494 29.3415 4.116 29.5708 4.04633C29.8001 3.97168 30.0493 3.8373 30.1241 3.74772C30.1989 3.65814 30.3235 3.58349 30.4033 3.58349C30.478 3.58349 30.7522 3.43418 31.0064 3.25004C31.2607 3.0659 31.6894 2.85688 31.9635 2.7872C32.2377 2.71753 32.6913 2.58813 32.9705 2.49855C34.0671 2.15017 35.3831 1.87645 35.9713 1.87645C36.3103 1.87645 36.8038 1.8018 37.073 1.70724C37.3372 1.61268 37.7609 1.53803 38.0052 1.53803C38.4339 1.53803 39.9044 1.25435 41.345 0.891047C42.4716 0.60737 43.5533 0.423229 44.8793 0.293833C48.4185 -0.0545425 48.5033 -0.0595192 49.1264 0.104715C49.575 0.224158 49.8342 0.234111 50.1533 0.144529C50.7265 -0.0147282 57.2168 0.0848075 57.5408 0.258995C57.6704 0.32867 58.3384 0.408299 59.0213 0.438159C59.7042 0.46802 60.4968 0.542672 60.776 0.60737C61.0601 0.672068 61.6234 0.781558 62.0322 0.846256C62.4409 0.910954 63.1089 1.06026 63.5127 1.18468C63.9165 1.30412 64.739 1.51812 65.3322 1.65249C65.9254 1.79184 66.8775 2.09543 67.4408 2.32934C68.004 2.56325 68.7069 2.79218 68.996 2.83199C69.2901 2.87678 69.5892 2.98627 69.664 3.08083C69.7388 3.17539 69.988 3.32967 70.2173 3.43418C70.4416 3.53372 70.9401 3.76265 71.324 3.94182C71.7028 4.12098 72.1165 4.26531 72.2362 4.26531C72.3558 4.26531 72.944 4.50419 73.5372 4.79285C74.1304 5.0815 74.9779 5.48462 75.4165 5.68369C75.8552 5.88276 76.4085 6.18137 76.6478 6.3456C76.887 6.50984 77.2709 6.70393 77.5002 6.77858C77.9538 6.92291 79.4842 7.8038 79.858 8.13725C79.9826 8.24674 80.4961 8.5553 80.9946 8.82404C82.6097 9.68503 82.6994 9.74475 83.2776 10.2972C84.0652 11.0536 84.9077 11.6658 85.1569 11.6658C85.4909 11.6658 86.4879 12.487 87.2456 13.3878C87.6344 13.8456 88.5616 14.8509 89.3093 15.6124C90.4957 16.8267 92.5694 19.3898 92.5694 19.6486C92.5694 19.6983 92.7987 20.0168 93.0779 20.3602C93.357 20.7036 93.7508 21.2809 93.9552 21.6442C94.3091 22.2813 94.7727 22.983 95.66 24.2322C95.8893 24.5507 96.3828 25.4266 96.7617 26.1781C97.1405 26.9296 97.6091 27.7408 97.7985 27.9797C97.988 28.2186 98.2322 28.6516 98.3419 28.9452C98.4515 29.2388 98.7855 29.7962 99.0846 30.1794C99.3837 30.5626 99.7875 31.2793 99.9869 31.772C100.515 33.0759 100.655 33.3944 100.999 34.0862C101.168 34.4296 101.398 35.0965 101.507 35.5643C101.617 36.0321 101.811 36.6741 101.941 36.9877C102.071 37.3012 102.265 37.9233 102.375 38.3712C102.484 38.8191 102.614 39.2471 102.659 39.3218C102.828 39.6005 103.068 40.6904 103.272 42.1586C103.337 42.6264 103.446 43.3978 103.511 43.8656C103.576 44.3334 103.656 44.8858 103.681 45.0849C103.706 45.289 103.775 45.5428 103.825 45.6523C104.094 46.2146 104.04 54.1874 103.75 56.2628C103.686 56.7306 103.556 57.706 103.461 58.4227C103.372 59.1443 103.187 60.0401 103.053 60.4134C102.913 60.8115 102.773 61.5979 102.714 62.2896C102.664 62.9466 102.564 63.6284 102.494 63.8026C102.424 63.9768 102.37 64.2804 102.37 64.4695C102.37 64.6586 102.295 65.0518 102.205 65.3454C101.986 66.0521 101.776 66.923 101.712 67.4008C101.682 67.6148 101.512 68.0229 101.328 68.3066C101.148 68.5903 100.999 68.8938 100.999 68.9784C100.999 69.063 100.839 69.4761 100.645 69.8942C100.141 70.9791 100.131 70.999 99.7526 72.1686C99.5632 72.7509 99.3339 73.368 99.2392 73.5471C99.1494 73.7263 98.96 74.1941 98.8254 74.5972C98.6908 74.9954 98.4914 75.4284 98.3818 75.5528C98.1325 75.8464 96.7816 78.5239 96.7816 78.7329C96.7816 78.9917 95.8544 80.4101 95.0569 81.3657C94.6431 81.8633 94.1945 82.4805 94.0649 82.7442C93.8256 83.217 92.5644 84.6155 91.4827 85.6059C90.5456 86.4669 89.4987 87.5667 88.8407 88.3829C88.5018 88.806 88.0581 89.234 87.8587 89.3385C87.6593 89.443 87.111 89.8959 86.6374 90.3488C86.1689 90.8017 85.2566 91.5233 84.6136 91.9513C83.9705 92.3793 83.2029 92.9019 82.9038 93.1009C82.6047 93.305 82.2508 93.4692 82.1112 93.4692C81.857 93.4692 81.7024 93.6235 81.6576 93.9121C81.6127 94.2008 81.2388 94.4148 80.3067 94.6885C80.1821 94.7234 79.9328 94.8577 79.7583 94.9772C79.5839 95.1016 79.0455 95.2957 78.5669 95.4151C78.0884 95.5346 77.6148 95.7038 77.5201 95.7934C77.4204 95.883 77.1861 95.9875 77.0017 96.0323C76.8123 96.077 76.4783 96.2015 76.259 96.3159C75.7804 96.5598 74.7585 96.9032 73.7516 97.162C73.3428 97.2665 72.8593 97.4058 72.6699 97.4705C71.8673 97.7492 70.2672 98.3913 70.1625 98.4709C70.0977 98.5206 69.5892 98.7396 69.021 98.9586C68.0439 99.3368 67.7099 99.4264 66.0001 99.735C65.5914 99.8096 64.8087 100.019 64.2554 100.198C63.3083 100.506 60.8857 100.914 59.5049 100.999C59.1609 101.004 58.2088 100.989 57.3963 100.944ZM57.8748 96.9629C58.0792 96.9032 59.3104 96.8684 60.6663 96.8883C63.1787 96.9231 64.4847 96.8285 64.9732 96.5747C65.1328 96.4951 65.5415 96.3408 65.8855 96.2313C66.2294 96.1268 67.0868 95.8133 67.7897 95.5445C68.4926 95.2708 69.315 95.022 69.6141 94.9822C69.9132 94.9473 70.2024 94.8428 70.2522 94.7582C70.3021 94.6686 70.5463 94.5442 70.7956 94.4745C71.0448 94.4098 71.4336 94.2307 71.653 94.0764C71.8773 93.9271 72.1714 93.7678 72.306 93.733C72.7496 93.6036 73.7915 93.1905 74.6289 92.8073C75.0825 92.5983 75.4963 92.4291 75.5461 92.4291C75.596 92.4291 75.8951 92.2698 76.2041 92.0707C76.5132 91.8766 77.0516 91.5631 77.3955 91.379C77.7395 91.1948 78.1482 90.9211 78.3077 90.7768C78.6018 90.5031 79.4891 89.9556 80.5858 89.3733C82.0863 88.577 83.6316 87.7957 83.9456 87.6712C84.5438 87.4373 85.8 86.5913 86.5826 85.8896C87.0013 85.5163 87.5247 85.0883 87.7491 84.939C89.9623 83.4061 90.6951 81.6095 92.5993 79.9124C92.694 79.8328 92.7738 79.6387 92.7738 79.4844C92.7738 79.3302 92.9532 78.9868 93.1676 78.723C93.3869 78.4592 93.701 77.9367 93.8705 77.5684C94.0399 77.1951 94.2892 76.7621 94.4238 76.5979C94.5584 76.4337 94.7628 76.0107 94.8724 75.6523C94.9871 75.294 95.2762 74.6371 95.5254 74.1891C96.0937 73.1639 96.5523 71.9098 97.1854 69.6702C97.2801 69.3268 97.5094 68.5853 97.6889 68.0229C97.8683 67.4605 98.0129 66.9181 98.0129 66.8235C98.0129 66.724 98.1126 66.3408 98.2322 65.9725C98.7357 64.4147 99.2691 62.4788 99.5532 61.1997C99.7177 60.4482 99.9271 59.5524 100.012 59.209C100.097 58.8656 100.201 58.2784 100.241 57.9001C100.306 57.2631 100.396 56.7654 100.76 55.0534C100.969 54.078 100.989 53.7047 100.994 51.3557C100.999 49.355 100.959 48.484 100.819 47.205C100.784 46.8915 100.7 45.8663 100.63 44.9306C100.56 43.99 100.45 43.0195 100.386 42.7707C100.321 42.5219 100.246 42.0341 100.231 41.6907C100.181 40.78 100.017 39.9439 99.6679 38.849C99.4984 38.3165 99.3239 37.6496 99.279 37.3709C99.2342 37.0872 99.0896 36.6443 98.95 36.3805C98.8154 36.1167 98.7008 35.7684 98.7008 35.6041C98.7008 35.3254 97.5842 32.9565 97.2851 32.5932C97.0907 32.3593 95.999 30.3636 95.9043 30.0749C95.8644 29.9455 95.7099 29.6618 95.5603 29.4478C95.4158 29.2338 95.2313 28.8656 95.1566 28.6366C95.0818 28.4077 94.8724 28.0096 94.688 27.7607C94.5035 27.5119 94.1097 26.8898 93.8156 26.3772C93.5165 25.8646 93.0878 25.2425 92.8635 24.9886C92.6342 24.7348 92.37 24.3815 92.2803 24.2023C92.056 23.7644 91.0291 22.2862 90.74 21.9777C90.6153 21.8433 90.3561 21.5696 90.1617 21.3755C89.9723 21.1764 89.8178 20.9724 89.8178 20.9176C89.8178 20.7982 89.409 20.2557 89.07 19.9223C88.9404 19.7929 88.7859 19.6038 88.7261 19.5042C88.6413 19.3549 87.5995 18.1854 86.5976 17.1154C86.4879 16.9959 86.3034 16.9014 86.1838 16.9014C86.0642 16.9014 85.6454 16.6376 85.2417 16.3191C84.8429 16.0006 84.2995 15.6422 84.0353 15.5278C83.7711 15.4133 83.492 15.2142 83.4072 15.0848C83.2428 14.8211 81.2089 13.3977 79.7334 12.5218C79.21 12.2083 78.5321 11.7803 78.228 11.5663C77.55 11.0885 75.0576 9.65517 74.7286 9.55065C74.594 9.51084 74.3099 9.38144 74.0906 9.262C73.8712 9.14753 73.622 9.048 73.5322 9.048C73.3029 9.048 72.1913 8.29153 72.1116 8.0825C72.0717 7.98297 71.9072 7.90831 71.7277 7.90831C71.5533 7.90831 71.2641 7.83366 71.0847 7.7391C70.9052 7.64455 70.6261 7.56989 70.4666 7.56989C70.307 7.56989 69.9182 7.44547 69.5942 7.29617C69.2752 7.14687 68.8066 6.98263 68.5574 6.93784C68.3081 6.89305 67.5903 6.67905 66.9672 6.47002C66.3441 6.261 65.7509 6.09179 65.6562 6.09179C65.5565 6.09179 65.2723 5.97732 65.0231 5.84295C64.6642 5.64885 64.3252 5.58416 63.4279 5.54434C62.6403 5.5095 62.2316 5.44481 62.097 5.32536C61.9923 5.2308 61.7082 5.11136 61.4689 5.05164C60.5367 4.82768 59.3104 4.60871 58.9814 4.60871C58.792 4.60871 58.4132 4.52908 58.139 4.43452C56.828 3.97665 54.4203 3.82735 50.7764 3.96172C44.7397 3.80247 40.358 4.23545 35.7071 5.79318C35.2037 5.92258 34.7152 6.09676 34.6155 6.18137C34.5158 6.26597 34.2565 6.34063 34.0422 6.34063C33.8229 6.34063 33.5836 6.40532 33.5038 6.48495C23.6787 11.6061 14.9951 18.8771 9.17774 29.204C9.0581 29.5772 8.57955 30.2939 8.0362 30.911C7.52276 31.4933 6.96944 32.7126 6.57065 34.136C6.43108 34.6386 6.24664 35.1711 6.16688 35.3254C5.9974 35.639 5.51386 37.2664 5.35435 38.0577C5.2397 38.625 4.82595 41.1632 4.68638 42.1685C4.63653 42.5219 4.56674 42.8603 4.52686 42.92C4.40224 43.1191 4.3175 45.5876 4.32747 48.4343C4.33744 50.4349 4.30254 51.3109 4.20783 51.4651C4.09817 51.6393 4.11312 51.7637 4.27264 52.1022C4.46704 52.5103 4.54182 53.3961 4.482 54.5508C4.44212 55.2823 4.6465 57.8354 4.78109 58.3032C4.84091 58.5222 5.00541 59.1642 5.14 59.7266C5.27459 60.289 5.45405 60.9808 5.53879 61.2644C5.62353 61.5481 5.77806 62.1603 5.87776 62.6281C5.97746 63.0959 6.18184 63.8374 6.3264 64.2804C6.74512 65.5544 6.83984 66.0521 6.81491 66.8583C6.79996 67.4356 6.83984 67.6696 6.98938 67.8338C7.09905 67.9532 7.18379 68.1473 7.18379 68.2618C7.18379 68.3763 7.2785 68.5803 7.39316 68.7097C7.65237 68.9984 7.98137 69.8245 7.98137 70.1878C7.98137 70.3421 8.14587 70.6357 8.35523 70.8597C8.55961 71.0787 8.80387 71.4021 8.8936 71.5813C8.98333 71.7605 9.17275 72.0491 9.31731 72.2283C9.4868 72.4373 9.57652 72.7011 9.57652 72.9798C9.57652 73.2983 9.6812 73.5471 9.9803 73.9353C10.1996 74.224 10.4838 74.5126 10.6034 74.5773C10.723 74.642 10.8875 74.9058 10.9623 75.1596C11.062 75.4931 11.2265 75.7071 11.5356 75.9111C11.7748 76.0704 11.9693 76.2545 11.9693 76.3242C11.9693 76.3939 12.2534 76.7074 12.5973 77.016C12.9413 77.3295 13.2254 77.6629 13.2254 77.7575C13.2254 77.8521 13.3152 78.0163 13.4248 78.1158C13.5345 78.2154 13.7688 78.4841 13.9433 78.7081C14.1177 78.937 14.3321 79.1211 14.4168 79.1211C14.5016 79.1211 14.676 79.3003 14.8056 79.5143C14.9352 79.7333 15.349 80.1463 15.7278 80.445C16.1067 80.7386 16.4207 81.0372 16.4207 81.1019C16.4207 81.2363 17.004 81.729 17.4376 81.9629C17.5922 82.0425 18.1804 82.5949 18.7487 83.1872C19.3169 83.7794 19.9101 84.3318 20.0647 84.4164C20.2192 84.501 20.927 85.1381 21.6349 85.8298C22.3427 86.5216 22.9559 87.089 23.0007 87.089C23.1802 87.0939 24.4862 88.0843 24.8402 88.4825C25.0445 88.7164 25.2738 88.9105 25.3536 88.9105C25.6128 88.9105 26.4303 89.6022 26.4702 89.8511C26.4951 90.0402 26.5948 90.1099 26.869 90.1397C27.1083 90.1646 27.3426 90.299 27.5569 90.5379C27.9906 91.0306 28.7234 91.593 29.0673 91.6975C29.2218 91.7472 29.4811 91.8816 29.6356 91.9961C29.7951 92.1105 30.4082 92.3644 31.0064 92.5585C32.0233 92.8869 32.8807 93.2253 33.8827 93.6932C34.1618 93.8226 34.4759 93.8723 34.7949 93.8375C35.1139 93.8027 35.4729 93.8574 35.8467 94.0067C36.1608 94.1311 36.6543 94.2655 36.9484 94.3053C37.2425 94.3501 37.6014 94.4745 37.746 94.589C38.2444 94.9822 39.8396 95.5097 40.5225 95.5097C40.8615 95.5097 42.0329 95.8929 42.6411 96.2015C43.0249 96.3956 43.3439 96.4204 45.6569 96.4354C47.0776 96.4453 48.7874 96.52 49.4504 96.6046C50.1134 96.6892 51.3745 96.8136 52.2519 96.8783C53.1292 96.943 54.206 97.0376 54.6446 97.0923C55.5768 97.1918 57.3414 97.1271 57.8748 96.9629Z" fill="#292929"/>
<path d="M52.3719 70.0004L46.8005 64.7328L46.0576 61.4406L52.7433 55.5146L57.2005 64.0744L52.3719 70.0004Z" fill="#292929"/>
<path d="M71.6857 32.1143H66.6714L70.0142 35.4571L74.4714 36.0143V35.4571L75.5857 34.3429L76.7 32.6714L77.8142 31H76.7L73.3571 31.5571L71.6857 32.1143Z" fill="#292929"/>
<path d="M33.243 32.1143H38.2573L34.9145 35.4571L30.4573 36.0143V35.4571L29.343 34.3429L28.2288 32.6714L27.1145 31H28.2288L31.5716 31.5571L33.243 32.1143Z" fill="#292929"/>
<path d="M34.7125 57.7294C34.6576 57.7189 34.6 57.7037 34.5854 57.6957C34.5701 57.6878 34.5243 57.6779 34.4833 57.6726C34.2465 57.6429 34.084 57.6145 33.827 57.559C33.6686 57.5246 33.4853 57.4856 33.4193 57.4717C33.2221 57.4314 32.7498 57.2643 32.6025 57.1823C32.5734 57.1665 32.5143 57.14 32.4699 57.1235C32.3657 57.0845 32.1108 56.9676 32.0629 56.9365C32.0421 56.9233 32.0087 56.9074 31.9879 56.9015C31.9671 56.8955 31.9164 56.8704 31.8754 56.846C31.8344 56.8215 31.7566 56.7806 31.7031 56.7548C31.5566 56.6841 30.935 56.2956 30.7287 56.1456C30.6919 56.1185 30.6308 56.0762 30.594 56.0511C30.5572 56.026 30.503 55.987 30.4738 55.9645C30.4447 55.9421 30.3988 55.9064 30.3717 55.8852C30.2988 55.8284 29.9474 55.4954 29.9015 55.4392C29.8321 55.3553 29.7557 55.2496 29.7258 55.198C29.7098 55.1703 29.6821 55.1352 29.664 55.1194C29.6459 55.1035 29.6147 55.0606 29.5952 55.0242C29.5758 54.9872 29.5286 54.9331 29.4911 54.9033C29.4536 54.8736 29.4001 54.8101 29.3723 54.7626C29.3445 54.715 29.2792 54.6225 29.2271 54.5558C29.0869 54.376 29.0348 54.2875 29.0348 54.2293C29.0348 54.1725 28.9882 54.0555 28.9264 53.9551C28.9035 53.9181 28.8854 53.8811 28.8854 53.8725C28.8854 53.8395 28.7938 53.6327 28.7507 53.5679C28.7014 53.4946 28.6382 53.3426 28.5854 53.1734C28.5667 53.1146 28.5396 53.0432 28.525 53.0155C28.4576 52.8873 28.3479 52.436 28.3166 52.1545C28.3069 52.0686 28.2958 51.9933 28.2916 51.9873C28.2708 51.955 28.2402 51.6299 28.2319 51.3484C28.2208 50.9717 28.2402 50.7504 28.3166 50.4002C28.3326 50.3275 28.3777 50.0909 28.4146 49.8867C28.4257 49.824 28.4451 49.744 28.4569 49.7083C28.4833 49.631 28.5229 49.5015 28.6083 49.216C28.6764 48.9881 28.7257 48.8612 28.8215 48.6669C28.8542 48.6002 28.8931 48.5123 28.907 48.4714C28.9209 48.4304 28.9382 48.3934 28.9459 48.3894C28.9528 48.3855 28.9667 48.3577 28.9764 48.3286C28.9861 48.2996 29.016 48.2302 29.0431 48.1753C29.0702 48.1205 29.1035 48.0498 29.1174 48.0187C29.1674 47.9071 29.3515 47.6024 29.3897 47.5681C29.4112 47.5489 29.4786 47.4617 29.5397 47.3745C29.6008 47.2866 29.7085 47.1551 29.7793 47.0824C29.8501 47.0091 29.9883 46.8584 30.087 46.7467C30.187 46.6344 30.3474 46.4745 30.4495 46.3879C30.6398 46.2254 30.7398 46.1309 30.778 46.0754C30.8114 46.0278 31.1565 45.7384 31.3079 45.63C31.3795 45.5792 31.476 45.5045 31.5226 45.4642C31.5691 45.4239 31.6219 45.3869 31.6406 45.3809C31.6594 45.3756 31.7031 45.3505 31.7379 45.3248C31.7726 45.2996 31.842 45.2527 31.8913 45.2204C31.9407 45.1886 31.9962 45.143 32.0143 45.1193C32.0358 45.0915 32.1025 45.0505 32.2018 45.0043C32.2865 44.9646 32.3747 44.9138 32.397 44.8906C32.4192 44.8675 32.4595 44.845 32.4866 44.8398C32.5136 44.8345 32.6248 44.7981 32.7345 44.7591C32.8442 44.7202 32.9554 44.6838 32.9824 44.6792C33.0095 44.6746 33.038 44.6653 33.047 44.6587C33.0554 44.6521 33.0964 44.6402 33.1366 44.6316C33.1984 44.6184 33.4297 44.551 33.7575 44.4506C33.7943 44.4393 33.936 44.4162 34.0722 44.4003C34.2937 44.3732 34.3896 44.3706 34.9834 44.3726C35.348 44.3739 35.7161 44.3812 35.8001 44.3891C35.9286 44.4017 36.1106 44.4393 36.3433 44.5021C36.4502 44.5312 36.8503 44.6343 36.9878 44.6686C37.2121 44.7241 37.2961 44.7525 37.7295 44.9197C37.7997 44.9468 37.9143 44.9904 37.9844 45.0162C38.0546 45.0419 38.206 45.108 38.322 45.1629C38.4373 45.2177 38.5588 45.2745 38.5914 45.2897C38.6248 45.3049 38.6685 45.3261 38.6887 45.3373C38.7581 45.3756 38.8158 45.4001 38.8561 45.408C38.8783 45.4126 38.9415 45.4589 38.997 45.5104C39.0526 45.5626 39.1269 45.6168 39.1623 45.632C39.1978 45.6472 39.2311 45.6664 39.2367 45.6743C39.2422 45.6829 39.2776 45.7027 39.3158 45.7186C39.3881 45.749 39.6207 45.9201 39.7332 46.0258C39.7694 46.0595 39.8409 46.1078 39.8916 46.1329C39.943 46.158 39.9909 46.1917 39.9979 46.2076C40.0055 46.2234 40.0319 46.2492 40.0569 46.2644C40.0819 46.2796 40.134 46.3113 40.1729 46.3344C40.2937 46.4078 40.3284 46.4316 40.3673 46.4692C40.3882 46.489 40.4305 46.5267 40.4604 46.5518C40.491 46.5776 40.525 46.6159 40.5368 46.6377C40.5486 46.6595 40.5889 46.6985 40.6271 46.7243C40.6653 46.75 40.6959 46.7771 40.6959 46.7837C40.6959 46.7904 40.7313 46.8307 40.7743 46.8729C40.8452 46.943 40.9181 47.0249 41.048 47.1842C41.073 47.2146 41.1341 47.2892 41.1834 47.35C41.2737 47.4604 41.4751 47.7696 41.4751 47.7974C41.4751 47.8324 41.5605 47.9527 41.6418 48.0306C41.6967 48.0835 41.7356 48.135 41.7446 48.1667C41.7522 48.1945 41.7758 48.2394 41.7967 48.2659C41.8175 48.2929 41.8342 48.32 41.8342 48.3266C41.8342 48.3379 42.0439 48.7562 42.1057 48.8678C42.1217 48.8962 42.1342 48.9286 42.1342 48.9392C42.1342 48.9498 42.1675 49.029 42.2078 49.1156C42.2488 49.2022 42.3016 49.3304 42.3266 49.4011C42.3509 49.4718 42.3933 49.5841 42.4197 49.6508C42.5204 49.9019 42.5315 49.9416 42.5912 50.2568C42.6016 50.3116 42.6273 50.4272 42.6482 50.5131C42.7169 50.7953 42.7364 51.3418 42.6878 51.6398C42.6787 51.6946 42.6662 51.7944 42.6593 51.8611C42.6148 52.2972 42.5516 52.621 42.4724 52.8239C42.4599 52.8549 42.4495 52.8932 42.4495 52.9084C42.4488 52.9236 42.4398 52.9461 42.4287 52.9587C42.4176 52.9712 42.3995 53.0135 42.3891 53.0525C42.3787 53.0915 42.3565 53.1463 42.3405 53.1734C42.3245 53.2005 42.2849 53.2838 42.2537 53.3591C42.1926 53.5038 42.105 53.667 42.0516 53.7377C42.0335 53.7615 41.9627 53.8831 41.8946 54.0086C41.8258 54.1342 41.7404 54.2835 41.7036 54.341C41.6675 54.3985 41.6272 54.4685 41.6147 54.4976C41.5723 54.5947 41.3925 54.8709 41.3661 54.8795C41.3508 54.8842 41.3397 54.902 41.3397 54.9212C41.3397 54.9601 41.2924 55.0427 41.232 55.1101C41.2091 55.1359 41.1799 55.1756 41.1674 55.1987C41.0952 55.3308 40.6993 55.7458 40.5132 55.8832C40.4604 55.9222 40.3972 55.9718 40.3715 55.9936C40.3465 56.0154 40.2229 56.1231 40.0965 56.2328C39.836 56.4601 39.8006 56.4845 39.5402 56.6187C39.4783 56.6504 39.3811 56.7085 39.3235 56.7462C39.2665 56.7845 39.1783 56.8341 39.1283 56.8566C39.0783 56.879 39.0276 56.9055 39.0151 56.9154C39.0026 56.9253 38.9387 56.955 38.8727 56.9814C38.8067 57.0079 38.7366 57.0409 38.7171 57.0548C38.6977 57.0687 38.6699 57.0799 38.6553 57.0799C38.6407 57.0799 38.6206 57.0898 38.6095 57.1024C38.5991 57.1149 38.5623 57.1381 38.5289 57.1539C38.4956 57.1698 38.4581 57.1909 38.4456 57.2015C38.4067 57.2332 37.9803 57.3911 37.8552 57.4209C37.815 57.4301 37.7566 57.4506 37.7261 57.4651C37.6955 57.4803 37.6066 57.5054 37.5295 57.5206C37.4524 57.5365 37.2836 57.5715 37.1559 57.5993C37.0274 57.627 36.8558 57.6594 36.7739 57.6713C36.5356 57.7063 35.9196 57.738 35.5452 57.7347C35.3556 57.7334 35.1126 57.736 35.0056 57.7407C34.8695 57.7466 34.7834 57.7433 34.7125 57.7294ZM35.4939 57.2781C35.5716 57.2709 35.673 57.2557 35.7189 57.2444C35.7647 57.2332 35.8828 57.2206 35.9814 57.2154C36.08 57.2101 36.205 57.1995 36.2585 57.1909C36.312 57.1823 36.3794 57.1737 36.4085 57.1717C36.4377 57.1698 36.5252 57.1519 36.6037 57.1321C36.6822 57.1129 36.8037 57.0898 36.8739 57.0806C36.944 57.072 37.0482 57.0581 37.1065 57.0508C37.1642 57.0429 37.2836 57.0277 37.3719 57.0165C37.4601 57.0052 37.5851 56.9801 37.649 56.961C37.7129 56.9418 37.7893 56.922 37.8177 56.916C37.8469 56.9107 37.9046 56.8942 37.9462 56.8803C37.9879 56.8658 38.0601 56.8473 38.1074 56.8394C38.2456 56.8149 38.4164 56.7508 38.4977 56.6927C38.5393 56.663 38.581 56.6385 38.59 56.6385C38.5991 56.6385 38.6727 56.5936 38.7533 56.5387C38.8338 56.4839 38.9061 56.439 38.9123 56.439C38.9193 56.439 38.9463 56.4211 38.9727 56.4C38.9991 56.3782 39.0637 56.3385 39.1158 56.3108C39.254 56.2374 39.4214 56.1396 39.4818 56.0967C39.511 56.0762 39.5721 56.0385 39.6186 56.0141C39.7555 55.9407 39.9895 55.7577 40.2416 55.5277C40.3139 55.4617 40.384 55.3929 40.3958 55.3764C40.4396 55.3163 40.5486 55.1914 40.6264 55.1134C40.6695 55.0705 40.7174 55.0156 40.7327 54.9925C40.7479 54.9687 40.8084 54.8901 40.8667 54.8168C40.925 54.7434 40.9862 54.6595 41.0028 54.6298C41.0195 54.6 41.0403 54.567 41.0501 54.5558C41.0778 54.5234 41.3105 54.08 41.3105 54.0589C41.3105 54.0483 41.3272 54.0066 41.3473 53.967C41.3675 53.9267 41.405 53.8461 41.43 53.7873C41.455 53.7285 41.4869 53.6611 41.5001 53.6373C41.5133 53.6135 41.5397 53.556 41.5585 53.5091C41.6474 53.2831 41.6876 53.184 41.7467 53.0459C41.8689 52.7584 41.8925 52.6963 41.9029 52.6322C41.9085 52.5972 41.9328 52.5252 41.9571 52.473C41.9807 52.4208 42.0009 52.3587 42.0009 52.3356C42.0009 52.3124 42.0106 52.2675 42.0224 52.2358C42.0453 52.1737 42.0787 52.0098 42.1057 51.8221C42.1155 51.7567 42.1328 51.6781 42.1446 51.6457C42.1564 51.614 42.1627 51.5829 42.1585 51.5763C42.1544 51.5697 42.1585 51.5466 42.1676 51.5241C42.2002 51.4442 42.2342 50.9968 42.2231 50.7847C42.2176 50.675 42.2085 50.5594 42.203 50.5283C42.1884 50.4451 41.9911 49.9033 41.9328 49.787C41.9057 49.7321 41.8779 49.668 41.8724 49.6442C41.8661 49.6204 41.8397 49.5563 41.8133 49.5015C41.7869 49.4467 41.7543 49.3687 41.7404 49.3277C41.7265 49.2874 41.7057 49.2471 41.6946 49.2379C41.6835 49.2293 41.6703 49.2061 41.6654 49.187C41.6605 49.1678 41.623 49.0859 41.5835 49.0059C41.5432 48.9253 41.4897 48.8163 41.464 48.7634C41.4383 48.7106 41.3869 48.628 41.3501 48.5804C41.3126 48.5321 41.2827 48.4872 41.2827 48.4799C41.2827 48.4727 41.2605 48.433 41.2334 48.3921C41.2063 48.3511 41.1591 48.2685 41.1278 48.2077C41.0966 48.1469 41.0563 48.0795 41.0376 48.0577C41.0188 48.0359 40.9875 47.9923 40.9681 47.9612C40.8931 47.8397 40.825 47.7445 40.7695 47.6831C40.7375 47.648 40.6938 47.5985 40.6708 47.574C40.6486 47.5489 40.6097 47.502 40.5854 47.4696C40.5604 47.4372 40.5014 47.3692 40.4542 47.319C40.4069 47.2688 40.368 47.2205 40.368 47.2119C40.368 47.2033 40.309 47.1392 40.2368 47.0699C40.1645 47.0005 40.0492 46.8855 39.9805 46.8148C39.9117 46.7434 39.8457 46.6853 39.8339 46.6853C39.8221 46.6853 39.7971 46.6708 39.7784 46.6529C39.7596 46.6351 39.6992 46.5888 39.6436 46.5498C39.5374 46.4745 39.3672 46.3476 39.2387 46.2472C39.1964 46.2142 39.0943 46.1441 39.0116 46.0919C38.929 46.0397 38.8484 45.9855 38.8317 45.9717C38.8151 45.9578 38.7616 45.9261 38.7116 45.901C38.6623 45.8758 38.6144 45.8468 38.6053 45.8355C38.5963 45.825 38.5491 45.7959 38.5005 45.7714C38.4518 45.747 38.3713 45.6895 38.3213 45.6426C38.2713 45.5963 38.2268 45.558 38.2213 45.558C38.2157 45.558 38.1657 45.5276 38.1094 45.4913C37.908 45.3591 37.8566 45.3287 37.8198 45.3201C37.799 45.3148 37.7205 45.2831 37.6448 45.2494C37.5691 45.2157 37.5024 45.1873 37.4962 45.1873C37.4851 45.1873 37.292 45.1173 37.1982 45.0796C37.1732 45.0697 37.0927 45.0479 37.0183 45.0314C36.8044 44.9838 36.7072 44.96 36.6586 44.9442C36.5558 44.9091 36.3245 44.8596 36.2641 44.8596C36.2287 44.8596 36.187 44.853 36.1717 44.8457C36.1412 44.8298 36.0842 44.8265 35.8564 44.8279C35.7696 44.8285 35.5168 44.8292 35.2945 44.8292C34.7764 44.8298 34.4562 44.8483 34.3277 44.886C34.2743 44.9019 34.1965 44.9184 34.1555 44.9237C34.1145 44.929 34.0472 44.9389 34.0055 44.9455C33.6186 45.0122 33.5915 45.0188 33.436 45.0875C33.3783 45.1133 33.2971 45.1424 33.2561 45.1523C33.2151 45.1629 33.0713 45.2098 32.9366 45.2574C32.8019 45.3049 32.6498 45.3532 32.5977 45.3644C32.5456 45.3756 32.4803 45.3981 32.4525 45.4133C32.4247 45.4285 32.3421 45.4589 32.2685 45.4807C32.1949 45.5025 32.0803 45.5507 32.0136 45.5884C31.9469 45.6261 31.8608 45.673 31.8219 45.6928C31.7837 45.7126 31.7212 45.7529 31.683 45.7827C31.6448 45.8124 31.5628 45.8752 31.5003 45.9221C31.3052 46.0694 31.244 46.1236 30.7558 46.5921C30.4023 46.9311 30.2689 47.0692 30.2349 47.128C30.2099 47.1723 30.1543 47.2463 30.1106 47.2932C30.0668 47.3401 30.0113 47.4029 29.9863 47.4326C29.9613 47.4624 29.9238 47.5066 29.9022 47.5311C29.8807 47.5555 29.8425 47.6209 29.8168 47.6758C29.7425 47.837 29.6876 47.9315 29.5633 48.1119C29.5439 48.1403 29.5209 48.1866 29.5126 48.215C29.5043 48.2434 29.482 48.2844 29.4633 48.3062C29.4445 48.328 29.4251 48.3617 29.4202 48.3815C29.4154 48.4013 29.3813 48.5004 29.3445 48.6029C29.2431 48.8804 29.1584 49.1857 29.1327 49.366C29.1174 49.4711 29.0521 49.7903 29.0084 49.972C28.9952 50.0268 28.9799 50.1715 28.9736 50.2931C28.9514 50.7675 28.9125 51.1812 28.8667 51.4343C28.8396 51.5849 28.8375 51.6398 28.8465 52.1188C28.8542 52.5113 28.8618 52.6607 28.8792 52.7247C28.9007 52.806 29.0313 53.0717 29.0716 53.1172C29.082 53.1291 29.1563 53.2606 29.2369 53.4093C29.3174 53.5586 29.3883 53.6868 29.3938 53.6948C29.4001 53.7027 29.4133 53.7351 29.4237 53.7661C29.4341 53.7978 29.4675 53.8712 29.4987 53.93C29.53 53.9888 29.5744 54.0754 29.5973 54.1223C29.6202 54.1692 29.6571 54.228 29.6779 54.2525C29.7508 54.3364 29.7619 54.3509 29.8439 54.4639C29.889 54.526 29.9411 54.5914 29.9599 54.6093C29.9786 54.6271 29.9932 54.6483 29.9932 54.6562C29.9932 54.674 30.1363 54.8505 30.2516 54.974C30.2988 55.0249 30.3377 55.0712 30.3377 55.0778C30.3377 55.0837 30.3599 55.1121 30.3863 55.1412C30.4655 55.2264 30.5391 55.3143 30.5474 55.3322C30.5822 55.4055 30.6454 55.4689 30.7877 55.5694C30.878 55.6335 30.9523 55.6903 30.9523 55.6969C30.9523 55.7029 31.0183 55.7511 31.0982 55.8033C31.1788 55.8555 31.2684 55.9143 31.2968 55.9335C31.326 55.9526 31.376 55.9824 31.4093 55.9995C31.4427 56.0167 31.4962 56.0484 31.5295 56.0696C31.5628 56.0907 31.6163 56.1224 31.6497 56.139C31.7302 56.1799 31.7615 56.1991 31.8122 56.2368C31.8358 56.2546 31.8608 56.2691 31.8691 56.2691C31.883 56.2691 31.9136 56.2863 32.0928 56.396C32.1379 56.4238 32.2261 56.4713 32.2879 56.5017C32.3497 56.5321 32.4074 56.5625 32.415 56.5685C32.4491 56.5949 32.7081 56.7112 32.7338 56.7112C32.7491 56.7112 32.788 56.7244 32.8206 56.7403C32.8533 56.7561 32.9241 56.7845 32.9776 56.803C33.0311 56.8215 33.1596 56.8691 33.263 56.9088C33.3665 56.9484 33.4783 56.9847 33.5103 56.99C33.5429 56.9953 33.6165 57.0125 33.6742 57.0277C33.8624 57.0779 33.9867 57.1096 34.1388 57.1466C34.2215 57.1665 34.3187 57.1916 34.3562 57.2028C34.418 57.2213 34.5611 57.2425 34.8882 57.2814C35.1091 57.3065 35.2035 57.3059 35.4939 57.2781Z" fill="#292929" stroke="#292929" stroke-width="2"/>
<path d="M33.6609 66.6242C33.53 66.5996 33.3926 66.5641 33.3578 66.5456C33.3214 66.5271 33.212 66.504 33.1143 66.4916C32.5496 66.4223 32.162 66.356 31.5492 66.2264C31.1716 66.1463 30.7344 66.0553 30.5771 66.0229C30.1067 65.9289 28.9805 65.5388 28.6294 65.3476C28.5598 65.3106 28.4191 65.2489 28.3131 65.2104C28.0646 65.1194 27.4568 64.8465 27.3426 64.7741C27.2929 64.7432 27.2134 64.7062 27.1637 64.6924C27.114 64.6785 26.9931 64.6199 26.8954 64.5628C26.7977 64.5058 26.6122 64.4102 26.4847 64.3501C26.1352 64.1851 24.6529 63.2785 24.161 62.9285C24.0733 62.8653 23.9275 62.7666 23.8397 62.7081C23.752 62.6495 23.6228 62.5585 23.5532 62.5061C23.4837 62.4537 23.3744 62.3704 23.3098 62.3211C23.1359 62.1885 22.2978 61.4114 22.1885 61.2803C22.0229 61.0845 21.8407 60.8378 21.7695 60.7176C21.7314 60.6528 21.6652 60.5711 21.6221 60.5341C21.5791 60.4971 21.5045 60.3969 21.4582 60.3121C21.4118 60.2257 21.2992 60.0993 21.2097 60.0299C21.1203 59.9606 20.9928 59.8125 20.9265 59.7015C20.8603 59.5905 20.7046 59.3747 20.5804 59.219C20.2458 58.7996 20.1216 58.593 20.1216 58.4573C20.1216 58.3247 20.0107 58.0518 19.8633 57.8175C19.8086 57.7311 19.7655 57.6448 19.7655 57.6247C19.7655 57.5476 19.5469 57.0651 19.4442 56.914C19.3267 56.7428 19.1759 56.3882 19.0501 55.9935C19.0054 55.8563 18.9408 55.6898 18.906 55.625C18.7453 55.3259 18.4837 54.2729 18.4091 53.616C18.3859 53.4156 18.3595 53.2398 18.3495 53.226C18.2998 53.1504 18.227 52.3919 18.2071 51.735C18.1806 50.8562 18.227 50.3397 18.4091 49.5226C18.4472 49.353 18.5549 48.801 18.6427 48.3246C18.6692 48.1781 18.7155 47.9915 18.7437 47.9083C18.8066 47.7279 18.901 47.4257 19.1047 46.7596C19.267 46.2277 19.3846 45.9317 19.6132 45.4784C19.691 45.3227 19.7838 45.1176 19.8169 45.022C19.85 44.9264 19.8914 44.8401 19.9096 44.8309C19.9262 44.8216 19.9593 44.7568 19.9825 44.689C20.0057 44.6212 20.0769 44.4593 20.1415 44.3313C20.2061 44.2033 20.2856 44.0384 20.3187 43.9659C20.438 43.7053 20.8768 42.9946 20.9679 42.9144C21.0193 42.8697 21.1799 42.6662 21.3257 42.4626C21.4714 42.2576 21.7281 41.9508 21.897 41.7812C22.066 41.61 22.3956 41.2585 22.6307 40.9979C22.8692 40.7358 23.2518 40.3627 23.4953 40.1607C23.949 39.7814 24.1875 39.561 24.2786 39.4315C24.3581 39.3204 25.1812 38.6451 25.5423 38.3923C25.7129 38.2736 25.9431 38.0993 26.054 38.0053C26.165 37.9112 26.2909 37.8249 26.3356 37.811C26.3803 37.7987 26.4847 37.7401 26.5675 37.68C26.6503 37.6214 26.8159 37.5119 26.9335 37.4364C27.0511 37.3624 27.1836 37.256 27.2266 37.2005C27.278 37.1357 27.437 37.0401 27.6738 36.9322C27.8758 36.8397 28.0862 36.721 28.1392 36.667C28.1922 36.613 28.2882 36.5606 28.3528 36.5483C28.4174 36.536 28.6824 36.4512 28.9441 36.3602C29.2058 36.2692 29.4707 36.1844 29.5353 36.1736C29.5999 36.1628 29.6678 36.1413 29.6894 36.1258C29.7092 36.1104 29.8069 36.0827 29.903 36.0626C30.0504 36.0318 30.6019 35.8745 31.3836 35.6402C31.4714 35.614 31.8093 35.56 32.1339 35.523C32.6622 35.4598 32.8907 35.4536 34.3068 35.4582C35.1763 35.4613 36.054 35.4783 36.2544 35.4968C36.5608 35.5261 36.9947 35.614 37.5496 35.7604C37.8046 35.8283 38.7586 36.0688 39.0865 36.149C39.6214 36.2785 39.8218 36.3448 40.8553 36.7348C41.0226 36.7981 41.2958 36.8998 41.4631 36.9599C41.6304 37.0201 41.9914 37.1743 42.268 37.3022C42.5429 37.4302 42.8328 37.5628 42.9106 37.5983C42.9901 37.6337 43.0944 37.6831 43.1425 37.7093C43.3081 37.7987 43.4456 37.8557 43.5416 37.8742C43.5946 37.885 43.7453 37.993 43.8778 38.1132C44.0103 38.235 44.1875 38.3614 44.272 38.3969C44.3565 38.4324 44.4359 38.4771 44.4492 38.4956C44.4624 38.5156 44.5469 38.5619 44.638 38.5989C44.8102 38.6698 45.3651 39.0691 45.6334 39.3158C45.7195 39.3945 45.8901 39.507 46.011 39.5656C46.1335 39.6242 46.2478 39.7028 46.2644 39.7398C46.2826 39.7768 46.3455 39.837 46.4051 39.8724C46.4648 39.9079 46.589 39.9819 46.6817 40.0358C46.9699 40.207 47.0527 40.2625 47.1455 40.3504C47.1951 40.3966 47.2962 40.4845 47.3674 40.5431C47.4403 40.6032 47.5214 40.6927 47.5496 40.7435C47.5777 40.7944 47.6738 40.8854 47.7649 40.9455C47.856 41.0056 47.9288 41.0689 47.9288 41.0843C47.9288 41.0997 48.0133 41.1937 48.116 41.2924C48.2849 41.4558 48.4588 41.647 48.7685 42.0186C48.8281 42.0895 48.9739 42.2637 49.0915 42.4056C49.3068 42.6631 49.7871 43.3846 49.7871 43.4494C49.7871 43.5311 49.9908 43.8117 50.1845 43.9937C50.3154 44.117 50.4081 44.2373 50.4297 44.3113C50.4479 44.376 50.5042 44.4809 50.5539 44.5425C50.6035 44.6057 50.6433 44.669 50.6433 44.6844C50.6433 44.7106 51.1435 45.6866 51.2909 45.9471C51.329 46.0134 51.3588 46.089 51.3588 46.1136C51.3588 46.1383 51.4383 46.3233 51.5343 46.5253C51.632 46.7273 51.7579 47.0264 51.8175 47.1914C51.8755 47.3563 51.9765 47.6184 52.0395 47.7742C52.2796 48.36 52.3061 48.4525 52.4485 49.188C52.4734 49.316 52.5347 49.5858 52.5843 49.7862C52.7483 50.4446 52.7947 51.7196 52.6787 52.415C52.6572 52.5429 52.6274 52.7758 52.6108 52.9315C52.5048 53.9491 52.3541 54.7046 52.1653 55.1779C52.1355 55.2504 52.1107 55.3398 52.1107 55.3752C52.109 55.4107 52.0875 55.4631 52.061 55.4924C52.0345 55.5217 51.9914 55.6204 51.9666 55.7114C51.9417 55.8023 51.8887 55.9303 51.8507 55.9935C51.8126 56.0567 51.7182 56.251 51.6436 56.4267C51.4979 56.7644 51.2892 57.1452 51.1617 57.3102C51.1186 57.3657 50.9497 57.6494 50.7874 57.9423C50.6234 58.2353 50.4197 58.5837 50.3319 58.7179C50.2458 58.852 50.1498 59.0154 50.1199 59.0833C50.0189 59.3099 49.59 59.9544 49.527 59.9744C49.4906 59.9852 49.4641 60.0269 49.4641 60.0716C49.4641 60.1625 49.3515 60.3553 49.2074 60.5125C49.1527 60.5727 49.0832 60.6652 49.0534 60.7191C48.8811 61.0275 47.9371 61.9957 47.4933 62.3164C47.3674 62.4074 47.2167 62.523 47.1554 62.5739C47.0958 62.6248 46.801 62.8761 46.4995 63.132C45.8785 63.6624 45.794 63.7195 45.1729 64.0325C45.0255 64.1065 44.7937 64.2421 44.6562 64.33C44.5204 64.4195 44.3101 64.5351 44.1908 64.5875C44.0716 64.6399 43.9507 64.7016 43.9209 64.7247C43.8911 64.7479 43.7387 64.8172 43.5814 64.8789C43.424 64.9406 43.2568 65.0177 43.2104 65.05C43.164 65.0824 43.0978 65.1086 43.063 65.1086C43.0282 65.1086 42.9802 65.1318 42.9537 65.1611C42.9288 65.1904 42.8411 65.2443 42.7616 65.2813C42.6821 65.3183 42.5926 65.3677 42.5628 65.3923C42.4701 65.4663 41.4532 65.8348 41.1551 65.9042C41.059 65.9258 40.9199 65.9736 40.847 66.0075C40.7741 66.043 40.5622 66.1016 40.3783 66.137C40.1945 66.174 39.792 66.2557 39.4873 66.3205C39.1809 66.3853 38.7718 66.4608 38.5764 66.4886C38.0083 66.5703 36.5393 66.6443 35.6466 66.6366C35.1945 66.6335 34.6148 66.6396 34.3598 66.6504C34.0352 66.6643 33.8298 66.6566 33.6609 66.6242ZM35.5241 65.5712C35.7096 65.5542 35.9514 65.5188 36.0607 65.4925C36.17 65.4663 36.4515 65.437 36.6867 65.4247C36.9219 65.4124 37.22 65.3877 37.3475 65.3677C37.475 65.3476 37.6357 65.3276 37.7052 65.3229C37.7748 65.3183 37.9835 65.2767 38.1706 65.2304C38.3578 65.1857 38.6476 65.1318 38.8149 65.1102C38.9822 65.0901 39.2306 65.0578 39.3697 65.0408C39.5072 65.0223 39.792 64.9868 40.0024 64.9606C40.2127 64.9344 40.5108 64.8758 40.6632 64.8311C40.8155 64.7864 40.9977 64.7401 41.0656 64.7263C41.1352 64.7139 41.2727 64.6754 41.372 64.643C41.4714 64.6091 41.6436 64.5659 41.7563 64.5474C42.0858 64.4904 42.4933 64.3408 42.687 64.2051C42.7864 64.1358 42.8858 64.0787 42.9073 64.0787C42.9288 64.0787 43.1044 63.9739 43.2965 63.8459C43.4886 63.7179 43.6609 63.6131 43.6758 63.6131C43.6923 63.6131 43.7569 63.5715 43.8199 63.5221C43.8828 63.4712 44.0368 63.3787 44.161 63.314C44.4906 63.1428 44.8897 62.9147 45.0338 62.8144C45.1034 62.7666 45.2491 62.6788 45.3601 62.6217C45.6864 62.4506 46.2445 62.0235 46.8457 61.4869C47.0179 61.3328 47.1852 61.1724 47.2134 61.1339C47.3177 60.9936 47.5777 60.7022 47.7632 60.5202C47.8659 60.42 47.9802 60.292 48.0166 60.2381C48.053 60.1826 48.1971 59.9991 48.3362 59.828C48.4754 59.6568 48.6211 59.461 48.6609 59.3916C48.7006 59.3223 48.7503 59.2452 48.7735 59.219C48.8397 59.1434 49.3945 58.1089 49.3945 58.0595C49.3945 58.0348 49.4343 57.9377 49.4823 57.8452C49.5303 57.7512 49.6198 57.5631 49.6794 57.4258C49.739 57.2886 49.8152 57.1313 49.8467 57.0758C49.8781 57.0203 49.9411 56.8862 49.9858 56.7767C50.1978 56.2494 50.2938 56.0182 50.4346 55.6959C50.7261 55.0252 50.7824 54.8803 50.8073 54.7308C50.8205 54.649 50.8785 54.481 50.9364 54.3592C50.9928 54.2374 51.0408 54.0925 51.0408 54.0385C51.0408 53.9845 51.064 53.8797 51.0921 53.8057C51.1468 53.6608 51.2263 53.2784 51.2909 52.8405C51.314 52.6879 51.3555 52.5044 51.3836 52.4289C51.4118 52.3548 51.4267 52.2824 51.4167 52.267C51.4068 52.2515 51.4167 52.1976 51.4383 52.1452C51.5161 51.9586 51.5973 50.9148 51.5708 50.4199C51.5575 50.1639 51.536 49.8941 51.5227 49.8217C51.4879 49.6274 51.0176 48.3631 50.8785 48.0918C50.8139 47.9638 50.7476 47.8142 50.7344 47.7587C50.7195 47.7032 50.6565 47.5537 50.5936 47.4257C50.5307 47.2977 50.4528 47.1158 50.4197 47.0202C50.3866 46.9262 50.3369 46.8321 50.3104 46.8105C50.2839 46.7905 50.2524 46.7365 50.2408 46.6918C50.2293 46.6471 50.1398 46.4559 50.0454 46.2694C49.9494 46.0813 49.8218 45.8269 49.7606 45.7035C49.6993 45.5802 49.5767 45.3874 49.4889 45.2764C49.3995 45.1639 49.3283 45.059 49.3283 45.0421C49.3283 45.0251 49.2753 44.9326 49.2107 44.837C49.1461 44.7414 49.0335 44.5487 48.959 44.4069C48.8844 44.265 48.7884 44.1077 48.7437 44.0569C48.6989 44.006 48.6244 43.9042 48.578 43.8318C48.3992 43.5481 48.2369 43.3261 48.1044 43.1827C48.0282 43.1009 47.9239 42.9853 47.8692 42.9283C47.8162 42.8697 47.7235 42.7602 47.6655 42.6847C47.6059 42.6091 47.4651 42.4503 47.3525 42.3331C47.2399 42.216 47.1471 42.1034 47.1471 42.0834C47.1471 42.0633 47.0063 41.9138 46.8341 41.7519C46.6618 41.59 46.3869 41.3217 46.223 41.1567C46.059 40.9902 45.9017 40.8545 45.8735 40.8545C45.8454 40.8545 45.7857 40.8206 45.741 40.779C45.6963 40.7374 45.5522 40.6294 45.4197 40.5385C45.1663 40.3627 44.7606 40.0667 44.4542 39.8323C44.3531 39.7552 44.1097 39.5918 43.9126 39.47C43.7155 39.3482 43.5234 39.2218 43.4836 39.1894C43.4439 39.157 43.3164 39.083 43.1971 39.0244C43.0795 38.9658 42.9653 38.898 42.9437 38.8718C42.9222 38.8471 42.8096 38.7793 42.6937 38.7222C42.5777 38.6652 42.3856 38.531 42.2664 38.4216C42.1471 38.3137 42.0411 38.2242 42.0279 38.2242C42.0146 38.2242 41.8954 38.1533 41.7612 38.0685C41.2809 37.7601 41.1584 37.6892 41.0706 37.6692C41.0209 37.6568 40.8338 37.5828 40.6532 37.5042C40.4727 37.4256 40.3137 37.3593 40.2988 37.3593C40.2723 37.3593 39.8119 37.1958 39.5883 37.108C39.5287 37.0848 39.3366 37.034 39.1594 36.9954C38.6493 36.8844 38.4174 36.8289 38.3015 36.7919C38.0564 36.7102 37.5049 36.5945 37.3608 36.5945C37.2763 36.5945 37.1769 36.5791 37.1405 36.5622C37.0676 36.5252 36.9318 36.5175 36.3886 36.5205C36.1816 36.5221 35.5787 36.5236 35.0487 36.5236C33.8132 36.5252 33.0497 36.5683 32.7433 36.6562C32.6158 36.6932 32.4303 36.7318 32.3326 36.7441C32.2349 36.7564 32.0742 36.7796 31.9749 36.795C31.0524 36.9507 30.9878 36.9661 30.6168 37.1265C30.4794 37.1866 30.2856 37.2544 30.1879 37.2776C30.0901 37.3022 29.7473 37.4117 29.426 37.5227C29.1047 37.6337 28.742 37.7463 28.6178 37.7725C28.4936 37.7987 28.3379 37.8511 28.2717 37.8866C28.2054 37.922 28.0083 37.993 27.8328 38.0438C27.6572 38.0947 27.384 38.2073 27.225 38.2952C27.066 38.383 26.8606 38.4925 26.7679 38.5388C26.6768 38.585 26.5277 38.6791 26.4366 38.7484C26.3455 38.8178 26.1501 38.9643 26.001 39.0738C25.5357 39.4176 25.3899 39.544 24.2256 40.6371C23.3826 41.4281 23.0646 41.7503 22.9835 41.8875C22.9239 41.9909 22.7914 42.1635 22.687 42.273C22.5827 42.3825 22.4502 42.5289 22.3906 42.5983C22.331 42.6677 22.2415 42.771 22.1902 42.828C22.1388 42.8851 22.0478 43.0377 21.9865 43.1657C21.8093 43.5419 21.6784 43.7624 21.382 44.1833C21.3356 44.2496 21.2809 44.3575 21.2611 44.4238C21.2412 44.4901 21.1882 44.5857 21.1435 44.6366C21.0988 44.6875 21.0524 44.7661 21.0408 44.8123C21.0292 44.8586 20.9481 45.0899 20.8603 45.3289C20.6185 45.9764 20.4164 46.6887 20.3551 47.1096C20.3187 47.3548 20.163 48.0995 20.0587 48.5235C20.0272 48.6514 19.9908 48.9891 19.9759 49.2728C19.9229 50.3798 19.8301 51.345 19.7208 51.9355C19.6562 52.287 19.6513 52.415 19.6728 53.5328C19.691 54.4486 19.7092 54.7971 19.7506 54.9466C19.802 55.1363 20.1133 55.7561 20.2094 55.8624C20.2342 55.8902 20.4115 56.197 20.6036 56.5439C20.7957 56.8924 20.9646 57.1915 20.9779 57.21C20.9928 57.2285 21.0242 57.304 21.0491 57.3765C21.0739 57.4505 21.1534 57.6216 21.2279 57.7589C21.3025 57.8961 21.4085 58.0981 21.4631 58.2075C21.5178 58.317 21.6056 58.4542 21.6552 58.5113C21.8291 58.7071 21.8556 58.741 22.0511 59.0046C22.1587 59.1496 22.2829 59.3022 22.3277 59.3438C22.3724 59.3855 22.4071 59.4348 22.4071 59.4533C22.4071 59.4949 22.7483 59.9066 23.0232 60.1949C23.1359 60.3136 23.2286 60.4216 23.2286 60.437C23.2286 60.4509 23.2816 60.5172 23.3445 60.585C23.5333 60.7839 23.7089 60.9889 23.7288 61.0306C23.8116 61.2017 23.9623 61.3497 24.3018 61.5841C24.5171 61.7336 24.6943 61.8662 24.6943 61.8816C24.6943 61.8955 24.8517 62.0081 25.0421 62.1299C25.2342 62.2517 25.4479 62.3889 25.5158 62.4336C25.5853 62.4783 25.7046 62.5477 25.7841 62.5878C25.8636 62.6279 25.9911 62.7019 26.0706 62.7512C26.1501 62.8006 26.2776 62.8746 26.3571 62.9131C26.5492 63.0087 26.6238 63.0534 26.7447 63.1413C26.801 63.1829 26.8606 63.2168 26.8805 63.2168C26.9136 63.2168 26.9865 63.2569 27.4138 63.5129C27.5214 63.5776 27.7318 63.6886 27.8792 63.7596C28.0266 63.8305 28.164 63.9014 28.1822 63.9153C28.2634 63.977 28.8811 64.2483 28.9424 64.2483C28.9789 64.2483 29.0716 64.2791 29.1494 64.3162C29.2273 64.3532 29.3962 64.4195 29.5237 64.4626C29.6513 64.5058 29.9577 64.6168 30.2044 64.7093C30.4512 64.8018 30.7178 64.8866 30.794 64.899C30.8719 64.9113 31.0474 64.9514 31.1849 64.9868C31.6337 65.104 31.9302 65.178 32.2929 65.2644C32.4899 65.3106 32.7218 65.3692 32.8112 65.3954C32.9586 65.4386 33.2998 65.4879 34.0799 65.5789C34.6065 65.6375 34.8318 65.6359 35.5241 65.5712Z" fill="#292929" stroke="#292929" stroke-width="2"/>
<path d="M68.1412 57.7294C68.0864 57.7189 68.0287 57.7037 68.0141 57.6957C67.9988 57.6878 67.953 57.6779 67.912 57.6726C67.6752 57.6429 67.5127 57.6145 67.2557 57.559C67.0974 57.5246 66.914 57.4856 66.848 57.4717C66.6508 57.4314 66.1785 57.2643 66.0313 57.1823C66.0021 57.1665 65.943 57.14 65.8986 57.1235C65.7944 57.0845 65.5395 56.9676 65.4916 56.9365C65.4708 56.9233 65.4374 56.9074 65.4166 56.9015C65.3958 56.8955 65.3451 56.8704 65.3041 56.846C65.2631 56.8215 65.1853 56.7806 65.1318 56.7548C64.9853 56.6841 64.3637 56.2956 64.1574 56.1456C64.1206 56.1185 64.0595 56.0762 64.0227 56.0511C63.9859 56.026 63.9317 55.987 63.9025 55.9645C63.8734 55.9421 63.8275 55.9064 63.8004 55.8852C63.7275 55.8284 63.3761 55.4954 63.3302 55.4392C63.2608 55.3553 63.1844 55.2496 63.1545 55.198C63.1386 55.1703 63.1108 55.1352 63.0927 55.1194C63.0747 55.1035 63.0434 55.0606 63.024 55.0242C63.0045 54.9872 62.9573 54.9331 62.9198 54.9033C62.8823 54.8736 62.8288 54.8101 62.801 54.7626C62.7732 54.715 62.7079 54.6225 62.6559 54.5558C62.5156 54.376 62.4635 54.2875 62.4635 54.2293C62.4635 54.1725 62.4169 54.0555 62.3551 53.9551C62.3322 53.9181 62.3142 53.8811 62.3142 53.8725C62.3142 53.8395 62.2225 53.6327 62.1794 53.5679C62.1301 53.4946 62.0669 53.3426 62.0141 53.1734C61.9954 53.1146 61.9683 53.0432 61.9537 53.0155C61.8863 52.8873 61.7766 52.436 61.7453 52.1545C61.7356 52.0686 61.7245 51.9933 61.7203 51.9873C61.6995 51.955 61.6689 51.6299 61.6606 51.3484C61.6495 50.9717 61.6689 50.7504 61.7453 50.4002C61.7613 50.3275 61.8065 50.0909 61.8433 49.8867C61.8544 49.824 61.8738 49.744 61.8856 49.7083C61.912 49.631 61.9516 49.5015 62.037 49.216C62.1051 48.9881 62.1544 48.8612 62.2503 48.6669C62.2829 48.6002 62.3218 48.5123 62.3357 48.4714C62.3496 48.4304 62.3669 48.3934 62.3746 48.3894C62.3815 48.3855 62.3954 48.3577 62.4051 48.3286C62.4149 48.2996 62.4447 48.2302 62.4718 48.1753C62.4989 48.1205 62.5322 48.0498 62.5461 48.0187C62.5961 47.9071 62.7802 47.6024 62.8184 47.5681C62.8399 47.5489 62.9073 47.4617 62.9684 47.3745C63.0295 47.2866 63.1372 47.1551 63.208 47.0824C63.2788 47.0091 63.4171 46.8584 63.5157 46.7467C63.6157 46.6344 63.7761 46.4745 63.8782 46.3879C64.0685 46.2254 64.1685 46.1309 64.2067 46.0754C64.2401 46.0278 64.5853 45.7384 64.7367 45.63C64.8082 45.5792 64.9047 45.5045 64.9513 45.4642C64.9978 45.4239 65.0506 45.3869 65.0693 45.3809C65.0881 45.3756 65.1318 45.3505 65.1666 45.3248C65.2013 45.2996 65.2707 45.2527 65.3201 45.2204C65.3694 45.1886 65.4249 45.143 65.443 45.1193C65.4645 45.0915 65.5312 45.0505 65.6305 45.0043C65.7152 44.9646 65.8034 44.9138 65.8257 44.8906C65.8479 44.8675 65.8882 44.845 65.9153 44.8398C65.9424 44.8345 66.0535 44.7981 66.1632 44.7591C66.2729 44.7202 66.3841 44.6838 66.4112 44.6792C66.4382 44.6746 66.4667 44.6653 66.4757 44.6587C66.4841 44.6521 66.5251 44.6402 66.5653 44.6316C66.6272 44.6184 66.8584 44.551 67.1862 44.4506C67.2231 44.4393 67.3647 44.4162 67.5009 44.4003C67.7224 44.3732 67.8183 44.3706 68.4121 44.3726C68.7767 44.3739 69.1448 44.3812 69.2288 44.3891C69.3573 44.4017 69.5393 44.4393 69.772 44.5021C69.8789 44.5312 70.279 44.6343 70.4165 44.6686C70.6408 44.7241 70.7249 44.7525 71.1582 44.9197C71.2284 44.9468 71.343 44.9904 71.4131 45.0162C71.4833 45.0419 71.6347 45.108 71.7507 45.1629C71.866 45.2177 71.9875 45.2745 72.0201 45.2897C72.0535 45.3049 72.0972 45.3261 72.1174 45.3373C72.1868 45.3756 72.2445 45.4001 72.2848 45.408C72.307 45.4126 72.3702 45.4589 72.4258 45.5104C72.4813 45.5626 72.5556 45.6168 72.591 45.632C72.6265 45.6472 72.6598 45.6664 72.6654 45.6743C72.6709 45.6829 72.7063 45.7027 72.7445 45.7186C72.8168 45.749 73.0494 45.9201 73.1619 46.0258C73.1981 46.0595 73.2696 46.1078 73.3203 46.1329C73.3717 46.158 73.4196 46.1917 73.4266 46.2076C73.4342 46.2234 73.4606 46.2492 73.4856 46.2644C73.5106 46.2796 73.5627 46.3113 73.6016 46.3344C73.7224 46.4078 73.7572 46.4316 73.7961 46.4692C73.8169 46.489 73.8593 46.5267 73.8891 46.5518C73.9197 46.5776 73.9537 46.6159 73.9655 46.6377C73.9773 46.6595 74.0176 46.6985 74.0558 46.7243C74.094 46.75 74.1246 46.7771 74.1246 46.7837C74.1246 46.7904 74.16 46.8307 74.203 46.8729C74.2739 46.943 74.3468 47.0249 74.4767 47.1842C74.5017 47.2146 74.5628 47.2892 74.6121 47.35C74.7024 47.4604 74.9038 47.7696 74.9038 47.7974C74.9038 47.8324 74.9892 47.9527 75.0705 48.0306C75.1254 48.0835 75.1643 48.135 75.1733 48.1667C75.1809 48.1945 75.2045 48.2394 75.2254 48.2659C75.2462 48.2929 75.2629 48.32 75.2629 48.3266C75.2629 48.3379 75.4726 48.7562 75.5344 48.8678C75.5504 48.8962 75.5629 48.9286 75.5629 48.9392C75.5629 48.9498 75.5963 49.029 75.6365 49.1156C75.6775 49.2022 75.7303 49.3304 75.7553 49.4011C75.7796 49.4718 75.822 49.5841 75.8484 49.6508C75.9491 49.9019 75.9602 49.9416 76.0199 50.2568C76.0303 50.3116 76.056 50.4272 76.0769 50.5131C76.1456 50.7953 76.1651 51.3418 76.1165 51.6398C76.1074 51.6946 76.0949 51.7944 76.088 51.8611C76.0435 52.2972 75.9803 52.621 75.9012 52.8239C75.8887 52.8549 75.8782 52.8932 75.8782 52.9084C75.8775 52.9236 75.8685 52.9461 75.8574 52.9587C75.8463 52.9712 75.8282 53.0135 75.8178 53.0525C75.8074 53.0915 75.7852 53.1463 75.7692 53.1734C75.7532 53.2005 75.7136 53.2838 75.6824 53.3591C75.6213 53.5038 75.5338 53.667 75.4803 53.7377C75.4622 53.7615 75.3914 53.8831 75.3233 54.0086C75.2546 54.1342 75.1691 54.2835 75.1323 54.341C75.0962 54.3985 75.0559 54.4685 75.0434 54.4976C75.0011 54.5947 74.8212 54.8709 74.7948 54.8795C74.7795 54.8842 74.7684 54.902 74.7684 54.9212C74.7684 54.9601 74.7212 55.0427 74.6607 55.1101C74.6378 55.1359 74.6086 55.1756 74.5961 55.1987C74.5239 55.3308 74.128 55.7458 73.9419 55.8832C73.8891 55.9222 73.8259 55.9718 73.8002 55.9936C73.7752 56.0154 73.6516 56.1231 73.5252 56.2328C73.2647 56.4601 73.2293 56.4845 72.9689 56.6187C72.9071 56.6504 72.8098 56.7085 72.7522 56.7462C72.6952 56.7845 72.607 56.8341 72.557 56.8566C72.507 56.879 72.4563 56.9055 72.4438 56.9154C72.4313 56.9253 72.3674 56.955 72.3014 56.9814C72.2355 57.0079 72.1653 57.0409 72.1459 57.0548C72.1264 57.0687 72.0986 57.0799 72.084 57.0799C72.0695 57.0799 72.0493 57.0898 72.0382 57.1024C72.0278 57.1149 71.991 57.1381 71.9576 57.1539C71.9243 57.1698 71.8868 57.1909 71.8743 57.2015C71.8354 57.2332 71.409 57.3911 71.284 57.4209C71.2437 57.4301 71.1853 57.4506 71.1548 57.4651C71.1242 57.4803 71.0353 57.5054 70.9582 57.5206C70.8811 57.5365 70.7124 57.5715 70.5846 57.5993C70.4561 57.627 70.2845 57.6594 70.2026 57.6713C69.9644 57.7063 69.3483 57.738 68.974 57.7347C68.7844 57.7334 68.5413 57.736 68.4343 57.7407C68.2982 57.7466 68.2121 57.7433 68.1412 57.7294ZM68.9226 57.2781C69.0004 57.2709 69.1018 57.2557 69.1476 57.2444C69.1934 57.2332 69.3115 57.2206 69.4101 57.2154C69.5087 57.2101 69.6338 57.1995 69.6872 57.1909C69.7407 57.1823 69.8081 57.1737 69.8373 57.1717C69.8664 57.1698 69.9539 57.1519 70.0324 57.1321C70.1109 57.1129 70.2324 57.0898 70.3026 57.0806C70.3727 57.072 70.4769 57.0581 70.5353 57.0508C70.5929 57.0429 70.7124 57.0277 70.8006 57.0165C70.8888 57.0052 71.0138 56.9801 71.0777 56.961C71.1416 56.9418 71.218 56.922 71.2464 56.916C71.2756 56.9107 71.3333 56.8942 71.3749 56.8803C71.4166 56.8658 71.4888 56.8473 71.5361 56.8394C71.6743 56.8149 71.8451 56.7508 71.9264 56.6927C71.9681 56.663 72.0097 56.6385 72.0188 56.6385C72.0278 56.6385 72.1014 56.5936 72.182 56.5387C72.2625 56.4839 72.3348 56.439 72.341 56.439C72.348 56.439 72.3751 56.4211 72.4014 56.4C72.4278 56.3782 72.4924 56.3385 72.5445 56.3108C72.6827 56.2374 72.8501 56.1396 72.9105 56.0967C72.9397 56.0762 73.0008 56.0385 73.0474 56.0141C73.1842 55.9407 73.4182 55.7577 73.6703 55.5277C73.7426 55.4617 73.8127 55.3929 73.8245 55.3764C73.8683 55.3163 73.9773 55.1914 74.0551 55.1134C74.0982 55.0705 74.1461 55.0156 74.1614 54.9925C74.1767 54.9687 74.2371 54.8901 74.2954 54.8168C74.3538 54.7434 74.4149 54.6595 74.4315 54.6298C74.4482 54.6 74.469 54.567 74.4788 54.5558C74.5065 54.5234 74.7392 54.08 74.7392 54.0589C74.7392 54.0483 74.7559 54.0066 74.776 53.967C74.7962 53.9267 74.8337 53.8461 74.8587 53.7873C74.8837 53.7285 74.9156 53.6611 74.9288 53.6373C74.942 53.6135 74.9684 53.556 74.9872 53.5091C75.0761 53.2831 75.1163 53.184 75.1754 53.0459C75.2976 52.7584 75.3212 52.6963 75.3316 52.6322C75.3372 52.5972 75.3615 52.5252 75.3858 52.473C75.4094 52.4208 75.4296 52.3587 75.4296 52.3356C75.4296 52.3124 75.4393 52.2675 75.4511 52.2358C75.474 52.1737 75.5074 52.0098 75.5344 51.8221C75.5442 51.7567 75.5615 51.6781 75.5733 51.6457C75.5851 51.614 75.5914 51.5829 75.5872 51.5763C75.5831 51.5697 75.5872 51.5466 75.5963 51.5241C75.6289 51.4442 75.6629 50.9968 75.6518 50.7847C75.6463 50.675 75.6372 50.5594 75.6317 50.5283C75.6171 50.4451 75.4199 49.9033 75.3615 49.787C75.3344 49.7321 75.3066 49.668 75.3011 49.6442C75.2948 49.6204 75.2684 49.5563 75.2421 49.5015C75.2157 49.4467 75.183 49.3687 75.1691 49.3277C75.1552 49.2874 75.1344 49.2471 75.1233 49.2379C75.1122 49.2293 75.099 49.2061 75.0941 49.187C75.0893 49.1678 75.0518 49.0859 75.0122 49.0059C74.9719 48.9253 74.9184 48.8163 74.8927 48.7634C74.867 48.7106 74.8156 48.628 74.7788 48.5804C74.7413 48.5321 74.7114 48.4872 74.7114 48.4799C74.7114 48.4727 74.6892 48.433 74.6621 48.3921C74.635 48.3511 74.5878 48.2685 74.5566 48.2077C74.5253 48.1469 74.485 48.0795 74.4663 48.0577C74.4475 48.0359 74.4163 47.9923 74.3968 47.9612C74.3218 47.8397 74.2537 47.7445 74.1982 47.6831C74.1662 47.648 74.1225 47.5985 74.0996 47.574C74.0773 47.5489 74.0384 47.502 74.0141 47.4696C73.9891 47.4372 73.9301 47.3692 73.8829 47.319C73.8356 47.2688 73.7967 47.2205 73.7967 47.2119C73.7967 47.2033 73.7377 47.1392 73.6655 47.0699C73.5932 47.0005 73.478 46.8855 73.4092 46.8148C73.3404 46.7434 73.2745 46.6853 73.2627 46.6853C73.2508 46.6853 73.2258 46.6708 73.2071 46.6529C73.1883 46.6351 73.1279 46.5888 73.0724 46.5498C72.9661 46.4745 72.7959 46.3476 72.6674 46.2472C72.6251 46.2142 72.523 46.1441 72.4403 46.0919C72.3577 46.0397 72.2771 45.9855 72.2605 45.9717C72.2438 45.9578 72.1903 45.9261 72.1403 45.901C72.091 45.8758 72.0431 45.8468 72.034 45.8355C72.025 45.825 71.9778 45.7959 71.9292 45.7714C71.8805 45.747 71.8 45.6895 71.75 45.6426C71.7 45.5963 71.6555 45.558 71.65 45.558C71.6444 45.558 71.5944 45.5276 71.5381 45.4913C71.3367 45.3591 71.2853 45.3287 71.2485 45.3201C71.2277 45.3148 71.1492 45.2831 71.0735 45.2494C70.9978 45.2157 70.9311 45.1873 70.9249 45.1873C70.9138 45.1873 70.7207 45.1173 70.6269 45.0796C70.6019 45.0697 70.5214 45.0479 70.447 45.0314C70.2331 44.9838 70.1359 44.96 70.0873 44.9442C69.9845 44.9091 69.7532 44.8596 69.6928 44.8596C69.6574 44.8596 69.6157 44.853 69.6004 44.8457C69.5699 44.8298 69.5129 44.8265 69.2851 44.8279C69.1983 44.8285 68.9455 44.8292 68.7232 44.8292C68.2051 44.8298 67.8849 44.8483 67.7565 44.886C67.703 44.9019 67.6252 44.9184 67.5842 44.9237C67.5432 44.929 67.4759 44.9389 67.4342 44.9455C67.0473 45.0122 67.0203 45.0188 66.8647 45.0875C66.807 45.1133 66.7258 45.1424 66.6848 45.1523C66.6438 45.1629 66.5001 45.2098 66.3653 45.2574C66.2306 45.3049 66.0785 45.3532 66.0264 45.3644C65.9743 45.3756 65.909 45.3981 65.8812 45.4133C65.8535 45.4285 65.7708 45.4589 65.6972 45.4807C65.6236 45.5025 65.509 45.5507 65.4423 45.5884C65.3756 45.6261 65.2895 45.673 65.2506 45.6928C65.2124 45.7126 65.1499 45.7529 65.1117 45.7827C65.0735 45.8124 64.9915 45.8752 64.929 45.9221C64.7339 46.0694 64.6728 46.1236 64.1845 46.5921C63.831 46.9311 63.6976 47.0692 63.6636 47.128C63.6386 47.1723 63.5831 47.2463 63.5393 47.2932C63.4955 47.3401 63.44 47.4029 63.415 47.4326C63.39 47.4624 63.3525 47.5066 63.3309 47.5311C63.3094 47.5555 63.2712 47.6209 63.2455 47.6758C63.1712 47.837 63.1163 47.9315 62.992 48.1119C62.9726 48.1403 62.9496 48.1866 62.9413 48.215C62.933 48.2434 62.9107 48.2844 62.892 48.3062C62.8732 48.328 62.8538 48.3617 62.8489 48.3815C62.8441 48.4013 62.81 48.5004 62.7732 48.6029C62.6718 48.8804 62.5871 49.1857 62.5614 49.366C62.5461 49.4711 62.4808 49.7903 62.4371 49.972C62.4239 50.0268 62.4086 50.1715 62.4024 50.2931C62.3801 50.7675 62.3412 51.1812 62.2954 51.4343C62.2683 51.5849 62.2662 51.6398 62.2753 52.1188C62.2829 52.5113 62.2905 52.6607 62.3079 52.7247C62.3294 52.806 62.46 53.0717 62.5003 53.1172C62.5107 53.1291 62.585 53.2606 62.6656 53.4093C62.7461 53.5586 62.817 53.6868 62.8225 53.6948C62.8288 53.7027 62.842 53.7351 62.8524 53.7661C62.8628 53.7978 62.8962 53.8712 62.9274 53.93C62.9587 53.9888 63.0031 54.0754 63.026 54.1223C63.049 54.1692 63.0858 54.228 63.1066 54.2525C63.1795 54.3364 63.1906 54.3509 63.2726 54.4639C63.3177 54.526 63.3698 54.5914 63.3886 54.6093C63.4073 54.6271 63.4219 54.6483 63.4219 54.6562C63.4219 54.674 63.565 54.8505 63.6803 54.974C63.7275 55.0249 63.7664 55.0712 63.7664 55.0778C63.7664 55.0837 63.7886 55.1121 63.815 55.1412C63.8942 55.2264 63.9678 55.3143 63.9762 55.3322C64.0109 55.4055 64.0741 55.4689 64.2165 55.5694C64.3067 55.6335 64.3811 55.6903 64.3811 55.6969C64.3811 55.7029 64.447 55.7511 64.5269 55.8033C64.6075 55.8555 64.6971 55.9143 64.7255 55.9335C64.7547 55.9526 64.8047 55.9824 64.8381 55.9995C64.8714 56.0167 64.9249 56.0484 64.9582 56.0696C64.9915 56.0907 65.045 56.1224 65.0784 56.139C65.1589 56.1799 65.1902 56.1991 65.2409 56.2368C65.2645 56.2546 65.2895 56.2691 65.2978 56.2691C65.3117 56.2691 65.3423 56.2863 65.5215 56.396C65.5666 56.4238 65.6548 56.4713 65.7166 56.5017C65.7784 56.5321 65.8361 56.5625 65.8437 56.5685C65.8778 56.5949 66.1368 56.7112 66.1625 56.7112C66.1778 56.7112 66.2167 56.7244 66.2493 56.7403C66.282 56.7561 66.3528 56.7845 66.4063 56.803C66.4598 56.8215 66.5883 56.8691 66.6917 56.9088C66.7952 56.9484 66.9071 56.9847 66.939 56.99C66.9716 56.9953 67.0453 57.0125 67.1029 57.0277C67.2911 57.0779 67.4154 57.1096 67.5675 57.1466C67.6502 57.1665 67.7474 57.1916 67.7849 57.2028C67.8467 57.2213 67.9898 57.2425 68.3169 57.2814C68.5378 57.3065 68.6323 57.3059 68.9226 57.2781Z" fill="#292929" stroke="#292929" stroke-width="2"/>
<path d="M67.0896 66.6242C66.9587 66.5996 66.8213 66.5641 66.7865 66.5456C66.7501 66.5271 66.6408 66.504 66.543 66.4916C65.9783 66.4223 65.5907 66.356 64.978 66.2264C64.6003 66.1463 64.1631 66.0553 64.0058 66.0229C63.5354 65.9289 62.4092 65.5388 62.0581 65.3476C61.9886 65.3106 61.8478 65.2489 61.7418 65.2104C61.4934 65.1194 60.8855 64.8465 60.7713 64.7741C60.7216 64.7432 60.6421 64.7062 60.5924 64.6924C60.5427 64.6785 60.4218 64.6199 60.3241 64.5628C60.2264 64.5058 60.0409 64.4102 59.9134 64.3501C59.5639 64.1851 58.0816 63.2785 57.5897 62.9285C57.502 62.8653 57.3562 62.7666 57.2684 62.7081C57.1807 62.6495 57.0515 62.5585 56.9819 62.5061C56.9124 62.4537 56.8031 62.3704 56.7385 62.3211C56.5646 62.1885 55.7265 61.4114 55.6172 61.2803C55.4516 61.0845 55.2694 60.8378 55.1982 60.7176C55.1601 60.6528 55.0939 60.5711 55.0508 60.5341C55.0078 60.4971 54.9332 60.3969 54.8869 60.3121C54.8405 60.2257 54.7279 60.0993 54.6384 60.0299C54.549 59.9606 54.4215 59.8125 54.3552 59.7015C54.289 59.5905 54.1333 59.3747 54.0091 59.219C53.6745 58.7996 53.5503 58.593 53.5503 58.4573C53.5503 58.3247 53.4394 58.0518 53.292 57.8175C53.2373 57.7311 53.1943 57.6448 53.1943 57.6247C53.1943 57.5476 52.9756 57.0651 52.873 56.914C52.7554 56.7428 52.6047 56.3882 52.4788 55.9935C52.4341 55.8563 52.3695 55.6898 52.3347 55.625C52.1741 55.3259 51.9124 54.2729 51.8378 53.616C51.8147 53.4156 51.7882 53.2398 51.7782 53.226C51.7285 53.1504 51.6557 52.3919 51.6358 51.735C51.6093 50.8562 51.6557 50.3397 51.8378 49.5226C51.8759 49.353 51.9836 48.801 52.0714 48.3246C52.0979 48.1781 52.1442 47.9915 52.1724 47.9083C52.2353 47.7279 52.3297 47.4257 52.5334 46.7596C52.6957 46.2277 52.8133 45.9317 53.0419 45.4784C53.1197 45.3227 53.2125 45.1176 53.2456 45.022C53.2787 44.9264 53.3201 44.8401 53.3383 44.8309C53.3549 44.8216 53.388 44.7568 53.4112 44.689C53.4344 44.6212 53.5056 44.4593 53.5702 44.3313C53.6348 44.2033 53.7143 44.0384 53.7474 43.9659C53.8667 43.7053 54.3056 42.9946 54.3966 42.9144C54.448 42.8697 54.6086 42.6662 54.7544 42.4626C54.9001 42.2576 55.1568 41.9508 55.3258 41.7812C55.4947 41.61 55.8243 41.2585 56.0594 40.9979C56.2979 40.7358 56.6805 40.3627 56.924 40.1607C57.3778 39.7814 57.6162 39.561 57.7073 39.4315C57.7868 39.3204 58.61 38.6451 58.971 38.3923C59.1416 38.2736 59.3718 38.0993 59.4828 38.0053C59.5937 37.9112 59.7196 37.8249 59.7643 37.811C59.809 37.7987 59.9134 37.7401 59.9962 37.68C60.079 37.6214 60.2446 37.5119 60.3622 37.4364C60.4798 37.3624 60.6123 37.256 60.6553 37.2005C60.7067 37.1357 60.8657 37.0401 61.1025 36.9322C61.3046 36.8397 61.5149 36.721 61.5679 36.667C61.6209 36.613 61.7169 36.5606 61.7815 36.5483C61.8461 36.536 62.1111 36.4512 62.3728 36.3602C62.6345 36.2692 62.8994 36.1844 62.964 36.1736C63.0286 36.1628 63.0965 36.1413 63.1181 36.1258C63.1379 36.1104 63.2357 36.0827 63.3317 36.0626C63.4791 36.0318 64.0306 35.8745 64.8123 35.6402C64.9001 35.614 65.238 35.56 65.5626 35.523C66.0909 35.4598 66.3195 35.4536 67.7355 35.4582C68.605 35.4613 69.4828 35.4783 69.6831 35.4968C69.9895 35.5261 70.4235 35.614 70.9783 35.7604C71.2333 35.8283 72.1873 36.0688 72.5152 36.149C73.0502 36.2785 73.2506 36.3448 74.284 36.7348C74.4513 36.7981 74.7246 36.8998 74.8918 36.9599C75.0591 37.0201 75.4201 37.1743 75.6967 37.3022C75.9717 37.4302 76.2615 37.5628 76.3393 37.5983C76.4188 37.6337 76.5232 37.6831 76.5712 37.7093C76.7368 37.7987 76.8743 37.8557 76.9703 37.8742C77.0233 37.885 77.174 37.993 77.3065 38.1132C77.439 38.235 77.6162 38.3614 77.7007 38.3969C77.7852 38.4324 77.8647 38.4771 77.8779 38.4956C77.8912 38.5156 77.9756 38.5619 78.0667 38.5989C78.239 38.6698 78.7938 39.0691 79.0621 39.3158C79.1482 39.3945 79.3188 39.507 79.4397 39.5656C79.5622 39.6242 79.6765 39.7028 79.6931 39.7398C79.7113 39.7768 79.7742 39.837 79.8339 39.8724C79.8935 39.9079 80.0177 39.9819 80.1104 40.0358C80.3986 40.207 80.4814 40.2625 80.5742 40.3504C80.6238 40.3966 80.7249 40.4845 80.7961 40.5431C80.869 40.6032 80.9501 40.6927 80.9783 40.7435C81.0064 40.7944 81.1025 40.8854 81.1936 40.9455C81.2847 41.0056 81.3575 41.0689 81.3575 41.0843C81.3575 41.0997 81.442 41.1937 81.5447 41.2924C81.7136 41.4558 81.8875 41.647 82.1972 42.0186C82.2568 42.0895 82.4026 42.2637 82.5202 42.4056C82.7355 42.6631 83.2158 43.3846 83.2158 43.4494C83.2158 43.5311 83.4195 43.8117 83.6132 43.9937C83.7441 44.117 83.8368 44.2373 83.8584 44.3113C83.8766 44.376 83.9329 44.4809 83.9826 44.5425C84.0323 44.6057 84.072 44.669 84.072 44.6844C84.072 44.7106 84.5722 45.6866 84.7196 45.9471C84.7577 46.0134 84.7875 46.089 84.7875 46.1136C84.7875 46.1383 84.867 46.3233 84.963 46.5253C85.0607 46.7273 85.1866 47.0264 85.2462 47.1914C85.3042 47.3563 85.4052 47.6184 85.4682 47.7742C85.7083 48.36 85.7348 48.4525 85.8772 49.188C85.9021 49.316 85.9634 49.5858 86.0131 49.7862C86.177 50.4446 86.2234 51.7196 86.1075 52.415C86.0859 52.5429 86.0561 52.7758 86.0395 52.9315C85.9336 53.9491 85.7828 54.7046 85.594 55.1779C85.5642 55.2504 85.5394 55.3398 85.5394 55.3752C85.5377 55.4107 85.5162 55.4631 85.4897 55.4924C85.4632 55.5217 85.4201 55.6204 85.3953 55.7114C85.3705 55.8023 85.3175 55.9303 85.2794 55.9935C85.2413 56.0567 85.1469 56.251 85.0723 56.4267C84.9266 56.7644 84.7179 57.1452 84.5904 57.3102C84.5473 57.3657 84.3784 57.6494 84.2161 57.9423C84.0521 58.2353 83.8484 58.5837 83.7606 58.7179C83.6745 58.852 83.5785 59.0154 83.5487 59.0833C83.4476 59.3099 83.0187 59.9544 82.9557 59.9744C82.9193 59.9852 82.8928 60.0269 82.8928 60.0716C82.8928 60.1625 82.7802 60.3553 82.6361 60.5125C82.5815 60.5727 82.5119 60.6652 82.4821 60.7191C82.3098 61.0275 81.3658 61.9957 80.922 62.3164C80.7961 62.4074 80.6454 62.523 80.5841 62.5739C80.5245 62.6248 80.2297 62.8761 79.9283 63.132C79.3072 63.6624 79.2227 63.7195 78.6017 64.0325C78.4543 64.1065 78.2224 64.2421 78.0849 64.33C77.9491 64.4195 77.7388 64.5351 77.6195 64.5875C77.5003 64.6399 77.3794 64.7016 77.3496 64.7247C77.3198 64.7479 77.1674 64.8172 77.0101 64.8789C76.8527 64.9406 76.6855 65.0177 76.6391 65.05C76.5927 65.0824 76.5265 65.1086 76.4917 65.1086C76.4569 65.1086 76.4089 65.1318 76.3824 65.1611C76.3575 65.1904 76.2698 65.2443 76.1903 65.2813C76.1108 65.3183 76.0213 65.3677 75.9915 65.3923C75.8988 65.4663 74.8819 65.8348 74.5838 65.9042C74.4877 65.9258 74.3486 65.9736 74.2757 66.0075C74.2029 66.043 73.9909 66.1016 73.807 66.137C73.6232 66.174 73.2207 66.2557 72.916 66.3205C72.6096 66.3853 72.2005 66.4608 72.0051 66.4886C71.437 66.5703 69.968 66.6443 69.0753 66.6366C68.6232 66.6335 68.0435 66.6396 67.7885 66.6504C67.4639 66.6643 67.2585 66.6566 67.0896 66.6242ZM68.9528 65.5712C69.1383 65.5542 69.3801 65.5188 69.4894 65.4925C69.5987 65.4663 69.8802 65.437 70.1154 65.4247C70.3506 65.4124 70.6487 65.3877 70.7762 65.3677C70.9037 65.3476 71.0644 65.3276 71.134 65.3229C71.2035 65.3183 71.4122 65.2767 71.5993 65.2304C71.7865 65.1857 72.0763 65.1318 72.2436 65.1102C72.4109 65.0901 72.6593 65.0578 72.7984 65.0408C72.9359 65.0223 73.2207 64.9868 73.4311 64.9606C73.6414 64.9344 73.9395 64.8758 74.0919 64.8311C74.2443 64.7864 74.4264 64.7401 74.4943 64.7263C74.5639 64.7139 74.7014 64.6754 74.8007 64.643C74.9001 64.6091 75.0723 64.5659 75.185 64.5474C75.5145 64.4904 75.922 64.3408 76.1157 64.2051C76.2151 64.1358 76.3145 64.0787 76.336 64.0787C76.3575 64.0787 76.5331 63.9739 76.7252 63.8459C76.9173 63.7179 77.0896 63.6131 77.1045 63.6131C77.121 63.6131 77.1856 63.5715 77.2486 63.5221C77.3115 63.4712 77.4655 63.3787 77.5897 63.314C77.9193 63.1428 78.3185 62.9147 78.4625 62.8144C78.5321 62.7666 78.6778 62.6788 78.7888 62.6217C79.1151 62.4506 79.6732 62.0235 80.2744 61.4869C80.4466 61.3328 80.6139 61.1724 80.6421 61.1339C80.7464 60.9936 81.0064 60.7022 81.1919 60.5202C81.2946 60.42 81.4089 60.292 81.4453 60.2381C81.4818 60.1826 81.6258 59.9991 81.765 59.828C81.9041 59.6568 82.0498 59.461 82.0896 59.3916C82.1293 59.3223 82.179 59.2452 82.2022 59.219C82.2684 59.1434 82.8233 58.1089 82.8233 58.0595C82.8233 58.0348 82.863 57.9377 82.911 57.8452C82.9591 57.7512 83.0485 57.5631 83.1081 57.4258C83.1677 57.2886 83.2439 57.1313 83.2754 57.0758C83.3069 57.0203 83.3698 56.8862 83.4145 56.7767C83.6265 56.2494 83.7226 56.0182 83.8633 55.6959C84.1548 55.0252 84.2111 54.8803 84.236 54.7308C84.2492 54.649 84.3072 54.481 84.3652 54.3592C84.4215 54.2374 84.4695 54.0925 84.4695 54.0385C84.4695 53.9845 84.4927 53.8797 84.5208 53.8057C84.5755 53.6608 84.655 53.2784 84.7196 52.8405C84.7428 52.6879 84.7842 52.5044 84.8123 52.4289C84.8405 52.3548 84.8554 52.2824 84.8454 52.267C84.8355 52.2515 84.8454 52.1976 84.867 52.1452C84.9448 51.9586 85.026 50.9148 84.9995 50.4199C84.9862 50.1639 84.9647 49.8941 84.9514 49.8217C84.9167 49.6274 84.4463 48.3631 84.3072 48.0918C84.2426 47.9638 84.1763 47.8142 84.1631 47.7587C84.1482 47.7032 84.0853 47.5537 84.0223 47.4257C83.9594 47.2977 83.8815 47.1158 83.8484 47.0202C83.8153 46.9262 83.7656 46.8321 83.7391 46.8105C83.7126 46.7905 83.6812 46.7365 83.6696 46.6918C83.658 46.6471 83.5685 46.4559 83.4741 46.2694C83.3781 46.0813 83.2505 45.8269 83.1893 45.7035C83.128 45.5802 83.0054 45.3874 82.9177 45.2764C82.8282 45.1639 82.757 45.059 82.757 45.0421C82.757 45.0251 82.704 44.9326 82.6394 44.837C82.5748 44.7414 82.4622 44.5487 82.3877 44.4069C82.3132 44.265 82.2171 44.1077 82.1724 44.0569C82.1277 44.006 82.0531 43.9042 82.0068 43.8318C81.8279 43.5481 81.6656 43.3261 81.5331 43.1827C81.4569 43.1009 81.3526 42.9853 81.2979 42.9283C81.2449 42.8697 81.1522 42.7602 81.0942 42.6847C81.0346 42.6091 80.8938 42.4503 80.7812 42.3331C80.6686 42.216 80.5758 42.1034 80.5758 42.0834C80.5758 42.0633 80.435 41.9138 80.2628 41.7519C80.0906 41.59 79.8156 41.3217 79.6517 41.1567C79.4877 40.9902 79.3304 40.8545 79.3022 40.8545C79.2741 40.8545 79.2144 40.8206 79.1697 40.779C79.125 40.7374 78.9809 40.6294 78.8484 40.5385C78.595 40.3627 78.1893 40.0667 77.8829 39.8323C77.7819 39.7552 77.5384 39.5918 77.3413 39.47C77.1442 39.3482 76.9521 39.2218 76.9124 39.1894C76.8726 39.157 76.7451 39.083 76.6258 39.0244C76.5083 38.9658 76.394 38.898 76.3724 38.8718C76.3509 38.8471 76.2383 38.7793 76.1224 38.7222C76.0064 38.6652 75.8143 38.531 75.6951 38.4216C75.5758 38.3137 75.4698 38.2242 75.4566 38.2242C75.4433 38.2242 75.3241 38.1533 75.1899 38.0685C74.7096 37.7601 74.5871 37.6892 74.4993 37.6692C74.4496 37.6568 74.2625 37.5828 74.082 37.5042C73.9014 37.4256 73.7424 37.3593 73.7275 37.3593C73.701 37.3593 73.2406 37.1958 73.017 37.108C72.9574 37.0848 72.7653 37.034 72.5881 36.9954C72.078 36.8844 71.8461 36.8289 71.7302 36.7919C71.4851 36.7102 70.9336 36.5945 70.7895 36.5945C70.705 36.5945 70.6056 36.5791 70.5692 36.5622C70.4963 36.5252 70.3605 36.5175 69.8173 36.5205C69.6103 36.5221 69.0074 36.5236 68.4775 36.5236C67.2419 36.5252 66.4784 36.5683 66.1721 36.6562C66.0445 36.6932 65.859 36.7318 65.7613 36.7441C65.6636 36.7564 65.503 36.7796 65.4036 36.795C64.4811 36.9507 64.4165 36.9661 64.0455 37.1265C63.9081 37.1866 63.7143 37.2544 63.6166 37.2776C63.5189 37.3022 63.176 37.4117 62.8547 37.5227C62.5334 37.6337 62.1707 37.7463 62.0465 37.7725C61.9223 37.7987 61.7666 37.8511 61.7004 37.8866C61.6341 37.922 61.437 37.993 61.2615 38.0438C61.0859 38.0947 60.8127 38.2073 60.6537 38.2952C60.4947 38.383 60.2893 38.4925 60.1966 38.5388C60.1055 38.585 59.9564 38.6791 59.8653 38.7484C59.7742 38.8178 59.5788 38.9643 59.4298 39.0738C58.9644 39.4176 58.8186 39.544 57.6543 40.6371C56.8113 41.4281 56.4934 41.7503 56.4122 41.8875C56.3526 41.9909 56.2201 42.1635 56.1158 42.273C56.0114 42.3825 55.8789 42.5289 55.8193 42.5983C55.7597 42.6677 55.6702 42.771 55.6189 42.828C55.5676 42.8851 55.4765 43.0377 55.4152 43.1657C55.238 43.5419 55.1071 43.7624 54.8107 44.1833C54.7643 44.2496 54.7097 44.3575 54.6898 44.4238C54.6699 44.4901 54.6169 44.5857 54.5722 44.6366C54.5275 44.6875 54.4811 44.7661 54.4695 44.8123C54.4579 44.8586 54.3768 45.0899 54.289 45.3289C54.0472 45.9764 53.8451 46.6887 53.7839 47.1096C53.7474 47.3548 53.5917 48.0995 53.4874 48.5235C53.4559 48.6514 53.4195 48.9891 53.4046 49.2728C53.3516 50.3798 53.2588 51.345 53.1495 51.9355C53.0849 52.287 53.08 52.415 53.1015 53.5328C53.1197 54.4486 53.1379 54.7971 53.1794 54.9466C53.2307 55.1363 53.5421 55.7561 53.6381 55.8624C53.663 55.8902 53.8402 56.197 54.0323 56.5439C54.2244 56.8924 54.3933 57.1915 54.4066 57.21C54.4215 57.2285 54.4529 57.304 54.4778 57.3765C54.5026 57.4505 54.5821 57.6216 54.6567 57.7589C54.7312 57.8961 54.8372 58.0981 54.8918 58.2075C54.9465 58.317 55.0343 58.4542 55.084 58.5113C55.2579 58.7071 55.2844 58.741 55.4798 59.0046C55.5874 59.1496 55.7116 59.3022 55.7564 59.3438C55.8011 59.3855 55.8359 59.4348 55.8359 59.4533C55.8359 59.4949 56.177 59.9066 56.452 60.1949C56.5646 60.3136 56.6573 60.4216 56.6573 60.437C56.6573 60.4509 56.7103 60.5172 56.7733 60.585C56.9621 60.7839 57.1376 60.9889 57.1575 61.0306C57.2403 61.2017 57.391 61.3497 57.7305 61.5841C57.9458 61.7336 58.123 61.8662 58.123 61.8816C58.123 61.8955 58.2804 62.0081 58.4708 62.1299C58.663 62.2517 58.8766 62.3889 58.9445 62.4336C59.0141 62.4783 59.1333 62.5477 59.2128 62.5878C59.2923 62.6279 59.4198 62.7019 59.4993 62.7512C59.5788 62.8006 59.7063 62.8746 59.7858 62.9131C59.978 63.0087 60.0525 63.0534 60.1734 63.1413C60.2297 63.1829 60.2893 63.2168 60.3092 63.2168C60.3423 63.2168 60.4152 63.2569 60.8425 63.5129C60.9501 63.5776 61.1605 63.6886 61.3079 63.7596C61.4553 63.8305 61.5927 63.9014 61.6109 63.9153C61.6921 63.977 62.3099 64.2483 62.3711 64.2483C62.4076 64.2483 62.5003 64.2791 62.5782 64.3162C62.656 64.3532 62.8249 64.4195 62.9524 64.4626C63.08 64.5058 63.3864 64.6168 63.6331 64.7093C63.8799 64.8018 64.1466 64.8866 64.2227 64.899C64.3006 64.9113 64.4761 64.9514 64.6136 64.9868C65.0624 65.104 65.3589 65.178 65.7216 65.2644C65.9187 65.3106 66.1505 65.3692 66.24 65.3954C66.3874 65.4386 66.7285 65.4879 67.5086 65.5789C68.0353 65.6375 68.2605 65.6359 68.9528 65.5712Z" fill="#292929" stroke="#292929" stroke-width="2"/>
<path d="M36.3504 35.0788C36.2991 35.1353 36.1542 35.268 36.0288 35.3728L37.4051 35.2372C37.4563 35.18 37.5411 35.0979 37.5941 35.0546C37.6454 35.0114 37.7001 34.9498 37.7143 34.9183C37.7284 34.886 37.7991 34.8288 37.8698 34.7899C37.9422 34.7511 38.0288 34.6917 38.0623 34.6572C38.0977 34.6235 38.1984 34.5634 38.2885 34.5238C38.3786 34.4842 38.497 34.4278 38.5517 34.397C38.6083 34.3662 38.7284 34.3075 38.822 34.2665C38.9157 34.2254 39.0217 34.1719 39.0605 34.1477C39.0994 34.1235 39.2266 34.0582 39.3432 34.0025C39.58 33.8903 40.2884 33.556 40.3308 33.5369C40.4439 33.4863 40.6294 33.4284 40.8785 33.3661C41.1612 33.2957 41.3485 33.2231 41.4421 33.1491C41.4668 33.1293 41.5039 33.1132 41.5234 33.1132C41.5587 33.1132 41.8149 33.0618 42.4633 32.9262C42.6329 32.891 42.7954 32.8499 42.8237 32.836C42.8802 32.8082 43.1682 32.748 43.435 32.7092C43.5763 32.6886 43.8361 32.6315 44.124 32.5589C44.2548 32.5259 44.7813 32.4313 44.8343 32.4313C44.9049 32.4313 45.2088 32.3785 45.73 32.2751C45.9491 32.2311 46.2512 32.1835 46.3978 32.1681C46.5445 32.1527 46.76 32.1204 46.8749 32.097C46.9915 32.0735 47.1893 32.0346 47.3148 32.0119C47.4402 31.9885 47.6045 31.9562 47.6787 31.9401C47.7529 31.9239 47.8996 31.9056 48.0038 31.899C48.108 31.8924 48.2441 31.8763 48.3077 31.8631C48.3713 31.8499 48.4826 31.833 48.5568 31.8264C48.6292 31.8198 48.7935 31.8 48.919 31.7817C49.1769 31.745 50.0126 31.6571 50.2758 31.6387C50.3712 31.6321 50.6115 31.6116 50.8112 31.5933C51.6804 31.5134 53.4489 31.473 54.0779 31.5192C54.2457 31.5324 54.4966 31.5471 54.6326 31.5529C54.7687 31.5588 55.0019 31.5735 55.1485 31.5859C55.2952 31.5984 55.5195 31.6145 55.645 31.6226C56.5372 31.6776 57.1732 31.7362 57.6891 31.811C57.8675 31.8367 58.1184 31.8697 58.2439 31.8843C59.0795 31.9797 59.871 32.1204 61.0141 32.377C61.3162 32.4445 62.1572 32.6681 62.4575 32.7605C62.5794 32.7972 62.7649 32.8463 62.8727 32.869C62.9805 32.8917 63.2296 32.9629 63.4275 33.0274L63.4625 33.0388C63.6546 33.1014 63.8882 33.1776 63.9964 33.2121C64.7349 33.4482 65.2154 33.6352 65.6006 33.8353C65.6942 33.8845 65.8462 33.96 65.9345 34.0032C66.0246 34.0465 66.097 34.0868 66.097 34.0934C66.097 34.1 66.1483 34.1286 66.2119 34.1572C66.2755 34.1851 66.3726 34.2423 66.4292 34.2833C66.4857 34.3244 66.5599 34.3706 66.5917 34.3867C66.6624 34.4212 66.7825 34.5033 66.9239 34.6118C66.9804 34.655 67.067 34.713 67.1164 34.7401C67.1659 34.7672 67.2065 34.8002 67.2065 34.8134C67.2065 34.8273 67.2383 34.8552 67.2772 34.8757C67.3691 34.9249 67.6783 35.1807 67.7401 35.2607C67.7666 35.2944 67.8461 35.3706 67.9168 35.43L69.4574 35.4571C69.3266 35.3017 69.2242 35.2225 68.8479 34.9857C68.7136 34.9014 68.5546 34.7929 68.4927 34.7452C68.4309 34.6976 68.3302 34.6264 68.2684 34.5869C68.2065 34.548 68.1253 34.4952 68.0882 34.4695C68.051 34.4439 67.968 34.3977 67.9026 34.3662C67.8373 34.3346 67.7613 34.2914 67.7348 34.2694C67.6376 34.1917 67.1465 33.8955 66.9733 33.8119C66.7472 33.7026 66.5882 33.6081 66.5882 33.5831C66.5882 33.5721 66.4663 33.4995 66.3196 33.4211C66.173 33.3426 65.991 33.2451 65.9168 33.2041C65.8426 33.163 65.7507 33.1256 65.7119 33.1205C65.6748 33.1154 65.4469 33.0274 65.2084 32.9247C64.8232 32.7598 64.3586 32.608 64.1448 32.5772C64.1112 32.5728 64.0335 32.5501 63.9699 32.5266C63.9063 32.5031 63.8126 32.4724 63.7596 32.4577C63.7066 32.443 63.5211 32.3895 63.3444 32.3396C62.8551 32.2003 62.7667 32.1798 62.5088 32.1461C62.3727 32.1285 62.106 32.0698 61.8922 32.0112C61.6855 31.954 61.4487 31.8961 61.3675 31.8829C61.136 31.8448 60.8056 31.7773 60.742 31.7553C60.6431 31.7208 59.8145 31.5485 59.6537 31.5287C59.5707 31.5185 59.4329 31.4965 59.3481 31.4804C59.265 31.4642 58.9647 31.4202 58.6802 31.3828C58.3976 31.3455 58.1043 31.2978 58.0318 31.278C57.9594 31.2582 57.8622 31.2413 57.8181 31.2413C57.7739 31.2413 57.652 31.2296 57.5495 31.2164C57.1714 31.1673 56.9524 31.146 56.8216 31.146C56.7492 31.146 56.5124 31.1277 56.2987 31.105C56.0849 31.0822 55.7669 31.0602 55.5937 31.0566C55.4188 31.0529 55.2333 31.0426 55.1803 31.0346C55.1026 31.0229 52.8129 30.9928 52.6026 31.0016C52.573 31.003 52.4512 31.0062 52.3246 31.0096L52.297 31.0104C51.6309 31.028 51.3694 31.0397 51.1822 31.0602C51.0709 31.0727 50.8942 31.083 50.79 31.083C50.6857 31.083 50.5055 31.0903 50.3889 31.0984L49.9667 31.1277C49.8518 31.1358 49.4932 31.168 49.1716 31.1995C48.8501 31.2318 48.5409 31.2575 48.4844 31.2575C48.4278 31.2575 48.2918 31.2714 48.1805 31.289C48.0692 31.3066 47.9331 31.3205 47.8748 31.3205C47.7565 31.3205 46.9915 31.4034 46.6999 31.4474C46.5939 31.4635 46.3837 31.4921 46.23 31.5112C46.0781 31.5302 45.9031 31.5625 45.8431 31.5837C45.783 31.605 45.7176 31.6219 45.6964 31.6219C45.6752 31.6219 45.5781 31.6365 45.4809 31.6541C45.3837 31.6717 45.2848 31.682 45.2618 31.6761C45.2388 31.6703 45.1752 31.6791 45.1187 31.6959C45.0639 31.7128 44.8714 31.7538 44.6929 31.7868C44.5145 31.8206 44.3343 31.8601 44.2919 31.8755C44.2512 31.8909 44.1382 31.9115 44.041 31.921C43.852 31.9401 43.5163 32.0163 43.2424 32.1021C43.147 32.1314 42.8555 32.2025 42.5923 32.2597C42.329 32.3169 42.0552 32.3785 41.981 32.3968C41.9085 32.4152 41.7884 32.4438 41.7142 32.4606C41.587 32.49 41.1365 32.6373 40.8927 32.7304C40.7796 32.773 40.5552 32.8448 40.3891 32.891C40.3432 32.9042 40.1277 32.9753 39.9103 33.0494C39.6948 33.1234 39.4316 33.2026 39.3291 33.2246C39.2248 33.2473 39.1224 33.2796 39.0994 33.2965C38.9757 33.3903 38.7938 33.4951 38.6312 33.567C38.375 33.6799 38.0871 33.8397 37.9334 33.9563C37.891 33.9878 37.838 34.0186 37.8168 34.0245C37.7443 34.0436 37.1118 34.4432 36.9192 34.5927C36.6136 34.8295 36.4511 34.9681 36.3504 35.0788Z" fill="#C4C4C4" stroke="#292929" stroke-width="2.7"/>
</svg>
