<svg width="102" height="101" viewBox="0 0 102 101" fill="none" xmlns="http://www.w3.org/2000/svg">
<path d="M52.3319 100.937C51.9301 100.868 50.894 100.761 50.0274 100.693C47.1856 100.479 45.4669 100.27 45.1425 100.1C44.9585 100.002 44.334 99.8953 43.6562 99.8417C43.0123 99.7882 42.0876 99.6471 41.5987 99.5303C41.1097 99.4087 40.2334 99.2481 39.6573 99.1703C38.5534 99.0194 37.6384 98.747 37.0284 98.382C36.8299 98.2653 36.5588 98.1679 36.4281 98.1679C36.2974 98.1679 35.9585 98.0512 35.6729 97.9052C35.3921 97.7592 35.0047 97.6424 34.8208 97.6424C34.6368 97.6424 34.2495 97.55 33.9639 97.4381C33.6782 97.3262 32.9375 97.1072 32.313 96.9515C31.6884 96.7958 31.0591 96.6109 30.9138 96.5331C29.597 95.8421 27.8831 95.1171 26.4646 94.65C26.179 94.5527 25.7675 94.3727 25.5496 94.2413C24.1408 93.3898 23.3081 92.913 22.485 92.4897C21.1343 91.789 20.4614 91.317 19.3091 90.2466C18.7524 89.7308 18.1278 89.2199 17.9293 89.1129C17.726 89.0058 17.421 88.7285 17.2467 88.4949C17.0724 88.2614 16.8207 88.0083 16.69 87.9354C16.5544 87.8624 16.3801 87.6775 16.3027 87.5218C16.2252 87.3661 15.8379 86.9038 15.4457 86.4951C14.1337 85.1181 14.003 84.9624 13.7416 84.5099C13.4656 84.0331 12.5942 82.9383 11.1224 81.2255C10.6334 80.6563 10.0767 79.9945 9.88788 79.7561C9.41343 79.1625 8.21278 77.0946 7.91746 76.3647C7.7819 76.0338 7.53983 75.5327 7.37523 75.2505C7.0557 74.7006 6.40696 73.1436 6.40696 72.9198C6.40696 72.8468 6.29561 72.5597 6.16005 72.2872C6.02449 72.0148 5.81632 71.4844 5.70012 71.1049C5.58393 70.7302 5.38544 70.0928 5.25956 69.689C5.13369 69.2851 4.96908 68.8375 4.88678 68.6866C4.65924 68.2682 4.44138 67.7135 4.36876 67.3632C4.33003 67.188 4.18479 66.7501 4.03955 66.39C3.89915 66.0251 3.66676 65.2952 3.53121 64.76C3.39565 64.2248 3.23588 63.6701 3.17295 63.5241C3.0035 63.1154 2.52421 61.4805 2.52421 61.3053C2.52421 61.2226 2.45643 61.0523 2.37413 60.9356C2.29182 60.8188 2.195 60.5366 2.15627 60.3079C2.11753 60.0792 1.9965 59.5294 1.88515 59.0817C1.7738 58.6389 1.63824 57.9723 1.5753 57.6074C0.965296 53.8657 0.950772 53.6516 0.999185 49.8904C1.02339 47.9782 1.09601 46.2265 1.15411 45.9978C1.2122 45.7643 1.26546 45.341 1.26546 45.049C1.2703 44.4749 1.84642 41.8523 2.19015 40.8402C2.71786 39.288 3.04707 38.1932 3.04707 37.9743C3.04707 37.8478 3.11001 37.585 3.19231 37.3953C3.26977 37.2055 3.41501 36.7189 3.51184 36.3151C3.60867 35.9112 3.82169 35.2933 3.98629 34.943C4.38812 34.0769 4.77543 33.1378 4.93035 32.6317C5.09496 32.0965 5.3225 31.5856 6.10196 30.0043C6.44569 29.3085 6.84268 28.4278 6.98308 28.0531C7.25904 27.3184 7.70444 26.3988 8.54199 24.8272C9.0697 23.8345 10.8029 21.1827 11.0014 21.0562C11.0595 21.0173 11.2047 20.8129 11.3209 20.6037C11.7421 19.8301 12.5313 18.7693 13.2332 18.02C13.6787 17.5432 14.1773 16.8474 14.5162 16.2246C14.5791 16.1127 14.8599 15.8986 15.1456 15.7477C15.4264 15.6018 16.1477 15.0763 16.7384 14.5848C17.3339 14.0934 17.9245 13.6214 18.0504 13.5338C18.5055 13.2273 19.1203 12.7505 19.4302 12.4683C20.0983 11.8503 21.3328 10.8723 21.6814 10.6777C21.8847 10.5658 22.2139 10.376 22.4124 10.2544C22.6158 10.1327 23.3662 9.724 24.0875 9.34447C24.8089 8.96495 25.6077 8.49298 25.8691 8.29835C26.6195 7.72906 27.5394 7.22303 28.0574 7.09652C28.3237 7.03327 28.6335 6.89703 28.7449 6.79485C28.8611 6.69267 29.3549 6.42992 29.8439 6.20609C30.3329 5.98714 30.8606 5.71466 31.0106 5.60275C31.1656 5.49084 31.3399 5.43245 31.4028 5.47137C31.4657 5.5103 31.7368 5.44218 32.0031 5.3254C32.2694 5.20863 32.5357 5.11131 32.5938 5.11131C32.6519 5.11131 32.831 4.9994 32.9956 4.85829C33.1602 4.71719 33.6395 4.5031 34.0558 4.37659C34.477 4.25008 35.0532 4.06032 35.3436 3.95327C36.1425 3.66133 38.2388 3.11151 38.5631 3.11151C38.7229 3.11151 39.0957 3.01906 39.4007 2.90228C39.7057 2.7855 40.0785 2.69306 40.2334 2.69306C40.3883 2.69306 41.2355 2.52276 42.1167 2.30866C42.9978 2.09944 43.9806 1.88535 44.2953 1.83183C44.61 1.7783 45.1328 1.69072 45.4524 1.6372C45.7719 1.58367 46.2657 1.53502 46.5513 1.53502C46.837 1.53502 47.3211 1.4669 47.6261 1.38418C48.1393 1.24794 48.8558 1.17009 50.681 1.05331C51.0538 1.02898 51.4314 1.00466 51.5186 0.994924C52.0947 0.936535 58.369 1.13603 58.5821 1.21388C58.7273 1.2674 59.2356 1.33552 59.7149 1.35985C60.1894 1.38418 61.0608 1.53015 61.6466 1.68099C62.2324 1.83183 62.8812 1.95347 63.0797 1.95347C63.4379 1.95347 64.0383 2.09457 65.0743 2.42058C65.3551 2.50816 65.6891 2.58601 65.8102 2.58601C65.9312 2.58601 66.1975 2.69792 66.396 2.82929C66.5945 2.96067 67.3981 3.27694 68.1728 3.52509C68.9522 3.77324 69.7752 4.06518 70.0028 4.17223C70.2352 4.27928 70.6128 4.42525 70.8403 4.49337C71.2809 4.62474 73.5515 5.76818 73.8226 5.99687C73.9969 6.14284 74.9022 6.59049 75.5364 6.8435C75.7591 6.93109 76.4079 7.31548 76.9743 7.695C77.5601 8.08426 78.2912 8.47351 78.6639 8.59029C79.3708 8.81411 79.6128 8.95035 80.9539 9.87484C81.438 10.2057 81.9464 10.5609 82.0916 10.6582C82.2368 10.7555 82.4934 10.9599 82.6677 11.1156C82.842 11.2713 83.055 11.4221 83.147 11.4513C83.7328 11.6557 85.0061 12.6629 86.0615 13.7577C86.7151 14.4389 87.3396 15.0228 87.4413 15.0568C87.5478 15.0909 87.7995 15.339 88.0029 15.6115C88.2062 15.884 88.7049 16.5311 89.1067 17.0518C89.5085 17.5724 89.8426 18.0541 89.8426 18.1271C89.8426 18.2925 90.2783 18.9202 90.898 19.6452C91.3724 20.1999 92.7183 22.1656 92.9846 22.6814C93.0572 22.8273 93.2654 23.1144 93.4445 23.3237C93.6237 23.5329 93.8512 23.8394 93.9529 24.0097C94.0546 24.18 94.2773 24.5303 94.4467 24.7882C94.6161 25.051 94.8921 25.5229 95.0615 25.8392C95.231 26.1555 95.6667 26.8756 96.0347 27.4352C97.0659 29.0068 97.3467 29.5323 97.7049 30.5638C97.8163 30.8752 97.947 31.1818 97.9954 31.2499C98.1455 31.4348 98.7119 33.1962 98.8523 33.892C98.9201 34.2374 99.0363 34.6413 99.1089 34.7873C99.4865 35.5414 100.295 38.4268 100.571 39.9984C100.653 40.4607 100.769 41.1029 100.832 41.4192C101.191 43.2974 101.597 46.2606 101.636 47.2581C101.66 47.8955 101.723 48.674 101.781 48.9951C101.965 50.012 102.033 52.8633 101.888 53.6808C101.815 54.0846 101.767 54.8632 101.772 55.4032C101.786 56.2012 101.752 56.425 101.607 56.5856C101.51 56.6975 101.394 56.9846 101.355 57.2328C101.312 57.4809 101.108 58.7217 100.9 59.9965C100.455 62.7213 100.3 63.4365 99.9561 64.4243C99.5349 65.6261 98.8862 67.5237 98.6054 68.3655C98.0922 69.9079 97.4096 71.6255 97.2256 71.8396C97.0901 71.9953 96.2283 73.7664 96.2283 73.8881C96.2283 73.9221 95.9475 74.5449 95.5989 75.2699C95.2552 75.9949 94.9696 76.6177 94.9696 76.6469C94.9696 76.7637 94.1659 77.9801 93.6382 78.6613C93.338 79.0506 92.9217 79.6977 92.7135 80.1016C92.5053 80.5054 92.1374 81.0553 91.9001 81.318C91.2756 82.0041 90.288 83.2448 89.6828 84.0915C89.1019 84.904 88.4483 85.629 86.7296 87.3709C83.8877 90.3147 79.7193 92.514 77.0711 93.8423C75.3137 94.723 73.75 95.5064 73.5999 95.5842C73.3288 95.7253 72.6849 96.0027 70.9081 96.7423C70.4288 96.9418 69.8382 97.1461 69.6009 97.1997C69.3637 97.2483 68.6956 97.4916 68.1195 97.73C67.5434 97.9733 66.6961 98.2799 66.2362 98.4161C65.7763 98.5523 65.0695 98.7762 64.6676 98.9173C64.2658 99.0584 63.5832 99.253 63.1474 99.3503C62.7166 99.4476 62.0339 99.6131 61.6273 99.7201C60.7607 99.9488 59.9231 100.07 59.2695 100.061C59.0081 100.056 58.2335 100.163 57.5412 100.304C54.191 100.985 53.2808 101.092 52.3319 100.937ZM53.6923 97.3943C53.9828 97.3018 54.6412 97.1559 55.1592 97.0634C57.4444 96.6596 60.63 95.8859 61.9662 95.4139C62.1404 95.3507 62.4455 95.268 62.6488 95.2242C62.8521 95.1804 63.2975 95.015 63.6413 94.8544C64.0092 94.6792 64.5611 94.5235 64.9968 94.4749C65.694 94.397 66.6526 94.1197 67.1319 93.8569C67.2529 93.7937 67.5966 93.6915 67.8968 93.6331C68.2018 93.5747 68.7053 93.3947 69.0248 93.2292C69.3444 93.0638 69.7898 92.8692 70.0221 92.7962C70.2545 92.7232 70.6322 92.5821 70.8597 92.4751C71.0921 92.3729 71.5859 92.1588 71.9587 92.0031C73.4643 91.3705 75.8317 90.1541 76.9307 89.4486C77.1631 89.3026 77.5165 89.0739 77.715 88.9474C77.9184 88.8209 78.4509 88.4852 78.8963 88.203C79.3466 87.9208 80.0582 87.478 80.4843 87.2152C80.9103 86.9525 81.5929 86.5292 82.0093 86.2664C82.4208 86.0037 83.0066 85.6485 83.3116 85.4782C84.1685 84.9867 85.2627 84.0477 86.8942 82.4128C87.7221 81.5856 88.6516 80.7195 88.9615 80.486C90.1766 79.5858 91.9098 77.2503 92.486 75.7565C92.6118 75.4305 92.8684 74.8077 93.0572 74.3746C93.246 73.9416 93.4591 73.3966 93.5317 73.1631C93.6043 72.9295 93.7592 72.4819 93.8754 72.1607C94.0884 71.5817 94.1562 71.4065 94.5774 70.4237C94.9744 69.4992 95.5021 67.8205 95.6812 66.896C95.7781 66.4046 95.9185 65.884 95.9911 65.738C96.0637 65.592 96.2477 64.979 96.4026 64.3707C96.5575 63.7625 96.727 63.0959 96.7802 62.8867C96.8335 62.6775 96.877 62.3271 96.877 62.1033C96.877 61.6946 97.1094 60.7458 97.5548 59.3201C97.8598 58.347 97.9276 57.8264 97.9712 56.099C97.9906 55.3546 98.0777 54.1722 98.1648 53.4813C98.3488 52.0362 98.4892 49.8563 98.4602 49.0097C98.4166 47.7836 98.0051 44.6257 97.8163 44.0662C97.4822 43.0833 97.1046 41.6236 96.9884 40.8937C96.8577 40.0714 96.2816 38.1786 96.0928 37.9548C96.0201 37.8672 95.8555 37.585 95.7248 37.332C95.5118 36.9087 95.5021 36.8162 95.6183 36.3297C95.7345 35.848 95.72 35.7458 95.5118 35.269C95.3859 34.977 95.1051 34.2472 94.8873 33.6389C94.4903 32.5247 94.132 31.7024 93.4833 30.3838C93.2896 29.9897 93.0718 29.4836 92.9991 29.2598C92.8297 28.7294 91.9825 27.0313 91.7307 26.7053C91.6242 26.5691 91.537 26.3842 91.537 26.2917C91.537 26.2041 91.4257 25.9852 91.2901 25.8052C91.1546 25.6251 90.9174 25.2407 90.7624 24.9537C90.3751 24.2335 90.0459 23.6886 89.8523 23.4599C89.7651 23.3528 89.5618 23.0463 89.4069 22.7738C89.2519 22.5013 88.9857 22.1218 88.8114 21.9369C88.6371 21.7472 88.4967 21.5574 88.4967 21.5136C88.4967 21.4698 88.2982 21.2022 88.0513 20.9151C87.8092 20.628 87.3929 20.1269 87.1363 19.8009C86.0809 18.4725 84.764 17.2318 82.7403 15.665C82.4257 15.4217 81.7237 14.8671 81.1814 14.4389C80.6392 14.0107 79.9566 13.5387 79.6612 13.3879C79.3659 13.237 78.8576 12.911 78.5235 12.6678C77.7005 12.0547 75.396 10.5706 74.5682 10.123C71.4358 8.41999 69.2669 7.48578 66.9769 6.85323C66.6332 6.75592 65.9457 6.53696 65.4568 6.36666C64.0431 5.87036 62.3002 5.4811 59.8553 5.11618C59.5116 5.06265 58.8968 4.95561 58.4949 4.87289C58.0931 4.79017 57.454 4.69286 57.0812 4.65393C56.7085 4.61501 56.021 4.51769 55.5611 4.43011C53.8376 4.12357 48.9914 4.39119 46.6094 4.92155C46.0624 5.04319 45.4039 5.17943 45.1425 5.22322C44.4212 5.34487 42.1312 5.92875 41.4244 6.17204C41.0806 6.29368 40.6304 6.42505 40.4319 6.46884C40.2285 6.51263 39.9235 6.62455 39.7493 6.71213C39.575 6.79971 39.2022 6.90676 38.9165 6.95055C38.6309 6.99434 38.2291 7.11598 38.0257 7.22303C37.8224 7.33007 37.3722 7.54416 37.0284 7.69987C36.6847 7.8507 36.1425 8.10859 35.8229 8.26429C35.5082 8.41999 34.9176 8.63408 34.5158 8.73626C34.1139 8.83844 33.2861 9.15471 32.6857 9.44666C31.2575 10.1327 30.4248 10.4831 30.2312 10.4831C30.0859 10.4831 28.6432 11.1107 28.285 11.3297C27.4958 11.8114 26.7842 12.1909 26.3968 12.3272C25.6658 12.585 24.8767 12.984 24.7217 13.1689C24.6443 13.2614 24.1989 13.5338 23.7341 13.7674C21.9573 14.6676 21.2553 15.0082 21.1585 15.0082C21.1053 15.0082 21.0036 15.1152 20.9358 15.2466C20.6792 15.738 20.166 16.2197 19.3914 16.6868C18.7088 17.1004 18.2005 17.4848 17.8906 17.8205C17.7744 17.947 15.833 20.1658 15.1843 20.9103C14.8648 21.2801 14.5162 21.7131 14.4097 21.8737C14.3032 22.0342 14.0127 22.3894 13.7561 22.6619C13.4995 22.9344 13.1703 23.3236 13.0154 23.528C12.8653 23.7324 12.5409 24.107 12.294 24.3698C12.0471 24.6325 11.7712 25.0315 11.6743 25.2553C11.5824 25.484 11.3451 25.8781 11.1466 26.136C10.953 26.3939 10.7593 26.7734 10.7206 26.9875C10.6819 27.1968 10.5318 27.6055 10.3914 27.8925C10.2461 28.1796 10.0138 28.7246 9.87336 29.1041C9.12779 31.099 8.5904 32.3544 7.92714 33.6779C7.52047 34.4856 7.10411 35.4538 7.00244 35.8334C6.89594 36.2129 6.72649 36.7822 6.61514 37.1033C6.39244 37.7602 6.34402 37.9597 5.7679 40.7867C5.21115 43.5309 5.05623 44.3581 4.91099 45.4188C4.84321 45.9103 4.74638 46.392 4.69797 46.4893C4.64955 46.5866 4.58662 46.9661 4.56725 47.331C4.54789 47.696 4.47527 48.2555 4.41717 48.5718C4.13637 50.0023 4.04923 50.8198 4.0347 52.041C4.02018 53.5202 4.20415 55.5687 4.38328 55.9093C4.44622 56.0309 4.49947 56.2693 4.49947 56.4396C4.49947 56.6099 4.5963 57.0235 4.70765 57.3593C4.82384 57.695 4.91583 58.0843 4.91583 58.2205C4.91583 58.3567 5.01265 58.7606 5.13369 59.1158C5.24988 59.471 5.39996 60.0257 5.45806 60.3468C5.51615 60.6728 5.6033 60.9842 5.65171 61.0426C5.70012 61.101 5.83568 61.4562 5.95187 61.8308C6.25204 62.7797 6.57641 63.7382 6.68292 63.9864C6.73133 64.1031 6.85236 64.434 6.95403 64.7211C7.98524 67.7184 8.41612 68.8715 8.65334 69.2851C9.27303 70.3702 9.7959 71.4601 10.067 72.2337C10.1735 72.5451 10.4204 72.9976 10.6141 73.2312C10.8077 73.4696 11.1902 74.1605 11.4613 74.7688C11.7373 75.377 12.0278 75.9803 12.1101 76.1068C12.1924 76.2382 12.4441 76.7686 12.6717 77.2892C13.2575 78.6224 14.2402 80.0967 15.315 81.2547C15.7023 81.6732 16.0219 82.0819 16.0219 82.1598C22.2672 88.1884 28.5464 91.5846 36.9122 94.4019C37.1446 94.4457 37.4835 94.543 37.6675 94.6208C37.8515 94.6987 38.1371 94.7619 38.3017 94.7619C38.4663 94.7619 39.9865 95.1609 41.681 95.6524C46.4981 97.0586 49.2383 97.6132 53.6923 97.3943ZM39.604 77.7076C39.5701 77.6736 38.9117 77.5957 38.1371 77.5325C35.2613 77.3087 32.3856 76.7345 30.0085 75.9219C27.6508 75.1142 25.9805 74.4379 25.4528 74.0778C24.5862 73.4842 23.6809 72.9101 23.6179 72.9101C23.584 72.9101 23.371 72.7835 23.1531 72.6327C22.882 72.4429 22.7223 72.2337 22.6593 71.9758C22.6061 71.7666 22.5093 71.3822 22.4415 71.1195C22.3785 70.8567 22.2527 70.4967 22.1704 70.3118C22.0493 70.0442 22.0445 69.9225 22.1413 69.7036C22.2962 69.363 22.6496 69.2656 23.2742 69.397C23.5405 69.4505 23.8697 69.4651 24.0149 69.4262C24.1553 69.3873 24.4603 69.3484 24.6879 69.3435C25.3027 69.3289 26.8084 68.964 28.4641 68.4336C29.2726 68.1757 30.023 67.9616 30.1392 67.9616C30.5362 67.9616 32.8455 67.115 33.6395 66.682C34.845 66.0202 35.0386 65.8694 34.8934 65.6893C34.8256 65.6066 34.6707 65.5434 34.5497 65.5434C34.2737 65.5434 32.3904 64.8087 31.3544 64.2929C30.3667 63.8015 28.9482 62.4293 28.2898 61.3248C28.1688 61.1253 27.6169 60.5122 27.065 59.9624C26.1887 59.0915 26.0386 58.892 25.9176 58.4248C25.7239 57.6561 25.9418 57.2182 26.7164 56.8386C27.2102 56.5953 27.4668 56.5516 28.6239 56.4932C30.4103 56.4007 30.4878 56.3375 29.7374 55.5541C29.4275 55.2329 29.0596 54.8194 28.9192 54.6393C28.7788 54.4593 28.193 53.7489 27.6169 53.0628C25.598 50.6592 24.5329 49.1216 24.257 48.2215C24.0778 47.6376 23.7341 47.0245 23.1241 46.1925C22.8724 45.8519 22.8239 45.6378 22.7029 44.3727C22.6206 43.5309 22.8239 43.3022 23.86 43.059L24.654 42.8692L24.9299 43.1952C25.08 43.3752 25.3802 43.5796 25.598 43.6477C25.811 43.7158 26.0144 43.8131 26.0483 43.8715C26.1209 43.9932 26.513 44.0029 26.513 43.8813C26.513 43.8326 26.4162 43.7061 26.3049 43.6039C26.0676 43.385 25.8885 42.8254 25.8837 42.295C25.8837 42.0955 25.8401 41.789 25.782 41.609C25.4431 40.5045 25.3075 39.9108 24.9348 37.8672C24.6636 36.3735 24.6007 35.6777 24.5717 33.8774C24.5426 32.0187 24.5523 31.9214 24.7847 31.4737C24.9202 31.2158 25.0606 30.7293 25.0994 30.3838C25.1623 29.8291 25.2059 29.7415 25.5109 29.5615C25.6997 29.4496 25.9611 29.3231 26.1015 29.2793C26.2371 29.2355 26.5034 29.0652 26.6922 28.8997C27.2199 28.4375 27.6411 28.5008 27.8347 29.0749C28.0284 29.6491 28.682 30.5638 29.2339 31.0309C29.5292 31.2839 30.0375 31.7511 30.3667 32.0722C30.9864 32.6755 32.008 33.5514 32.8358 34.179C33.1021 34.3834 33.5378 34.7483 33.8041 34.9965C34.0704 35.2446 34.327 35.4441 34.3657 35.4441C34.4093 35.4441 34.7191 35.6679 35.0532 35.9453C35.668 36.4465 36.6508 37.1471 38.597 38.4609C40.185 39.5313 42.1118 40.4655 43.0559 40.6164C43.4819 40.6845 44.3969 40.8548 45.0893 40.9959C45.7816 41.137 46.6288 41.2927 46.9725 41.3414C47.3163 41.39 48.1683 41.5749 48.8558 41.7549C50.8408 42.261 50.8504 42.2561 50.6374 40.8207C50.5551 40.266 50.5164 39.5313 50.5503 39.1421C50.6374 38.1251 51.078 36.3491 51.4266 35.6144C52.1286 34.1304 53.7068 31.9651 54.6122 31.2402C54.9365 30.9774 55.4061 30.5979 55.6531 30.3887C56.3357 29.8242 58.3255 28.89 59.7972 28.4472C61.9565 27.8001 62.1646 27.7612 63.7768 27.7514C65.0404 27.7417 65.4374 27.7806 66.1345 27.9753C68.3955 28.6029 70.3949 29.5226 71.9006 30.6319C73.1932 31.5808 73.566 31.7802 73.9872 31.7316C74.5778 31.6635 77.1486 30.7682 78.083 30.3011C78.3202 30.1843 78.9786 29.9653 79.5499 29.8145C80.1212 29.6637 80.7263 29.4739 80.9006 29.3912C81.0749 29.3085 81.4671 29.2306 81.7769 29.2209C82.3095 29.2063 82.3579 29.2258 82.6919 29.615C83.1567 30.1551 83.2681 30.559 83.0841 31.0115C83.0066 31.2061 82.9437 31.4494 82.9437 31.5467C82.9437 31.644 82.8275 31.79 82.6822 31.8678C82.537 31.9457 82.3918 32.1062 82.353 32.2279C82.3143 32.3495 82.1594 32.5685 82.0093 32.7193C81.8592 32.8702 81.5736 33.2254 81.3702 33.5124C81.1669 33.7946 80.7312 34.3688 80.402 34.7824C80.0728 35.196 79.8017 35.6096 79.8017 35.6971C79.8017 35.9307 80.218 35.9842 81.7382 35.955C82.9824 35.9307 83.1373 35.9502 83.5488 36.1691C84.033 36.427 84.4058 36.933 84.4106 37.3272C84.4106 37.7164 84.1298 38.1495 83.7909 38.2906C83.6166 38.3635 83.4181 38.4949 83.3455 38.5776C83.0986 38.8793 82.0529 39.5216 81.7043 39.5897C81.5106 39.6286 81.2056 39.7795 81.0217 39.9303C80.5569 40.3147 80.034 40.665 79.4821 40.9618C78.7898 41.3365 78.7317 41.4435 78.7027 42.4215C78.6881 42.8984 78.6204 43.4287 78.5526 43.599C78.4848 43.7693 78.388 44.2219 78.3347 44.6014C78.1023 46.2314 77.7731 47.6084 77.2938 48.9756C76.9453 49.9683 76.6596 50.6543 75.5413 53.238C75.4541 53.4424 75.1975 54.1528 74.97 54.8145C74.5149 56.1428 73.232 58.819 72.8495 59.2326C72.7188 59.3785 72.5493 59.6072 72.4815 59.7386C72.4138 59.8748 72.0652 60.3614 71.7118 60.8334C71.3535 61.3005 70.9275 61.8795 70.758 62.1179C70.5886 62.3563 70.4143 62.5656 70.3756 62.585C70.332 62.6045 70.0996 62.8867 69.8479 63.2176C69.601 63.5484 69.0878 64.1712 68.7053 64.6043C68.3228 65.0373 67.7419 65.7575 67.4078 66.2051C67.0786 66.6528 66.7252 67.042 66.6284 67.0712C66.4638 67.1247 65.4035 68.1417 64.2561 69.3386C63.9705 69.6403 63.5686 69.9955 63.3653 70.1317C61.2158 72.0488 59.1195 73.2604 56.2437 74.5985C56.1808 74.5985 55.6966 74.7396 55.1641 74.9147C54.6315 75.0899 53.7262 75.3721 53.1501 75.5424C52.574 75.7127 51.8187 75.9463 51.475 76.0582C50.2453 76.4669 48.4976 76.8221 46.7353 77.0167C46.2609 77.0702 45.8155 77.1432 45.7525 77.1822C45.5008 77.3379 44.8085 77.4498 43.4626 77.5471C41.0661 77.7125 39.667 77.7709 39.604 77.7076ZM40.3351 75.0704C40.3883 75.0364 41.6713 74.9828 43.1915 74.9488C46.2318 74.8758 47.1081 74.7542 48.8316 74.1703C49.3787 73.9854 50.1969 73.6448 50.6471 73.4112C51.0974 73.1825 51.7993 72.876 52.206 72.73C53.4551 72.2921 57.3475 70.4383 58.3109 69.8203C58.8919 69.4505 61.3658 67.5529 61.8645 67.0955C62.7166 66.317 63.1426 65.9813 63.3847 65.9083C63.7187 65.8061 64.7693 64.9498 65.6504 64.0642C67.6402 62.0644 69.0587 60.5414 69.2136 60.2446C69.3056 60.0597 69.5429 59.7337 69.7317 59.5196C69.9205 59.3055 70.1819 58.926 70.3078 58.6779C70.4337 58.4297 70.6951 58.0405 70.8887 57.8118C71.0824 57.5831 71.2422 57.3544 71.2422 57.3009C71.2422 57.2473 71.5907 56.4883 72.0168 55.6076C72.4428 54.7318 72.9899 53.4424 73.2368 52.7514C73.4789 52.0556 73.8081 51.2285 73.9678 50.9073C74.3406 50.1677 75.1104 47.8225 75.3379 46.752C75.4009 46.4649 75.4832 46.0611 75.5316 45.8567C75.9625 43.9007 76.0738 43.2049 76.1319 42.0761C76.1949 40.7964 76.2045 40.7575 76.5241 40.4217C76.7903 40.1347 78.3444 39.1518 79.9469 38.2516C80.2422 38.0862 80.2664 38.0424 80.1357 37.911C80.0534 37.8283 79.608 37.7067 79.1481 37.6434C78.6881 37.5802 78.1604 37.5072 77.9813 37.478C77.6327 37.4293 76.6499 36.7092 76.5434 36.427C76.5095 36.3345 76.5095 36.0669 76.5483 35.8285C76.6064 35.4636 76.7564 35.2544 77.5214 34.4953C78.388 33.6341 79.0948 32.7339 79.0948 32.4955C79.0948 32.3106 78.6639 32.369 77.9958 32.6463C77.6521 32.7874 77.3229 32.9091 77.2648 32.9091C77.1341 32.9091 76.2239 33.2643 75.1975 33.7119C74.0211 34.2277 72.985 34.1693 72.3508 33.5465C72.1669 33.3665 71.9781 33.2205 71.9345 33.2205C71.8861 33.2205 71.7118 33.1037 71.5375 32.9577C71.368 32.8118 71.1647 32.695 71.0872 32.695C71.0098 32.695 70.7193 32.5344 70.4385 32.3447C69.6784 31.8192 68.3132 31.1477 67.8339 31.0699C67.6015 31.0309 67.3158 30.9336 67.1948 30.8558C67.0738 30.7779 66.5315 30.6027 65.9893 30.4714C65.176 30.2719 64.7354 30.233 63.4379 30.2378C61.574 30.2475 60.4072 30.486 59.4196 31.0699C59.0759 31.2742 58.7515 31.4348 58.6983 31.4348C58.645 31.4348 58.3933 31.6148 58.1415 31.8338C57.8898 32.0527 57.517 32.3544 57.3136 32.5101C56.5826 33.0648 55.348 34.3445 54.9753 34.9381C54.7622 35.2738 54.5928 35.5755 54.5928 35.6096C54.5928 35.6436 54.3943 36.0815 54.1522 36.5827C53.7262 37.4585 53.7068 37.5364 53.6391 38.8063C53.5616 40.232 53.6875 41.7452 53.9199 42.1977C54.128 42.6064 54.0312 42.8838 53.794 43.5942L53.518 44.1975L51.412 44.1489C49.6546 44.1099 49.1027 44.0564 48.1006 43.8326C47.4373 43.6866 46.5174 43.5115 46.0575 43.4433C42.93 43.0006 40.3835 42.2366 39.512 41.4922C39.4249 41.4192 39.1489 41.2538 38.8972 41.1273C38.6454 41.0008 38.2484 40.7575 38.0161 40.5872C37.7837 40.4169 37.5561 40.2806 37.5077 40.2806C37.4593 40.2806 37.1495 40.0957 36.8154 39.8719C36.4814 39.6481 35.7842 39.1907 35.2662 38.855C34.7482 38.5192 34.1672 38.1105 33.9784 37.9451C33.7896 37.7797 33.5717 37.6483 33.4991 37.6483C33.1554 37.6483 28.5125 33.3713 27.491 32.116C27.1811 31.7316 27.1424 31.717 27.0069 31.8824C26.8035 32.1354 26.7019 34.0282 26.8326 35.0695C26.9826 36.2762 27.215 37.2006 27.7088 38.5728C27.9848 39.3367 28.1204 39.6432 28.9531 41.3073C29.2242 41.8523 29.4517 42.3632 29.4517 42.4361C29.4517 42.5091 29.5873 42.7378 29.7519 42.947C29.9165 43.1563 30.1102 43.4823 30.1779 43.672C30.2457 43.8618 30.3522 44.0905 30.4055 44.1732C30.8896 44.9468 30.9525 45.0101 31.2914 45.0782C31.8095 45.1755 32.1726 45.6524 32.1726 46.2265C32.1726 46.6547 32.1387 46.7082 31.6739 47.0342L31.1752 47.3846L29.6551 47.4186C28.377 47.4478 28.009 47.4186 27.3264 47.2337C26.881 47.1121 26.4695 47.0148 26.4114 47.0148C26.2226 47.0148 26.2952 47.297 26.6534 47.9247C26.9778 48.4988 27.2296 48.8637 28.1446 50.0656C28.3431 50.3283 28.8514 51.0144 29.2726 51.5934C29.6986 52.1724 30.2312 52.8147 30.4539 53.0191C31.0203 53.5348 32.8939 54.7756 33.3296 54.9264C33.9251 55.1308 34.3996 55.5103 34.5206 55.8801C34.5884 56.0893 34.7143 56.2402 34.8401 56.2645C35.3582 56.3618 35.484 56.9262 35.0774 57.3009C34.6368 57.7047 34.2156 57.8312 32.6954 58.0064C29.5486 58.3713 29.3694 58.42 29.6793 58.7752C29.7713 58.8774 29.9407 59.1596 30.0617 59.4029C30.2844 59.8456 31.335 60.8042 31.5964 60.8042C31.6739 60.8042 31.8772 60.921 32.0467 61.0669C32.2161 61.2129 32.6422 61.4708 32.9859 61.6459C33.3345 61.8211 33.6346 61.9963 33.654 62.0449C33.6734 62.0936 34.1285 62.4196 34.661 62.7748C35.6874 63.456 36.5588 63.7966 37.5222 63.8988C38.3985 63.9912 38.8391 64.2102 38.9262 64.5897C39.0327 65.0714 38.8923 65.5239 38.5777 65.7185C38.4227 65.811 38.1565 66.0251 37.9822 66.1905C37.5029 66.6479 36.8735 67.1491 36.4136 67.4459C36.1812 67.5918 35.8084 67.84 35.576 67.9908C35.1597 68.2633 34.6949 68.4871 32.6422 69.3776C32.4098 69.4797 31.9402 69.6938 31.5964 69.8544C29.7664 70.7108 27.9896 71.28 26.1015 71.6158C25.8449 71.6596 25.6319 71.7472 25.6319 71.8055C25.6174 72.3748 32.6228 74.579 36.1521 75.1191C36.767 75.2018 40.1753 75.1677 40.3351 75.0704Z" fill="#292929"/>
</svg>
