<svg width="103" height="100" viewBox="0 0 103 100" fill="none" xmlns="http://www.w3.org/2000/svg">
<path d="M46.1007 99.8949C45.7105 99.8158 45.3007 99.7021 45.197 99.6428C45.0883 99.5835 44.7624 99.5094 44.471 99.4699C42.787 99.2475 41.6314 99.035 39.8042 98.6199C38.6783 98.3629 37.3745 98.0714 36.9054 97.9676C35.5029 97.6662 32.1448 96.4159 31.0978 95.8032C30.8904 95.6846 30.4707 95.4869 30.1546 95.3633C29.4138 95.0718 27.6015 94.1971 27.2607 93.9649C27.1126 93.866 26.8755 93.7474 26.7274 93.7029C26.5792 93.6585 26.2187 93.4707 25.9273 93.2878C25.636 93.105 25.0829 92.7986 24.7026 92.6059C23.6606 92.0771 19.2408 89.1714 17.7741 88.0497C17.5123 87.8471 17.0777 87.5308 16.816 87.343C16.5543 87.1552 16.1691 86.8637 15.9617 86.6956C15.7543 86.5276 15.4283 86.2608 15.2357 86.1027C14.7172 85.6777 12.2184 83.1871 11.8924 82.767C11.3986 82.1394 10.8554 81.3488 10.643 80.9633C10.5294 80.7558 10.3319 80.4939 10.2035 80.3753C10.0751 80.2567 9.85288 79.9354 9.7146 79.6637C9.57633 79.3869 9.24052 78.9817 8.97384 78.7593C8.70717 78.5369 8.32691 78.0625 8.12938 77.7067C7.93184 77.3509 7.46763 76.6591 7.09725 76.16C6.0997 74.8159 5.72932 74.1537 5.72932 73.7188C5.72932 73.2938 5.39845 72.4192 4.95893 71.668C4.79596 71.3913 4.66756 71.1146 4.66756 71.0503C4.66756 70.8032 4.0157 69.2565 3.70952 68.7722C3.35889 68.2237 2.9095 67.0871 2.53418 65.822C2.40084 65.3822 2.20824 64.8485 2.10454 64.641C1.62551 63.6823 0.845248 60.3071 0.62302 58.202C0.553883 57.5595 0.474869 56.9962 0.445238 56.9517C0.297087 56.7096 0.0797973 54.2783 0.0205366 52.1731C-0.0584777 49.3564 0.0797972 47.7009 0.62302 45.0818C0.736603 44.5382 1.0576 42.7691 1.31933 41.2421C1.39835 40.7727 1.53662 40.1747 1.62058 39.9079C1.80823 39.3297 2.08972 38.3611 2.69715 36.2263C3.18111 34.5215 3.53173 33.5726 4.21323 32.1198C4.44534 31.6207 4.72189 30.9634 4.82065 30.6571C4.91942 30.3507 5.04288 30.0739 5.0972 30.0443C5.14659 30.0146 5.24536 29.8071 5.31449 29.5897C5.38363 29.3722 5.59598 28.8533 5.78858 28.4432C5.98118 28.033 6.21822 27.5043 6.31699 27.272C6.67255 26.4369 7.98123 24.1588 8.25284 23.9018C8.40593 23.7585 8.88495 23.1062 9.31953 22.4539C9.75411 21.7966 10.5196 20.8132 11.0233 20.2697C11.527 19.7211 12.5097 18.5944 13.211 17.7593C13.9221 16.9192 15.0629 15.7233 15.7888 15.076C17.1419 13.8603 17.8531 13.1536 18.1247 12.7385C18.3617 12.3827 20.8161 10.2183 21.8927 9.40786C22.4013 9.02735 23.0878 8.46894 23.4186 8.1675C23.7495 7.86606 24.1248 7.58932 24.2582 7.54485C24.3915 7.50531 24.7026 7.31753 24.9495 7.12481C25.1965 6.93702 25.6903 6.58616 26.0409 6.34402C26.3916 6.10682 26.7866 5.76585 26.915 5.58794C27.0681 5.38039 27.5422 5.07401 28.2484 4.72809C28.8509 4.43159 29.478 4.05108 29.6361 3.87812C29.7941 3.70517 30.0805 3.53715 30.2731 3.49762C30.4657 3.45808 31.2559 3.18629 32.0361 2.89473C32.8164 2.60317 33.6065 2.33138 33.7991 2.29679C33.9917 2.2622 34.1942 2.19301 34.2584 2.1436C34.3177 2.09418 34.609 2.00523 34.8955 1.94099C35.335 1.84216 36.9795 1.3381 39.3104 0.58697C39.5721 0.502961 40.5796 0.330003 41.5475 0.211402C43.1228 0.00879383 43.8043 -0.0109729 48.0266 0.00385215C50.6193 0.0137355 53.2367 0.0680939 53.8342 0.127394C54.7478 0.221286 56.0417 0.502961 57.696 0.97242C58.4565 1.18985 61.301 1.96076 62.2789 2.21772C63.874 2.63282 64.4715 2.84531 67.5531 4.09556C68.0518 4.29817 68.8667 4.62432 69.3654 4.81704C69.8642 5.00977 70.9408 5.50394 71.7655 5.9141C72.5853 6.32425 73.4495 6.74924 73.6816 6.8629C73.9186 6.97656 74.2298 7.13469 74.373 7.2187C74.8668 7.50531 75.2767 7.68816 75.5631 7.74746C75.7212 7.78205 76.1706 8.12797 76.5656 8.51342C76.9607 8.90381 77.4891 9.30903 77.741 9.42268C77.9928 9.53634 78.2299 9.67965 78.2694 9.73895C78.3089 9.80319 78.5607 9.95144 78.8323 10.07C79.3459 10.2974 81.0003 11.5773 81.8003 12.3679C82.0571 12.6199 82.5658 12.9807 82.9263 13.1685C83.2917 13.3563 83.6325 13.6083 83.6818 13.7269C83.7362 13.8455 83.9238 14.0382 84.1016 14.1519C84.2794 14.2655 84.6498 14.5027 84.9263 14.6757C85.7856 15.2242 86.0325 15.4021 86.3091 15.6838C86.4572 15.832 86.7585 16.1137 86.9708 16.3015C87.1881 16.4942 87.4301 16.7808 87.514 16.9439C87.598 17.107 87.8844 17.3985 88.156 17.5913C88.4276 17.784 88.6449 17.9866 88.6449 18.036C88.6449 18.0854 88.8968 18.3869 89.203 18.7031C89.7067 19.227 90.2252 19.8397 91.1487 21.0307C91.3265 21.258 91.7611 21.8164 92.1117 22.271C92.7537 23.0963 94.1858 25.409 94.1858 25.6166C94.1858 25.8785 94.7932 26.7778 95.371 27.361C95.7611 27.7563 96.0377 28.1417 96.1019 28.3789C96.1562 28.5865 96.3241 28.9225 96.4723 29.1202C96.6204 29.3228 96.739 29.5254 96.739 29.5748C96.739 29.6588 98.2303 32.7869 98.6699 33.6221C98.7834 33.8346 98.8723 34.0767 98.8723 34.1558C98.8723 34.2348 99.1094 34.8278 99.3958 35.4752C99.6872 36.1226 100.062 37.0812 100.24 37.61C100.413 38.1388 100.714 38.9788 100.902 39.478C101.618 41.3558 101.697 41.6523 102.122 44.0095C102.196 44.4196 102.379 45.2844 102.527 45.9268C103.016 48.0369 103.154 52.1237 102.808 54.3524C102.744 54.7626 102.655 55.5087 102.606 56.0079C102.29 59.2694 101.84 61.6908 101.277 63.2079C101.188 63.4401 101.114 63.7267 101.114 63.8404C101.109 63.9541 101.045 64.1221 100.966 64.216C100.887 64.3099 100.759 64.6261 100.685 64.9177C100.611 65.2093 100.453 65.6194 100.339 65.822C100.225 66.0246 99.944 66.6473 99.7217 67.2106C99.2872 68.2929 98.6649 69.5135 98.2847 70.0422C98.1563 70.2201 97.6525 71.1294 97.1686 72.0683C96.6797 73.0072 96.0723 74.124 95.8105 74.554C95.5537 74.9839 95.2673 75.5077 95.1784 75.7251C94.8772 76.4516 93.5981 78.5172 93.4105 78.5814C93.3018 78.616 93.2228 78.7494 93.2228 78.8927C93.2228 79.1843 92.887 79.802 92.4574 80.3061C92.2944 80.4988 92.087 80.7953 91.9981 80.9683C91.4845 81.9566 88.6696 85.06 87.3461 86.0878C86.9708 86.3794 86.5214 86.75 86.3387 86.9131C86.1609 87.0762 85.2819 87.8817 84.3831 88.702C82.5312 90.4019 82.2793 90.5848 80.4274 91.5879C79.9879 91.8251 79.2966 92.26 78.8867 92.5416C78.4817 92.8283 77.8545 93.1989 77.499 93.3669C77.1434 93.5349 76.7829 93.7326 76.694 93.8067C76.6051 93.8808 76.1508 94.1032 75.6816 94.3009C75.2125 94.4986 74.7137 94.7456 74.5754 94.8494C74.4372 94.9532 74.2396 95.0372 74.1359 95.0372C74.0322 95.0372 73.889 95.1113 73.81 95.2052C73.7359 95.2991 73.4742 95.4721 73.2371 95.5907C73.0001 95.7093 72.7334 95.8674 72.6445 95.9465C72.368 96.1837 69.3358 97.3647 68.4469 97.5871C68.1605 97.6563 67.7457 97.8095 67.5284 97.9182C67.3111 98.0319 66.679 98.2196 66.1308 98.3333C65.5826 98.4519 64.3826 98.7138 63.4739 98.9214C62.5603 99.1289 61.3406 99.371 60.7578 99.46C59.064 99.7219 54.6836 99.9591 52.0218 99.9344C50.6736 99.9245 48.9452 99.9443 48.1847 99.9789C47.2168 100.023 46.6044 99.9986 46.1007 99.8949ZM51.6564 96.5197C52.2095 96.4653 52.9305 96.3517 53.2564 96.2677C53.5823 96.1837 54.4219 96.0898 55.1231 96.0502C55.8244 96.0107 56.7133 95.9316 57.0935 95.8674C57.4738 95.8032 57.9528 95.7389 58.1602 95.7241C58.3676 95.7093 58.9899 95.5758 59.5479 95.4276C60.106 95.2843 60.9702 95.1113 61.469 95.0421C61.9677 94.9779 62.7085 94.8741 63.1233 94.8198C63.5332 94.7605 64.3826 94.6468 65.0098 94.5628C65.637 94.4788 66.5259 94.291 66.9802 94.1477C67.4345 94.0044 67.9778 93.8561 68.1802 93.8117C68.3876 93.7721 68.7975 93.6486 69.0938 93.5448C69.3901 93.4361 69.9037 93.2977 70.2395 93.2384C71.2223 93.0556 72.4371 92.5762 73.0149 92.1414C73.3112 91.919 73.6075 91.7362 73.6717 91.7362C73.7359 91.7362 74.2594 91.4001 74.8322 90.99C75.4051 90.5798 75.9187 90.2438 75.9631 90.2438C76.0125 90.2438 76.2051 90.1104 76.3928 89.9522C76.5804 89.7891 77.0397 89.4926 77.4101 89.2851C78.3928 88.7366 79.583 88.0052 80.0126 87.684C80.22 87.5308 80.6546 87.2491 80.9855 87.0663C81.9583 86.5177 83.6226 85.1489 85.4152 83.4292C85.9288 82.935 86.4276 82.4211 86.5115 82.2976C86.8227 81.8479 87.598 80.9139 88.1511 80.3308C88.4573 80.0096 88.798 79.5994 88.9067 79.4265C89.0153 79.2486 89.4449 78.6605 89.8598 78.112C90.2746 77.5634 90.7092 76.9358 90.8277 76.7135C90.9462 76.4911 91.0944 76.244 91.1635 76.16C91.361 75.9179 93.0154 72.602 93.0154 72.4439C93.0154 72.3648 93.1339 72.0535 93.2771 71.757C93.4204 71.4555 93.687 70.8526 93.8648 70.4128C94.0426 69.973 94.2698 69.469 94.3636 69.2911C94.4574 69.1132 94.6451 68.6833 94.7784 68.3324C95.4105 66.6423 95.697 65.9011 96.1167 64.8683C96.9859 62.7186 97.1538 62.2541 97.2279 61.7748C97.2674 61.5129 97.4402 60.9742 97.613 60.5838C97.781 60.1935 97.9242 59.7289 97.9242 59.556C97.9242 59.383 97.9933 59.047 98.0773 58.8098C98.2402 58.3453 98.4773 57.1197 98.6699 55.7163C98.739 55.2271 98.8625 54.639 98.9464 54.3969C99.0304 54.1597 99.0748 53.9274 99.0452 53.878C99.0155 53.8286 99.0452 53.6556 99.1094 53.4876C99.3415 52.8897 99.5835 49.5441 99.5045 47.9579C99.4649 47.1375 99.4007 46.2728 99.3612 46.0405C99.2575 45.4178 97.855 41.3657 97.4402 40.4959C97.2476 40.0858 97.0501 39.6064 97.0106 39.4285C96.9661 39.2506 96.7785 38.7713 96.5908 38.3611C96.4031 37.951 96.171 37.3679 96.0723 37.0615C95.9735 36.76 95.8253 36.4586 95.7463 36.3894C95.6673 36.3252 95.5735 36.1522 95.5389 36.0089C95.5044 35.8656 95.2377 35.2528 94.9562 34.6549C94.6698 34.052 94.2895 33.2366 94.1068 32.8413C93.9241 32.4459 93.5586 31.8282 93.2969 31.4724C93.0302 31.1117 92.8179 30.7757 92.8179 30.7213C92.8179 30.6669 92.6598 30.3704 92.4672 30.0641C92.2747 29.7577 91.9388 29.14 91.7166 28.6853C91.4944 28.2307 91.208 27.7266 91.0746 27.5636C90.9413 27.4005 90.719 27.0743 90.5808 26.8421C90.0474 25.9328 89.5635 25.2212 89.1684 24.7616C88.9412 24.4997 88.6301 24.1291 88.4671 23.9463C88.3091 23.7585 88.0326 23.4076 87.8597 23.1655C87.6819 22.9233 87.2622 22.4143 86.9264 22.0388C86.5906 21.6632 86.314 21.3025 86.314 21.2382C86.314 21.174 85.8942 20.6946 85.3806 20.1758C84.8671 19.6569 84.0473 18.797 83.5584 18.2683C83.0695 17.7346 82.6003 17.2997 82.5164 17.2997C82.4324 17.2997 82.2547 17.191 82.1213 17.0576C81.988 16.9241 81.5583 16.5782 81.1633 16.2867C80.4077 15.7233 79.1978 14.7745 78.2842 14.0234C77.9829 13.7763 77.257 13.2525 76.6693 12.8621C76.0817 12.4717 75.5088 12.0665 75.3903 11.9627C75.2718 11.8589 74.8915 11.6217 74.5359 11.4339C74.1853 11.2462 73.8446 11.0287 73.7804 10.9447C73.7162 10.8657 73.3804 10.6482 73.0347 10.4654C72.689 10.2825 72.1161 9.85261 71.7606 9.50175C71.405 9.15583 71.0889 8.86922 71.0494 8.86922C71.0099 8.86922 70.6544 8.6419 70.2543 8.37011C68.8222 7.38177 68.4568 7.15446 68.195 7.09021C68.0469 7.05068 67.4889 6.81348 66.9506 6.56145C66.4123 6.30943 65.9382 6.09694 65.8938 6.09694C65.8147 6.09694 64.4419 5.57312 63.7752 5.29144C63.5974 5.21732 63.0245 5.05424 62.4961 4.9307C60.9751 4.5749 60.2837 4.397 59.9381 4.2784C59.2072 4.01649 57.5627 3.64587 57.133 3.64587C56.8812 3.64587 56.5849 3.59645 56.4762 3.54209C56.2589 3.42349 55.854 3.39878 54.2342 3.40867C53.6169 3.41361 51.8193 3.41855 50.2391 3.41855C46.555 3.42349 44.2784 3.56186 43.3648 3.84353C42.9846 3.96213 42.4314 4.08568 42.1401 4.12521C41.8487 4.16474 41.3697 4.23887 41.0734 4.28828C38.3227 4.78739 38.1301 4.83681 37.0239 5.35074C36.614 5.54347 36.0362 5.7609 35.7449 5.83503C35.4535 5.9141 34.4313 6.26495 33.4732 6.62075C32.5152 6.97655 31.4336 7.3373 31.0633 7.42131C30.6929 7.50531 30.2287 7.67333 30.0311 7.78699C29.8336 7.90065 29.2459 8.12797 28.7225 8.29104C28.199 8.45412 27.3842 8.81486 26.9101 9.09653C26.436 9.37821 25.8236 9.72907 25.5471 9.87732C25.2755 10.0256 24.831 10.327 24.5594 10.5494C24.2878 10.7718 23.7051 11.2412 23.2606 11.5921C21.8729 12.6941 21.4383 13.0993 17.9667 16.6029C15.453 19.138 14.5048 20.1708 14.2629 20.6106C14.0851 20.9417 13.69 21.4952 13.3789 21.8461C13.0678 22.1969 12.6727 22.6664 12.4949 22.8887C12.3171 23.1111 12.0505 23.4422 11.8974 23.6251C11.7443 23.8079 11.4727 24.2971 11.2899 24.7073C10.7615 25.9131 10.3714 26.6197 9.48744 27.9688C9.34916 28.1813 9.18619 28.5272 9.12693 28.7397C9.06767 28.9522 8.90964 29.2586 8.77631 29.4216C8.64297 29.5847 8.50469 29.8367 8.47013 29.985C8.43556 30.1332 8.19358 30.8745 7.93184 31.6405C7.21084 33.716 6.60835 35.999 6.42563 37.3481C6.31699 38.1338 5.85278 40.5206 5.54166 41.8796C5.44783 42.2898 5.33918 43.372 5.29474 44.2813C5.13671 47.8294 4.86016 50.9229 4.53423 52.8155C4.34163 53.9422 4.32681 54.3524 4.39101 57.9351C4.44534 60.8705 4.49966 61.9873 4.62312 62.4666C4.77621 63.0744 5.70463 65.061 5.99105 65.402C6.06513 65.4909 6.59354 66.4743 7.16639 67.5862C7.73924 68.703 8.24296 69.6617 8.28247 69.721C8.32691 69.7803 8.42074 70.0224 8.49482 70.2547C8.56889 70.4919 8.80594 71.0404 9.02816 71.4802C9.25039 71.92 9.56645 72.5674 9.72942 72.9183C9.89238 73.2691 10.1541 73.7089 10.3023 73.8918C10.8208 74.5194 10.8998 74.6281 11.4825 75.4731C11.8035 75.9376 12.1739 76.4268 12.3073 76.5603C12.4406 76.6937 12.5443 76.8518 12.5443 76.9111C12.5443 77.0446 13.5616 78.364 14.3814 79.2881C14.7172 79.6686 14.9937 80.0145 14.9937 80.0639C14.9937 80.1084 15.1518 80.3209 15.3394 80.5383C15.9024 81.1758 16.4259 81.833 16.4851 81.9665C16.7321 82.515 17.1814 82.9894 18.1938 83.7405C18.8358 84.2199 19.3642 84.6449 19.3642 84.6943C19.3642 84.7387 19.8334 85.0995 20.4013 85.4899C20.9741 85.8803 21.6112 86.3201 21.8137 86.4634C22.0211 86.6067 22.3766 86.8291 22.6137 86.9576C22.8507 87.086 23.231 87.3232 23.468 87.4814C23.7051 87.6395 24.0853 87.8767 24.3224 88.0003C24.8952 88.3066 25.1174 88.45 25.4779 88.7316C25.6459 88.8651 25.8236 88.9738 25.8829 88.9738C25.9817 88.9738 26.199 89.1022 27.4731 89.9226C27.7941 90.1301 28.4212 90.4859 28.8607 90.7132C29.3003 90.9406 29.7101 91.1679 29.7645 91.2123C30.0065 91.41 31.8485 92.2797 32.0312 92.2797C32.1398 92.2797 32.4164 92.3786 32.6485 92.4972C32.8806 92.6158 33.3843 92.8283 33.7646 92.9666C34.1448 93.105 35.0584 93.4608 35.7943 93.7573C36.5301 94.0538 37.3252 94.3256 37.5523 94.3651C37.7844 94.4047 38.3079 94.5331 38.7178 94.6468C40.0561 95.0224 40.9401 95.2596 42.0216 95.5363C42.6092 95.6846 43.3006 95.8723 43.5673 95.9564C44.0068 96.0947 45.0241 96.2529 47.3501 96.5444C48.9205 96.7322 49.5921 96.7272 51.6564 96.5197ZM50.7724 85.1143C50.6045 85.0649 49.9576 85.0303 49.3353 85.0352C46.3525 85.06 45.4587 85.0155 40.4215 84.6004C39.3894 84.5164 39.0338 84.3879 38.9301 84.0568C38.8956 83.9431 38.861 83.3551 38.8561 82.7522C38.8511 82.1493 38.8116 81.4624 38.7622 81.2252C38.7128 80.988 38.6635 79.5006 38.6486 77.9192C38.6338 76.3379 38.5844 74.3909 38.5351 73.6002C38.4857 72.8095 38.4264 71.5593 38.4067 70.8279C38.2881 67.2749 38.1104 63.786 38.0264 63.3067C37.819 62.1899 37.7745 61.0484 37.7795 57.0901C37.7844 53.4234 37.7647 52.9984 37.6116 52.9144C37.3943 52.8007 34.5498 52.6574 32.9102 52.6772C31.2015 52.6969 31.167 52.6673 30.8806 50.8784C30.6781 49.6479 30.6731 49.4898 30.8213 48.7979C30.9941 47.9776 31.3744 41.9241 31.3546 40.318C31.3448 39.7596 31.3053 39.137 31.2657 38.9294C31.1966 38.5736 31.2164 38.5341 31.6756 38.2079C32.2534 37.7928 33.1522 37.5952 33.9275 37.7138C34.4164 37.7879 35.8486 37.8373 37.977 37.8521C38.4462 37.8571 38.8709 37.8175 38.9153 37.7731C39.019 37.6693 38.9499 35.3912 38.8264 34.9514C38.7326 34.5956 38.9252 32.777 39.1573 31.8777C39.2412 31.5416 39.4289 30.4495 39.5721 29.4513C39.7351 28.2999 39.9227 27.4104 40.0857 27.02C40.224 26.679 40.4215 26.1503 40.5203 25.834C40.8413 24.8259 41.8388 22.8393 42.4216 22.0487C42.7327 21.6286 43.1623 21.0208 43.3747 20.6946C44.4019 19.1232 45.8241 17.9915 47.4094 17.4875C47.9279 17.3195 48.4909 17.1169 48.6588 17.0279C49.2958 16.6968 50.9156 16.4053 54.1749 16.0297C56.254 15.7925 61.0788 15.7876 61.6764 16.0297C62.427 16.3311 63.1332 16.5189 63.7653 16.5931C64.1159 16.6326 64.5999 16.7512 64.8369 16.85C65.074 16.9538 65.6024 17.0971 66.0073 17.1663C67.0839 17.3541 67.5234 17.5023 67.7259 17.7247C67.9876 18.0113 68.0666 18.8761 67.9086 19.7063C67.8345 20.1016 67.6716 20.9813 67.5481 21.6682C67.4247 22.355 67.2271 23.289 67.1086 23.7486C66.9901 24.2082 66.8024 24.984 66.6839 25.4782C66.5703 25.9724 66.4419 26.427 66.4073 26.4863C66.3678 26.5456 66.3036 27.0941 66.2592 27.697C66.1999 28.5371 66.1259 28.883 65.953 29.1647C65.7061 29.565 65.6271 29.6045 64.832 29.7083C64.1851 29.7923 62.3579 30.242 61.8146 30.4446C61.5974 30.5286 61.1529 30.6669 60.827 30.7608C60.501 30.8498 60.0615 31.0425 59.8541 31.1858C59.6467 31.3291 59.38 31.4724 59.2714 31.507C58.9948 31.596 58.3627 32.3718 58.0417 33.0142C57.5084 34.0767 56.9553 36.1522 56.8318 37.5408L56.7627 38.3414L59.0936 38.3265C60.506 38.3167 61.6616 38.2623 62.0319 38.1783C62.3677 38.1042 62.7628 38.0795 62.9208 38.114C63.0789 38.1536 63.5628 38.5637 64.0122 39.0381L64.8172 39.8881L64.8518 41.0346C64.8715 41.6622 64.9258 42.6604 64.9752 43.2435C65.0246 43.8316 65.0246 44.4542 64.9801 44.6272C64.9308 44.8051 64.8913 45.571 64.8863 46.3321C64.8814 47.0931 64.8468 48.452 64.8073 49.3415C64.7085 51.59 64.9406 51.4319 61.9332 51.2886C60.6344 51.2293 59.4442 51.1304 59.2961 51.0711C59.1183 51.0019 58.7578 51.0069 58.2541 51.081C56.9158 51.2787 56.9602 51.249 56.8812 52.0347C56.8417 52.4153 56.7824 53.4678 56.7479 54.3771C56.7133 55.2864 56.6639 56.1759 56.6343 56.3488C56.6046 56.5267 56.5602 57.6781 56.5306 58.9086C56.4466 62.4617 56.3577 64.5471 56.2787 64.6657C56.2392 64.725 56.1799 66.9833 56.1404 69.6815C56.0713 74.3711 55.9478 77.2225 55.7207 79.0608C55.617 79.886 55.6219 79.9206 55.938 80.5235C56.3133 81.245 57.6318 82.2827 56.0713 83.1969L55.8836 84.551L55.2416 84.8129C54.6737 85.0451 54.3972 85.0797 52.8416 85.1242C51.8687 85.1786 50.9403 85.1588 50.7724 85.1143ZM51.5971 82.4903C52.3576 82.3865 52.3576 82.3964 52.4564 79.209C52.491 78.0971 52.5403 77.1582 52.565 77.1236C52.6095 77.0495 52.6934 75.231 52.7922 72.2165C52.8218 71.248 52.8959 69.7852 52.9502 68.9649C53.1873 65.4613 53.207 64.4977 53.128 59.551C53.0836 56.6898 53.0292 54.1102 53.0046 53.8187C52.9799 53.5271 53.0095 52.4449 53.0638 51.417C53.1823 49.3119 55.4095 49.0154 54.1848 48.6892L54.7774 48.2791L57.8639 48.2544C60.1356 48.2346 60.9949 48.1951 61.1134 48.0962C61.2368 47.9925 61.2665 47.7355 61.2467 46.8905C61.2319 46.2975 61.2813 45.0472 61.3504 44.1083C61.4196 43.1694 61.4443 42.0773 61.4048 41.677L61.3356 40.9555L58.7627 41.0049C57.3503 41.0346 56.0071 41.0642 55.7849 41.0741C55.2762 41.0939 54.1256 40.6887 53.8688 40.3971C53.7651 40.2785 53.7009 40.1154 53.7354 40.0314C53.7651 39.9474 53.7256 39.7547 53.6465 39.5965C53.4737 39.2605 53.1527 36.2807 53.2268 35.7371C53.3848 34.645 53.77 32.7029 53.9873 31.8974C54.1453 31.3242 54.5947 30.3754 54.8811 30.0245C55.0194 29.8516 55.2219 29.5748 55.3256 29.4068C55.5725 29.0164 57.1923 28.2406 58.2146 28.0182C58.6985 27.9144 59.7701 27.8403 61.2418 27.8156C63.1283 27.781 63.5431 27.7464 63.6418 27.613C63.7702 27.4351 64.1752 26.0761 64.6147 24.3268C64.7727 23.7091 64.9653 22.9678 65.0443 22.6713C65.2616 21.8806 65.4987 20.5563 65.4493 20.4229C65.3703 20.2153 64.5456 19.82 63.7702 19.6075C61.8443 19.0935 61.3406 18.9848 60.264 18.8761C58.6146 18.7081 56.7923 18.9058 54.5947 19.4889C53.2762 19.8397 50.7477 20.6106 50.4909 20.7441C50.3428 20.8182 50.081 20.917 49.9131 20.9566C49.7403 20.9961 49.4785 21.1196 49.3254 21.2234C49.1773 21.3272 48.9304 21.4507 48.7872 21.4952C48.639 21.5397 48.4316 21.6533 48.323 21.7472C48.2143 21.8411 47.9427 22.019 47.7205 22.1327C47.1575 22.4292 46.0414 23.2396 45.6513 23.6399C45.4686 23.8227 45.2167 24.0303 45.0834 24.0995C44.95 24.1686 44.6685 24.5689 44.4562 24.9939C44.2438 25.4189 43.987 25.8735 43.8833 26.002C43.7599 26.1601 43.671 26.5357 43.6216 27.1238C43.5821 27.608 43.429 28.4333 43.2809 28.9621C43.1228 29.5353 42.9747 30.4396 42.9204 31.2006C42.866 31.9024 42.7771 32.7227 42.7129 33.0142C42.5845 33.627 44.3673 36.4042 42.466 37.8719L42.4512 39.5323L42.0265 39.9721C41.7895 40.2143 41.5129 40.5157 41.4043 40.6442C41.2215 40.8567 41.1376 40.8715 40.4462 40.8122C40.0265 40.7776 38.9647 40.7183 38.0857 40.6887C37.2066 40.659 36.4165 40.6244 36.3276 40.6195C36.2387 40.6145 35.7004 40.6145 35.1325 40.6244C34.2683 40.6392 34.0806 40.6738 33.9967 40.827C33.9424 40.9308 33.8386 41.7808 33.7695 42.7197C33.651 44.2961 33.6609 44.5728 33.8782 46.2925C34.0066 47.3204 34.1201 48.3532 34.1251 48.5855L34.1399 49.0104L35.1523 49.0747C35.7103 49.1093 36.4264 49.1982 36.7523 49.2724C37.0733 49.3465 37.5375 49.4502 37.7844 49.4997C38.0313 49.554 38.5449 49.5985 38.9351 49.5985C39.745 49.5985 40.2882 49.7912 40.5302 50.1619C40.7326 50.4732 40.7376 50.5819 40.6734 55.0936C40.6487 57.0308 40.6684 59.3583 40.7178 60.2676C40.7968 61.6611 40.9203 68.1495 40.9055 69.9187C40.8956 70.9367 41.1228 74.5243 41.2314 75.1025C41.2907 75.4188 41.3895 76.0908 41.4487 76.585C41.5574 77.4992 41.6364 77.9687 41.8685 79.0361C41.9376 79.3573 42.0314 80.1035 42.0709 80.6915C42.1154 81.2796 42.2191 81.9022 42.3031 82.0801C42.4759 82.431 42.3673 82.4162 44.3722 82.3667C44.8414 82.3569 46.0167 82.3865 46.9846 82.4359C49.3205 82.5496 50.9897 82.5743 51.5971 82.4903Z" fill="#292929"/>
</svg>
