<svg width="28" height="37" viewBox="0 0 28 37" fill="none" xmlns="http://www.w3.org/2000/svg">
<path opacity="0.5" d="M25.577 0.78401C25.388 0.847009 24.821 1.54001 23.75 2.92601C22.679 4.31201 22.112 5.19401 22.049 5.50901L21.608 5.95001C21.419 6.39101 20.789 7.14701 19.655 8.28101C18.584 9.41501 17.891 10.234 17.702 10.675L17.513 11.179C17.45 11.431 16.568 12.439 16.379 12.691C16.379 12.754 16.568 12.88 16.568 12.943L16.442 13.006L16.253 12.817C16.19 12.817 15.875 13.258 15.245 14.077C14.615 14.896 14.3 15.274 14.3 15.337L14.237 15.589L14.111 15.526C14.048 15.526 13.544 16.093 12.725 17.29L10.142 20.944L8.44096 23.212C8.12596 23.653 7.05496 24.724 6.92896 25.165C5.92096 26.11 4.66096 27.622 3.08596 29.701C1.51096 31.78 0.628963 33.292 0.502963 34.237L0.313963 35.371C0.250963 36.127 1.06996 36.631 1.88896 36.631C2.58196 36.631 3.90496 35.686 3.90496 34.993C3.90496 34.804 3.77896 34.552 3.46396 34.174H3.08596L2.95996 34.048V33.355C2.95996 33.292 3.40096 33.103 3.40096 32.914C3.40096 32.851 3.21196 32.725 3.21196 32.662L3.71596 32.158C4.28296 31.402 5.10196 30.457 5.16496 30.142C5.22796 30.142 5.22796 30.079 5.22796 30.016C5.22796 29.953 5.22796 29.953 5.29096 29.89H5.54296C5.60596 29.89 8.25196 26.488 8.44096 26.299C8.62996 26.11 8.88196 25.669 9.19696 24.913C9.57496 24.157 9.88996 23.716 10.079 23.59L10.583 23.275C10.52 22.96 10.835 22.456 11.465 21.763C12.095 21.07 12.599 20.566 13.04 20.251C13.544 19.873 14.678 17.983 14.993 17.353L14.93 17.227C14.93 16.975 15.371 16.408 16.316 15.463L16.694 15.4L16.946 14.896C17.261 14.203 17.765 13.447 18.017 13.447L18.269 13.573V13.51C18.206 12.817 19.844 10.864 21.671 8.91101C22.616 7.96601 23.12 7.39901 23.246 7.21001L23.372 7.02101V6.64301C23.372 6.58001 23.561 6.39101 23.876 6.07601L24.317 5.63501V5.38301C24.884 5.13101 25.766 4.31201 25.766 3.80801L25.703 3.68201C25.64 3.61901 25.64 3.61901 25.64 3.55601C25.703 3.55601 25.829 3.68201 25.892 3.68201C25.955 3.74501 26.018 3.74501 26.081 3.74501C26.585 3.74501 27.404 2.67401 27.404 2.17001C27.404 2.10701 27.278 1.85501 27.278 1.79201L27.341 1.72901L27.53 1.79201C27.593 1.85501 27.656 1.66601 27.656 1.60301C27.656 1.28801 26.711 0.721008 26.396 0.721008C26.144 0.721008 25.766 0.78401 25.577 0.78401ZM22.805 5.19401C22.931 5.19401 22.994 5.32001 22.994 5.63501C22.868 5.50901 22.805 5.38301 22.805 5.19401ZM23.183 6.39101C23.246 6.39101 23.309 6.45401 23.309 6.58001C23.246 6.58001 23.183 6.51701 23.183 6.39101ZM21.356 7.27301H21.608L21.671 7.39901H21.356L21.23 7.27301H21.356ZM18.08 12.817H18.143V12.943L18.08 12.817Z" fill="#5DD7FF"/>
</svg>
