<svg width="93" height="34" viewBox="0 0 93 34" fill="none" xmlns="http://www.w3.org/2000/svg">
<path d="M65.14 26V22.36H56.014V20.176L64.698 7.8H67.87V19.968H70.418V22.36H67.87V26H65.14ZM59.004 19.968H65.296V10.842L59.004 19.968ZM71.4072 29.068L72.9152 22.932H75.6452L73.2532 29.068H71.4072ZM84.5659 26.312C83.3525 26.312 82.2519 26.0953 81.2639 25.662C80.2932 25.2113 79.5132 24.5873 78.9239 23.79C78.3519 22.9927 78.0659 22.0567 78.0659 20.982C78.0659 19.89 78.3692 18.9107 78.9759 18.044C79.5999 17.1773 80.4232 16.588 81.4459 16.276C80.5272 15.912 79.8165 15.3833 79.3139 14.69C78.8112 13.9793 78.5599 13.1993 78.5599 12.35C78.5599 11.466 78.7939 10.66 79.2619 9.932C79.7299 9.18667 80.4059 8.59733 81.2899 8.164C82.1912 7.71333 83.2832 7.488 84.5659 7.488C85.8485 7.488 86.9319 7.71333 87.8159 8.164C88.7172 8.59733 89.4019 9.18667 89.8699 9.932C90.3379 10.66 90.5719 11.466 90.5719 12.35C90.5719 13.182 90.3119 13.962 89.7919 14.69C89.2892 15.4007 88.5785 15.9293 87.6599 16.276C88.6825 16.6053 89.4972 17.2033 90.1039 18.07C90.7279 18.9193 91.0399 19.89 91.0399 20.982C91.0399 22.0567 90.7539 22.9927 90.1819 23.79C89.6099 24.5873 88.8299 25.2113 87.8419 25.662C86.8712 26.0953 85.7792 26.312 84.5659 26.312ZM84.5659 15.392C85.5712 15.392 86.3599 15.132 86.9319 14.612C87.5212 14.092 87.8159 13.4247 87.8159 12.61C87.8159 11.6913 87.5299 10.9893 86.9579 10.504C86.3859 10.0187 85.5885 9.776 84.5659 9.776C83.5432 9.776 82.7459 10.0187 82.1739 10.504C81.6019 10.9893 81.3159 11.6913 81.3159 12.61C81.3159 13.4247 81.6019 14.092 82.1739 14.612C82.7459 15.132 83.5432 15.392 84.5659 15.392ZM84.5659 23.972C85.8139 23.972 86.7499 23.6773 87.3739 23.088C87.9979 22.4813 88.3099 21.71 88.3099 20.774C88.3099 19.734 87.9719 18.9367 87.2959 18.382C86.6372 17.81 85.7272 17.524 84.5659 17.524C83.4045 17.524 82.4859 17.81 81.8099 18.382C81.1339 18.9367 80.7959 19.734 80.7959 20.774C80.7959 21.71 81.1079 22.4813 81.7319 23.088C82.3732 23.6773 83.3179 23.972 84.5659 23.972Z" fill="#292929"/>
<path d="M10.4239 10.0396H1.92677C1.38538 10.0396 0.911967 10.3927 0.761446 10.9068C0.610925 11.4234 0.82214 11.9736 1.28099 12.257C1.2907 12.2643 2.12099 12.8 2.76434 13.7754C1.43636 15.4451 0.712891 17.4969 0.712891 19.6495C0.712891 24.9494 5.06828 29.2594 10.4239 29.2594C15.7795 29.2594 20.1349 24.9494 20.1349 19.6495C20.1349 14.3496 15.7795 10.0396 10.4239 10.0396ZM10.4239 26.8569C6.4084 26.8569 3.14065 23.6232 3.14065 19.6495C3.14065 17.8188 3.84227 16.0818 5.11198 14.7604C5.4543 14.4049 5.54412 13.8835 5.34019 13.4367C5.17511 13.0763 4.98574 12.7423 4.78424 12.442H10.4239C14.4394 12.442 17.7072 15.6758 17.7072 19.6495C17.7072 23.6232 14.4394 26.8569 10.4239 26.8569Z" fill="#292929"/>
<path d="M33.0912 10.3543C25.706 3.68259 14.5626 3.68018 7.17735 10.3543C6.68209 10.8011 6.64567 11.5603 7.09966 12.0504C7.55122 12.543 8.31839 12.5742 8.81366 12.1273C15.2691 6.29649 25.0019 6.29649 31.4549 12.1273C31.688 12.3387 31.9817 12.442 32.2731 12.442C32.6032 12.442 32.931 12.3099 33.1689 12.0504C33.6229 11.5603 33.5865 10.8011 33.0912 10.3543Z" fill="#292929"/>
<path d="M10.4239 14.8447C7.74606 14.8447 5.56836 16.9998 5.56836 19.6497C5.56836 22.2996 7.74606 24.4547 10.4239 24.4547C13.1017 24.4547 15.2794 22.2996 15.2794 19.6497C15.2794 16.9998 13.1017 14.8447 10.4239 14.8447ZM10.4239 22.0522C9.08618 22.0522 7.99611 20.9759 7.99611 19.6497C7.99611 18.3259 9.08618 17.2472 10.4239 17.2472C11.7616 17.2472 12.8516 18.3259 12.8516 19.6497C12.8516 20.9759 11.7616 22.0522 10.4239 22.0522Z" fill="#292929"/>
<path d="M10.4721 18.4478H10.4478C9.77777 18.4478 9.24609 18.9859 9.24609 19.649C9.24609 20.3121 9.80205 20.8502 10.4721 20.8502C11.1422 20.8502 11.686 20.3121 11.686 19.649C11.686 18.9859 11.1422 18.4478 10.4721 18.4478Z" fill="#292929"/>
<path d="M37.5029 13.7754C38.1463 12.8024 38.9814 12.2594 38.9887 12.257C39.4476 11.9711 39.6588 11.421 39.5083 10.9068C39.3602 10.3927 38.8843 10.0396 38.3429 10.0396H29.8458C24.4902 10.0396 20.1348 14.3496 20.1348 19.6495C20.1348 24.9494 24.4902 29.2594 29.8458 29.2594C35.2014 29.2594 39.5568 24.9494 39.5568 19.6495C39.5568 17.4993 38.8333 15.4451 37.5029 13.7754ZM29.8458 26.8569C25.8303 26.8569 22.5625 23.6232 22.5625 19.6495C22.5625 15.6758 25.8303 12.442 29.8458 12.442H35.4855C35.284 12.7423 35.0946 13.0763 34.9295 13.4367C34.728 13.8835 34.8154 14.4073 35.1577 14.7604C36.4299 16.0842 37.1291 17.8188 37.1291 19.6495C37.1291 23.6232 33.8613 26.8569 29.8458 26.8569Z" fill="#292929"/>
<path d="M29.8457 14.8447C27.1679 14.8447 24.9902 16.9998 24.9902 19.6497C24.9902 22.2996 27.1679 24.4547 29.8457 24.4547C32.5236 24.4547 34.7013 22.2996 34.7013 19.6497C34.7013 16.9998 32.5236 14.8447 29.8457 14.8447ZM29.8457 22.0522C28.5056 22.0522 27.418 20.9759 27.418 19.6497C27.418 18.3259 28.5056 17.2472 29.8457 17.2472C31.1859 17.2472 32.2735 18.3259 32.2735 19.6497C32.2735 20.9759 31.1859 22.0522 29.8457 22.0522Z" fill="#292929"/>
<path d="M29.894 18.4478H29.8697C29.1996 18.4478 28.668 18.9859 28.668 19.649C28.668 20.3121 29.2264 20.8502 29.894 20.8502C30.564 20.8502 31.1079 20.3121 31.1079 19.649C31.1079 18.9859 30.564 18.4478 29.894 18.4478Z" fill="#292929"/>
</svg>
