<svg width="76" height="57" viewBox="0 0 76 57" fill="none" xmlns="http://www.w3.org/2000/svg">
<path d="M76 2.98109C74.0338 11.0573 71.1602 19.9716 67.3791 29.7239C63.7493 39.4763 60.1194 48.3906 56.4896 56.4668H41.5164C43.0289 50.6763 44.4657 44.5049 45.8269 37.9525C47.3393 31.2477 48.7005 24.6954 49.9104 18.2954C51.2716 11.743 52.3304 5.80013 53.0866 0.466797H74.4119L76 2.98109ZM34.0299 2.98109C32.0637 11.0573 29.1901 19.9716 25.409 29.7239C21.7791 39.4763 18.1493 48.3906 14.5194 56.4668H0C1.51244 50.6763 2.94925 44.5049 4.31045 37.9525C5.67164 31.2477 6.95721 24.6954 8.16716 18.2954C9.37712 11.743 10.3602 5.80013 11.1164 0.466797H32.4418L34.0299 2.98109Z" fill="#E0F7FF"/>
</svg>
