<svg width="360" height="412" viewBox="0 0 360 412" fill="none" xmlns="http://www.w3.org/2000/svg">
<path d="M337.805 10.6854L359.25 1.15407V411.25H0.75V1.15407L22.1954 10.6854L22.5 10.8207L22.8046 10.6854L45 0.820738L67.1954 10.6854L67.5 10.8207L67.8046 10.6854L90 0.820738L112.195 10.6854L112.5 10.8207L112.805 10.6854L135 0.820741L157.195 10.6854L157.5 10.8207L157.805 10.6854L180 0.820741L202.195 10.6854L202.5 10.8207L202.805 10.6854L225 0.820741L247.195 10.6854L247.5 10.8207L247.805 10.6854L270 0.820735L292.195 10.6854L292.5 10.8207L292.805 10.6854L315 0.820735L337.195 10.6854L337.5 10.8207L337.805 10.6854Z" stroke="#5DD7FF" stroke-width="1.5"/>
<circle cx="266" cy="94" r="63.25" stroke="#E8BE94" stroke-width="1.5"/>
<path d="M229 96L255 120L303 69" stroke="#E8BE94" stroke-width="1.5"/>
<line x1="30" y1="31.5" x2="158" y2="31.5" stroke="#5DD7FF"/>
<line x1="30" y1="51.5" x2="118" y2="51.5" stroke="#5DD7FF"/>
<line x1="30" y1="71.5" x2="133" y2="71.5" stroke="#5DD7FF"/>
<line x1="30" y1="341.5" x2="330" y2="341.5" stroke="#5DD7FF"/>
<line x1="30" y1="301.5" x2="330" y2="301.5" stroke="#5DD7FF"/>
<line x1="30" y1="361.5" x2="236.25" y2="361.5" stroke="#5DD7FF"/>
<line x1="30" y1="321.5" x2="236.25" y2="321.5" stroke="#5DD7FF"/>
<line x1="30" y1="381.5" x2="271.406" y2="381.5" stroke="#5DD7FF"/>
</svg>
