<svg width="21" height="21" viewBox="0 0 21 21" fill="none" xmlns="http://www.w3.org/2000/svg">
<g clip-path="url(#clip0)">
<path d="M1.33325 3.83337V8.83337H6.33325" stroke="#292929" stroke-width="2" stroke-linecap="round" stroke-linejoin="round"/>
<path d="M3.42492 13C3.96525 14.5337 4.98936 15.8502 6.34297 16.7512C7.69657 17.6522 9.30632 18.0889 10.9297 17.9954C12.553 17.902 14.1021 17.2835 15.3434 16.2332C16.5846 15.1828 17.451 13.7575 17.8118 12.172C18.1726 10.5865 18.0083 8.92667 17.3438 7.44262C16.6792 5.95857 15.5504 4.7307 14.1273 3.94401C12.7042 3.15732 11.064 2.85442 9.45382 3.08097C7.84363 3.30751 6.35068 4.05122 5.19992 5.20004L1.33325 8.83337" stroke="#292929" stroke-width="2" stroke-linecap="round" stroke-linejoin="round"/>
</g>
<defs>
<clipPath id="clip0">
<rect width="20" height="20" fill="white" transform="translate(0.5 0.5)"/>
</clipPath>
</defs>
</svg>
