<svg width="37" height="18" viewBox="0 0 37 18" fill="none" xmlns="http://www.w3.org/2000/svg">
<path d="M1 3.08754V16.9083H15.5H36C36 16.9083 23.6687 15.8098 16.5 12.1083C12.3942 9.98828 7.92769 5.33913 4.8487 1.73712C3.58832 0.262632 1 1.14778 1 3.08754Z" fill="white"/>
<path d="M1 16.9083H0.5V17.4083H1V16.9083ZM4.8487 1.73712L4.46863 2.062L4.46863 2.062L4.8487 1.73712ZM16.5 12.1083L16.7294 11.664L16.5 12.1083ZM36 16.9083V17.4083L36.0444 16.4103L36 16.9083ZM1.5 16.9083V3.08754H0.5V16.9083H1.5ZM4.46863 2.062C7.54711 5.66342 12.0689 10.383 16.2706 12.5526L16.7294 11.664C12.7195 9.59352 8.30826 5.01484 5.22877 1.41224L4.46863 2.062ZM16.2706 12.5526C19.9231 14.4385 24.8583 15.6488 28.8471 16.388C30.848 16.7588 32.6231 17.0131 33.8983 17.1748C34.5361 17.2557 35.0491 17.3135 35.4034 17.3511C35.5805 17.3699 35.7179 17.3836 35.8114 17.3927C35.8581 17.3973 35.8939 17.4006 35.9181 17.4029C35.9302 17.404 35.9394 17.4049 35.9457 17.4054C35.9488 17.4057 35.9512 17.4059 35.9529 17.4061C35.9537 17.4062 35.9544 17.4062 35.9548 17.4063C35.9551 17.4063 35.9553 17.4063 35.9554 17.4063C35.9555 17.4063 35.9556 17.4063 36 16.9083C36.0444 16.4103 36.0444 16.4103 36.0443 16.4103C36.0443 16.4103 36.0442 16.4103 36.044 16.4102C36.0437 16.4102 36.0433 16.4102 36.0426 16.4101C36.0413 16.41 36.0392 16.4098 36.0364 16.4095C36.0307 16.409 36.0222 16.4082 36.0107 16.4072C35.9878 16.4051 35.9535 16.4018 35.9081 16.3974C35.8175 16.3886 35.683 16.3751 35.5089 16.3567C35.1607 16.3197 34.6545 16.2627 34.0241 16.1828C32.7632 16.0229 31.0074 15.7713 29.0293 15.4047C25.0604 14.6693 20.2456 13.4796 16.7294 11.664L16.2706 12.5526ZM36 16.4083H15.5V17.4083H36V16.4083ZM15.5 16.4083H1V17.4083H15.5V16.4083ZM1.5 3.08754C1.5 2.36958 1.97274 1.82762 2.61574 1.60431C3.26077 1.38029 3.99463 1.50748 4.46863 2.062L5.22877 1.41224C4.44239 0.492273 3.25189 0.324786 2.28767 0.659659C1.32141 0.995238 0.5 1.86573 0.5 3.08754H1.5Z" fill="#5DD7FF"/>
<path d="M0 17H37" stroke="white" stroke-width="2"/>
</svg>
