<svg width="68" height="94" viewBox="0 0 68 94" fill="none" xmlns="http://www.w3.org/2000/svg">
<mask id="path-1-inside-1" fill="white">
<path d="M67.9716 18.3477C68.1947 23.0699 67.1075 27.454 64.5955 31.4581C64.157 32.1578 63.8274 32.7212 64.5852 33.4759C67.341 36.217 66.2537 41.8721 62.5118 43.2321C61.8138 43.4863 61.7255 43.9161 61.7463 44.5555C62.12 55.483 57.1662 63.8791 49.4151 70.9309C48.3642 71.8874 48.333 75.7553 49.1608 77.9722C49.9445 80.0739 51.7376 80.7028 53.4606 81.4732C57.6411 83.3417 61.9954 84.6414 66.5392 85.2363C66.9829 85.2939 67.5745 85.3228 67.5278 85.8154C67.4811 86.3081 66.8921 86.2347 66.4431 86.2033C62.8829 85.9674 59.4576 85.1157 56.0841 83.9942C55.6196 83.8396 55.1629 83.2578 54.893 84.5576C54.6647 85.6608 53.292 86.6749 52.2151 87.4218C46.488 91.4076 40.0889 93.3913 33.1448 93.2184C28.7464 93.1083 24.0936 92.1466 21.3612 88.7452C18.9505 85.7447 17.8424 88.1372 16.2984 88.8028C11.7235 90.7734 7.30176 93.1371 2.27016 93.7949C1.8394 93.8499 1.31782 94.3504 1.13098 93.5512C0.954524 92.8017 1.55136 92.6261 2.07813 92.579C6.79574 92.1623 10.8387 89.8982 14.7259 87.4978C18.1927 85.3568 21.3378 82.676 24.0106 79.5288C25.2302 78.0928 24.0469 72.2569 22.4017 71.3764C15.2968 67.5767 12.009 61.3477 11.2876 53.5255C11.1189 51.6937 10.7634 50.8132 8.53955 51.1723C3.95687 51.9217 0.635345 49.5266 0.0514826 45.4884C-0.355924 42.6818 1.70706 39.1127 4.38504 38.2086C5.57612 37.8076 4.94814 37.1656 4.70162 36.6677C2.63605 32.5378 2.04959 28.1039 2.15079 23.5678C2.21048 20.8372 3.59618 18.4788 4.51998 15.9709C6.26378 11.2304 9.85518 8.3662 13.7113 5.71948C16.9835 3.4737 20.3933 1.36419 24.3402 0.530866C26.045 0.171856 27.8356 0.0408303 29.582 0.085379C34.1646 0.200682 38.9393 -0.784631 43.1509 1.88829C45.3411 3.27716 46.8176 1.54238 48.5562 0.981594C53.7487 -0.695533 60.3606 1.4035 63.6147 5.8374C66.4691 9.72886 67.463 12.5852 67.9716 18.3477ZM13.0599 46.0308C12.938 45.9391 12.816 45.8474 12.6941 45.7583C11.1215 43.6802 10.3223 40.9077 7.45486 39.9984C4.79245 39.152 1.7875 41.2772 1.75896 44.0942C1.71744 48.156 6.461 51.298 10.4442 49.8568C10.9061 49.689 10.7115 49.33 10.7608 49.0208C10.8776 48.308 10.7997 46.9218 11.2071 47.0318C11.9986 47.2415 11.7962 48.4024 11.8507 49.2069C11.8792 49.6419 11.8118 50.0874 11.8715 50.5145C12.7408 56.5286 14.1706 62.3016 18.9012 66.5835C19.6407 67.2517 20.5152 67.7706 21.3248 68.3576C21.0757 67.54 20.8292 66.7197 20.5801 65.9022C20.5671 65.855 20.5541 65.8078 20.5412 65.7633C18.5612 58.756 17.1729 51.471 11.4018 46.264C9.91487 44.9223 8.44872 43.6881 6.256 44.1231C5.78112 44.2174 5.0208 44.6079 4.94036 43.8584C4.85732 43.1011 5.71625 43.1823 6.256 43.1299C8.84835 42.8705 11.0592 43.6068 12.7122 45.7373C12.842 45.8238 12.9691 45.9103 13.0989 45.9994C13.1274 46.0177 13.1585 46.0334 13.1871 46.0518C13.1611 46.0727 13.1352 46.0937 13.1092 46.1173C13.0989 46.0858 13.0807 46.057 13.0599 46.0308ZM54.1146 61.4944C54.3325 61.3163 54.6154 61.1774 54.7581 60.952C56.7925 57.6737 58.5545 54.2147 59.5043 50.4883C60.4021 46.9585 60.646 43.274 60.1089 39.6079C60.0648 39.3013 59.8416 39.0209 59.7015 38.7301C59.4965 38.958 59.2396 39.1546 59.0943 39.4166C58.3443 40.7662 57.5477 42.0974 56.9041 43.4994C55.5963 46.3531 54.2106 49.2645 54.3741 52.472C54.5298 55.5197 54.8515 58.5359 54.1094 61.539C54.1301 61.5442 54.1535 61.5495 54.1742 61.5547C54.1535 61.5338 54.1353 61.5128 54.1146 61.4944ZM21.8438 64.2145C21.8386 64.0888 21.8335 63.9656 21.8257 63.8398C21.8153 63.8713 21.7945 63.9027 21.7997 63.9315C21.8127 64.0206 21.836 64.1071 21.8542 64.1962C21.8153 67.0892 23.31 68.8004 25.866 69.9115C30.3734 71.8717 34.9639 73.1898 39.9384 72.5635C40.229 72.5268 40.5404 72.6447 40.8414 72.6919C40.556 72.8255 40.2835 73.0404 39.9877 73.0797C38.7058 73.2527 37.4213 73.4125 36.1342 73.5069C35.1818 73.5776 34.2217 73.5409 33.2642 73.5514C34.3359 73.6824 35.405 73.8554 36.4793 73.9419C40.9478 74.2983 44.6015 72.4954 47.5909 69.3298C49.1271 67.7024 50.9306 66.2612 51.9166 64.1595C52.0879 63.7953 52.0801 63.3471 52.1554 62.9383C51.9322 63.2292 51.6701 63.4965 51.4963 63.8136C50.3233 65.9257 48.6288 67.4483 46.3635 68.2161C37.5069 71.2087 29.1512 70.9519 21.8438 64.2145ZM14.8712 36.8826C15.4447 37.1525 15.9144 36.7883 16.3322 36.5367C19.7679 34.4822 23.5591 33.1169 27.1479 31.4398C31.087 29.5976 33.0358 26.6154 34.9405 23.2245C36.6636 20.1585 37.4732 16.7571 38.3658 13.3923C38.5189 12.8158 38.7655 12.1188 39.3675 12.1921C40.0059 12.2681 39.8683 13.0674 39.8372 13.5496C39.6192 17.0584 38.9263 20.4337 36.936 23.421C35.7579 25.1846 34.6006 26.964 33.4588 28.7512C33.2694 29.0473 33.2149 29.4299 33.0955 29.7732C33.464 29.7679 33.8662 29.8544 34.1984 29.7365C35.4024 29.3041 36.6065 28.856 37.769 28.324C45.6784 24.6894 49.1738 21.3351 49.5189 12.656L49.4878 12.6769C49.9834 13.1146 49.999 13.7513 49.9549 14.2964C49.7006 17.4541 49.903 20.4389 51.4444 23.3791C52.3137 25.0379 52.8404 26.8644 54.3144 28.1196C54.8827 28.6018 55.451 29.6343 56.1023 29.3408C56.7017 29.0735 55.4639 28.4393 55.6871 27.7816C55.7182 27.6925 55.739 27.5876 55.7286 27.4959C55.4172 24.8649 55.2148 22.2156 54.7607 19.6108C54.1535 16.1413 54.3922 12.7005 54.7892 9.25455C54.8463 8.75141 55.1525 8.13559 55.8065 8.25351C56.4941 8.3793 56.2061 9.02132 56.1983 9.46419C56.0634 16.3063 57.0079 23.0437 58.1471 29.7627C58.4351 31.4581 59.0579 32.1919 61.0093 31.8512C62.6779 31.5603 62.3717 30.1322 62.7402 29.3617C65.1924 24.2413 65.6906 18.8509 64.6059 13.2168C62.8336 4.01353 56.1749 0.0879996 47.3236 3.23523C47.0174 3.3453 46.6645 3.32957 46.3323 3.36102C43.1691 3.66762 40.2679 2.08483 37.2033 1.96429C29.3925 1.66031 22.0333 2.99939 15.3772 7.68486C7.51454 13.222 3.52352 20.3079 5.25694 30.1086C5.67732 32.4801 6.01726 35.1609 7.63651 36.8485C8.94176 38.2086 10.4494 39.1913 10.7868 41.2169C10.8205 41.4187 11.4615 41.7489 11.5938 41.6624C11.996 41.4004 11.5678 41.0807 11.4407 40.8291C8.16847 34.3224 9.32322 27.7632 11.2383 21.2119C11.368 20.7717 11.4563 19.7759 12.1751 20.0511C12.7018 20.2528 12.1595 21.0075 12.0246 21.4845C10.8542 25.6537 10.1821 29.878 10.5947 34.2254C10.6207 34.5058 10.7556 34.7757 10.8387 35.0509C10.9087 34.7731 11.0021 34.4979 11.0463 34.2175C11.7858 29.5347 12.3152 24.7837 15.0139 20.6957C15.6315 19.7602 16.5372 18.0804 17.3857 18.6465C18.3147 19.2649 16.8875 20.5332 16.41 21.4583C14.1239 25.8738 12.336 30.4047 12.7278 35.5252C12.7511 35.8292 12.9016 36.1227 12.9925 36.4214C13.1585 36.1987 13.3584 35.9916 13.4855 35.7479C14.4716 33.89 15.917 32.3858 17.3468 30.9131C21.2496 26.8958 25.9205 23.5573 28.0276 18.0071C28.5051 16.7466 29.0967 15.5464 29.4055 14.2099C29.665 13.0831 29.255 11.8069 30.1295 10.819C30.7808 12.0559 30.9028 13.3871 30.7964 14.755C30.7782 14.9961 30.7367 15.2372 30.6952 15.473C29.8726 20.0537 27.192 23.6071 24.2234 26.9142C21.1717 30.313 17.4817 33.1064 14.8582 36.914L14.9075 36.9298L14.8712 36.8826ZM46.7371 47.6555C48.4264 47.0554 50.7126 47.7577 52.1165 45.7557C54.1665 42.8285 55.9881 39.7625 57.6385 36.5839C59.0346 33.8952 58.6843 32.6374 56.0296 31.2302C52.7289 29.4797 49.7836 27.378 48.9273 23.3608C48.8857 23.1642 48.6704 23.007 48.538 22.8314C48.3123 23.0646 48.0476 23.2743 47.8633 23.539C45.5538 26.8906 42.6838 29.4875 38.8719 31.0782C36.1524 32.2129 33.368 33.6568 30.5187 33.3842C27.3763 33.0829 25.9516 36.0047 22.9908 36.2851C19.9132 36.576 16.7214 38.2453 14.1887 40.512C12.9146 41.6519 12.8523 43.2347 13.5348 44.5162C14.5494 46.416 15.9663 48.101 17.2326 49.862C17.4324 50.1398 17.7724 50.3887 17.5388 50.7346C16.4463 52.3384 18.3017 51.7252 18.4107 51.6937C19.6719 51.3059 21.042 51.264 22.1682 50.4202C26.1904 47.4144 30.9209 46.7934 35.7138 46.34C39.4116 45.9889 42.9148 47.2598 46.7371 47.6555ZM34.0141 91.5858C41.1943 90.8756 47.814 88.9102 53.3075 83.9549C53.9303 83.3914 53.9173 83.1582 53.1804 82.9381C48.6652 81.599 47.1212 78.119 46.7397 73.8213C46.6749 73.0824 46.6022 72.9408 45.8237 73.2763C42.5437 74.6782 39.0276 75.674 35.5425 75.3963C32.3611 75.1421 29.9842 76.3501 27.5553 77.8805C26.782 78.3679 25.6921 78.5252 25.4145 79.6494C24.8695 81.848 23.624 83.6194 21.8646 84.9297C20.6839 85.8102 20.9823 86.3369 21.8386 87.1493C25.2847 90.4118 29.6442 90.9936 34.0141 91.5858ZM32.6336 61.8377C38.6695 61.6019 44.7624 61.5809 50.204 58.3394C51.3458 57.6606 52.7003 56.8981 53.0117 55.5695C53.3335 54.1963 53.183 52.6686 53.0351 51.2325C52.677 47.7787 52.3811 47.6398 49.2023 48.5465C47.5649 49.0156 45.8678 49.0601 44.2408 48.5098C38.4696 46.5549 32.7919 47.4826 27.1505 49.0496C24.0366 49.9144 21.6829 52.6738 18.2472 52.8179C18.1382 52.8232 17.9255 53.1088 17.954 53.1743C18.4834 54.3588 18.2732 56.0228 20.2583 56.201C23.6759 56.505 26.9481 55.7057 30.2073 54.9746C36.7155 53.5124 43.2132 52.0789 49.9367 52.2519C50.3804 52.2624 50.9902 52.0056 50.9902 52.755C50.9902 53.1141 50.8787 53.536 50.1884 53.4652C45.2684 52.9673 40.4548 53.8399 35.6567 54.7702C30.5395 55.7634 25.5338 57.4064 20.2531 57.43C19.991 57.43 19.5836 57.2833 19.6148 57.7314C19.6407 58.1009 19.8068 58.7403 19.9988 58.7744C21.9398 59.1255 23.1621 60.9677 25.1913 61.1747C27.6669 61.4237 30.1217 61.8928 32.6336 61.8377ZM36.5027 69.0022C43.5038 69.4058 48.9792 66.6752 51.2446 62.1732C51.6416 61.3818 51.8622 60.5511 52.8041 59.985C53.3049 59.6837 53.5048 58.1481 53.2011 57.4562C53.0039 57.0081 52.4149 58.1481 51.9011 58.4337C51.2731 58.7848 50.6451 59.1386 50.0197 59.4924C45.3436 62.1391 40.1849 62.4614 35.0002 62.7418C30.8483 62.9672 26.7872 62.6003 22.8143 61.3398C22.0774 61.1066 21.0316 60.1082 20.7799 60.5484C20.3388 61.3189 21.7841 61.442 22.0852 62.147C22.1604 62.3225 22.3265 62.4588 22.394 62.6344C23.4475 65.3387 25.7155 66.4525 28.2274 67.3775C31.1986 68.4729 34.2814 68.7638 36.5027 69.0022ZM64.2868 36.3716C63.8326 35.1662 64.0636 33.3842 62.3795 33.434C59.7715 33.51 62.0214 36.0598 60.8614 36.9848C61.3285 37.4565 61.0742 38.848 61.7567 38.5676C62.7272 38.1719 63.9935 37.6819 64.2868 36.3716ZM63.869 39.0917C63.978 38.7248 63.9183 38.4051 63.625 38.5361C62.6675 38.9659 61.7645 39.5215 61.5231 40.6588C61.4583 40.968 61.505 41.6939 61.876 41.5812C63.0827 41.2143 63.4097 40.0062 63.869 39.0917ZM25.7077 77.3905C25.6792 77.3512 25.6558 77.3223 25.6324 77.2909C25.5857 77.3381 25.5287 77.38 25.4949 77.4376C25.4819 77.4586 25.5235 77.5136 25.539 77.5503C25.5961 77.4953 25.6532 77.4429 25.7077 77.3905Z"/>
</mask>
<path d="M67.9716 18.3477C68.1947 23.0699 67.1075 27.454 64.5955 31.4581C64.157 32.1578 63.8274 32.7212 64.5852 33.4759C67.341 36.217 66.2537 41.8721 62.5118 43.2321C61.8138 43.4863 61.7255 43.9161 61.7463 44.5555C62.12 55.483 57.1662 63.8791 49.4151 70.9309C48.3642 71.8874 48.333 75.7553 49.1608 77.9722C49.9445 80.0739 51.7376 80.7028 53.4606 81.4732C57.6411 83.3417 61.9954 84.6414 66.5392 85.2363C66.9829 85.2939 67.5745 85.3228 67.5278 85.8154C67.4811 86.3081 66.8921 86.2347 66.4431 86.2033C62.8829 85.9674 59.4576 85.1157 56.0841 83.9942C55.6196 83.8396 55.1629 83.2578 54.893 84.5576C54.6647 85.6608 53.292 86.6749 52.2151 87.4218C46.488 91.4076 40.0889 93.3913 33.1448 93.2184C28.7464 93.1083 24.0936 92.1466 21.3612 88.7452C18.9505 85.7447 17.8424 88.1372 16.2984 88.8028C11.7235 90.7734 7.30176 93.1371 2.27016 93.7949C1.8394 93.8499 1.31782 94.3504 1.13098 93.5512C0.954524 92.8017 1.55136 92.6261 2.07813 92.579C6.79574 92.1623 10.8387 89.8982 14.7259 87.4978C18.1927 85.3568 21.3378 82.676 24.0106 79.5288C25.2302 78.0928 24.0469 72.2569 22.4017 71.3764C15.2968 67.5767 12.009 61.3477 11.2876 53.5255C11.1189 51.6937 10.7634 50.8132 8.53955 51.1723C3.95687 51.9217 0.635345 49.5266 0.0514826 45.4884C-0.355924 42.6818 1.70706 39.1127 4.38504 38.2086C5.57612 37.8076 4.94814 37.1656 4.70162 36.6677C2.63605 32.5378 2.04959 28.1039 2.15079 23.5678C2.21048 20.8372 3.59618 18.4788 4.51998 15.9709C6.26378 11.2304 9.85518 8.3662 13.7113 5.71948C16.9835 3.4737 20.3933 1.36419 24.3402 0.530866C26.045 0.171856 27.8356 0.0408303 29.582 0.085379C34.1646 0.200682 38.9393 -0.784631 43.1509 1.88829C45.3411 3.27716 46.8176 1.54238 48.5562 0.981594C53.7487 -0.695533 60.3606 1.4035 63.6147 5.8374C66.4691 9.72886 67.463 12.5852 67.9716 18.3477ZM13.0599 46.0308C12.938 45.9391 12.816 45.8474 12.6941 45.7583C11.1215 43.6802 10.3223 40.9077 7.45486 39.9984C4.79245 39.152 1.7875 41.2772 1.75896 44.0942C1.71744 48.156 6.461 51.298 10.4442 49.8568C10.9061 49.689 10.7115 49.33 10.7608 49.0208C10.8776 48.308 10.7997 46.9218 11.2071 47.0318C11.9986 47.2415 11.7962 48.4024 11.8507 49.2069C11.8792 49.6419 11.8118 50.0874 11.8715 50.5145C12.7408 56.5286 14.1706 62.3016 18.9012 66.5835C19.6407 67.2517 20.5152 67.7706 21.3248 68.3576C21.0757 67.54 20.8292 66.7197 20.5801 65.9022C20.5671 65.855 20.5541 65.8078 20.5412 65.7633C18.5612 58.756 17.1729 51.471 11.4018 46.264C9.91487 44.9223 8.44872 43.6881 6.256 44.1231C5.78112 44.2174 5.0208 44.6079 4.94036 43.8584C4.85732 43.1011 5.71625 43.1823 6.256 43.1299C8.84835 42.8705 11.0592 43.6068 12.7122 45.7373C12.842 45.8238 12.9691 45.9103 13.0989 45.9994C13.1274 46.0177 13.1585 46.0334 13.1871 46.0518C13.1611 46.0727 13.1352 46.0937 13.1092 46.1173C13.0989 46.0858 13.0807 46.057 13.0599 46.0308ZM54.1146 61.4944C54.3325 61.3163 54.6154 61.1774 54.7581 60.952C56.7925 57.6737 58.5545 54.2147 59.5043 50.4883C60.4021 46.9585 60.646 43.274 60.1089 39.6079C60.0648 39.3013 59.8416 39.0209 59.7015 38.7301C59.4965 38.958 59.2396 39.1546 59.0943 39.4166C58.3443 40.7662 57.5477 42.0974 56.9041 43.4994C55.5963 46.3531 54.2106 49.2645 54.3741 52.472C54.5298 55.5197 54.8515 58.5359 54.1094 61.539C54.1301 61.5442 54.1535 61.5495 54.1742 61.5547C54.1535 61.5338 54.1353 61.5128 54.1146 61.4944ZM21.8438 64.2145C21.8386 64.0888 21.8335 63.9656 21.8257 63.8398C21.8153 63.8713 21.7945 63.9027 21.7997 63.9315C21.8127 64.0206 21.836 64.1071 21.8542 64.1962C21.8153 67.0892 23.31 68.8004 25.866 69.9115C30.3734 71.8717 34.9639 73.1898 39.9384 72.5635C40.229 72.5268 40.5404 72.6447 40.8414 72.6919C40.556 72.8255 40.2835 73.0404 39.9877 73.0797C38.7058 73.2527 37.4213 73.4125 36.1342 73.5069C35.1818 73.5776 34.2217 73.5409 33.2642 73.5514C34.3359 73.6824 35.405 73.8554 36.4793 73.9419C40.9478 74.2983 44.6015 72.4954 47.5909 69.3298C49.1271 67.7024 50.9306 66.2612 51.9166 64.1595C52.0879 63.7953 52.0801 63.3471 52.1554 62.9383C51.9322 63.2292 51.6701 63.4965 51.4963 63.8136C50.3233 65.9257 48.6288 67.4483 46.3635 68.2161C37.5069 71.2087 29.1512 70.9519 21.8438 64.2145ZM14.8712 36.8826C15.4447 37.1525 15.9144 36.7883 16.3322 36.5367C19.7679 34.4822 23.5591 33.1169 27.1479 31.4398C31.087 29.5976 33.0358 26.6154 34.9405 23.2245C36.6636 20.1585 37.4732 16.7571 38.3658 13.3923C38.5189 12.8158 38.7655 12.1188 39.3675 12.1921C40.0059 12.2681 39.8683 13.0674 39.8372 13.5496C39.6192 17.0584 38.9263 20.4337 36.936 23.421C35.7579 25.1846 34.6006 26.964 33.4588 28.7512C33.2694 29.0473 33.2149 29.4299 33.0955 29.7732C33.464 29.7679 33.8662 29.8544 34.1984 29.7365C35.4024 29.3041 36.6065 28.856 37.769 28.324C45.6784 24.6894 49.1738 21.3351 49.5189 12.656L49.4878 12.6769C49.9834 13.1146 49.999 13.7513 49.9549 14.2964C49.7006 17.4541 49.903 20.4389 51.4444 23.3791C52.3137 25.0379 52.8404 26.8644 54.3144 28.1196C54.8827 28.6018 55.451 29.6343 56.1023 29.3408C56.7017 29.0735 55.4639 28.4393 55.6871 27.7816C55.7182 27.6925 55.739 27.5876 55.7286 27.4959C55.4172 24.8649 55.2148 22.2156 54.7607 19.6108C54.1535 16.1413 54.3922 12.7005 54.7892 9.25455C54.8463 8.75141 55.1525 8.13559 55.8065 8.25351C56.4941 8.3793 56.2061 9.02132 56.1983 9.46419C56.0634 16.3063 57.0079 23.0437 58.1471 29.7627C58.4351 31.4581 59.0579 32.1919 61.0093 31.8512C62.6779 31.5603 62.3717 30.1322 62.7402 29.3617C65.1924 24.2413 65.6906 18.8509 64.6059 13.2168C62.8336 4.01353 56.1749 0.0879996 47.3236 3.23523C47.0174 3.3453 46.6645 3.32957 46.3323 3.36102C43.1691 3.66762 40.2679 2.08483 37.2033 1.96429C29.3925 1.66031 22.0333 2.99939 15.3772 7.68486C7.51454 13.222 3.52352 20.3079 5.25694 30.1086C5.67732 32.4801 6.01726 35.1609 7.63651 36.8485C8.94176 38.2086 10.4494 39.1913 10.7868 41.2169C10.8205 41.4187 11.4615 41.7489 11.5938 41.6624C11.996 41.4004 11.5678 41.0807 11.4407 40.8291C8.16847 34.3224 9.32322 27.7632 11.2383 21.2119C11.368 20.7717 11.4563 19.7759 12.1751 20.0511C12.7018 20.2528 12.1595 21.0075 12.0246 21.4845C10.8542 25.6537 10.1821 29.878 10.5947 34.2254C10.6207 34.5058 10.7556 34.7757 10.8387 35.0509C10.9087 34.7731 11.0021 34.4979 11.0463 34.2175C11.7858 29.5347 12.3152 24.7837 15.0139 20.6957C15.6315 19.7602 16.5372 18.0804 17.3857 18.6465C18.3147 19.2649 16.8875 20.5332 16.41 21.4583C14.1239 25.8738 12.336 30.4047 12.7278 35.5252C12.7511 35.8292 12.9016 36.1227 12.9925 36.4214C13.1585 36.1987 13.3584 35.9916 13.4855 35.7479C14.4716 33.89 15.917 32.3858 17.3468 30.9131C21.2496 26.8958 25.9205 23.5573 28.0276 18.0071C28.5051 16.7466 29.0967 15.5464 29.4055 14.2099C29.665 13.0831 29.255 11.8069 30.1295 10.819C30.7808 12.0559 30.9028 13.3871 30.7964 14.755C30.7782 14.9961 30.7367 15.2372 30.6952 15.473C29.8726 20.0537 27.192 23.6071 24.2234 26.9142C21.1717 30.313 17.4817 33.1064 14.8582 36.914L14.9075 36.9298L14.8712 36.8826ZM46.7371 47.6555C48.4264 47.0554 50.7126 47.7577 52.1165 45.7557C54.1665 42.8285 55.9881 39.7625 57.6385 36.5839C59.0346 33.8952 58.6843 32.6374 56.0296 31.2302C52.7289 29.4797 49.7836 27.378 48.9273 23.3608C48.8857 23.1642 48.6704 23.007 48.538 22.8314C48.3123 23.0646 48.0476 23.2743 47.8633 23.539C45.5538 26.8906 42.6838 29.4875 38.8719 31.0782C36.1524 32.2129 33.368 33.6568 30.5187 33.3842C27.3763 33.0829 25.9516 36.0047 22.9908 36.2851C19.9132 36.576 16.7214 38.2453 14.1887 40.512C12.9146 41.6519 12.8523 43.2347 13.5348 44.5162C14.5494 46.416 15.9663 48.101 17.2326 49.862C17.4324 50.1398 17.7724 50.3887 17.5388 50.7346C16.4463 52.3384 18.3017 51.7252 18.4107 51.6937C19.6719 51.3059 21.042 51.264 22.1682 50.4202C26.1904 47.4144 30.9209 46.7934 35.7138 46.34C39.4116 45.9889 42.9148 47.2598 46.7371 47.6555ZM34.0141 91.5858C41.1943 90.8756 47.814 88.9102 53.3075 83.9549C53.9303 83.3914 53.9173 83.1582 53.1804 82.9381C48.6652 81.599 47.1212 78.119 46.7397 73.8213C46.6749 73.0824 46.6022 72.9408 45.8237 73.2763C42.5437 74.6782 39.0276 75.674 35.5425 75.3963C32.3611 75.1421 29.9842 76.3501 27.5553 77.8805C26.782 78.3679 25.6921 78.5252 25.4145 79.6494C24.8695 81.848 23.624 83.6194 21.8646 84.9297C20.6839 85.8102 20.9823 86.3369 21.8386 87.1493C25.2847 90.4118 29.6442 90.9936 34.0141 91.5858ZM32.6336 61.8377C38.6695 61.6019 44.7624 61.5809 50.204 58.3394C51.3458 57.6606 52.7003 56.8981 53.0117 55.5695C53.3335 54.1963 53.183 52.6686 53.0351 51.2325C52.677 47.7787 52.3811 47.6398 49.2023 48.5465C47.5649 49.0156 45.8678 49.0601 44.2408 48.5098C38.4696 46.5549 32.7919 47.4826 27.1505 49.0496C24.0366 49.9144 21.6829 52.6738 18.2472 52.8179C18.1382 52.8232 17.9255 53.1088 17.954 53.1743C18.4834 54.3588 18.2732 56.0228 20.2583 56.201C23.6759 56.505 26.9481 55.7057 30.2073 54.9746C36.7155 53.5124 43.2132 52.0789 49.9367 52.2519C50.3804 52.2624 50.9902 52.0056 50.9902 52.755C50.9902 53.1141 50.8787 53.536 50.1884 53.4652C45.2684 52.9673 40.4548 53.8399 35.6567 54.7702C30.5395 55.7634 25.5338 57.4064 20.2531 57.43C19.991 57.43 19.5836 57.2833 19.6148 57.7314C19.6407 58.1009 19.8068 58.7403 19.9988 58.7744C21.9398 59.1255 23.1621 60.9677 25.1913 61.1747C27.6669 61.4237 30.1217 61.8928 32.6336 61.8377ZM36.5027 69.0022C43.5038 69.4058 48.9792 66.6752 51.2446 62.1732C51.6416 61.3818 51.8622 60.5511 52.8041 59.985C53.3049 59.6837 53.5048 58.1481 53.2011 57.4562C53.0039 57.0081 52.4149 58.1481 51.9011 58.4337C51.2731 58.7848 50.6451 59.1386 50.0197 59.4924C45.3436 62.1391 40.1849 62.4614 35.0002 62.7418C30.8483 62.9672 26.7872 62.6003 22.8143 61.3398C22.0774 61.1066 21.0316 60.1082 20.7799 60.5484C20.3388 61.3189 21.7841 61.442 22.0852 62.147C22.1604 62.3225 22.3265 62.4588 22.394 62.6344C23.4475 65.3387 25.7155 66.4525 28.2274 67.3775C31.1986 68.4729 34.2814 68.7638 36.5027 69.0022ZM64.2868 36.3716C63.8326 35.1662 64.0636 33.3842 62.3795 33.434C59.7715 33.51 62.0214 36.0598 60.8614 36.9848C61.3285 37.4565 61.0742 38.848 61.7567 38.5676C62.7272 38.1719 63.9935 37.6819 64.2868 36.3716ZM63.869 39.0917C63.978 38.7248 63.9183 38.4051 63.625 38.5361C62.6675 38.9659 61.7645 39.5215 61.5231 40.6588C61.4583 40.968 61.505 41.6939 61.876 41.5812C63.0827 41.2143 63.4097 40.0062 63.869 39.0917ZM25.7077 77.3905C25.6792 77.3512 25.6558 77.3223 25.6324 77.2909C25.5857 77.3381 25.5287 77.38 25.4949 77.4376C25.4819 77.4586 25.5235 77.5136 25.539 77.5503C25.5961 77.4953 25.6532 77.4429 25.7077 77.3905Z" fill="#292929" stroke="white" stroke-width="0.4" mask="url(#path-1-inside-1)"/>
<mask id="mask0" style="mask-type:alpha" maskUnits="userSpaceOnUse" x="0" y="0" width="68" height="94">
<mask id="path-2-inside-2" fill="white">
<path d="M67.9716 18.3477C68.1947 23.0699 67.1075 27.454 64.5955 31.4581C64.157 32.1578 63.8274 32.7212 64.5852 33.4759C67.341 36.217 66.2537 41.8721 62.5118 43.2321C61.8138 43.4863 61.7255 43.9161 61.7463 44.5555C62.12 55.483 57.1662 63.8791 49.4151 70.9309C48.3642 71.8874 48.333 75.7553 49.1608 77.9722C49.9445 80.0739 51.7376 80.7028 53.4606 81.4732C57.6411 83.3417 61.9954 84.6414 66.5392 85.2363C66.9829 85.2939 67.5745 85.3228 67.5278 85.8154C67.4811 86.3081 66.8921 86.2347 66.4431 86.2033C62.8829 85.9674 59.4576 85.1157 56.0841 83.9942C55.6196 83.8396 55.1629 83.2578 54.893 84.5576C54.6647 85.6608 53.292 86.6749 52.2151 87.4218C46.488 91.4076 40.0889 93.3913 33.1448 93.2184C28.7464 93.1083 24.0936 92.1466 21.3612 88.7452C18.9505 85.7447 17.8424 88.1372 16.2984 88.8028C11.7235 90.7734 7.30176 93.1371 2.27016 93.7949C1.8394 93.8499 1.31782 94.3504 1.13098 93.5512C0.954524 92.8017 1.55136 92.6261 2.07813 92.579C6.79574 92.1623 10.8387 89.8982 14.7259 87.4978C18.1927 85.3568 21.3378 82.676 24.0106 79.5288C25.2302 78.0928 24.0469 72.2569 22.4017 71.3764C15.2968 67.5767 12.009 61.3477 11.2876 53.5255C11.1189 51.6937 10.7634 50.8132 8.53955 51.1723C3.95687 51.9217 0.635345 49.5266 0.0514826 45.4884C-0.355924 42.6818 1.70706 39.1127 4.38504 38.2086C5.57612 37.8076 4.94814 37.1656 4.70162 36.6677C2.63605 32.5378 2.04959 28.1039 2.15079 23.5678C2.21048 20.8372 3.59618 18.4788 4.51998 15.9709C6.26378 11.2304 9.85518 8.3662 13.7113 5.71948C16.9835 3.4737 20.3933 1.36419 24.3402 0.530866C26.045 0.171856 27.8356 0.0408303 29.582 0.085379C34.1646 0.200682 38.9393 -0.784631 43.1509 1.88829C45.3411 3.27716 46.8176 1.54238 48.5562 0.981594C53.7487 -0.695533 60.3606 1.4035 63.6147 5.8374C66.4691 9.72886 67.463 12.5852 67.9716 18.3477ZM13.0599 46.0308C12.938 45.9391 12.816 45.8474 12.6941 45.7583C11.1215 43.6802 10.3223 40.9077 7.45486 39.9984C4.79245 39.152 1.7875 41.2772 1.75896 44.0942C1.71744 48.156 6.461 51.298 10.4442 49.8568C10.9061 49.689 10.7115 49.33 10.7608 49.0208C10.8776 48.308 10.7997 46.9218 11.2071 47.0318C11.9986 47.2415 11.7962 48.4024 11.8507 49.2069C11.8792 49.6419 11.8118 50.0874 11.8715 50.5145C12.7408 56.5286 14.1706 62.3016 18.9012 66.5835C19.6407 67.2517 20.5152 67.7706 21.3248 68.3576C21.0757 67.54 20.8292 66.7197 20.5801 65.9022C20.5671 65.855 20.5541 65.8078 20.5412 65.7633C18.5612 58.756 17.1729 51.471 11.4018 46.264C9.91487 44.9223 8.44872 43.6881 6.256 44.1231C5.78112 44.2174 5.0208 44.6079 4.94036 43.8584C4.85732 43.1011 5.71625 43.1823 6.256 43.1299C8.84835 42.8705 11.0592 43.6068 12.7122 45.7373C12.842 45.8238 12.9691 45.9103 13.0989 45.9994C13.1274 46.0177 13.1585 46.0334 13.1871 46.0518C13.1611 46.0727 13.1352 46.0937 13.1092 46.1173C13.0989 46.0858 13.0807 46.057 13.0599 46.0308ZM54.1146 61.4944C54.3325 61.3163 54.6154 61.1774 54.7581 60.952C56.7925 57.6737 58.5545 54.2147 59.5043 50.4883C60.4021 46.9585 60.646 43.274 60.1089 39.6079C60.0648 39.3013 59.8416 39.0209 59.7015 38.7301C59.4965 38.958 59.2396 39.1546 59.0943 39.4166C58.3443 40.7662 57.5477 42.0974 56.9041 43.4994C55.5963 46.3531 54.2106 49.2645 54.3741 52.472C54.5298 55.5197 54.8515 58.5359 54.1094 61.539C54.1301 61.5442 54.1535 61.5495 54.1742 61.5547C54.1535 61.5338 54.1353 61.5128 54.1146 61.4944ZM21.8438 64.2145C21.8386 64.0888 21.8335 63.9656 21.8257 63.8398C21.8153 63.8713 21.7945 63.9027 21.7997 63.9315C21.8127 64.0206 21.836 64.1071 21.8542 64.1962C21.8153 67.0892 23.31 68.8004 25.866 69.9115C30.3734 71.8717 34.9639 73.1898 39.9384 72.5635C40.229 72.5268 40.5404 72.6447 40.8414 72.6919C40.556 72.8255 40.2835 73.0404 39.9877 73.0797C38.7058 73.2527 37.4213 73.4125 36.1342 73.5069C35.1818 73.5776 34.2217 73.5409 33.2642 73.5514C34.3359 73.6824 35.405 73.8554 36.4793 73.9419C40.9478 74.2983 44.6015 72.4954 47.5909 69.3298C49.1271 67.7024 50.9306 66.2612 51.9166 64.1595C52.0879 63.7953 52.0801 63.3471 52.1554 62.9383C51.9322 63.2292 51.6701 63.4965 51.4963 63.8136C50.3233 65.9257 48.6288 67.4483 46.3635 68.2161C37.5069 71.2087 29.1512 70.9519 21.8438 64.2145ZM14.8712 36.8826C15.4447 37.1525 15.9144 36.7883 16.3322 36.5367C19.7679 34.4822 23.5591 33.1169 27.1479 31.4398C31.087 29.5976 33.0358 26.6154 34.9405 23.2245C36.6636 20.1585 37.4732 16.7571 38.3658 13.3923C38.5189 12.8158 38.7655 12.1188 39.3675 12.1921C40.0059 12.2681 39.8683 13.0674 39.8372 13.5496C39.6192 17.0584 38.9263 20.4337 36.936 23.421C35.7579 25.1846 34.6006 26.964 33.4588 28.7512C33.2694 29.0473 33.2149 29.4299 33.0955 29.7732C33.464 29.7679 33.8662 29.8544 34.1984 29.7365C35.4024 29.3041 36.6065 28.856 37.769 28.324C45.6784 24.6894 49.1738 21.3351 49.5189 12.656L49.4878 12.6769C49.9834 13.1146 49.999 13.7513 49.9549 14.2964C49.7006 17.4541 49.903 20.4389 51.4444 23.3791C52.3137 25.0379 52.8404 26.8644 54.3144 28.1196C54.8827 28.6018 55.451 29.6343 56.1023 29.3408C56.7017 29.0735 55.4639 28.4393 55.6871 27.7816C55.7182 27.6925 55.739 27.5876 55.7286 27.4959C55.4172 24.8649 55.2148 22.2156 54.7607 19.6108C54.1535 16.1413 54.3922 12.7005 54.7892 9.25455C54.8463 8.75141 55.1525 8.13559 55.8065 8.25351C56.4941 8.3793 56.2061 9.02132 56.1983 9.46419C56.0634 16.3063 57.0079 23.0437 58.1471 29.7627C58.4351 31.4581 59.0579 32.1919 61.0093 31.8512C62.6779 31.5603 62.3717 30.1322 62.7402 29.3617C65.1924 24.2413 65.6906 18.8509 64.6059 13.2168C62.8336 4.01353 56.1749 0.0879996 47.3236 3.23523C47.0174 3.3453 46.6645 3.32957 46.3323 3.36102C43.1691 3.66762 40.2679 2.08483 37.2033 1.96429C29.3925 1.66031 22.0333 2.99939 15.3772 7.68486C7.51454 13.222 3.52352 20.3079 5.25694 30.1086C5.67732 32.4801 6.01726 35.1609 7.63651 36.8485C8.94176 38.2086 10.4494 39.1913 10.7868 41.2169C10.8205 41.4187 11.4615 41.7489 11.5938 41.6624C11.996 41.4004 11.5678 41.0807 11.4407 40.8291C8.16847 34.3224 9.32322 27.7632 11.2383 21.2119C11.368 20.7717 11.4563 19.7759 12.1751 20.0511C12.7018 20.2528 12.1595 21.0075 12.0246 21.4845C10.8542 25.6537 10.1821 29.878 10.5947 34.2254C10.6207 34.5058 10.7556 34.7757 10.8387 35.0509C10.9087 34.7731 11.0021 34.4979 11.0463 34.2175C11.7858 29.5347 12.3152 24.7837 15.0139 20.6957C15.6315 19.7602 16.5372 18.0804 17.3857 18.6465C18.3147 19.2649 16.8875 20.5332 16.41 21.4583C14.1239 25.8738 12.336 30.4047 12.7278 35.5252C12.7511 35.8292 12.9016 36.1227 12.9925 36.4214C13.1585 36.1987 13.3584 35.9916 13.4855 35.7479C14.4716 33.89 15.917 32.3858 17.3468 30.9131C21.2496 26.8958 25.9205 23.5573 28.0276 18.0071C28.5051 16.7466 29.0967 15.5464 29.4055 14.2099C29.665 13.0831 29.255 11.8069 30.1295 10.819C30.7808 12.0559 30.9028 13.3871 30.7964 14.755C30.7782 14.9961 30.7367 15.2372 30.6952 15.473C29.8726 20.0537 27.192 23.6071 24.2234 26.9142C21.1717 30.313 17.4817 33.1064 14.8582 36.914L14.9075 36.9298L14.8712 36.8826ZM46.7371 47.6555C48.4264 47.0554 50.7126 47.7577 52.1165 45.7557C54.1665 42.8285 55.9881 39.7625 57.6385 36.5839C59.0346 33.8952 58.6843 32.6374 56.0296 31.2302C52.7289 29.4797 49.7836 27.378 48.9273 23.3608C48.8857 23.1642 48.6704 23.007 48.538 22.8314C48.3123 23.0646 48.0476 23.2743 47.8633 23.539C45.5538 26.8906 42.6838 29.4875 38.8719 31.0782C36.1524 32.2129 33.368 33.6568 30.5187 33.3842C27.3763 33.0829 25.9516 36.0047 22.9908 36.2851C19.9132 36.576 16.7214 38.2453 14.1887 40.512C12.9146 41.6519 12.8523 43.2347 13.5348 44.5162C14.5494 46.416 15.9663 48.101 17.2326 49.862C17.4324 50.1398 17.7724 50.3887 17.5388 50.7346C16.4463 52.3384 18.3017 51.7252 18.4107 51.6937C19.6719 51.3059 21.042 51.264 22.1682 50.4202C26.1904 47.4144 30.9209 46.7934 35.7138 46.34C39.4116 45.9889 42.9148 47.2598 46.7371 47.6555ZM34.0141 91.5858C41.1943 90.8756 47.814 88.9102 53.3075 83.9549C53.9303 83.3914 53.9173 83.1582 53.1804 82.9381C48.6652 81.599 47.1212 78.119 46.7397 73.8213C46.6749 73.0824 46.6022 72.9408 45.8237 73.2763C42.5437 74.6782 39.0276 75.674 35.5425 75.3963C32.3611 75.1421 29.9842 76.3501 27.5553 77.8805C26.782 78.3679 25.6921 78.5252 25.4145 79.6494C24.8695 81.848 23.624 83.6194 21.8646 84.9297C20.6839 85.8102 20.9823 86.3369 21.8386 87.1493C25.2847 90.4118 29.6442 90.9936 34.0141 91.5858ZM32.6336 61.8377C38.6695 61.6019 44.7624 61.5809 50.204 58.3394C51.3458 57.6606 52.7003 56.8981 53.0117 55.5695C53.3335 54.1963 53.183 52.6686 53.0351 51.2325C52.677 47.7787 52.3811 47.6398 49.2023 48.5465C47.5649 49.0156 45.8678 49.0601 44.2408 48.5098C38.4696 46.5549 32.7919 47.4826 27.1505 49.0496C24.0366 49.9144 21.6829 52.6738 18.2472 52.8179C18.1382 52.8232 17.9255 53.1088 17.954 53.1743C18.4834 54.3588 18.2732 56.0228 20.2583 56.201C23.6759 56.505 26.9481 55.7057 30.2073 54.9746C36.7155 53.5124 43.2132 52.0789 49.9367 52.2519C50.3804 52.2624 50.9902 52.0056 50.9902 52.755C50.9902 53.1141 50.8787 53.536 50.1884 53.4652C45.2684 52.9673 40.4548 53.8399 35.6567 54.7702C30.5395 55.7634 25.5338 57.4064 20.2531 57.43C19.991 57.43 19.5836 57.2833 19.6148 57.7314C19.6407 58.1009 19.8068 58.7403 19.9988 58.7744C21.9398 59.1255 23.1621 60.9677 25.1913 61.1747C27.6669 61.4237 30.1217 61.8928 32.6336 61.8377ZM36.5027 69.0022C43.5038 69.4058 48.9792 66.6752 51.2446 62.1732C51.6416 61.3818 51.8622 60.5511 52.8041 59.985C53.3049 59.6837 53.5048 58.1481 53.2011 57.4562C53.0039 57.0081 52.4149 58.1481 51.9011 58.4337C51.2731 58.7848 50.6451 59.1386 50.0197 59.4924C45.3436 62.1391 40.1849 62.4614 35.0002 62.7418C30.8483 62.9672 26.7872 62.6003 22.8143 61.3398C22.0774 61.1066 21.0316 60.1082 20.7799 60.5484C20.3388 61.3189 21.7841 61.442 22.0852 62.147C22.1604 62.3225 22.3265 62.4588 22.394 62.6344C23.4475 65.3387 25.7155 66.4525 28.2274 67.3775C31.1986 68.4729 34.2814 68.7638 36.5027 69.0022ZM64.2868 36.3716C63.8326 35.1662 64.0636 33.3842 62.3795 33.434C59.7715 33.51 62.0214 36.0598 60.8614 36.9848C61.3285 37.4565 61.0742 38.848 61.7567 38.5676C62.7272 38.1719 63.9935 37.6819 64.2868 36.3716ZM63.869 39.0917C63.978 38.7248 63.9183 38.4051 63.625 38.5361C62.6675 38.9659 61.7645 39.5215 61.5231 40.6588C61.4583 40.968 61.505 41.6939 61.876 41.5812C63.0827 41.2143 63.4097 40.0062 63.869 39.0917ZM25.7077 77.3905C25.6792 77.3512 25.6558 77.3223 25.6324 77.2909C25.5857 77.3381 25.5287 77.38 25.4949 77.4376C25.4819 77.4586 25.5235 77.5136 25.539 77.5503C25.5961 77.4953 25.6532 77.4429 25.7077 77.3905Z"/>
</mask>
<path d="M67.9716 18.3477C68.1947 23.0699 67.1075 27.454 64.5955 31.4581C64.157 32.1578 63.8274 32.7212 64.5852 33.4759C67.341 36.217 66.2537 41.8721 62.5118 43.2321C61.8138 43.4863 61.7255 43.9161 61.7463 44.5555C62.12 55.483 57.1662 63.8791 49.4151 70.9309C48.3642 71.8874 48.333 75.7553 49.1608 77.9722C49.9445 80.0739 51.7376 80.7028 53.4606 81.4732C57.6411 83.3417 61.9954 84.6414 66.5392 85.2363C66.9829 85.2939 67.5745 85.3228 67.5278 85.8154C67.4811 86.3081 66.8921 86.2347 66.4431 86.2033C62.8829 85.9674 59.4576 85.1157 56.0841 83.9942C55.6196 83.8396 55.1629 83.2578 54.893 84.5576C54.6647 85.6608 53.292 86.6749 52.2151 87.4218C46.488 91.4076 40.0889 93.3913 33.1448 93.2184C28.7464 93.1083 24.0936 92.1466 21.3612 88.7452C18.9505 85.7447 17.8424 88.1372 16.2984 88.8028C11.7235 90.7734 7.30176 93.1371 2.27016 93.7949C1.8394 93.8499 1.31782 94.3504 1.13098 93.5512C0.954524 92.8017 1.55136 92.6261 2.07813 92.579C6.79574 92.1623 10.8387 89.8982 14.7259 87.4978C18.1927 85.3568 21.3378 82.676 24.0106 79.5288C25.2302 78.0928 24.0469 72.2569 22.4017 71.3764C15.2968 67.5767 12.009 61.3477 11.2876 53.5255C11.1189 51.6937 10.7634 50.8132 8.53955 51.1723C3.95687 51.9217 0.635345 49.5266 0.0514826 45.4884C-0.355924 42.6818 1.70706 39.1127 4.38504 38.2086C5.57612 37.8076 4.94814 37.1656 4.70162 36.6677C2.63605 32.5378 2.04959 28.1039 2.15079 23.5678C2.21048 20.8372 3.59618 18.4788 4.51998 15.9709C6.26378 11.2304 9.85518 8.3662 13.7113 5.71948C16.9835 3.4737 20.3933 1.36419 24.3402 0.530866C26.045 0.171856 27.8356 0.0408303 29.582 0.085379C34.1646 0.200682 38.9393 -0.784631 43.1509 1.88829C45.3411 3.27716 46.8176 1.54238 48.5562 0.981594C53.7487 -0.695533 60.3606 1.4035 63.6147 5.8374C66.4691 9.72886 67.463 12.5852 67.9716 18.3477ZM13.0599 46.0308C12.938 45.9391 12.816 45.8474 12.6941 45.7583C11.1215 43.6802 10.3223 40.9077 7.45486 39.9984C4.79245 39.152 1.7875 41.2772 1.75896 44.0942C1.71744 48.156 6.461 51.298 10.4442 49.8568C10.9061 49.689 10.7115 49.33 10.7608 49.0208C10.8776 48.308 10.7997 46.9218 11.2071 47.0318C11.9986 47.2415 11.7962 48.4024 11.8507 49.2069C11.8792 49.6419 11.8118 50.0874 11.8715 50.5145C12.7408 56.5286 14.1706 62.3016 18.9012 66.5835C19.6407 67.2517 20.5152 67.7706 21.3248 68.3576C21.0757 67.54 20.8292 66.7197 20.5801 65.9022C20.5671 65.855 20.5541 65.8078 20.5412 65.7633C18.5612 58.756 17.1729 51.471 11.4018 46.264C9.91487 44.9223 8.44872 43.6881 6.256 44.1231C5.78112 44.2174 5.0208 44.6079 4.94036 43.8584C4.85732 43.1011 5.71625 43.1823 6.256 43.1299C8.84835 42.8705 11.0592 43.6068 12.7122 45.7373C12.842 45.8238 12.9691 45.9103 13.0989 45.9994C13.1274 46.0177 13.1585 46.0334 13.1871 46.0518C13.1611 46.0727 13.1352 46.0937 13.1092 46.1173C13.0989 46.0858 13.0807 46.057 13.0599 46.0308ZM54.1146 61.4944C54.3325 61.3163 54.6154 61.1774 54.7581 60.952C56.7925 57.6737 58.5545 54.2147 59.5043 50.4883C60.4021 46.9585 60.646 43.274 60.1089 39.6079C60.0648 39.3013 59.8416 39.0209 59.7015 38.7301C59.4965 38.958 59.2396 39.1546 59.0943 39.4166C58.3443 40.7662 57.5477 42.0974 56.9041 43.4994C55.5963 46.3531 54.2106 49.2645 54.3741 52.472C54.5298 55.5197 54.8515 58.5359 54.1094 61.539C54.1301 61.5442 54.1535 61.5495 54.1742 61.5547C54.1535 61.5338 54.1353 61.5128 54.1146 61.4944ZM21.8438 64.2145C21.8386 64.0888 21.8335 63.9656 21.8257 63.8398C21.8153 63.8713 21.7945 63.9027 21.7997 63.9315C21.8127 64.0206 21.836 64.1071 21.8542 64.1962C21.8153 67.0892 23.31 68.8004 25.866 69.9115C30.3734 71.8717 34.9639 73.1898 39.9384 72.5635C40.229 72.5268 40.5404 72.6447 40.8414 72.6919C40.556 72.8255 40.2835 73.0404 39.9877 73.0797C38.7058 73.2527 37.4213 73.4125 36.1342 73.5069C35.1818 73.5776 34.2217 73.5409 33.2642 73.5514C34.3359 73.6824 35.405 73.8554 36.4793 73.9419C40.9478 74.2983 44.6015 72.4954 47.5909 69.3298C49.1271 67.7024 50.9306 66.2612 51.9166 64.1595C52.0879 63.7953 52.0801 63.3471 52.1554 62.9383C51.9322 63.2292 51.6701 63.4965 51.4963 63.8136C50.3233 65.9257 48.6288 67.4483 46.3635 68.2161C37.5069 71.2087 29.1512 70.9519 21.8438 64.2145ZM14.8712 36.8826C15.4447 37.1525 15.9144 36.7883 16.3322 36.5367C19.7679 34.4822 23.5591 33.1169 27.1479 31.4398C31.087 29.5976 33.0358 26.6154 34.9405 23.2245C36.6636 20.1585 37.4732 16.7571 38.3658 13.3923C38.5189 12.8158 38.7655 12.1188 39.3675 12.1921C40.0059 12.2681 39.8683 13.0674 39.8372 13.5496C39.6192 17.0584 38.9263 20.4337 36.936 23.421C35.7579 25.1846 34.6006 26.964 33.4588 28.7512C33.2694 29.0473 33.2149 29.4299 33.0955 29.7732C33.464 29.7679 33.8662 29.8544 34.1984 29.7365C35.4024 29.3041 36.6065 28.856 37.769 28.324C45.6784 24.6894 49.1738 21.3351 49.5189 12.656L49.4878 12.6769C49.9834 13.1146 49.999 13.7513 49.9549 14.2964C49.7006 17.4541 49.903 20.4389 51.4444 23.3791C52.3137 25.0379 52.8404 26.8644 54.3144 28.1196C54.8827 28.6018 55.451 29.6343 56.1023 29.3408C56.7017 29.0735 55.4639 28.4393 55.6871 27.7816C55.7182 27.6925 55.739 27.5876 55.7286 27.4959C55.4172 24.8649 55.2148 22.2156 54.7607 19.6108C54.1535 16.1413 54.3922 12.7005 54.7892 9.25455C54.8463 8.75141 55.1525 8.13559 55.8065 8.25351C56.4941 8.3793 56.2061 9.02132 56.1983 9.46419C56.0634 16.3063 57.0079 23.0437 58.1471 29.7627C58.4351 31.4581 59.0579 32.1919 61.0093 31.8512C62.6779 31.5603 62.3717 30.1322 62.7402 29.3617C65.1924 24.2413 65.6906 18.8509 64.6059 13.2168C62.8336 4.01353 56.1749 0.0879996 47.3236 3.23523C47.0174 3.3453 46.6645 3.32957 46.3323 3.36102C43.1691 3.66762 40.2679 2.08483 37.2033 1.96429C29.3925 1.66031 22.0333 2.99939 15.3772 7.68486C7.51454 13.222 3.52352 20.3079 5.25694 30.1086C5.67732 32.4801 6.01726 35.1609 7.63651 36.8485C8.94176 38.2086 10.4494 39.1913 10.7868 41.2169C10.8205 41.4187 11.4615 41.7489 11.5938 41.6624C11.996 41.4004 11.5678 41.0807 11.4407 40.8291C8.16847 34.3224 9.32322 27.7632 11.2383 21.2119C11.368 20.7717 11.4563 19.7759 12.1751 20.0511C12.7018 20.2528 12.1595 21.0075 12.0246 21.4845C10.8542 25.6537 10.1821 29.878 10.5947 34.2254C10.6207 34.5058 10.7556 34.7757 10.8387 35.0509C10.9087 34.7731 11.0021 34.4979 11.0463 34.2175C11.7858 29.5347 12.3152 24.7837 15.0139 20.6957C15.6315 19.7602 16.5372 18.0804 17.3857 18.6465C18.3147 19.2649 16.8875 20.5332 16.41 21.4583C14.1239 25.8738 12.336 30.4047 12.7278 35.5252C12.7511 35.8292 12.9016 36.1227 12.9925 36.4214C13.1585 36.1987 13.3584 35.9916 13.4855 35.7479C14.4716 33.89 15.917 32.3858 17.3468 30.9131C21.2496 26.8958 25.9205 23.5573 28.0276 18.0071C28.5051 16.7466 29.0967 15.5464 29.4055 14.2099C29.665 13.0831 29.255 11.8069 30.1295 10.819C30.7808 12.0559 30.9028 13.3871 30.7964 14.755C30.7782 14.9961 30.7367 15.2372 30.6952 15.473C29.8726 20.0537 27.192 23.6071 24.2234 26.9142C21.1717 30.313 17.4817 33.1064 14.8582 36.914L14.9075 36.9298L14.8712 36.8826ZM46.7371 47.6555C48.4264 47.0554 50.7126 47.7577 52.1165 45.7557C54.1665 42.8285 55.9881 39.7625 57.6385 36.5839C59.0346 33.8952 58.6843 32.6374 56.0296 31.2302C52.7289 29.4797 49.7836 27.378 48.9273 23.3608C48.8857 23.1642 48.6704 23.007 48.538 22.8314C48.3123 23.0646 48.0476 23.2743 47.8633 23.539C45.5538 26.8906 42.6838 29.4875 38.8719 31.0782C36.1524 32.2129 33.368 33.6568 30.5187 33.3842C27.3763 33.0829 25.9516 36.0047 22.9908 36.2851C19.9132 36.576 16.7214 38.2453 14.1887 40.512C12.9146 41.6519 12.8523 43.2347 13.5348 44.5162C14.5494 46.416 15.9663 48.101 17.2326 49.862C17.4324 50.1398 17.7724 50.3887 17.5388 50.7346C16.4463 52.3384 18.3017 51.7252 18.4107 51.6937C19.6719 51.3059 21.042 51.264 22.1682 50.4202C26.1904 47.4144 30.9209 46.7934 35.7138 46.34C39.4116 45.9889 42.9148 47.2598 46.7371 47.6555ZM34.0141 91.5858C41.1943 90.8756 47.814 88.9102 53.3075 83.9549C53.9303 83.3914 53.9173 83.1582 53.1804 82.9381C48.6652 81.599 47.1212 78.119 46.7397 73.8213C46.6749 73.0824 46.6022 72.9408 45.8237 73.2763C42.5437 74.6782 39.0276 75.674 35.5425 75.3963C32.3611 75.1421 29.9842 76.3501 27.5553 77.8805C26.782 78.3679 25.6921 78.5252 25.4145 79.6494C24.8695 81.848 23.624 83.6194 21.8646 84.9297C20.6839 85.8102 20.9823 86.3369 21.8386 87.1493C25.2847 90.4118 29.6442 90.9936 34.0141 91.5858ZM32.6336 61.8377C38.6695 61.6019 44.7624 61.5809 50.204 58.3394C51.3458 57.6606 52.7003 56.8981 53.0117 55.5695C53.3335 54.1963 53.183 52.6686 53.0351 51.2325C52.677 47.7787 52.3811 47.6398 49.2023 48.5465C47.5649 49.0156 45.8678 49.0601 44.2408 48.5098C38.4696 46.5549 32.7919 47.4826 27.1505 49.0496C24.0366 49.9144 21.6829 52.6738 18.2472 52.8179C18.1382 52.8232 17.9255 53.1088 17.954 53.1743C18.4834 54.3588 18.2732 56.0228 20.2583 56.201C23.6759 56.505 26.9481 55.7057 30.2073 54.9746C36.7155 53.5124 43.2132 52.0789 49.9367 52.2519C50.3804 52.2624 50.9902 52.0056 50.9902 52.755C50.9902 53.1141 50.8787 53.536 50.1884 53.4652C45.2684 52.9673 40.4548 53.8399 35.6567 54.7702C30.5395 55.7634 25.5338 57.4064 20.2531 57.43C19.991 57.43 19.5836 57.2833 19.6148 57.7314C19.6407 58.1009 19.8068 58.7403 19.9988 58.7744C21.9398 59.1255 23.1621 60.9677 25.1913 61.1747C27.6669 61.4237 30.1217 61.8928 32.6336 61.8377ZM36.5027 69.0022C43.5038 69.4058 48.9792 66.6752 51.2446 62.1732C51.6416 61.3818 51.8622 60.5511 52.8041 59.985C53.3049 59.6837 53.5048 58.1481 53.2011 57.4562C53.0039 57.0081 52.4149 58.1481 51.9011 58.4337C51.2731 58.7848 50.6451 59.1386 50.0197 59.4924C45.3436 62.1391 40.1849 62.4614 35.0002 62.7418C30.8483 62.9672 26.7872 62.6003 22.8143 61.3398C22.0774 61.1066 21.0316 60.1082 20.7799 60.5484C20.3388 61.3189 21.7841 61.442 22.0852 62.147C22.1604 62.3225 22.3265 62.4588 22.394 62.6344C23.4475 65.3387 25.7155 66.4525 28.2274 67.3775C31.1986 68.4729 34.2814 68.7638 36.5027 69.0022ZM64.2868 36.3716C63.8326 35.1662 64.0636 33.3842 62.3795 33.434C59.7715 33.51 62.0214 36.0598 60.8614 36.9848C61.3285 37.4565 61.0742 38.848 61.7567 38.5676C62.7272 38.1719 63.9935 37.6819 64.2868 36.3716ZM63.869 39.0917C63.978 38.7248 63.9183 38.4051 63.625 38.5361C62.6675 38.9659 61.7645 39.5215 61.5231 40.6588C61.4583 40.968 61.505 41.6939 61.876 41.5812C63.0827 41.2143 63.4097 40.0062 63.869 39.0917ZM25.7077 77.3905C25.6792 77.3512 25.6558 77.3223 25.6324 77.2909C25.5857 77.3381 25.5287 77.38 25.4949 77.4376C25.4819 77.4586 25.5235 77.5136 25.539 77.5503C25.5961 77.4953 25.6532 77.4429 25.7077 77.3905Z" fill="#292929" stroke="white" stroke-width="0.4" mask="url(#path-2-inside-2)"/>
</mask>
<g mask="url(#mask0)">
<path d="M14 45L18.5 50L23 46.5L49.5 42.5L58 33L59.5 36.5V39L57 46.5L54.5 59.5L56 66L45.5 74L35.5 76C35.5 76 29.6889 74.8859 26.5 73C24.5837 71.8667 23.3734 71.2522 22 69.5C21.2976 68.6039 20.5 67 20.5 67L12 48.5L14 45Z" fill="#5DD7FF"/>
</g>
</svg>
