<svg width="100" height="117" viewBox="0 0 100 117" fill="none" xmlns="http://www.w3.org/2000/svg">
<path d="M47.741 22.2866C47.6264 22.4178 47.4825 22.5255 47.3084 22.5961C46.6827 22.8484 45.6157 22.5097 45.6684 21.7214C45.6841 21.4844 45.736 21.2571 45.8354 21.0603C45.8058 20.7693 45.8635 20.4691 46.0358 20.2011C46.28 19.8208 46.7252 19.6034 47.1522 19.6751C47.7953 19.7841 48.0968 20.3861 48.1355 21.0022C48.1362 21.0057 48.1355 21.0099 48.1352 21.0131C48.2704 21.4677 48.1089 22.016 47.741 22.2866Z" fill="#5DD7FF"/>
<path d="M24.4166 46.0251C25.5561 43.6878 27.3272 41.8269 29.6779 40.7762C30.8913 40.2337 32.1968 40.058 33.4761 39.8259C33.5738 38.1088 33.5928 36.4041 33.9068 34.6896C34.2483 32.822 34.6155 30.971 34.799 29.0871C34.8514 28.5488 35.367 28.4699 35.7241 28.6757C35.7736 28.4948 35.8418 28.3145 35.9319 28.1373C36.4998 27.0252 37.6548 26.3346 38.7263 25.8382C38.8071 25.8003 38.8894 25.7839 38.9683 25.7837C39.2333 24.1646 39.3859 22.5305 39.4924 20.8938C39.6892 17.8472 40.1084 14.7859 40.0121 11.742C39.9992 11.3466 40.2949 11.213 40.5983 11.2638C40.7854 9.643 42.3459 8.80434 43.744 8.45017C45.4401 8.02043 47.2787 8.04853 48.9091 8.5522C50.2536 8.96785 51.7693 10.1197 51.1322 11.6889C51.246 11.8023 51.3171 11.9553 51.3048 12.1375C51.1074 15.1805 51.8806 18.1058 52.1777 21.088C52.3883 23.2075 52.5418 25.3355 52.7507 27.4543C54.484 27.4448 56.0368 29.0686 56.0465 30.8384C56.1277 30.9392 56.1815 31.0657 56.1872 31.2119C56.2248 32.1876 56.2425 33.1457 56.3761 34.1103C56.5068 35.054 56.6721 35.9903 56.7905 36.9358C56.9965 38.5839 57.046 40.2548 56.6015 41.8812C57.6716 42.5542 59.0526 42.5563 60.1675 43.1588C61.3349 43.7894 62.0748 44.9587 62.579 46.1828C63.6267 48.7286 63.6497 51.5813 64.1858 54.2825C64.4804 55.7671 64.8178 57.2496 64.9697 58.7668C65.1197 60.2557 65.0743 61.76 65.0196 63.264C64.9649 64.7679 64.9285 66.2658 65.0445 67.758C65.161 69.2493 65.3722 70.7246 65.4764 72.2177C65.6976 75.3937 65.1495 78.6117 64.9444 81.7979C64.8381 83.4468 64.7354 85.0872 64.5627 86.7345C64.3946 88.3373 64.1907 89.9483 64.1402 91.5539C64.0527 94.3285 64.4384 97.1548 63.3133 99.8331C62.3794 102.057 60.6422 103.709 58.5848 104.845C56.4879 106.003 54.1273 106.608 51.8177 106.944C48.9943 107.355 46.1111 107.535 43.2784 107.648C40.321 107.766 37.3434 107.714 34.4548 107.196C32.9955 106.934 31.6141 106.49 30.2046 106.067C28.8442 105.659 27.4338 105.385 26.1234 104.837C24.8351 104.298 23.6243 103.485 22.8002 102.332C22.0546 101.288 21.6238 100.059 21.3047 98.8013C20.9878 97.5511 20.8067 96.2315 20.832 94.9206C20.8606 93.3933 21.1195 91.873 21.0543 90.3467C20.989 88.8357 20.8013 87.3442 20.9068 85.8215C21.0133 84.2761 21.0136 82.7411 20.9526 81.2021C20.8283 78.0813 20.6847 74.9894 20.7748 71.853C20.953 65.6279 21.6268 59.4159 22.4832 53.2167C22.821 50.7638 23.3121 48.2879 24.4166 46.0251ZM49.8891 10.4691C49.8586 10.4364 49.7606 10.3203 49.7213 10.2808C49.7176 10.2771 49.717 10.2758 49.7189 10.2765C49.711 10.2702 49.7004 10.2628 49.6852 10.2513C49.6302 10.2091 49.5757 10.1681 49.5183 10.1293C49.4673 10.0952 49.4146 10.0626 49.3619 10.0301C49.3307 10.0114 49.3243 10.0067 49.3247 10.0057C49.3183 10.0033 49.3015 9.99565 49.2642 9.97674C49.1314 9.91195 48.9949 9.85343 48.8561 9.8006C47.6743 9.35467 46.2367 9.28881 44.9181 9.48363C44.2942 9.57553 43.6782 9.73977 43.1021 10.0284C42.6614 10.2487 42.2265 10.6021 42.0251 10.9978C41.8229 11.3954 41.7705 12.048 42.0605 12.4895C42.5503 13.2351 43.8737 13.2115 44.6676 13.1988C45.7809 13.1804 46.9806 13.1231 48.0826 12.8859C48.5427 12.7864 49.031 12.6111 49.3673 12.2447C49.7591 11.8174 49.9005 11.1884 49.9685 10.6353C49.9438 10.596 49.8932 10.4872 49.8891 10.4691ZM50.1752 21.0501C50.1797 21.0265 50.1856 21.0046 50.192 20.984C49.9291 20.0857 49.6364 19.2265 48.6042 18.9673C47.3741 18.6587 45.8237 19.3254 45.4663 20.6953C44.986 22.5354 46.7363 24.1589 48.4575 23.5311C49.5386 23.1384 49.9719 22.1158 50.1752 21.0501ZM51.0578 22.5828C50.7349 23.4833 50.0943 24.2505 49.1861 24.6465C48.0421 25.1456 46.7126 24.9579 45.7295 24.3032C44.5446 23.5141 43.8655 21.9692 44.1343 20.4857C44.4778 18.5881 46.4022 17.4916 48.1458 17.6302C49.135 17.7088 50.0411 18.217 50.6641 18.9681C50.3945 17.1083 50.0685 15.2552 50.0337 13.3657C49.8344 13.5379 49.6061 13.6889 49.3408 13.8124C48.2477 14.3203 46.9486 14.3258 45.7888 14.4085C44.512 14.4997 43.104 14.5399 41.9672 13.9344C41.6909 13.7875 41.4498 13.596 41.2486 13.3715C41.2238 15.9868 40.9005 18.6103 40.7341 21.2277C40.5655 23.9014 40.3068 26.7293 39.4568 29.3341C41.4068 30.8911 43.5268 32.5779 46.1913 32.5233C47.2915 32.501 48.4133 32.3353 49.4765 31.9808C50.358 31.6876 51.3694 31.2349 51.8756 30.3737C51.4783 27.799 51.2809 25.1877 51.0578 22.5828ZM54.5107 29.7579C54.1699 29.1141 53.5693 28.7126 52.8755 28.6509C52.9316 29.1554 52.9915 29.6581 53.0586 30.1614C53.1443 30.2893 53.1783 30.451 53.1234 30.632C53.1306 30.6832 53.1373 30.733 53.1445 30.7842C53.1971 31.1522 52.9846 31.3588 52.7248 31.4107C52.1785 32.1761 51.3025 32.6847 50.4546 33.0261C49.2172 33.5251 47.8551 33.7591 46.5525 33.7985C45.1128 33.8418 43.7683 33.5152 42.4973 32.8938C41.2363 32.2764 39.9363 31.4788 38.911 30.479C38.5119 30.6824 37.8795 30.2817 38.042 29.7642C38.296 28.9568 38.5045 28.1426 38.6794 27.3232C37.5454 27.9988 36.4707 29.0845 37.1573 30.4311C37.6111 31.3222 38.46 31.9841 39.2593 32.5321C40.1258 33.1261 41.0689 33.5881 42.0587 33.9473C44.0494 34.6691 46.2304 34.9687 48.3806 34.8045C50.3111 34.6561 52.6626 34.1368 53.9994 32.4832C54.6448 31.6838 54.996 30.6744 54.5107 29.7579ZM55.4793 36.6529C55.3553 35.7338 55.2014 34.8207 55.097 33.8971C55.0782 33.7293 55.0584 33.5588 55.0402 33.3868C53.9027 34.7263 52.0161 35.4999 50.4303 35.8383C47.8545 36.387 45.168 36.1747 42.7084 35.472C40.2937 34.7825 37.6384 33.4507 36.2165 31.2895C36.1166 31.1374 36.0279 30.9787 35.9508 30.8146C35.7879 32.1688 35.4883 33.5259 35.2396 34.8566C34.8871 36.743 34.8971 38.6163 34.7668 40.5088C36.4739 43.0139 39.8751 43.6821 42.7032 44.0902C45.5077 44.4947 48.4609 44.7985 51.309 44.1676C52.7322 43.8518 53.9972 43.1974 55.0832 42.2062C55.788 40.3896 55.7302 38.5098 55.4793 36.6529ZM59.9107 60.9712C59.7851 61.2446 59.6301 61.5077 59.4402 61.7562C58.5748 62.8869 57.2551 63.5442 55.9574 63.9451C52.7169 64.9459 49.2368 64.8244 45.9475 64.7166C45.2141 64.6923 44.4816 64.6606 43.7485 64.6331C43.4267 64.6214 43.105 64.6097 42.7826 64.6021C42.4173 64.5943 42.4256 64.592 42.1109 64.5963C39.5718 64.627 37.0683 64.6958 34.587 64.1903C32.0121 63.665 29.372 62.624 27.7106 60.5061C27.3457 60.04 27.0291 59.5233 26.7797 58.9733C26.7978 59.8414 26.8514 60.71 26.8187 61.5638C26.7393 63.6355 26.3306 65.7366 26.0897 67.8027C25.5851 72.1196 25.3866 76.4378 25.3862 80.7571C25.3861 82.7639 25.4787 84.765 25.4741 86.77C25.4707 88.2082 25.332 89.6487 25.2968 91.0877C25.2648 92.4454 25.2986 93.8749 25.7975 95.1244C26.3962 96.6227 27.7457 97.5494 29.0746 98.3175C30.7386 99.2785 32.5909 99.9035 34.4118 100.515C35.9689 101.039 37.5251 101.529 39.1504 101.829C42.0818 102.371 45.1643 102.395 48.1196 101.559C49.6132 101.136 51.0746 100.519 52.429 99.7173C53.9864 98.7949 55.5511 97.7302 56.2974 95.9836C57.0785 94.1548 57.1305 92.1495 57.3219 90.2235C57.5355 88.0786 57.8295 85.9374 58.0951 83.7962C58.6267 79.5206 58.9222 75.2423 59.3325 70.9602C59.5383 68.8166 59.8057 66.6838 59.8101 64.5368C59.8157 63.3525 59.9264 62.1551 59.9107 60.9712ZM28.3812 59.049C29.589 61.0984 31.9087 62.1447 34.1364 62.6616C36.5404 63.2195 39.009 63.2526 41.4927 63.1706C42.6625 63.1325 43.831 63.2016 44.9948 63.249C48.0193 63.3727 51.1084 63.5128 54.1354 62.9294C55.4907 62.6685 56.91 62.2555 57.9541 61.2921C58.343 60.9329 58.6788 60.4179 58.8492 59.8837C58.8985 59.7291 58.935 59.5695 58.9631 59.41C58.8342 59.2774 58.7556 59.0941 58.736 58.8951C58.4702 56.1142 56.0869 54.5054 53.9175 53.2887C52.4464 52.4632 50.8132 51.9837 49.1099 51.852C47.8695 51.7561 46.3954 52.0555 45.1772 51.6823C45.2069 52.215 45.2418 52.7454 45.261 53.273C45.3042 54.4664 45.3417 55.6686 45.2112 56.8682C45.12 57.7059 44.9743 58.6071 44.577 59.3776C44.6929 59.7096 44.5961 60.0986 44.1535 60.1126C44.1119 60.114 44.0713 60.1158 44.0293 60.1182C43.8872 60.2004 43.7245 60.2054 43.5762 60.1577C42.6186 60.2618 41.6151 60.4614 40.79 59.9121C39.9387 59.345 39.9365 58.1795 39.9917 57.2179C40.0498 56.2112 40.2379 55.2099 40.2907 54.2034C40.3378 53.3046 40.3385 52.4064 40.3378 51.5088C38.4405 51.1478 36.4924 50.9221 34.5378 51.0909C32.5201 51.2648 30.3676 51.8845 28.8956 53.4789C27.3919 55.1072 27.3384 57.2814 28.3812 59.049ZM41.5843 55.0138C41.4759 56.1296 41.2176 57.3082 41.3476 58.4187C41.3592 58.52 41.3822 58.6169 41.4034 58.7154C41.411 58.748 41.4683 58.8429 41.4493 58.8355C41.6015 58.9704 41.8493 58.9755 42.0469 58.9851C42.502 59.0069 42.9594 58.9471 43.4176 58.9183C43.8083 58.0925 43.9274 57.1491 43.9809 56.2627C44.0491 55.1225 44.0072 53.9867 43.9614 52.8528C43.9094 51.546 43.7368 50.2034 43.873 48.8883C43.9876 47.7804 44.5265 46.7208 44.6431 45.6235C44.094 45.5674 43.5461 45.5008 43.0009 45.4276C42.7234 45.3901 42.4449 45.3501 42.1675 45.3073C41.293 48.5073 41.8985 51.7798 41.5843 55.0138ZM24.3924 50.7727C23.7799 53.3796 23.4531 56.0293 23.1357 58.6716C22.7701 61.7152 22.4786 64.7646 22.2896 67.8153C22.1007 70.8605 21.973 73.9229 22.0631 76.9588C22.1509 79.9037 22.4268 82.8381 22.1997 85.8004C22.0895 87.2355 22.2103 88.635 22.2946 90.0566C22.3794 91.4949 22.2189 92.9094 22.1299 94.3516C21.9782 96.7988 22.4053 99.5808 23.7961 101.551C25.4291 103.864 28.4281 104.131 30.9275 104.93C33.6523 105.802 36.4153 106.259 39.308 106.353C42.214 106.448 45.1389 106.236 48.052 105.997C50.422 105.802 52.7872 105.61 55.0961 104.874C57.1606 104.216 59.2575 103.179 60.7208 101.458C62.3944 99.4904 62.8247 97.0679 62.8286 94.5996C62.8307 93.228 62.7671 91.8628 62.8629 90.4881C62.9725 88.9175 63.161 87.3489 63.318 85.7803C63.4767 84.2001 63.5433 82.6216 63.6594 81.0403C63.7748 79.4709 63.9411 77.9025 64.0662 76.3324C64.1863 74.833 64.2488 73.3584 64.136 71.8685C64.0276 70.4365 63.8283 69.0186 63.7164 67.5873C63.4926 64.7226 63.9131 61.818 63.674 58.9573C63.5512 57.4888 63.2122 56.0508 62.9267 54.618C62.6468 53.2172 62.4388 51.8179 62.2833 50.3906C62.1494 49.1675 61.8973 47.9358 61.4644 46.801C61.0176 45.629 60.3879 44.5079 59.1964 44.0373C58.1935 43.6411 57.107 43.4906 56.1791 42.9487C56.1374 42.9886 56.0899 43.0196 56.0403 43.0432C53.9489 45.4351 50.4263 45.8458 47.559 45.804C47.0143 45.7958 46.4691 45.771 45.9258 45.7337C45.8345 46.9199 45.2489 48.0417 45.1604 49.2389C45.1334 49.6012 45.1257 49.9655 45.1285 50.3295C46.2436 50.6725 47.5155 50.4738 48.6778 50.4943C50.1092 50.5193 51.594 50.8344 52.9079 51.3493C54.0572 51.8002 55.1566 52.4505 56.1766 53.1404C57.1167 53.7772 58.0235 54.5199 58.7275 55.4257C59.1331 55.9483 59.4782 56.5234 59.7145 57.143C59.9207 57.2055 60.1046 57.3627 60.1632 57.612C60.2113 57.8133 60.2476 58.0176 60.2756 58.2242C60.3412 58.2585 60.4035 58.3058 60.4614 58.369C61.3249 59.3181 61.1957 61.0075 61.1531 62.2435C61.0938 63.9821 61.126 65.7177 60.9994 67.4566C60.8376 69.692 60.5739 71.9274 60.39 74.1631C60.2062 76.4009 60.0314 78.6401 59.7858 80.8748C59.5382 83.1352 59.2345 85.3913 58.9601 87.6501C58.7031 89.7628 58.6089 91.9034 58.2614 94.0063C57.9283 96.0212 57.1689 97.9419 55.5417 99.2771C54.199 100.379 52.6476 101.279 51.0807 101.968C48.0774 103.286 44.8302 103.737 41.6584 103.51C38.1207 103.256 34.6819 102.153 31.4313 100.877C29.5549 100.14 27.7215 99.2181 26.2053 97.8769C25.0816 96.8839 24.3921 95.5901 24.1218 94.0698C23.8583 92.5863 23.9222 91.0474 24.024 89.5309C24.1351 87.8905 24.1849 86.2945 24.1382 84.6598C24.0094 80.1936 24.0244 75.7096 24.3872 71.2276C24.5713 68.9535 24.8579 66.6852 25.1442 64.4179C25.2786 63.3562 25.4534 62.2881 25.4822 61.2228C25.5095 60.2195 25.4476 59.2212 25.4511 58.2196C25.4546 57.3017 25.5198 56.3769 25.7661 55.4763C25.8519 55.1621 26.0935 55.0526 26.3465 55.0783C26.4287 54.7473 26.5429 54.4178 26.6964 54.0948C27.7672 51.832 30.074 50.5575 32.345 50.0146C34.5985 49.476 36.9589 49.588 39.1878 49.9217C39.5736 49.9792 39.9568 50.0478 40.3395 50.1228C40.3412 49.9816 40.342 49.8401 40.3445 49.6992C40.371 48.1568 40.4735 46.5933 40.8664 45.0789C39.8768 44.8792 38.9019 44.6214 37.9627 44.2719C36.4283 43.7011 34.821 42.816 33.8705 41.4197C33.814 41.3988 33.7611 41.3717 33.7116 41.3392C32.4808 41.5605 31.2646 41.7489 30.1086 42.3126C29.0569 42.8244 28.0749 43.5667 27.2943 44.4643C25.7367 46.2509 24.9238 48.5094 24.3924 50.7727Z" fill="#292929"/>
<path d="M77.6841 15.4871C77.0714 15.6217 76.2648 15.8333 75.662 15.6159C75.2587 15.4701 75.0935 14.9732 75.4122 14.6597C75.772 14.3057 76.5224 14.3208 76.9901 14.241C77.4288 14.1662 77.9597 14.0766 78.3109 13.776C78.7993 13.3573 79.7791 14.1447 79.323 14.6701C78.8856 15.1756 78.3158 15.348 77.6841 15.4871Z" fill="#5DD7FF"/>
<path d="M71.8342 16.0688C71.0801 16.0798 70.1182 16.4367 69.4494 15.9812C69.0827 15.7307 69.0658 15.2421 69.4649 15.0235C69.7379 14.8739 70.154 14.9036 70.461 14.8648C70.8076 14.8209 71.1487 14.7749 71.4983 14.7825C71.866 14.7908 72.2288 14.9763 72.3271 15.3596C72.4096 15.6808 72.1945 16.0632 71.8342 16.0688Z" fill="#5DD7FF"/>
<path d="M63.009 17.4327C62.4133 17.5273 61.5182 17.6451 61.0079 17.2623C60.7706 17.084 60.622 16.6919 60.9122 16.4705C61.3021 16.173 61.9879 16.242 62.4543 16.1846C62.9783 16.1206 63.5242 16.0051 63.9907 15.7369C64.6107 15.3799 65.5756 16.2512 64.9044 16.7561C64.3578 17.1662 63.668 17.3283 63.009 17.4327Z" fill="#5DD7FF"/>
<path d="M57.3347 18.3225C56.7331 18.4452 55.9875 18.5643 55.4086 18.3302C54.9797 18.1568 54.8126 17.563 55.2827 17.3258C55.7149 17.1074 56.2968 17.1636 56.7687 17.0899C57.2498 17.0143 57.762 16.878 58.1786 16.613C58.773 16.2363 59.6896 17.1089 59.0581 17.5933C58.5414 17.991 57.9634 18.1941 57.3347 18.3225Z" fill="#5DD7FF"/>
<path d="M76.6231 21.3084C76.2483 21.1004 76.3091 20.4906 76.7607 20.4367C77.3259 20.3688 77.8658 20.5263 78.415 20.6316C78.9792 20.7397 79.4909 20.748 80.0596 20.653C80.6813 20.5496 81.2042 21.5129 80.5238 21.8175C79.3698 22.3348 77.6566 21.8821 76.6231 21.3084Z" fill="#5DD7FF"/>
<path d="M72.8563 22.2394C72.0238 22.5337 71.1134 22.6122 70.24 22.6068C69.3658 22.6011 68.4013 22.565 67.677 22.0366C67.3626 21.8077 67.2954 21.1463 67.8197 21.1312C68.5704 21.1086 69.3089 21.2925 70.0642 21.2881C70.8465 21.2836 71.6143 21.1628 72.3893 21.0667C72.9869 20.9932 73.5856 21.9818 72.8563 22.2394Z" fill="#5DD7FF"/>
<path d="M62.4227 22.1575C61.8023 22.1278 61.0098 22.0462 60.4874 21.6944C60.1906 21.4946 60.0697 20.9292 60.5027 20.7872C61.4394 20.4777 62.4961 21.2373 63.4193 20.6972C64.0256 20.3429 64.9714 21.2138 64.3121 21.6936C63.7423 22.1072 63.1055 22.1902 62.4227 22.1575Z" fill="#5DD7FF"/>
<path d="M57.5094 21.8472C56.5722 21.9499 55.13 22.2043 54.4007 21.4783C54.1501 21.2278 54.2364 20.8705 54.527 20.7124C54.8953 20.5118 55.3962 20.6527 55.7973 20.6588C56.2608 20.6656 56.7269 20.6418 57.1902 20.6277C57.906 20.6056 58.3877 21.7518 57.5094 21.8472Z" fill="#5DD7FF"/>
<path d="M79.2513 33.5677C78.3017 33.3777 77.4845 32.9536 76.6571 32.4661C76.2529 32.2273 75.8528 31.9834 75.4405 31.759C75.0179 31.5281 74.5362 31.3793 74.1436 31.1033C73.7907 30.8552 73.7402 30.1496 74.2981 30.1233C75.1937 30.0798 76.0985 30.6914 76.8356 31.132C77.6015 31.5895 78.3854 32.1255 79.261 32.3487C79.5905 32.4326 79.9109 32.6755 79.906 33.0548C79.9018 33.3893 79.5734 33.6322 79.2513 33.5677Z" fill="#5DD7FF"/>
<path d="M67.4602 28.0121C68.2519 28.2359 69.0562 28.4229 69.8682 28.5669C70.6458 28.705 70.781 29.9385 69.8581 29.8283C69.0063 29.7266 68.179 29.5271 67.3525 29.3038C66.6275 29.1076 65.5545 28.9542 65.0305 28.3782C64.8254 28.1528 64.8098 27.7043 65.1603 27.5913C65.8573 27.367 66.7868 27.8222 67.4602 28.0121Z" fill="#5DD7FF"/>
<path d="M58.791 24.7657C59.6139 25.0666 60.3873 25.7656 61.3177 25.7363C62.0434 25.7133 62.5255 26.8954 61.6397 26.9721C60.4325 27.0767 58.9915 26.4895 58.2517 25.5417C57.9195 25.1146 58.2573 24.57 58.791 24.7657Z" fill="#5DD7FF"/>
<path d="M54.0068 22.9759C54.4303 23.1222 54.8296 23.2644 55.2647 23.3793C55.616 23.4718 55.9585 23.7249 55.9531 24.1309C55.9486 24.5 55.5992 24.7365 55.2541 24.6793C54.5749 24.5671 53.858 24.4092 53.3568 23.9103C53.1696 23.7244 53.1075 23.3813 53.2657 23.1531C53.435 22.9107 53.7538 22.8886 54.0068 22.9759Z" fill="#5DD7FF"/>
</svg>
