<svg width="61" height="100" viewBox="0 0 61 100" fill="none" xmlns="http://www.w3.org/2000/svg">
<path d="M26.1539 56.3824C26.1869 55.2603 25.2537 54.3471 24.2188 54.1426C23.0438 53.9096 21.8618 54.5762 21.2114 55.5696C20.342 56.8991 20.4916 58.6013 21.3029 59.8832C21.5511 60.2763 22.2614 60.0224 22.0957 59.5408C22.07 59.4665 22.0451 59.3906 22.0204 59.3131C22.6485 59.6449 23.4471 59.6546 24.1185 59.3439C25.1767 58.854 26.1185 57.5766 26.1539 56.3824ZM22.0965 58.1874C22.0191 58.053 21.882 57.992 21.7381 57.9848C21.6729 57.2867 21.7613 56.5849 22.1493 55.9859C22.6693 55.1836 23.6468 54.6954 24.4976 55.2443C26.6355 56.624 23.2326 60.1672 22.0965 58.1874Z" fill="#5DD7FF"/>
<path d="M32.9686 54.6922C32.5297 54.4845 32.0446 54.5718 31.6614 54.8311C31.5086 54.807 31.3404 54.8569 31.2067 54.9348C30.6401 55.2654 30.6151 56.0718 31.0097 56.5337C31.5191 57.1296 32.4488 56.9429 32.9789 56.456C33.5245 55.9543 33.7531 55.0636 32.9686 54.6922ZM32.2434 55.8801C32.1137 55.996 31.9286 56.0943 31.8106 55.9355C31.8017 55.9228 31.7929 55.9092 31.7858 55.8957C31.9172 55.8029 32.037 55.7021 32.1649 55.6009C32.2178 55.5591 32.3011 55.4721 32.371 55.4789C32.5943 55.5 32.3302 55.8023 32.2434 55.8801Z" fill="#5DD7FF"/>
<path d="M28.9439 64.4295C27.7553 64.4968 26.9098 65.6091 26.8749 66.7589C26.6308 67.4134 26.9657 68.2405 27.7295 68.461C28.9294 68.8083 30.1637 67.7681 30.4894 66.6371C30.8132 65.51 30.1786 64.3595 28.9439 64.4295ZM29.5401 66.2334C29.4755 66.8322 29.0677 67.4366 28.4821 67.6188C28.2219 67.6992 27.9708 67.6538 27.8399 67.4012C27.8234 67.37 27.8036 67.3165 27.7867 67.2541C27.7971 67.2309 27.8052 67.2067 27.8117 67.1808C27.8377 67.0689 27.861 66.9479 27.8853 66.8244C28.1254 66.6585 28.139 66.4041 28.0277 66.232C28.1395 65.8842 28.3165 65.574 28.664 65.4168C29.2552 65.1496 29.5999 65.6828 29.5401 66.2334Z" fill="#5DD7FF"/>
<path d="M38.1484 66.9658C37.7839 66.744 37.3121 66.7777 36.9363 66.9713C36.5371 67.1776 36.3217 67.5187 36.1778 67.9133C36.117 67.9431 36.0608 67.987 36.0148 68.0478C35.5554 68.6514 35.8472 69.4247 36.4698 69.7571C37.1874 70.1401 38.016 69.7117 38.3971 69.0362C38.7409 68.4243 38.8145 67.3716 38.1484 66.9658ZM37.5412 68.6208C37.4601 68.8103 37.2797 69.0989 37.0429 69.0321C36.867 68.9831 36.6496 68.6728 36.7772 68.4987C36.8145 68.4481 36.8395 68.3985 36.854 68.3508C36.9785 68.1758 37.3467 67.6087 37.5345 67.71C37.7626 67.8338 37.6156 68.4474 37.5412 68.6208Z" fill="#5DD7FF"/>
<path d="M32.1467 75.7397C31.04 73.9087 28.6907 73.4882 26.8092 74.3775C25.8705 74.8219 25.1226 75.5717 24.6319 76.4643C24.4919 76.4055 24.3173 76.4189 24.1751 76.466C23.2694 76.7666 22.934 77.7435 23.0049 78.6265C23.0856 79.6432 23.7672 80.5446 24.5343 81.1421C26.3546 82.5594 28.8947 82.3812 30.7643 81.0614C31.6461 80.4383 32.4153 79.563 32.6423 78.4762C32.8353 77.5497 32.6254 76.5323 32.1467 75.7397ZM24.1991 77.4971C24.113 77.7838 24.0516 78.0774 24.0166 78.374C23.991 78.053 24.0343 77.7281 24.1991 77.4971ZM30.9652 79.6479C29.7978 80.9849 27.8352 81.6343 26.1877 80.9893C25.7795 80.8299 25.399 80.5954 25.07 80.3018C24.8827 78.6362 25.1587 76.7366 26.5592 75.6274C27.7679 74.6698 29.6382 74.4991 30.7664 75.626C31.8415 76.7009 32.0015 78.4613 30.9652 79.6479Z" fill="#5DD7FF"/>
<path d="M36.4862 73.9059C36.1769 73.8026 35.8251 73.8169 35.5325 73.9736C35.2516 74.1243 34.9442 74.4919 35.1609 74.8127C35.3145 75.0394 35.5912 75.0624 35.8171 74.9146C35.8736 74.8773 35.9847 74.7459 36.0128 74.7473C36.2407 74.753 36.1408 75.2023 36.0989 75.3126C36.0276 75.4993 35.8077 75.8859 35.575 75.8923C35.5241 75.8938 35.5874 75.9003 35.5081 75.8192C35.4839 75.7942 35.4763 75.775 35.4766 75.7594C35.4649 75.7654 35.4515 75.7721 35.4341 75.7794C35.4491 75.7728 35.4632 75.7661 35.4766 75.7594C35.4768 75.7069 35.5743 75.7077 35.4774 75.7586C35.9982 75.4929 35.5805 74.8224 35.054 75.0395C34.4347 75.2945 34.3631 76.1094 34.8494 76.5242C35.5318 77.1071 36.4985 76.4775 36.8918 75.8338C37.2872 75.1845 37.3115 74.182 36.4862 73.9059Z" fill="#5DD7FF"/>
<path d="M39.4939 51.4285C39.0349 51.1326 38.0888 51.1122 37.7728 51.6485C37.7856 51.5653 37.804 51.4833 37.8247 51.403C37.9746 50.8353 36.9751 50.8286 36.8305 51.3522C36.6019 52.1805 36.8145 53.0976 37.5463 53.5699C38.2076 53.9967 39.1409 53.9055 39.6629 53.2727C40.1234 52.7149 40.1226 51.8339 39.4939 51.4285ZM38.7025 52.9073C38.4536 53.0402 38.1238 52.8445 37.9725 52.6512C37.8673 52.5177 37.8054 52.3667 37.7738 52.2082C37.9106 52.3408 38.1572 52.3762 38.3315 52.2953C38.5166 52.2093 38.69 52.0077 38.8764 52.2085C39.0544 52.4015 38.9178 52.7924 38.7025 52.9073Z" fill="#5DD7FF"/>
<path d="M55.0145 89.8025C54.5814 87.6128 55.1458 85.3646 55.0856 83.1512C55.0218 80.8214 55.1444 78.4863 55.0348 76.1583C54.8118 71.4391 54.4245 66.7312 54.6516 61.9955C54.7627 59.6884 54.9706 57.3854 55.0834 55.0784C55.1976 52.7486 55.1296 50.4464 55.0036 48.1242C54.7747 43.8849 54.5814 39.5541 53.2626 35.511C52.15 32.0984 50.1316 28.4135 46.5633 27.2601C46.5201 27.2464 46.4781 27.2386 46.4365 27.2365C46.4231 27.0624 46.3866 26.8871 46.3645 26.7109C46.3154 26.3117 46.2753 25.9113 46.2416 25.5095C46.1748 24.7102 46.1371 23.9082 46.1226 23.1058C46.0937 21.5116 46.1949 19.9272 46.2823 18.3347C46.297 18.0623 46.1039 17.9143 45.8835 17.8884C45.8204 17.5318 45.6849 17.179 45.462 16.838C44.6089 15.5344 43.1085 14.7822 41.7012 14.2367C41.721 12.4266 41.8613 10.6028 41.4447 8.85651C42.1968 8.71119 42.9404 8.51227 43.6759 8.29003C44.2707 8.1106 44.8688 7.91743 45.427 7.63554C45.8591 7.41763 46.39 7.12454 46.6168 6.66314C47.0234 5.83613 46.2627 4.65085 45.8499 3.99276C45.3136 3.13866 44.664 2.12995 43.5578 2.10116C42.8245 2.08218 42.1068 2.35113 41.4225 2.59885C40.6528 2.87745 39.8704 3.1055 39.0721 3.27139C37.4226 3.6136 35.6884 3.72003 34.0127 3.77869C33.1761 3.80767 32.3362 3.8005 31.5039 3.71517C30.6525 3.62806 29.8216 3.42418 28.995 3.21479C27.357 2.79924 25.7307 2.3262 24.0406 2.15344C20.9758 1.84018 17.9448 2.4244 15.4128 4.33124C13.3895 5.85552 10.9209 6.8845 9.29428 8.91225C9.05141 9.21496 8.83769 9.53795 8.66497 9.88346C8.58556 9.92036 8.51158 9.97226 8.45314 10.0438C8.32241 10.2024 8.30593 10.4282 8.40835 10.5896C8.41373 10.8729 8.719 11.0225 8.9865 10.9787C9.7393 11.4551 10.4148 12.07 11.1758 12.5313C12.031 13.0489 13.2518 13.5776 14.0299 12.6C14.3892 12.1486 14.5293 11.5674 14.8668 11.1075C15.331 10.4749 16.0178 9.97038 16.647 9.52355C17.9769 8.5803 19.4747 7.92367 21.0501 7.57445C23.6979 6.98808 26.2969 7.34984 28.8913 7.8308C28.731 9.62981 28.7839 11.4559 28.7952 13.2554C28.7977 13.6793 28.8002 14.104 28.8003 14.5278C27.6998 14.7414 26.6049 15.1353 25.6321 15.6974C24.6635 16.2572 23.6822 17.1182 23.4605 18.2678C23.1663 18.3037 22.9034 18.5326 23.066 18.8517C23.4494 19.6056 23.4309 20.5544 23.3976 21.388C23.3588 22.3661 23.2322 23.3381 23.1711 24.3142C23.1417 24.7856 23.1261 25.2527 23.075 25.7238C23.0217 26.2161 22.9628 26.7326 23.0232 27.2273C20.2528 28.0062 18.5515 31.0209 17.3979 33.4995C15.7755 36.9837 14.5317 40.6235 13.8969 44.4159C13.4951 46.8138 13.1685 49.2499 13.0256 51.674C12.8792 54.1633 12.9106 56.6559 12.8595 59.1468C12.757 64.0966 12.116 69.0299 12.3357 73.9821C12.3978 75.3882 12.5543 76.7852 12.6421 78.1893C12.7276 79.5688 12.7801 80.9507 12.8221 82.3329C12.9087 85.1923 12.951 88.0544 13.1488 90.9063C13.1667 91.169 13.3722 91.2873 13.6021 91.2907C14.0354 92.466 15.1592 92.899 16.2612 93.2229C16.8834 93.4056 17.4738 93.6088 18.0476 93.9176C18.7461 94.2931 19.4066 94.7346 20.1061 95.1077C21.4261 95.8116 22.9216 96.2723 24.3536 96.6881C25.8319 97.1177 27.3436 97.4557 28.884 97.5767C34.7376 98.0364 40.8408 97.8369 46.4665 95.8415C48.0996 95.262 49.7358 94.5739 51.0768 93.4251C52.1774 92.4817 53.0869 91.3103 54.2169 90.4061C54.5996 90.4884 55.1024 90.2446 55.0145 89.8025ZM45.0529 20.6967C45.0091 21.5199 44.998 22.3447 45.002 23.1614C45.0058 23.9665 45.0322 24.7712 45.0876 25.5732C45.1155 25.9763 45.1499 26.3789 45.1924 26.7811C45.2102 26.9489 45.218 27.1227 45.2414 27.2908C44.113 28.9125 42.2717 29.987 40.4303 30.5282C38.1113 31.2105 35.5231 31.1585 33.169 30.8402C30.7124 30.5077 28.3978 29.7128 26.1114 28.7925C25.367 28.4932 24.3582 28.1045 24.1801 27.2063C24.0754 26.6774 24.1624 26.1247 24.2159 25.5916C24.26 25.1537 24.2639 24.717 24.2912 24.2791C24.3552 23.2589 24.4695 22.2421 24.4784 21.22C24.4788 21.2012 24.4785 21.1816 24.479 21.1619C25.6597 22.3234 27.5827 22.9791 28.97 23.3419C31.5571 24.0172 34.3289 24.2511 37.0043 24.0751C39.7271 23.8959 42.7616 23.2349 44.7161 21.0993C44.8352 20.9704 44.9476 20.8353 45.0529 20.6967ZM50.5419 41.8872C50.5892 42.5195 50.6664 43.1492 50.7377 43.7827C50.872 44.9806 50.9425 46.1859 50.9656 47.3929C51.0105 49.7413 50.8717 52.0912 50.7619 54.4392C50.6504 56.8125 50.5816 59.1814 50.6522 61.5541C50.7253 63.998 50.8917 66.4369 50.9535 68.8819C51.0101 71.1009 50.9507 73.328 50.8926 75.5485C50.837 77.6948 50.7222 79.8495 50.3506 81.9716C50.024 83.8367 49.5476 85.9192 48.4022 87.4705C47.4812 88.7183 46.1937 89.6154 44.8232 90.2744C43.3873 90.9644 41.8605 91.4281 40.3206 91.7865C38.5396 92.2014 36.7603 92.5297 34.9334 92.4867C32.7678 92.4355 30.6308 92.0472 28.5171 91.6216C26.7642 91.2689 24.969 91.0001 23.2715 90.4277C20.3661 89.4476 17.2416 87.5328 16.2749 84.3885C15.721 82.5854 16.0089 80.5891 16.0507 78.7252C16.0787 77.4987 16.1393 76.2739 16.2384 75.0502C16.334 73.868 16.4845 72.691 16.5425 71.5069C16.659 69.1192 16.5259 66.7343 16.4568 64.3511C16.3895 62.0023 16.4891 59.7004 16.8121 57.3656C17.1294 55.0697 17.5703 52.7842 17.777 50.4754C17.886 49.2588 17.9047 48.0383 17.9682 46.8194C18.0275 45.6771 18.1815 44.5436 18.2567 43.403C18.2839 42.9896 18.3007 42.5765 18.2966 42.1656C19.4047 43.2359 21.0957 43.7367 22.505 44.1669C25.2775 45.0119 28.1361 45.5463 31.0391 45.7C32.5757 45.7816 34.1199 45.7589 35.6578 45.6376C37.1651 45.5189 38.6492 45.1913 40.1331 44.8931C41.4755 44.6229 42.8185 44.4419 44.1747 44.2805C45.4354 44.1305 46.6989 43.939 47.9047 43.5033C48.685 43.2219 49.7947 42.6521 50.5419 41.8872ZM50.1858 40.3788C50.0799 41.171 49.147 41.7842 48.5275 42.1325C46.5008 43.2705 44.0701 43.2272 41.8515 43.5661C40.4996 43.7728 39.1653 44.0884 37.8204 44.3355C36.4357 44.5905 35.0514 44.7162 33.6495 44.7445C30.8458 44.8002 28.0462 44.5143 25.3231 43.882C23.5524 43.4712 21.632 43.0087 20.0348 42.1076C19.424 41.7635 18.7164 41.2828 18.4967 40.5641C18.285 39.8712 18.6455 39.2676 19.1823 38.8488C19.8534 38.3256 20.6687 38.0117 21.4623 37.7482C22.3468 37.4549 23.2571 37.2333 24.1678 37.0526C25.5279 36.7834 26.9014 36.6015 28.2609 36.3281C29.362 36.1063 30.483 35.8512 31.6069 35.8677C32.1364 35.8756 32.6451 35.943 33.1362 36.1445C33.144 36.1473 33.1511 36.1493 33.1589 36.1522C33.16 36.1964 33.1611 36.2406 33.1622 36.2849C33.1816 37.0499 33.2225 37.8152 33.2354 38.5808C33.2435 39.0663 33.2195 39.5526 33.2493 40.0368C33.2774 40.4996 33.3426 41.0068 33.5915 41.403C33.8593 41.8296 34.3322 42.0261 34.8131 42.0904C35.6859 42.2064 36.8109 41.9507 37.5434 41.3716C37.7544 41.2857 37.9148 41.1024 37.8738 40.8492C37.7406 40.0228 37.702 39.1848 37.6915 38.3465C37.6819 37.5681 37.6617 36.7784 37.7314 36.0007C37.7371 35.9396 37.7427 35.8786 37.7491 35.8175C40.2615 35.9606 42.7578 36.2264 45.1483 37.0374C46.586 37.5254 48.1946 38.0712 49.395 39.0316C49.8094 39.3617 50.2572 39.8432 50.1858 40.3788ZM36.8166 32.0811C37.1478 33.4435 36.7095 34.8628 36.6198 36.2359C36.5229 37.7182 36.5228 39.2889 36.7263 40.7643C36.1554 41.0685 35.4097 41.3229 34.8243 41.1052C34.1841 40.8676 34.3 39.6439 34.2987 39.0909C34.2932 36.7166 34.1192 34.3575 34.2028 31.9803C35.0654 32.0574 35.9405 32.0884 36.8124 32.0604C36.8144 32.067 36.8147 32.0744 36.8166 32.0811ZM22.889 6.30429C19.8285 6.54671 16.7953 7.77219 14.5301 9.95017C14.0729 10.3901 13.7579 10.8381 13.4799 11.4065C13.3686 11.6349 13.2644 11.9029 13.0915 12.0929C12.9929 12.2017 13.0467 12.1888 12.9003 12.1586C11.9645 11.9649 11.0922 11.1847 10.3298 10.6227C10.0973 10.4514 9.86533 10.2729 9.62246 10.1134C10.0843 9.28586 10.7945 8.62141 11.5388 8.0454C12.5418 7.26892 13.6338 6.62618 14.6999 5.94941C15.7652 5.27342 16.7366 4.44054 17.8816 3.90682C19.1431 3.31926 20.5107 3.05609 21.8842 3.02146C23.4689 2.98112 25.0068 3.21247 26.5354 3.59714C28.0846 3.98694 29.6208 4.48735 31.2145 4.6757C32.8352 4.86705 34.4826 4.76361 36.1082 4.62634C37.7249 4.48945 39.2963 4.29791 40.8623 3.82306C41.5202 3.6239 42.1605 3.33715 42.8283 3.18103C43.3503 3.05929 43.6843 3.07695 43.9984 3.40937C44.6175 4.06396 45.1806 4.93741 45.4675 5.8043C45.5157 5.94907 45.5584 6.18847 45.561 6.27041C45.5614 6.27778 45.5564 6.30372 45.5527 6.32398C45.549 6.33197 45.5452 6.34078 45.545 6.34404C45.5201 6.36896 45.4541 6.43353 45.42 6.46372C45.0417 6.78905 44.5138 6.96367 44.0572 7.12798C43.0274 7.49653 41.933 7.78657 40.8577 7.95731C37.8457 8.43533 34.7531 7.89816 31.805 7.347C28.8632 6.79617 25.9125 6.06491 22.889 6.30429ZM30.3493 8.1072C33.5325 8.71684 36.7794 9.34605 40.0476 9.05602C40.1436 9.04777 40.2398 9.03544 40.3359 9.02474C40.8568 11.8398 40.3213 14.7586 40.8182 17.5725C39.5656 18.0492 38.3565 18.6795 37.0409 18.9445C35.5018 19.2546 33.9325 19.1223 32.4383 18.714C31.9011 18.5675 31.3459 18.4372 30.8249 18.24C30.5308 18.1286 30.2657 17.9901 30.1077 17.7097C29.8601 17.2694 29.8974 16.6921 29.9024 16.2015C29.9121 15.3119 29.905 14.4223 29.8939 13.5325C29.8715 11.694 29.8809 9.86041 29.9106 8.0229C30.0563 8.0507 30.2028 8.07936 30.3493 8.1072ZM28.7993 15.4685C28.7972 15.6942 28.7944 15.9198 28.7908 16.1446C28.779 16.7862 28.7504 17.4392 29.0045 18.0369C29.412 18.9958 30.5167 19.2306 31.4092 19.4843C33.0497 19.949 34.6386 20.2099 36.3553 20.0405C38.2382 19.8548 39.9118 18.9281 41.6746 18.2897C41.8644 18.2208 42.0669 17.9708 42.013 17.7538C41.8188 16.966 41.7386 16.1635 41.7117 15.3548C42.6545 15.7582 43.5835 16.2868 44.2439 17.0711C45.0865 18.0707 44.8639 19.2572 44.0761 20.249C42.5398 22.184 39.9331 22.815 37.6341 23.0467C35.2085 23.2909 32.707 23.1042 30.3314 22.6261C29.2575 22.41 28.1812 22.1103 27.1851 21.6502C26.2101 21.1993 25.1417 20.572 24.6908 19.53C23.6903 17.2143 26.8842 15.9356 28.7993 15.4685ZM50.9419 92.2231C49.8709 93.2661 48.6426 93.9813 47.2723 94.5282C44.6016 95.5953 41.8382 96.2323 38.9999 96.5325C36.0979 96.8394 33.1882 96.8473 30.2844 96.6951C28.8772 96.6217 27.5092 96.475 26.139 96.145C24.7088 95.8004 23.3026 95.3458 21.9155 94.8579C21.124 94.5791 20.4072 94.2141 19.6892 93.7803C18.9744 93.3483 18.2563 92.917 17.4676 92.6326C16.357 92.2322 14.9792 92.1504 14.5105 90.867C14.4642 90.7411 14.3728 90.6686 14.2633 90.6385C13.9327 85.7397 14.0562 80.8105 13.62 75.9194C13.1895 71.0883 13.6834 66.2834 13.9163 61.4465C14.0343 58.9991 14.004 56.5515 14.0611 54.1035C14.1173 51.7053 14.329 49.3322 14.6287 46.9504C14.9107 44.7026 15.2656 42.457 15.882 40.2711C16.357 38.5869 17.0179 36.9531 17.6834 35.3358C18.3489 33.7177 19.0847 32.0916 20.1003 30.6622C20.9071 29.5273 21.9331 28.4387 23.2617 28.0132C23.6234 28.7055 24.3263 29.1492 25.0379 29.4714C27.3715 30.5265 29.8194 31.3323 32.3515 31.7471C32.6371 31.7934 32.9254 31.8357 33.2156 31.8733C33.1413 32.9649 33.1253 34.0595 33.1382 35.1523C32.1344 34.8472 31.0612 34.9003 30.0141 35.0446C28.6846 35.2279 27.3696 35.5444 26.044 35.7647C23.8681 36.1254 21.5369 36.4938 19.5308 37.515C18.7409 37.9169 17.8936 38.4738 17.5213 39.3287C17.4061 39.5929 17.3506 39.8633 17.3441 40.1313C17.212 40.2138 17.1251 40.3518 17.1548 40.5341C17.3349 41.6467 17.2661 42.7992 17.1529 43.9208C17.0355 45.0822 16.9019 46.233 16.8444 47.3983C16.7836 48.6117 16.7373 49.825 16.5951 51.0343C16.4579 52.2038 16.273 53.3675 16.0873 54.5305C15.7047 56.9294 15.3107 59.3424 15.2717 61.7717C15.2326 64.1781 15.3975 66.5784 15.4211 68.9823C15.4455 71.423 15.1324 73.8262 14.9831 76.2606C14.911 77.4284 14.8965 78.5967 14.8476 79.7657C14.8051 80.7869 14.7567 81.8136 14.8186 82.8336C15.0369 86.4441 17.6584 89.0681 20.7003 90.5574C22.1645 91.2742 23.7062 91.7528 25.3047 92.0625C27.4559 92.4785 29.5925 92.9708 31.7649 93.2709C33.9381 93.572 36.149 93.654 38.326 93.2402C39.8981 92.9415 41.4617 92.5885 42.9891 92.0912C44.56 91.5798 46.1102 90.8947 47.4511 89.8939C48.8189 88.8733 49.8346 87.5501 50.4534 85.9477C52.0523 81.8112 52.0359 77.2897 52.1126 72.9391C52.1543 70.5533 52.1263 68.1803 52.0178 65.7992C51.9057 63.3516 51.7624 60.9024 51.7998 58.4485C51.8743 53.5954 52.4358 48.726 51.9149 43.8904C51.787 42.7043 51.5849 41.5242 51.6384 40.3236C51.6493 40.073 51.5001 39.9149 51.3066 39.8471C51.2762 39.6991 51.2268 39.5494 51.1558 39.3969C50.8327 38.7024 50.1575 38.2054 49.5301 37.8203C48.7895 37.3658 47.9831 37.0208 47.1784 36.6996C44.7766 35.7433 42.3145 35.1896 39.7326 34.9702C39.1122 34.9177 38.4901 34.879 37.8676 34.8467C37.9901 33.8884 38.0915 32.9094 37.8314 32.0013C38.6339 31.9314 39.4279 31.807 40.2013 31.6177C42.3619 31.0878 44.5783 29.9185 45.9463 28.0683C45.9965 28.0602 46.0448 28.0454 46.0918 28.0257C46.1196 28.0418 46.1507 28.0573 46.1851 28.0705C49.2045 29.2077 50.972 32.3433 52.0077 35.2792C53.3731 39.1504 53.5935 43.3868 53.8139 47.476C53.9354 49.7334 54.057 51.9753 53.9687 54.241C53.8786 56.5442 53.6694 58.843 53.5377 61.145C53.2738 65.7586 53.5456 70.3453 53.7918 74.9437C53.9309 77.5416 53.8468 80.133 53.8927 82.7335C53.9144 83.9494 53.8425 85.1377 53.7448 86.3517C53.6587 87.428 53.603 88.5165 53.7516 89.5834C52.7178 90.3403 51.8605 91.3287 50.9419 92.2231Z" fill="#292929"/>
<path d="M10.1524 20.7565C9.76255 18.8315 9.53592 16.9384 9.55868 14.9633C9.56468 14.4222 8.85547 14.3037 8.56089 14.6268C8.29443 14.5202 7.89383 14.5929 7.79954 14.8797C6.72579 18.1571 5.9449 21.5383 5.54189 24.9633C5.33964 26.681 5.24075 28.4106 5.28357 30.1367C5.31607 31.4376 5.38661 32.7886 5.75167 34.0362C6.09981 35.2266 6.82323 36.4761 8.19776 36.4487C9.48952 36.4228 10.6475 35.38 11.3283 34.3178C12.9208 31.8344 11.8501 28.5805 11.223 25.9933C10.805 24.2669 10.5056 22.5009 10.1524 20.7565ZM10.882 32.247C10.7086 33.4272 10.0563 34.5154 9.04536 35.1451C8.64598 35.3935 8.16388 35.5454 7.75715 35.2504C7.35115 34.9562 7.12338 34.4285 6.96646 33.9599C6.59872 32.8625 6.52403 31.6476 6.47017 30.4909C6.39607 28.8906 6.46473 27.2829 6.6217 25.6861C6.92522 22.6032 7.57103 19.5613 8.37109 16.5673C8.43103 19.2098 9.2149 21.831 9.66939 24.3963C9.89979 25.6975 10.2509 26.9639 10.5362 28.2516C10.822 29.5441 11.0791 30.912 10.882 32.247Z" fill="#5DD7FF"/>
</svg>
