<svg width="104" height="95" viewBox="0 0 104 95" fill="none" xmlns="http://www.w3.org/2000/svg">
<path d="M9.54236 54.7993C8.28866 49.2696 11.2796 40.6981 12.793 35.4407C14.5124 29.4604 17.3959 24.1654 21.1301 19.3398C27.7568 10.7965 37.2132 5.37005 47.5651 3.8022C59.3588 2.01843 70.7316 6.91911 79.6597 14.7114C83.6357 18.185 86.555 22.5788 88.5878 27.5358C89.8684 30.6527 91.14 33.7602 92.2773 36.9428C94.2115 42.3317 94.6235 47.4765 93.7369 53.2033C93.5668 54.3111 94.6145 57.7285 94.9279 55.203C95.6891 49.0537 95.7966 43.5052 94.131 37.4967C92.2235 30.6057 89.1699 22.9825 85.1581 17.1429C77.0807 5.39821 62.4931 -0.835607 48.9711 0.0938328C36.3804 0.957555 25.4374 9.00331 18.2018 19.4431C14.3512 25.0009 12.2288 31.3756 10.599 37.9662C9.26475 43.3644 7.16929 50.4338 8.82596 55.9916C9.26475 57.4374 9.68564 55.4377 9.54236 54.7993Z" fill="#292929"/>
<path d="M12.1302 54.1517C13.5182 49.1196 14.2346 44.0311 16.545 39.3182C18.927 34.4551 22.321 30.3994 26.3507 26.982C33.2639 21.1237 42.5592 18.1946 51.2813 17.2558C70.8927 15.134 90.0653 32.615 90.8891 53.3349C91.0056 56.2359 92.4115 55.0717 92.2234 52.7716C90.513 32.5305 75.5403 13.8572 55.2573 13.5004C45.0308 13.3221 34.1147 17.2558 25.9836 23.7149C16.9032 30.9345 13.4197 41.4212 11.4317 52.7247C11.3511 53.1565 11.8078 55.3252 12.1302 54.1517Z" fill="#292929"/>
<path d="M82.955 54.1984C87.1817 55.6629 91.7935 55.5127 95.8949 57.4749C101.16 60.0003 101.734 69.0412 101.241 74.0827C100.632 80.2415 97.0322 84.9638 93.2353 89.4044C89.9309 93.2724 83.0714 91.3572 78.7551 91.3478C77.5462 91.3478 77.5999 94.6243 78.8357 94.6337C84.943 94.6525 90.7547 96.4738 95.268 91.2633C99.4769 86.4096 102.038 81.5089 102.808 74.984C103.39 70.0082 102.692 64.0748 100.292 59.6624C96.7456 53.1469 89.6801 52.0391 82.9191 52.6118C82.5072 52.6399 82.5878 54.0669 82.955 54.1984Z" fill="#292929"/>
<path d="M82.7849 52.4802C81.5313 53.1374 81.5581 55.2592 81.4328 56.5454C81.0119 60.9391 80.0626 65.2295 79.6865 69.6326C79.0418 77.2371 78.0299 84.5318 77.7254 92.1363C77.6627 93.7887 79.2836 94.5397 79.4537 92.5588C79.9731 86.7756 79.9373 81.1802 80.6268 75.4252C81.1551 71.0315 81.3074 66.6753 82.0327 62.3004C82.4984 59.4839 82.2387 56.5923 83.0626 53.8415C83.1252 53.6538 83.1879 52.2643 82.7849 52.4802Z" fill="#292929"/>
<path d="M89.4293 55.2782C87.8801 67.4173 85.1757 79.7441 84.9877 92.0052C84.9608 93.5542 86.4921 94.2114 86.7249 92.3901C87.4682 86.4849 87.8891 80.5139 88.292 74.5711C88.7219 68.3091 90.6382 61.7937 89.9756 55.4848C89.9218 54.9778 89.5278 54.4896 89.4293 55.2782Z" fill="#292929"/>
<path d="M20.0375 52.6025C13.2586 52.0298 6.21105 53.1282 2.63802 59.6625C0.22018 64.075 -0.379803 70.0365 0.211225 75.0029C0.999262 81.6874 3.76635 86.1656 7.80504 91.2728C12.0228 96.6053 18.3629 94.6338 24.2464 94.615C25.4553 94.615 25.4015 91.3291 24.1658 91.3291C20.1002 91.3385 14.2616 92.9439 10.7064 90.3434C6.3812 87.1983 2.88876 80.6453 1.91267 75.4066C0.918667 70.0647 1.84998 64.6476 4.58125 60.0568C7.61698 54.9495 15.2824 55.8696 20.0733 54.1985C20.4405 54.067 20.4405 52.64 20.0375 52.6025Z" fill="#292929"/>
<path d="M19.9479 53.851C20.8075 56.5642 20.5299 59.5121 20.9956 62.3192C21.5956 65.99 21.9896 69.6327 22.2135 73.3598C22.5896 79.6406 22.9567 85.865 23.5209 92.1364C23.7089 94.2018 25.3567 94.2394 25.2761 92.0895C25.1507 88.8787 24.488 86.034 24.8641 82.7763C25.3387 78.6736 23.6194 74.1203 23.3239 70.0364C23.0105 65.6145 21.8194 61.3522 21.5687 56.9304C21.4881 55.5691 21.4971 53.1938 20.1807 52.4709C19.7598 52.255 19.8941 53.682 19.9479 53.851Z" fill="#292929"/>
<path d="M12.9988 55.5035C12.372 61.1928 13.8585 67.5487 14.5749 73.2098C15.3898 79.622 15.4883 86.0248 16.2853 92.4276C16.5181 94.2865 18.0225 93.451 18.0046 91.9488C17.8166 79.7722 15.0495 67.5393 13.5809 55.4754C13.4734 54.668 13.0884 54.7149 12.9988 55.5035Z" fill="#292929"/>
<g clip-path="url(#clip0)">
<path d="M46.8879 64.1521C47.6709 60.8741 47.0388 58.9708 41.9209 59.2406C36.5176 59.5287 35.1474 57.3264 36.4646 52.4076C36.9213 50.7049 38.4791 50.5663 40.1755 50.5262C46.1498 50.384 46.1457 50.3439 45.8235 45.0533C45.5177 39.9814 45.7868 39.7335 51.5164 40.1236C52.8662 40.2148 54.2283 40.3205 55.5496 40.5684C57.5152 40.9367 58.4694 41.8482 58.0657 43.8901C57.6905 45.7861 57.8128 47.766 57.8047 49.7058C57.8006 50.8835 58.7753 51.1132 59.8518 51.0586C61.0508 50.9966 62.2701 50.7158 63.4446 50.8325C65.0187 50.9856 67.0495 50.8106 67.5796 52.6447C68.2525 54.9709 68.2158 57.5634 66.6702 59.4229C65.5284 60.7976 62.9633 59.8897 61.0508 59.9443C59.493 59.9881 59.0526 60.5204 59.0974 61.7419C59.1219 62.3472 59.1015 62.9561 59.077 63.5614C58.763 71.2913 58.5673 71.4226 49.8893 70.7407C47.9686 70.5912 47.0021 69.8802 47.0551 68.09C47.1 66.8831 46.9613 65.6725 46.8879 64.1521ZM48.5966 64.5422C48.984 65.5522 47.6016 67.5321 49.1797 68.7864C51.6347 70.7371 56.9524 68.8192 57.3153 65.9715C57.5192 64.3708 57.6742 62.741 57.5804 61.1367C57.454 59.0401 57.1604 57.1878 60.7001 58.5077C61.6258 58.8541 62.9103 58.4567 64.0277 58.3728C67.2167 58.1322 66.1483 55.9554 66.1972 54.3839C66.2584 52.5061 64.7617 51.992 63.0164 52.0357C56.4426 52.2035 56.4386 52.2253 56.3121 46.1544C56.2999 45.5528 56.2999 44.9329 56.4345 44.3459C56.8586 42.4973 55.8269 41.8008 53.9551 41.5164C47.7198 40.5721 46.7493 41.356 47.5322 46.8873C47.626 47.5546 47.8095 48.2109 47.989 48.8635C48.7148 51.507 48.0828 52.878 44.6165 51.9993C43.4869 51.7149 42.2104 51.6857 41.0319 51.8024C38.9888 52.0066 37.9 52.8853 37.6676 55.0001C37.2516 58.7958 40.3427 57.5597 42.3532 58.0082C44.2617 58.4348 46.8471 56.7867 47.9359 58.4056C48.9106 59.8459 48.4049 62.0774 48.5966 64.5422Z" fill="#97DFF8"/>
</g>
<defs>
<clipPath id="clip0">
<rect width="32" height="31" fill="white" transform="translate(36 40)"/>
</clipPath>
</defs>
</svg>
