<svg width="15" height="15" viewBox="0 0 15 15" fill="none" xmlns="http://www.w3.org/2000/svg">
<circle cx="7.5" cy="7.5" r="7.5" fill="#E0F7FF"/>
<path d="M6.50036 9.33008L6.44679 7.28691H6.95568C7.43778 7.28691 7.87971 7.24513 8.28147 7.16156C8.69215 7.07799 9.01802 6.91504 9.25907 6.6727C9.50905 6.43036 9.63404 6.07103 9.63404 5.59471C9.63404 5.1351 9.48226 4.77577 9.17872 4.51671C8.87517 4.2493 8.47788 4.1156 7.98685 4.1156C7.47796 4.1156 7.07621 4.24513 6.78159 4.50418C6.48697 4.76323 6.33966 5.11421 6.33966 5.5571H5.00048C4.99155 5.05571 5.10761 4.61281 5.34866 4.22841C5.59864 3.84401 5.94683 3.54318 6.39322 3.3259C6.84855 3.10863 7.37975 3 7.98685 3C8.57609 3 9.09837 3.10446 9.55369 3.31337C10.009 3.52228 10.3617 3.82312 10.6116 4.21588C10.8705 4.60028 11 5.06407 11 5.60724C11 6.20056 10.8616 6.68942 10.5849 7.07382C10.3081 7.44986 9.92866 7.72981 9.44655 7.91365C8.96445 8.08914 8.41092 8.17688 7.78597 8.17688L7.7458 9.33008H6.50036ZM7.12977 12C6.85301 12 6.62981 11.9206 6.46018 11.7618C6.29055 11.5947 6.20574 11.3983 6.20574 11.1727C6.20574 10.9387 6.29055 10.7423 6.46018 10.5836C6.62981 10.4164 6.85301 10.3329 7.12977 10.3329C7.38868 10.3329 7.60295 10.4164 7.77258 10.5836C7.95114 10.7423 8.04041 10.9387 8.04041 11.1727C8.04041 11.3983 7.95114 11.5947 7.77258 11.7618C7.60295 11.9206 7.38868 12 7.12977 12Z" fill="#0CB9F2"/>
</svg>
