<svg width="22" height="18" viewBox="0 0 22 18" fill="none" xmlns="http://www.w3.org/2000/svg">
<path d="M19.7447 3.11484L21.9447 2.67484C21.9447 2.67484 20.1297 4.70984 19.7447 4.87484C19.6897 5.86484 19.7447 6.19484 19.7447 6.19484C15.5647 24.1798 0.0546875 16.2048 0.0546875 16.2048C5.71969 16.3148 6.15969 14.0048 6.15969 14.0048C2.85969 13.5098 2.19969 11.3648 2.19969 11.3648C3.35469 11.9148 3.95969 10.9248 3.95969 10.9248C0.439687 9.98984 0.879688 6.57984 0.879688 6.57984C1.48469 7.12984 2.47469 7.34984 3.02469 7.40484C2.69469 6.96484 -0.605312 2.94984 1.37469 0.914844C1.37469 0.914844 3.84969 5.31484 10.2297 5.69984L10.6697 5.58984C10.5597 5.25984 10.5597 4.98484 10.5597 4.65484C10.5597 2.12484 12.5947 0.0898438 15.1247 0.0898438C18.2047 0.0898438 18.8647 1.84984 18.8647 1.84984L21.0647 0.529844C21.0647 0.474844 20.8447 2.67484 19.7447 3.11484Z" fill="#292929"/>
</svg>
