<svg width="60" height="20" viewBox="0 0 60 20" fill="none" xmlns="http://www.w3.org/2000/svg">
<path d="M26.0001 19.4949H21.1396L24.1797 0.347168H29.0398L26.0001 19.4949Z" fill="#00579F"/>
<path d="M43.6194 0.815194C42.6608 0.427767 41.1402 0 39.26 0C34.4602 0 31.0802 2.60721 31.0595 6.33474C31.0196 9.0849 33.4795 10.6124 35.3192 11.5294C37.1997 12.4664 37.8389 13.078 37.8389 13.9132C37.8198 15.196 36.3194 15.7873 34.92 15.7873C32.9795 15.7873 31.9398 15.4824 30.3597 14.7688L29.7197 14.4628L29.0396 18.7611C30.1795 19.2901 32.2797 19.7596 34.4602 19.7801C39.5601 19.7801 42.8803 17.2133 42.9196 13.241C42.939 11.0613 41.6401 9.3911 38.8398 8.02631C37.1399 7.1502 36.0988 6.55945 36.0988 5.66303C36.1187 4.84811 36.9793 4.01343 38.8983 4.01343C40.4784 3.97254 41.6393 4.35943 42.5188 4.74658L42.9584 4.94991L43.6194 0.815194Z" fill="#00579F"/>
<path d="M50.0794 12.7115C50.4797 11.6115 52.0199 7.35415 52.0199 7.35415C51.9997 7.39503 52.4194 6.23383 52.6594 5.52098L52.9991 7.17086C52.9991 7.17086 53.9195 11.7542 54.1193 12.7115C53.3597 12.7115 51.0394 12.7115 50.0794 12.7115ZM56.079 0.347168H52.3194C51.1601 0.347168 50.2793 0.693172 49.7791 1.93586L42.5596 19.4946H47.6594C47.6594 19.4946 48.4991 17.1313 48.6795 16.6223C49.239 16.6223 54.2001 16.6223 54.9199 16.6223C55.0594 17.2946 55.4998 19.4946 55.4998 19.4946H60.0001L56.079 0.347168Z" fill="#00579F"/>
<path d="M17.0795 0.347168L12.3196 13.4041L11.7994 10.756C10.9194 7.70042 8.1595 4.38063 5.07959 2.72994L9.43952 19.4746H14.5793L22.219 0.347168H17.0795Z" fill="#00579F"/>
<path d="M7.89991 0.347168H0.0800008L0 0.734053C6.10002 2.32302 10.1399 6.15315 11.7998 10.7568L10.0998 1.95671C9.81994 0.733782 8.95986 0.387508 7.89991 0.347168Z" fill="#FAA61A"/>
</svg>
