<svg width="11" height="22" viewBox="0 0 11 22" fill="none" xmlns="http://www.w3.org/2000/svg">
<path d="M5.3565 0.294922C6.76971 0.294922 7.91895 1.44416 7.91895 2.85737C7.91895 4.27058 6.76971 5.42005 5.3565 5.42005C3.94376 5.42005 2.79452 4.27034 2.79452 2.85737C2.79452 1.44439 3.94376 0.294922 5.3565 0.294922ZM5.3565 4.24724C6.12274 4.24724 6.7459 3.62361 6.7459 2.85737C6.7459 2.09113 6.12274 1.46797 5.3565 1.46797C4.59073 1.46797 3.96756 2.09113 3.96756 2.85737C3.96756 3.62361 4.59073 4.24724 5.3565 4.24724Z" fill="#5DD7FF"/>
<path d="M1.15513 13.3959C0.83141 13.3959 0.568842 13.1333 0.568842 12.8091V9.80997C0.568842 6.23248 6.22144 6.19141 6.46207 6.19141C6.78626 6.19141 7.04883 6.45398 7.04883 6.7777V13.2367C7.04883 13.5604 6.78626 13.823 6.46207 13.823C6.13835 13.823 5.87578 13.5604 5.87578 13.2367V7.39643C4.61078 7.50122 1.74165 7.94584 1.74165 9.8102V12.8093C1.74189 13.1333 1.47932 13.3959 1.15513 13.3959Z" fill="#5DD7FF"/>
<path d="M9.23574 21.4011C8.91202 21.4011 8.64945 21.1385 8.64945 20.8143V20.038C8.64945 16.5016 6.58391 15.713 6.35611 15.6369C3.79973 15.151 3.2823 13.4397 3.36562 12.5649V9.20101C3.36562 8.87683 3.62819 8.61426 3.95191 8.61426C4.27609 8.61426 4.53866 8.87683 4.53866 9.20101V12.5957C4.53866 12.6126 4.5368 12.6392 4.5354 12.6564C4.52209 12.8028 4.47028 14.0965 6.60304 14.4898C6.62078 14.493 6.63805 14.497 6.65556 14.5021C6.78463 14.5385 9.82227 15.4443 9.82227 20.038V20.8143C9.8225 21.1385 9.55993 21.4011 9.23574 21.4011Z" fill="#5DD7FF"/>
<path d="M0.763103 20.9182C0.704288 20.9364 0.64454 20.9455 0.586191 20.9455C0.337391 20.9455 0.106096 20.7854 0.0272079 20.5357C-0.0703511 20.2267 0.100494 19.8976 0.409743 19.8C2.78711 19.0483 3.87473 15.8734 3.8892 15.83C3.99096 15.5228 4.32215 15.3559 4.62953 15.4575C4.93715 15.5592 5.10402 15.8909 5.0025 16.1983C4.95138 16.3525 3.72046 19.9835 0.763103 20.9182Z" fill="#5DD7FF"/>
<path d="M8.40931 8.06148C8.41421 8.07641 8.90341 9.58321 10.4137 9.58321C10.7374 9.58321 11 9.84578 11 10.1695C11 10.4937 10.7374 10.7563 10.4137 10.7563C8.52368 10.7563 7.54412 9.22332 7.29018 8.41227C7.19356 8.10326 7.36533 7.77463 7.67435 7.67754C7.98453 7.58022 8.31269 7.75293 8.40931 8.06148Z" fill="#5DD7FF"/>
</svg>
