<svg width="15" height="15" viewBox="0 0 15 15" fill="none" xmlns="http://www.w3.org/2000/svg">
<circle cx="7.5" cy="7.5" r="7.5" fill="#5DD7FF"/>
<path d="M7.10392 9.34798L6.93592 3.59998H8.57992L8.39992 9.34798H7.10392ZM7.78792 12.084C7.49992 12.084 7.26392 11.996 7.07992 11.82C6.90392 11.644 6.81592 11.432 6.81592 11.184C6.81592 10.928 6.90392 10.712 7.07992 10.536C7.26392 10.36 7.49992 10.272 7.78792 10.272C8.05992 10.272 8.28392 10.36 8.45992 10.536C8.64392 10.712 8.73592 10.928 8.73592 11.184C8.73592 11.432 8.64392 11.644 8.45992 11.82C8.28392 11.996 8.05992 12.084 7.78792 12.084Z" fill="white"/>
</svg>
